<svg width="130" height="40" viewBox="0 0 130 40" fill="none" xmlns="http://www.w3.org/2000/svg">
<rect x="0.5" y="0.5" width="129" height="39" rx="5.5" fill="black"/>
<path fill-rule="evenodd" clip-rule="evenodd" d="M25.769 20.5806C25.7908 18.8841 26.6802 17.3171 28.1256 16.4285C27.2096 15.1204 25.7305 14.3208 24.1344 14.2709C22.4552 14.0946 20.8272 15.2757 19.9715 15.2757C19.0992 15.2757 17.7817 14.2884 16.363 14.3176C14.4963 14.3779 12.7982 15.4134 11.8901 17.0454C9.95607 20.3938 11.3987 25.3149 13.2513 28.0215C14.1782 29.3469 15.2615 30.8273 16.6789 30.7748C18.066 30.7173 18.584 29.8903 20.2583 29.8903C21.9171 29.8903 22.4031 30.7748 23.8493 30.7414C25.3377 30.7173 26.2754 29.4102 27.1698 28.0723C27.8358 27.1279 28.3483 26.0842 28.6882 24.9798C26.9205 24.2321 25.7711 22.5 25.769 20.5806Z" fill="white"/>
<path fill-rule="evenodd" clip-rule="evenodd" d="M23.0376 12.4906C23.8491 11.5164 24.2489 10.2642 24.1521 9C22.9123 9.13022 21.767 9.72278 20.9445 10.6596C20.1323 11.5839 19.7209 12.7932 19.8008 14.021C21.0573 14.0339 22.2502 13.4699 23.0376 12.4906Z" fill="white"/>
<path d="M40.684 8.074H43.348C43.84 8.074 44.266 8.158 44.626 8.326C44.986 8.494 45.28 8.725 45.508 9.019C45.736 9.307 45.904 9.646 46.012 10.036C46.126 10.426 46.183 10.843 46.183 11.287C46.183 11.731 46.126 12.148 46.012 12.538C45.904 12.928 45.736 13.27 45.508 13.564C45.28 13.852 44.986 14.08 44.626 14.248C44.266 14.416 43.84 14.5 43.348 14.5H40.684V8.074ZM41.809 13.582H42.916C43.354 13.582 43.711 13.525 43.987 13.411C44.269 13.291 44.488 13.129 44.644 12.925C44.806 12.715 44.914 12.472 44.968 12.196C45.028 11.914 45.058 11.611 45.058 11.287C45.058 10.963 45.028 10.663 44.968 10.387C44.914 10.105 44.806 9.862 44.644 9.658C44.488 9.448 44.269 9.286 43.987 9.172C43.711 9.052 43.354 8.992 42.916 8.992H41.809V13.582ZM49.3481 14.626C48.9761 14.626 48.6431 14.566 48.3491 14.446C48.0611 14.32 47.8151 14.149 47.6111 13.933C47.4131 13.717 47.2601 13.459 47.1521 13.159C47.0501 12.859 46.9991 12.529 46.9991 12.169C46.9991 11.815 47.0501 11.488 47.1521 11.188C47.2601 10.888 47.4131 10.63 47.6111 10.414C47.8151 10.198 48.0611 10.03 48.3491 9.91C48.6431 9.784 48.9761 9.721 49.3481 9.721C49.7201 9.721 50.0501 9.784 50.3381 9.91C50.6321 10.03 50.8781 10.198 51.0761 10.414C51.2801 10.63 51.4331 10.888 51.5351 11.188C51.6431 11.488 51.6971 11.815 51.6971 12.169C51.6971 12.529 51.6431 12.859 51.5351 13.159C51.4331 13.459 51.2801 13.717 51.0761 13.933C50.8781 14.149 50.6321 14.32 50.3381 14.446C50.0501 14.566 49.7201 14.626 49.3481 14.626ZM49.3481 13.816C49.5761 13.816 49.7741 13.768 49.9421 13.672C50.1101 13.576 50.2481 13.45 50.3561 13.294C50.4641 13.138 50.5421 12.964 50.5901 12.772C50.6441 12.574 50.6711 12.373 50.6711 12.169C50.6711 11.971 50.6441 11.773 50.5901 11.575C50.5421 11.377 50.4641 11.203 50.3561 11.053C50.2481 10.897 50.1101 10.771 49.9421 10.675C49.7741 10.579 49.5761 10.531 49.3481 10.531C49.1201 10.531 48.9221 10.579 48.7541 10.675C48.5861 10.771 48.4481 10.897 48.3401 11.053C48.2321 11.203 48.1511 11.377 48.0971 11.575C48.0491 11.773 48.0251 11.971 48.0251 12.169C48.0251 12.373 48.0491 12.574 48.0971 12.772C48.1511 12.964 48.2321 13.138 48.3401 13.294C48.4481 13.45 48.5861 13.576 48.7541 13.672C48.9221 13.768 49.1201 13.816 49.3481 13.816ZM52.3071 9.847H53.3961L54.3051 13.321H54.3231L55.1961 9.847H56.2311L57.0681 13.321H57.0861L58.0311 9.847H59.0751L57.6171 14.5H56.5641L55.7001 11.044H55.6821L54.8271 14.5H53.7471L52.3071 9.847ZM59.915 9.847H60.887V10.531L60.905 10.549C61.061 10.291 61.265 10.09 61.517 9.946C61.769 9.796 62.048 9.721 62.354 9.721C62.864 9.721 63.266 9.853 63.56 10.117C63.854 10.381 64.001 10.777 64.001 11.305V14.5H62.975V11.575C62.963 11.209 62.885 10.945 62.741 10.783C62.597 10.615 62.372 10.531 62.066 10.531C61.892 10.531 61.736 10.564 61.598 10.63C61.46 10.69 61.343 10.777 61.247 10.891C61.151 10.999 61.076 11.128 61.022 11.278C60.968 11.428 60.941 11.587 60.941 11.755V14.5H59.915V9.847ZM65.2899 8.074H66.3159V14.5H65.2899V8.074ZM69.7468 14.626C69.3748 14.626 69.0418 14.566 68.7478 14.446C68.4598 14.32 68.2138 14.149 68.0098 13.933C67.8118 13.717 67.6588 13.459 67.5508 13.159C67.4488 12.859 67.3978 12.529 67.3978 12.169C67.3978 11.815 67.4488 11.488 67.5508 11.188C67.6588 10.888 67.8118 10.63 68.0098 10.414C68.2138 10.198 68.4598 10.03 68.7478 9.91C69.0418 9.784 69.3748 9.721 69.7468 9.721C70.1188 9.721 70.4488 9.784 70.7368 9.91C71.0308 10.03 71.2768 10.198 71.4748 10.414C71.6788 10.63 71.8318 10.888 71.9338 11.188C72.0418 11.488 72.0958 11.815 72.0958 12.169C72.0958 12.529 72.0418 12.859 71.9338 13.159C71.8318 13.459 71.6788 13.717 71.4748 13.933C71.2768 14.149 71.0308 14.32 70.7368 14.446C70.4488 14.566 70.1188 14.626 69.7468 14.626ZM69.7468 13.816C69.9748 13.816 70.1728 13.768 70.3408 13.672C70.5088 13.576 70.6468 13.45 70.7548 13.294C70.8628 13.138 70.9408 12.964 70.9888 12.772C71.0428 12.574 71.0698 12.373 71.0698 12.169C71.0698 11.971 71.0428 11.773 70.9888 11.575C70.9408 11.377 70.8628 11.203 70.7548 11.053C70.6468 10.897 70.5088 10.771 70.3408 10.675C70.1728 10.579 69.9748 10.531 69.7468 10.531C69.5188 10.531 69.3208 10.579 69.1528 10.675C68.9848 10.771 68.8468 10.897 68.7388 11.053C68.6308 11.203 68.5498 11.377 68.4958 11.575C68.4478 11.773 68.4238 11.971 68.4238 12.169C68.4238 12.373 68.4478 12.574 68.4958 12.772C68.5498 12.964 68.6308 13.138 68.7388 13.294C68.8468 13.45 68.9848 13.576 69.1528 13.672C69.3208 13.768 69.5188 13.816 69.7468 13.816ZM77.0258 13.465C77.0258 13.591 77.0408 13.681 77.0708 13.735C77.1068 13.789 77.1728 13.816 77.2688 13.816C77.2988 13.816 77.3348 13.816 77.3768 13.816C77.4188 13.816 77.4668 13.81 77.5208 13.798V14.509C77.4848 14.521 77.4368 14.533 77.3768 14.545C77.3228 14.563 77.2658 14.578 77.2058 14.59C77.1458 14.602 77.0858 14.611 77.0258 14.617C76.9658 14.623 76.9148 14.626 76.8728 14.626C76.6628 14.626 76.4888 14.584 76.3508 14.5C76.2128 14.416 76.1228 14.269 76.0808 14.059C75.8768 14.257 75.6248 14.401 75.3248 14.491C75.0308 14.581 74.7458 14.626 74.4698 14.626C74.2598 14.626 74.0588 14.596 73.8668 14.536C73.6748 14.482 73.5038 14.401 73.3538 14.293C73.2098 14.179 73.0928 14.038 73.0028 13.87C72.9188 13.696 72.8768 13.495 72.8768 13.267C72.8768 12.979 72.9278 12.745 73.0298 12.565C73.1378 12.385 73.2758 12.244 73.4438 12.142C73.6178 12.04 73.8098 11.968 74.0198 11.926C74.2358 11.878 74.4518 11.842 74.6678 11.818C74.8538 11.782 75.0308 11.758 75.1988 11.746C75.3668 11.728 75.5138 11.701 75.6398 11.665C75.7718 11.629 75.8738 11.575 75.9458 11.503C76.0238 11.425 76.0628 11.311 76.0628 11.161C76.0628 11.029 76.0298 10.921 75.9638 10.837C75.9038 10.753 75.8258 10.69 75.7298 10.648C75.6398 10.6 75.5378 10.57 75.4238 10.558C75.3098 10.54 75.2018 10.531 75.0998 10.531C74.8118 10.531 74.5748 10.591 74.3888 10.711C74.2028 10.831 74.0978 11.017 74.0738 11.269H73.0478C73.0658 10.969 73.1378 10.72 73.2638 10.522C73.3898 10.324 73.5488 10.165 73.7408 10.045C73.9388 9.925 74.1608 9.841 74.4068 9.793C74.6528 9.745 74.9048 9.721 75.1628 9.721C75.3908 9.721 75.6158 9.745 75.8378 9.793C76.0598 9.841 76.2578 9.919 76.4318 10.027C76.6118 10.135 76.7558 10.276 76.8638 10.45C76.9718 10.618 77.0258 10.825 77.0258 11.071V13.465ZM75.9998 12.169C75.8438 12.271 75.6518 12.334 75.4238 12.358C75.1958 12.376 74.9678 12.406 74.7398 12.448C74.6318 12.466 74.5268 12.493 74.4248 12.529C74.3228 12.559 74.2328 12.604 74.1548 12.664C74.0768 12.718 74.0138 12.793 73.9658 12.889C73.9238 12.979 73.9028 13.09 73.9028 13.222C73.9028 13.336 73.9358 13.432 74.0018 13.51C74.0678 13.588 74.1458 13.651 74.2358 13.699C74.3318 13.741 74.4338 13.771 74.5418 13.789C74.6558 13.807 74.7578 13.816 74.8478 13.816C74.9618 13.816 75.0848 13.801 75.2168 13.771C75.3488 13.741 75.4718 13.69 75.5858 13.618C75.7058 13.546 75.8048 13.456 75.8828 13.348C75.9608 13.234 75.9998 13.096 75.9998 12.934V12.169ZM82.6928 14.5H81.7208V13.87H81.7028C81.5648 14.14 81.3638 14.335 81.0998 14.455C80.8358 14.569 80.5568 14.626 80.2628 14.626C79.8968 14.626 79.5758 14.563 79.2998 14.437C79.0298 14.305 78.8048 14.128 78.6248 13.906C78.4448 13.684 78.3098 13.423 78.2198 13.123C78.1298 12.817 78.0848 12.49 78.0848 12.142C78.0848 11.722 78.1418 11.359 78.2558 11.053C78.3698 10.747 78.5198 10.495 78.7058 10.297C78.8978 10.099 79.1138 9.955 79.3538 9.865C79.5998 9.769 79.8488 9.721 80.1008 9.721C80.2448 9.721 80.3918 9.736 80.5418 9.766C80.6918 9.79 80.8358 9.832 80.9738 9.892C81.1118 9.952 81.2378 10.03 81.3518 10.126C81.4718 10.216 81.5708 10.324 81.6488 10.45H81.6668V8.074H82.6928V14.5ZM79.1108 12.223C79.1108 12.421 79.1348 12.616 79.1828 12.808C79.2368 13 79.3148 13.171 79.4168 13.321C79.5248 13.471 79.6598 13.591 79.8218 13.681C79.9838 13.771 80.1758 13.816 80.3978 13.816C80.6258 13.816 80.8208 13.768 80.9828 13.672C81.1508 13.576 81.2858 13.45 81.3878 13.294C81.4958 13.138 81.5738 12.964 81.6218 12.772C81.6758 12.574 81.7028 12.373 81.7028 12.169C81.7028 11.653 81.5858 11.251 81.3518 10.963C81.1238 10.675 80.8118 10.531 80.4158 10.531C80.1758 10.531 79.9718 10.582 79.8038 10.684C79.6418 10.78 79.5068 10.909 79.3988 11.071C79.2968 11.227 79.2218 11.407 79.1738 11.611C79.1318 11.809 79.1108 12.013 79.1108 12.223ZM88.8096 14.626C88.4376 14.626 88.1046 14.566 87.8106 14.446C87.5226 14.32 87.2766 14.149 87.0726 13.933C86.8746 13.717 86.7216 13.459 86.6136 13.159C86.5116 12.859 86.4606 12.529 86.4606 12.169C86.4606 11.815 86.5116 11.488 86.6136 11.188C86.7216 10.888 86.8746 10.63 87.0726 10.414C87.2766 10.198 87.5226 10.03 87.8106 9.91C88.1046 9.784 88.4376 9.721 88.8096 9.721C89.1816 9.721 89.5116 9.784 89.7996 9.91C90.0936 10.03 90.3396 10.198 90.5376 10.414C90.7416 10.63 90.8946 10.888 90.9966 11.188C91.1046 11.488 91.1586 11.815 91.1586 12.169C91.1586 12.529 91.1046 12.859 90.9966 13.159C90.8946 13.459 90.7416 13.717 90.5376 13.933C90.3396 14.149 90.0936 14.32 89.7996 14.446C89.5116 14.566 89.1816 14.626 88.8096 14.626ZM88.8096 13.816C89.0376 13.816 89.2356 13.768 89.4036 13.672C89.5716 13.576 89.7096 13.45 89.8176 13.294C89.9256 13.138 90.0036 12.964 90.0516 12.772C90.1056 12.574 90.1326 12.373 90.1326 12.169C90.1326 11.971 90.1056 11.773 90.0516 11.575C90.0036 11.377 89.9256 11.203 89.8176 11.053C89.7096 10.897 89.5716 10.771 89.4036 10.675C89.2356 10.579 89.0376 10.531 88.8096 10.531C88.5816 10.531 88.3836 10.579 88.2156 10.675C88.0476 10.771 87.9096 10.897 87.8016 11.053C87.6936 11.203 87.6126 11.377 87.5586 11.575C87.5106 11.773 87.4866 11.971 87.4866 12.169C87.4866 12.373 87.5106 12.574 87.5586 12.772C87.6126 12.964 87.6936 13.138 87.8016 13.294C87.9096 13.45 88.0476 13.576 88.2156 13.672C88.3836 13.768 88.5816 13.816 88.8096 13.816ZM92.1916 9.847H93.1636V10.531L93.1816 10.549C93.3376 10.291 93.5416 10.09 93.7936 9.946C94.0456 9.796 94.3246 9.721 94.6306 9.721C95.1406 9.721 95.5426 9.853 95.8366 10.117C96.1306 10.381 96.2776 10.777 96.2776 11.305V14.5H95.2516V11.575C95.2396 11.209 95.1616 10.945 95.0176 10.783C94.8736 10.615 94.6486 10.531 94.3426 10.531C94.1686 10.531 94.0126 10.564 93.8746 10.63C93.7366 10.69 93.6196 10.777 93.5236 10.891C93.4276 10.999 93.3526 11.128 93.2986 11.278C93.2446 11.428 93.2176 11.587 93.2176 11.755V14.5H92.1916V9.847ZM99.7564 9.847H100.53V8.452H101.556V9.847H102.483V10.612H101.556V13.096C101.556 13.204 101.559 13.297 101.565 13.375C101.577 13.453 101.598 13.519 101.628 13.573C101.664 13.627 101.715 13.669 101.781 13.699C101.847 13.723 101.937 13.735 102.051 13.735C102.123 13.735 102.195 13.735 102.267 13.735C102.339 13.729 102.411 13.717 102.483 13.699V14.491C102.369 14.503 102.258 14.515 102.15 14.527C102.042 14.539 101.931 14.545 101.817 14.545C101.547 14.545 101.328 14.521 101.16 14.473C100.998 14.419 100.869 14.344 100.773 14.248C100.683 14.146 100.62 14.02 100.584 13.87C100.554 13.72 100.536 13.549 100.53 13.357V10.612H99.7564V9.847ZM103.401 8.074H104.427V10.459H104.445C104.571 10.249 104.757 10.075 105.003 9.937C105.255 9.793 105.534 9.721 105.84 9.721C106.35 9.721 106.752 9.853 107.046 10.117C107.34 10.381 107.487 10.777 107.487 11.305V14.5H106.461V11.575C106.449 11.209 106.371 10.945 106.227 10.783C106.083 10.615 105.858 10.531 105.552 10.531C105.378 10.531 105.222 10.564 105.084 10.63C104.946 10.69 104.829 10.777 104.733 10.891C104.637 10.999 104.562 11.128 104.508 11.278C104.454 11.428 104.427 11.587 104.427 11.755V14.5H103.401V8.074ZM111.944 11.764C111.932 11.602 111.896 11.446 111.836 11.296C111.782 11.146 111.704 11.017 111.602 10.909C111.506 10.795 111.386 10.705 111.242 10.639C111.104 10.567 110.948 10.531 110.774 10.531C110.594 10.531 110.429 10.564 110.279 10.63C110.135 10.69 110.009 10.777 109.901 10.891C109.799 10.999 109.715 11.128 109.649 11.278C109.589 11.428 109.556 11.59 109.55 11.764H111.944ZM109.55 12.439C109.55 12.619 109.574 12.793 109.622 12.961C109.676 13.129 109.754 13.276 109.856 13.402C109.958 13.528 110.087 13.63 110.243 13.708C110.399 13.78 110.585 13.816 110.801 13.816C111.101 13.816 111.341 13.753 111.521 13.627C111.707 13.495 111.845 13.3 111.935 13.042H112.907C112.853 13.294 112.76 13.519 112.628 13.717C112.496 13.915 112.337 14.083 112.151 14.221C111.965 14.353 111.755 14.452 111.521 14.518C111.293 14.59 111.053 14.626 110.801 14.626C110.435 14.626 110.111 14.566 109.829 14.446C109.547 14.326 109.307 14.158 109.109 13.942C108.917 13.726 108.77 13.468 108.668 13.168C108.572 12.868 108.524 12.538 108.524 12.178C108.524 11.848 108.575 11.536 108.677 11.242C108.785 10.942 108.935 10.681 109.127 10.459C109.325 10.231 109.562 10.051 109.838 9.919C110.114 9.787 110.426 9.721 110.774 9.721C111.14 9.721 111.467 9.799 111.755 9.955C112.049 10.105 112.292 10.306 112.484 10.558C112.676 10.81 112.814 11.101 112.898 11.431C112.988 11.755 113.012 12.091 112.97 12.439H109.55Z" fill="white"/>
<path d="M56.9199 21.9766C59.2177 21.9766 60.7324 23.793 60.7324 26.5987C60.7324 29.4122 59.2266 31.2198 56.9541 31.2198C55.7795 31.2812 54.6731 30.666 54.1055 29.6358H54.0625V34.1202H52.2041V22.0713H54.0029V23.5772H54.0371C54.6299 22.5534 55.7375 21.9385 56.9199 21.9766ZM66.8847 21.9766C69.1826 21.9766 70.6973 23.793 70.6973 26.5987C70.6973 29.4122 69.1914 31.2198 66.9189 31.2198C65.7443 31.2812 64.6379 30.666 64.0703 29.6358H64.0273V34.1202H62.1689V22.0713H63.9677V23.5772H64.0019C64.5947 22.5534 65.7023 21.9385 66.8847 21.9766ZM80.2266 18.5C82.8506 18.5 84.6494 19.9717 84.71 22.1143H82.834C82.7217 20.875 81.6972 20.127 80.2002 20.127C78.7031 20.127 77.6787 20.8838 77.6787 21.9854C77.6787 22.8633 78.333 23.3799 79.9336 23.7754L81.3017 24.1113C83.8496 24.7138 84.9082 25.7373 84.9082 27.5537C84.9082 29.8769 83.0576 31.332 80.1142 31.332C77.3603 31.332 75.501 29.9111 75.3808 27.665L77.2832 27.6651C77.4209 28.8965 78.6172 29.7051 80.2519 29.7051C81.8184 29.7051 82.9453 28.8965 82.9453 27.7861C82.9453 26.8223 82.2656 26.2451 80.6562 25.8496L79.0469 25.4619C76.7666 24.9111 75.708 23.8447 75.708 22.1143C75.708 19.9717 77.5752 18.5 80.2266 18.5ZM95.9317 21.96C98.5567 21.96 100.227 23.75 100.227 26.5987C100.227 29.4551 98.5655 31.2374 95.9317 31.2374C93.2988 31.2374 91.6377 29.4551 91.6377 26.5987C91.6377 23.7501 93.3155 21.96 95.9317 21.96ZM110.98 21.96C113.485 21.96 115.061 23.6807 115.061 26.4258V27.0625H108.666V27.1749C108.606 27.8489 108.839 28.5161 109.305 29.0067C109.771 29.4974 110.425 29.7642 111.102 29.7393C112.003 29.8238 112.854 29.3059 113.192 28.4659L114.957 28.4659C114.707 30.1094 113.106 31.2374 111.059 31.2374C108.425 31.2374 106.79 29.4727 106.79 26.6416C106.79 23.8018 108.434 21.96 110.98 21.96ZM88.9189 19.9288V22.0713H90.6406V23.543H88.9189V28.5342C88.9189 29.3096 89.2637 29.6709 90.0205 29.6709C90.2249 29.6674 90.429 29.653 90.6318 29.6279V31.0908C90.2916 31.1544 89.9457 31.1832 89.5996 31.1768C87.7666 31.1768 87.0518 30.4883 87.0518 28.7324V23.543H85.7354V22.0713H87.0517V19.9288H88.9189ZM46.5664 18.7071L51.0498 31.1251H49.0107L47.875 27.7686H43.1416L42.0049 31.1251H40L44.4834 18.7071H46.5664ZM105.752 21.9766C105.966 21.9759 106.18 21.9991 106.389 22.0459V23.7842C106.118 23.7016 105.836 23.6637 105.554 23.6719C105.007 23.6498 104.479 23.8675 104.106 24.268C103.734 24.6684 103.555 25.2116 103.617 25.7549V31.125H101.759V22.0713H103.531V23.6123H103.574C103.821 22.6203 104.73 21.9376 105.752 21.9766ZM95.9317 23.4913C94.4258 23.4913 93.5313 24.6534 93.5313 26.5987C93.5313 28.5606 94.4258 29.7051 95.9317 29.7051C97.4375 29.7051 98.333 28.5606 98.333 26.5987C98.333 24.6446 97.4375 23.4913 95.9317 23.4913ZM56.4297 23.5606C55.0098 23.5606 54.0547 24.7911 54.0547 26.5987C54.0547 28.4229 55.0098 29.6446 56.4297 29.6446C57.875 29.6446 58.8223 28.4483 58.8223 26.5987C58.8223 24.7657 57.875 23.5606 56.4297 23.5606ZM66.3945 23.5606C64.9746 23.5606 64.0195 24.7911 64.0195 26.5987C64.0195 28.4229 64.9746 29.6446 66.3945 29.6446C67.8398 29.6446 68.7871 28.4483 68.7871 26.5987C68.7871 24.7657 67.8398 23.5606 66.3945 23.5606ZM45.5342 20.7725H45.4825L43.6318 26.2198H47.3838L45.5342 20.7725ZM110.98 23.4659C110.369 23.4622 109.782 23.7029 109.349 24.1344C108.916 24.5659 108.673 25.1525 108.675 25.7637H113.201C113.235 25.1581 113.014 24.5658 112.593 24.1296C112.171 23.6934 111.587 23.4528 110.98 23.4659Z" fill="white"/>
<rect x="0.5" y="0.5" width="129" height="39" rx="5.5" stroke="#A6A6A6"/>
</svg>
