<svg width="1366" height="621" viewBox="0 0 1366 621" fill="none" xmlns="http://www.w3.org/2000/svg">
<g opacity="0.1">
<path fill-rule="evenodd" clip-rule="evenodd" d="M1365.95 31.8947C1362.77 29.6132 1359.5 27.3316 1356.42 25.007C1355.38 24.2321 1354.19 23.8878 1352.15 23.8662C1326.16 23.5864 1300.12 23.242 1274.13 22.9407C1273.66 22.9407 1273.18 23.0053 1272.28 23.0698C1272.71 23.5649 1272.9 24.0384 1273.42 24.4259C1286.65 34.2409 1299.98 44.0343 1313.21 53.8494C1314.54 54.8395 1316.11 55.2699 1318.67 55.2915C1334.41 55.4206 1350.21 55.6359 1365.95 55.8081V57.573C1364.05 57.4654 1362.11 57.3147 1360.21 57.2717C1345.79 57.078 1331.33 56.8843 1316.91 56.7551C1314.4 56.7336 1312.74 56.4538 1311.36 55.4206C1296.47 44.3572 1281.48 33.3368 1266.54 22.2734C1266.31 22.0797 1266.16 21.8645 1265.79 21.4986C1266.73 21.4125 1267.59 21.2618 1268.44 21.2833C1296.66 21.6062 1324.88 21.9721 1353.15 22.295C1355.94 22.3165 1357.56 22.8115 1358.93 23.8878C1361.11 25.5666 1363.63 27.1809 1366 28.8168V31.9163L1365.95 31.8947Z" fill="#042CB0" fill-opacity="0.3"/>
<path fill-rule="evenodd" clip-rule="evenodd" d="M1365.95 323.704C1363.86 323.811 1361.78 323.983 1359.69 324.005C1346.22 324.199 1332.75 324.392 1319.24 324.5C1316.39 324.522 1314.54 324.844 1312.93 326.028C1299.93 335.736 1286.8 345.4 1273.71 355.064C1273.04 355.538 1272.57 356.054 1271.67 356.851C1273.66 356.851 1275.03 356.851 1276.46 356.851C1301.17 356.549 1325.83 356.227 1350.54 355.968C1353.67 355.925 1355.61 355.495 1357.13 354.225C1359.88 351.965 1362.96 349.812 1365.95 347.617V350.716C1363.53 352.46 1361.02 354.16 1358.79 355.947C1357.41 357.066 1355.61 357.389 1352.91 357.432C1327.58 357.712 1302.21 358.035 1276.88 358.336C1273.33 358.379 1269.77 358.336 1265.79 358.336C1266.26 357.841 1266.59 357.389 1267.11 357.001C1281.72 346.196 1296.42 335.391 1310.94 324.565C1312.45 323.424 1314.21 322.95 1317.15 322.929C1333.42 322.778 1349.64 322.563 1365.9 322.391V323.725L1365.95 323.704Z" fill="#042CB0" fill-opacity="0.3"/>
<path fill-rule="evenodd" clip-rule="evenodd" d="M1365.95 83.2564C1363.86 83.364 1361.78 83.5362 1359.69 83.5577C1346.22 83.7514 1332.75 83.9451 1319.24 84.0528C1316.39 84.0743 1314.54 84.4187 1312.93 85.581C1299.93 95.2884 1286.8 104.953 1273.71 114.617C1273.04 115.091 1272.57 115.629 1271.67 116.404C1273.66 116.404 1275.03 116.404 1276.46 116.404C1301.17 116.102 1325.83 115.758 1350.54 115.5C1353.67 115.478 1355.61 115.026 1357.13 113.756C1359.88 111.496 1362.96 109.344 1365.95 107.148V110.248C1363.53 111.991 1361.02 113.692 1358.79 115.478C1357.41 116.597 1355.61 116.92 1352.91 116.963C1328.53 117.221 1304.15 117.544 1279.82 117.846C1275.32 117.91 1270.77 117.846 1265.79 117.846C1266.35 117.329 1266.73 116.813 1267.4 116.339C1281.86 105.663 1296.38 94.987 1310.7 84.2895C1312.45 82.9981 1314.4 82.4815 1317.67 82.46C1333.75 82.3308 1349.83 82.1156 1365.9 81.9219V83.2564H1365.95Z" fill="#042CB0" fill-opacity="0.3"/>
<path fill-rule="evenodd" clip-rule="evenodd" d="M1365.95 512.764C1362.77 510.483 1359.5 508.201 1356.42 505.876C1355.38 505.102 1354.19 504.757 1352.15 504.736C1326.16 504.456 1300.12 504.111 1274.13 503.81C1273.66 503.81 1273.18 503.875 1272.28 503.961C1272.66 504.456 1272.9 504.929 1273.42 505.317C1286.65 515.132 1299.98 524.925 1313.21 534.74C1314.54 535.73 1316.11 536.161 1318.67 536.182C1334.41 536.312 1350.21 536.527 1365.95 536.699V538.464C1364.06 538.356 1362.11 538.206 1360.21 538.163C1345.8 537.969 1331.33 537.775 1316.91 537.646C1314.4 537.625 1312.74 537.345 1311.36 536.312C1296.47 525.248 1281.48 514.228 1266.54 503.164C1266.31 502.971 1266.17 502.755 1265.74 502.346C1267.07 502.282 1268.25 502.153 1269.39 502.174C1297.14 502.497 1324.88 502.863 1352.63 503.164C1355.8 503.207 1357.65 503.724 1359.17 504.951C1361.21 506.587 1363.68 508.115 1365.95 509.686V512.786V512.764Z" fill="#042CB0" fill-opacity="0.3"/>
<path fill-rule="evenodd" clip-rule="evenodd" d="M1365.95 564.131C1363.86 564.239 1361.78 564.411 1359.69 564.433C1346.22 564.626 1332.75 564.82 1319.24 564.928C1316.39 564.949 1314.54 565.272 1312.93 566.456C1299.93 576.163 1286.8 585.828 1273.71 595.492C1273.04 595.966 1272.57 596.504 1271.67 597.257C1273.99 597.257 1275.7 597.257 1277.4 597.257C1301.59 596.956 1325.83 596.633 1350.02 596.375C1353.48 596.331 1355.71 595.858 1357.37 594.437C1359.98 592.242 1363.06 590.154 1365.9 588.023V591.123C1363.49 592.866 1360.97 594.566 1358.74 596.353C1357.37 597.472 1355.56 597.795 1352.86 597.838C1328.48 598.096 1304.11 598.419 1279.78 598.721C1275.22 598.764 1270.72 598.721 1265.79 598.721C1266.21 598.269 1266.54 597.817 1267.07 597.408C1281.67 586.603 1296.38 575.797 1310.89 564.971C1312.45 563.83 1314.16 563.357 1317.1 563.335C1333.37 563.184 1349.59 562.969 1365.86 562.797V564.131H1365.95Z" fill="#042CB0" fill-opacity="0.3"/>
<path fill-rule="evenodd" clip-rule="evenodd" d="M1365.95 272.324C1362.77 270.043 1359.5 267.761 1356.42 265.437C1355.38 264.662 1354.19 264.317 1352.15 264.296C1326.16 263.995 1300.12 263.672 1274.13 263.37C1273.66 263.37 1273.18 263.435 1272.28 263.5C1272.66 263.995 1272.9 264.468 1273.42 264.856C1286.7 274.671 1299.98 284.464 1313.21 294.279C1314.54 295.269 1316.11 295.7 1318.67 295.721C1334.41 295.85 1350.21 296.066 1365.95 296.238V298.003C1363.87 297.895 1361.78 297.723 1359.69 297.701C1345.42 297.508 1331.14 297.314 1316.86 297.185C1314.35 297.163 1312.69 296.883 1311.32 295.85C1296.42 284.787 1281.44 273.745 1266.5 262.703C1266.26 262.509 1266.12 262.294 1265.74 261.928C1266.69 261.842 1267.54 261.691 1268.39 261.713C1296.61 262.057 1324.83 262.402 1353.1 262.725C1355.9 262.746 1357.51 263.241 1358.89 264.317C1361.07 265.996 1363.58 267.611 1365.95 269.246V272.346V272.324Z" fill="#042CB0" fill-opacity="0.3"/>
<path fill-rule="evenodd" clip-rule="evenodd" d="M1365.95 392.775C1363.01 390.579 1359.88 388.427 1357.13 386.167C1355.62 384.897 1353.62 384.466 1350.54 384.445C1335.74 384.337 1320.99 384.122 1306.2 383.95C1295.95 383.821 1285.76 383.67 1275.51 383.562C1274.47 383.562 1273.38 383.605 1271.72 383.649C1272.71 384.488 1273.42 385.134 1274.23 385.736C1287.08 395.228 1299.94 404.699 1312.69 414.191C1314.31 415.397 1316.06 415.913 1319.24 415.935C1331.76 415.999 1344.23 416.193 1356.75 416.387C1359.84 416.43 1362.87 416.602 1365.95 416.71V418.044C1349.69 417.85 1333.47 417.657 1317.2 417.484C1314.59 417.463 1312.74 417.183 1311.22 416.042C1296.43 405.022 1281.49 394.045 1266.59 383.046C1266.26 382.809 1266.03 382.551 1265.5 382.099C1266.78 382.034 1267.69 381.927 1268.59 381.948C1296.71 382.292 1324.79 382.68 1352.91 382.981C1355.9 383.024 1357.66 383.519 1359.03 384.639C1361.16 386.361 1363.58 387.996 1365.91 389.675V392.775H1365.95Z" fill="#042CB0" fill-opacity="0.3"/>
<path fill-rule="evenodd" clip-rule="evenodd" d="M1365.96 444.124C1350.35 444.297 1334.75 444.49 1319.14 444.641C1316.49 444.662 1314.69 444.942 1313.17 446.083C1299.98 455.92 1286.66 465.713 1273.38 475.507C1272.9 475.872 1272.52 476.26 1271.91 476.841C1273.28 476.927 1274.18 477.013 1275.08 477.013C1300.6 476.712 1326.12 476.368 1351.63 476.088C1354.05 476.066 1355.47 475.679 1356.66 474.753C1359.6 472.493 1362.83 470.276 1365.91 468.038V471.137C1363.73 472.644 1361.21 474.086 1359.41 475.7C1357.66 477.228 1355.24 477.68 1351.63 477.702C1337.5 477.788 1323.41 478.025 1309.28 478.197C1296.47 478.348 1283.62 478.52 1270.82 478.649C1269.25 478.649 1267.69 478.649 1265.46 478.649C1266.41 477.831 1266.97 477.25 1267.73 476.712C1282.1 466.101 1296.52 455.511 1310.75 444.878C1312.36 443.672 1314.12 443.177 1317.29 443.156C1331.57 443.07 1345.85 442.854 1360.12 442.661C1362.02 442.639 1363.96 442.467 1365.86 442.359V444.124H1365.96Z" fill="#042CB0" fill-opacity="0.3"/>
<path fill-rule="evenodd" clip-rule="evenodd" d="M1365.95 152.346C1363.01 150.15 1359.88 147.998 1357.13 145.738C1355.61 144.468 1353.62 144.037 1350.54 144.016C1335.6 143.908 1320.66 143.693 1305.72 143.521C1295.67 143.392 1285.56 143.262 1275.51 143.133C1274.42 143.133 1273.38 143.176 1271.76 143.219C1272.66 143.994 1273.23 144.575 1273.99 145.114C1286.89 154.67 1299.89 164.184 1312.69 173.762C1314.31 174.968 1316.06 175.484 1319.24 175.506C1331.76 175.57 1344.23 175.764 1356.75 175.936C1359.84 175.979 1362.87 176.151 1365.95 176.259V177.593C1349.69 177.4 1333.47 177.206 1317.2 177.034C1314.59 177.012 1312.74 176.732 1311.22 175.592C1296.43 164.571 1281.49 153.594 1266.59 142.595C1266.26 142.358 1266.02 142.1 1265.6 141.648C1266.97 141.584 1268.06 141.497 1269.11 141.519C1296.9 141.863 1324.64 142.251 1352.44 142.531C1355.85 142.574 1357.75 143.112 1359.31 144.403C1361.31 146.061 1363.72 147.632 1365.95 149.246V152.346Z" fill="#042CB0" fill-opacity="0.3"/>
<path fill-rule="evenodd" clip-rule="evenodd" d="M1365.96 203.706C1350.35 203.878 1334.75 204.072 1319.14 204.223C1316.49 204.244 1314.69 204.546 1313.17 205.665C1299.98 215.502 1286.66 225.295 1273.38 235.088C1272.9 235.454 1272.52 235.842 1271.91 236.423C1273.28 236.509 1274.18 236.595 1275.08 236.595C1300.6 236.294 1326.12 235.949 1351.63 235.67C1354.05 235.648 1355.47 235.261 1356.66 234.335C1359.6 232.075 1362.83 229.858 1365.91 227.641V230.741C1363.73 232.247 1361.21 233.689 1359.41 235.304C1357.66 236.832 1355.24 237.284 1351.63 237.305C1337.5 237.413 1323.41 237.628 1309.28 237.801C1296.47 237.951 1283.62 238.123 1270.82 238.274C1269.25 238.274 1267.69 238.274 1265.46 238.274C1266.41 237.456 1267.02 236.875 1267.73 236.337C1282.1 225.726 1296.47 215.136 1310.75 204.503C1312.36 203.276 1314.12 202.802 1317.29 202.781C1331.57 202.695 1345.85 202.479 1360.12 202.286C1362.02 202.264 1363.96 202.092 1365.86 201.984V203.749L1365.96 203.706Z" fill="#042CB0" fill-opacity="0.3"/>
<path fill-rule="evenodd" clip-rule="evenodd" d="M962.018 0.0215241C958.319 3.2071 954.62 6.39267 950.778 9.70739C963.726 20.5771 976.768 31.4898 990.285 42.833C1003.8 31.4898 1016.84 20.5771 1029.79 9.70739C1025.95 6.4142 1022.25 3.2071 1018.55 0.0215241H1022.44C1026.14 3.2071 1029.79 6.4142 1033.59 9.70739C1019.36 21.6318 1005.08 33.5992 990.759 45.6312C987.961 44.3828 951.442 14.2059 947.031 9.57824C950.683 6.39267 954.383 3.2071 958.034 0H961.923L962.018 0.0215241Z" fill="#042CB0" fill-opacity="0.3"/>
<path fill-rule="evenodd" clip-rule="evenodd" d="M42.9714 0.0215241C39.2721 3.2071 35.5727 6.39267 31.7311 9.70739C44.6788 20.5771 57.7213 31.4898 71.238 42.833C84.7548 31.4898 97.7973 20.5771 110.745 9.70739C106.903 6.4142 103.204 3.2071 99.5047 0.0215241H103.394C107.046 3.2071 110.745 6.4142 114.539 9.70739C100.311 21.6318 86.0353 33.5992 71.7123 45.6312C68.9141 44.3828 32.3951 14.2059 27.9844 9.57824C31.6363 6.39267 35.3356 3.2071 38.9875 0H42.8765L42.9714 0.0215241Z" fill="#042CB0" fill-opacity="0.3"/>
<path fill-rule="evenodd" clip-rule="evenodd" d="M502.495 0.0215241C498.796 3.2071 495.096 6.39267 491.255 9.70739C504.202 20.5771 517.245 31.4898 530.761 42.833C544.278 31.4898 557.321 20.5771 570.268 9.70739C566.427 6.39267 562.727 3.2071 559.028 0.0215241H562.917C566.569 3.2071 570.268 6.4142 574.063 9.70739C559.834 21.6318 545.559 33.5992 531.236 45.6312C528.438 44.3828 491.919 14.1844 487.508 9.57824C491.16 6.39267 494.859 3.2071 498.511 0H502.4L502.495 0.0215241Z" fill="#042CB0" fill-opacity="0.3"/>
<path fill-rule="evenodd" clip-rule="evenodd" d="M0.0474273 176.238H19.208C18.8286 175.808 18.6389 175.399 18.2121 175.054C13.0899 171.245 7.96778 167.435 2.75078 163.646C2.13423 163.194 0.995973 162.893 0.0474273 162.506V159.406C0.853691 159.751 1.84966 160.052 2.37136 160.482C9.86487 165.993 17.311 171.503 24.757 177.013C24.9942 177.185 25.1365 177.4 25.2787 177.616C21.9588 178.154 8.06264 178.132 0 177.573V176.238H0.0474273Z" fill="#042CB0" fill-opacity="0.3"/>
<path fill-rule="evenodd" clip-rule="evenodd" d="M0.0474273 416.683H19.208C18.8286 416.253 18.6389 415.844 18.2121 415.5C13.0899 411.69 7.96778 407.88 2.75078 404.092C2.13423 403.64 0.995973 403.338 0.0474273 402.951V399.852C0.853691 400.196 1.84966 400.497 2.37136 400.928C9.86487 406.438 17.311 411.948 24.757 417.458C24.9942 417.631 25.1365 417.846 25.2787 418.061C21.9588 418.599 8.01521 418.578 0 418.018V416.683H0.0474273Z" fill="#042CB0" fill-opacity="0.3"/>
<path fill-rule="evenodd" clip-rule="evenodd" d="M0.046875 337.408C0.853139 337.106 1.94397 336.87 2.46567 336.461C7.9198 332.479 13.2791 328.497 18.6858 324.493C18.9229 324.321 18.9704 324.106 19.3023 323.675H0.046875V322.341C8.39407 322.147 16.7413 321.975 25.8473 321.781C24.9936 322.621 24.6616 323.073 24.0925 323.482C17.0733 328.69 10.054 333.878 2.93994 339.065C2.1811 339.603 1.04285 340.012 0.0943023 340.507V337.408H0.046875Z" fill="#042CB0" fill-opacity="0.3"/>
<path fill-rule="evenodd" clip-rule="evenodd" d="M0.046875 577.861C0.853139 577.56 1.94397 577.323 2.46567 576.914C7.9198 572.932 13.2791 568.928 18.6858 564.946C18.9229 564.774 18.9704 564.559 19.3023 564.128H0.046875V562.794C8.39407 562.6 16.7413 562.428 25.7999 562.234C25.041 563.009 24.8039 563.418 24.3296 563.763C17.1207 569.079 9.91175 574.417 2.65537 579.712C1.99139 580.186 0.900566 580.551 0.046875 580.96V577.861H0.046875Z" fill="#042CB0" fill-opacity="0.3"/>
<path fill-rule="evenodd" clip-rule="evenodd" d="M0.046875 96.984C0.853139 96.6827 1.94397 96.4244 2.46567 96.0369C7.9198 92.055 13.2791 88.0515 18.6858 84.0695C18.9229 83.8973 18.9704 83.6821 19.3023 83.2516H0.046875V81.9171C8.39408 81.7449 16.7413 81.5512 25.9422 81.3359C24.8513 82.3045 24.2822 82.8857 23.5708 83.4238C16.7887 88.4389 10.0066 93.454 3.17708 98.4476C2.37081 99.0503 1.09028 99.5238 0.046875 100.062V96.9625L0.046875 96.984Z" fill="#042CB0" fill-opacity="0.3"/>
<path fill-rule="evenodd" clip-rule="evenodd" d="M0.0474273 536.686C6.30783 536.859 12.5682 537.052 19.3503 537.246C19.0183 536.686 18.9709 536.321 18.5915 536.062C13.2322 532.059 7.8255 528.055 2.37136 524.073C1.80224 523.643 0.853691 523.342 0.0474273 522.976V520.328C0.711409 520.5 1.61253 520.608 1.94452 520.888C9.86487 526.678 17.7378 532.468 25.8479 538.473C21.1051 539.011 16.8367 538.516 12.6157 538.559C8.39463 538.602 4.22103 538.516 0 538.495V536.73L0.0474273 536.686Z" fill="#042CB0" fill-opacity="0.3"/>
<path fill-rule="evenodd" clip-rule="evenodd" d="M0.0474273 217.435C0.806264 217.069 1.80224 216.768 2.37136 216.359C7.8255 212.377 13.2322 208.373 18.5915 204.37C18.9235 204.133 19.0658 203.853 19.4926 203.38C12.7105 203.294 6.35525 203.294 0 203.702V201.938H25.5159C25.0416 202.411 24.6622 202.863 24.1405 203.272C17.2161 208.395 10.2917 213.517 3.27248 218.619C2.46622 219.178 1.13825 219.609 0.0474273 220.082V217.435Z" fill="#042CB0" fill-opacity="0.3"/>
<path fill-rule="evenodd" clip-rule="evenodd" d="M0.046875 55.8174C6.30728 55.9896 12.5677 56.1833 19.3498 56.3555C19.0178 55.7958 18.9704 55.4299 18.5909 55.1716C13.2317 51.1682 7.82495 47.1647 2.37081 43.1827C1.80168 42.7737 0.853139 42.4509 0.046875 42.085V39.4375C0.710857 39.6097 1.61198 39.7173 1.94397 39.9756C9.86432 45.7656 17.7372 51.5556 26.1319 57.7545C16.8836 57.8406 8.4415 57.5178 0.046875 57.5824V55.8174Z" fill="#042CB0" fill-opacity="0.3"/>
<path fill-rule="evenodd" clip-rule="evenodd" d="M0.046875 457.857C0.805711 457.491 1.80168 457.19 2.37081 456.781C7.82495 452.799 13.2317 448.795 18.5909 444.792C18.9229 444.555 19.0652 444.275 19.4921 443.801C12.71 443.715 6.3547 443.715 0.046875 444.124V442.359H25.5153C25.0885 442.768 24.8039 443.156 24.3771 443.5C17.3578 448.687 10.386 453.875 3.27193 459.041C2.46567 459.6 1.1377 460.031 0.046875 460.504V457.857H0.046875Z" fill="#042CB0" fill-opacity="0.3"/>
<path fill-rule="evenodd" clip-rule="evenodd" d="M0.046875 296.233C6.30727 296.406 12.5677 296.599 19.3498 296.793C19.0178 296.233 18.9704 295.867 18.5909 295.609C13.2317 291.606 7.82495 287.602 2.37081 283.62C1.80168 283.19 0.853139 282.888 0.046875 282.522V279.875C0.853139 280.176 1.94397 280.413 2.51309 280.801C10.1015 286.354 17.595 291.907 25.1359 297.482C25.2782 297.589 25.3256 297.762 25.5627 298.214C16.9784 298.321 8.53636 297.977 0.0943023 298.041V296.276L0.046875 296.233Z" fill="#042CB0" fill-opacity="0.3"/>
<path fill-rule="evenodd" clip-rule="evenodd" d="M760.538 106.093C759.447 105.254 758.641 104.694 757.977 104.113C744.887 93.1574 731.892 82.2016 718.755 71.2674C717.522 70.2127 717.095 69.3948 718.518 68.2325C732.082 56.9753 745.504 45.6967 758.926 34.418C759.305 34.0952 759.779 33.7938 760.443 33.3203C761.297 33.9015 762.056 34.3319 762.625 34.8055C775.857 45.8904 789.042 56.9753 802.274 68.0603C803.507 69.0934 804.029 69.9113 802.606 71.0952C789.042 82.3523 775.62 93.6309 762.151 104.91C761.771 105.232 761.297 105.512 760.443 106.115L760.538 106.093ZM760.728 36.4413C759.874 37.0225 759.258 37.3669 758.831 37.7543C746.69 47.9352 734.548 58.1376 722.312 68.297C721.031 69.3517 721.221 70.1266 722.407 71.1382C734.548 81.233 746.595 91.3709 758.641 101.487C759.115 101.896 759.827 102.262 760.586 102.757C761.155 102.37 761.582 102.155 761.914 101.896C774.245 91.5862 786.481 81.2546 798.859 70.966C800.187 69.8898 799.666 69.0934 798.48 68.1248C790.133 61.1941 781.881 54.2418 773.628 47.311C769.455 43.8026 765.281 40.3157 760.681 36.4628L760.728 36.4413Z" fill="#042CB0" fill-opacity="0.3"/>
<path fill-rule="evenodd" clip-rule="evenodd" d="M1220.16 33.2344C1221.2 34.0523 1221.96 34.6119 1222.62 35.1931C1235.62 46.0843 1248.57 56.9755 1261.66 67.8452C1263.27 69.1797 1263.27 70.1483 1261.66 71.4828C1248.57 82.3525 1235.62 93.2437 1222.62 104.135C1221.96 104.716 1221.15 105.254 1220.16 106.029C1219.26 105.405 1218.45 104.974 1217.88 104.501C1204.65 93.4159 1191.46 82.3309 1178.23 71.246C1177.09 70.2989 1176.48 69.5025 1177.81 68.4048C1191.51 57.0185 1205.08 45.6108 1218.69 34.203C1218.97 33.9447 1219.4 33.7294 1220.16 33.2559V33.2344ZM1220.06 102.886C1221.15 102.026 1221.96 101.487 1222.62 100.906C1234.29 91.1128 1245.91 81.2978 1257.77 71.5473C1259.48 70.1267 1259.33 69.0936 1257.67 67.716C1245.86 57.9441 1234.24 48.1506 1222.53 38.3356C1221.87 37.7544 1221.06 37.2163 1220.06 36.4845C1219.12 37.2163 1218.31 37.7544 1217.64 38.3356C1205.88 48.1936 1194.22 58.0732 1182.31 67.9098C1180.65 69.2658 1180.89 70.2559 1182.45 71.5473C1194.22 81.3193 1205.88 91.1343 1217.55 100.928C1218.26 101.509 1219.02 102.069 1220.11 102.93L1220.06 102.886Z" fill="#042CB0" fill-opacity="0.3"/>
<path fill-rule="evenodd" clip-rule="evenodd" d="M301.118 514.172C301.972 514.818 302.683 515.313 303.3 515.808C316.437 526.828 329.527 537.848 342.759 548.847C344.134 550.01 344.324 550.892 342.901 552.076C329.527 563.204 316.247 574.353 302.968 585.503C302.493 585.89 301.972 586.256 301.213 586.816C300.407 586.321 299.648 585.976 299.173 585.567C285.799 574.353 272.424 563.139 259.002 551.947C257.912 551.043 257.485 550.311 258.718 549.299C272.472 537.848 286.131 526.355 299.837 514.904C300.075 514.71 300.407 514.559 301.118 514.172ZM301.023 583.716C301.972 583.006 302.778 582.468 303.442 581.908C315.204 572.05 326.918 562.171 338.775 552.334C340.388 551 340.293 550.01 338.728 548.697C326.871 538.86 315.156 528.98 303.394 519.122C302.73 518.563 301.924 518.046 300.976 517.357C299.98 518.132 299.221 518.692 298.509 519.252C286.795 529.045 275.223 538.86 263.366 548.632C261.658 550.031 261.753 551.086 263.366 552.463C275.175 562.235 286.795 572.05 298.509 581.844C299.173 582.425 299.98 582.963 300.976 583.716H301.023Z" fill="#042CB0" fill-opacity="0.3"/>
<path fill-rule="evenodd" clip-rule="evenodd" d="M1220.11 514.078C1221.11 514.831 1221.82 515.305 1222.44 515.822C1235.58 526.842 1248.71 537.862 1261.85 548.883C1263.08 549.916 1263.65 550.734 1262.23 551.918C1248.67 563.153 1235.24 574.453 1221.77 585.732C1221.39 586.055 1220.92 586.335 1220.21 586.851C1219.31 586.27 1218.55 585.84 1217.98 585.366C1204.75 574.281 1191.56 563.196 1178.28 552.111C1177.05 551.078 1176.62 550.239 1178 549.076C1191.56 537.819 1204.98 526.541 1218.45 515.262C1218.83 514.939 1219.31 514.638 1220.07 514.078H1220.11ZM1220.11 517.285C1219.07 518.103 1218.26 518.641 1217.6 519.222C1205.89 529.016 1194.27 538.831 1182.46 548.603C1180.75 550.002 1180.8 551.035 1182.46 552.434C1194.27 562.206 1205.89 572 1217.6 581.815C1218.26 582.396 1219.07 582.934 1220.07 583.687C1221.06 582.977 1221.82 582.439 1222.49 581.879C1234.25 572.021 1245.96 562.142 1257.82 552.305C1259.43 550.97 1259.38 549.98 1257.82 548.667C1245.87 538.766 1234.1 528.822 1222.25 518.9C1221.73 518.448 1221.11 518.017 1220.11 517.264V517.285Z" fill="#042CB0" fill-opacity="0.3"/>
<path fill-rule="evenodd" clip-rule="evenodd" d="M300.973 106.088C299.787 105.119 298.934 104.495 298.175 103.871C285.322 93.1087 272.564 82.3466 259.616 71.606C257.956 70.2285 257.814 69.1738 259.522 67.7747C272.564 56.9911 285.417 46.143 298.317 35.3163C299.076 34.6706 299.93 34.0464 300.926 33.25C301.827 33.8742 302.586 34.3262 303.155 34.8213C316.387 45.9062 329.572 56.9911 342.851 68.0761C344.132 69.1308 344.416 69.9702 343.041 71.111C329.572 82.3035 316.245 93.5176 302.87 104.732C302.396 105.119 301.874 105.464 300.973 106.088ZM300.973 102.816C301.969 102.106 302.728 101.568 303.392 101.008C315.154 91.15 326.868 81.2704 338.725 71.4338C340.338 70.0993 340.29 69.1092 338.725 67.7963C326.773 57.8951 315.011 47.951 303.155 38.0284C302.586 37.5333 301.827 37.0813 300.926 36.4786C299.977 37.2104 299.171 37.7701 298.507 38.3512C286.84 48.1447 275.22 57.9597 263.363 67.7317C261.703 69.1308 261.703 70.1639 263.363 71.563C275.173 81.3349 286.792 91.1284 298.507 100.943C299.171 101.525 299.977 102.063 300.973 102.838V102.816Z" fill="#042CB0" fill-opacity="0.3"/>
<path fill-rule="evenodd" clip-rule="evenodd" d="M1220.11 273.641C1221.16 274.48 1221.92 275.04 1222.63 275.621C1235.62 286.512 1248.57 297.403 1261.66 308.273C1263.23 309.586 1263.32 310.576 1261.66 311.911C1248.57 322.78 1235.62 333.671 1222.63 344.563C1221.96 345.144 1221.16 345.682 1220.16 346.457C1219.26 345.854 1218.45 345.424 1217.88 344.95C1204.65 333.865 1191.47 322.78 1178.19 311.695C1176.96 310.641 1176.58 309.801 1177.95 308.66C1191.52 297.403 1204.94 286.125 1218.36 274.846C1218.74 274.523 1219.21 274.222 1220.02 273.662L1220.11 273.641ZM1220.11 276.869C1219.07 277.687 1218.26 278.247 1217.6 278.828C1205.89 288.621 1194.27 298.436 1182.46 308.187C1180.8 309.586 1180.8 310.619 1182.46 312.018C1194.22 321.704 1205.74 331.454 1217.36 341.183C1218.12 341.829 1218.98 342.453 1220.02 343.293C1221.02 342.561 1221.82 342.023 1222.49 341.463C1234.25 331.605 1245.96 321.726 1257.82 311.889C1259.43 310.555 1259.38 309.564 1257.82 308.251C1245.96 298.415 1234.25 288.535 1222.49 278.677C1221.87 278.161 1221.16 277.666 1220.11 276.848V276.869Z" fill="#042CB0" fill-opacity="0.3"/>
<path fill-rule="evenodd" clip-rule="evenodd" d="M760.541 514.039C761.584 514.857 762.438 515.481 763.197 516.105C776.192 526.997 789.139 537.888 802.182 548.758C803.51 549.855 804.079 550.738 802.561 551.986C789.092 563.179 775.765 574.393 762.343 585.607C761.868 585.994 761.299 586.339 760.446 586.92C759.45 586.123 758.596 585.542 757.885 584.918C744.984 574.091 732.132 563.265 719.089 552.46C717.382 551.061 717.382 550.027 719.089 548.628C732.132 537.845 744.984 526.997 757.885 516.17C758.643 515.524 759.497 514.9 760.588 514.039H760.541ZM760.541 517.289C759.497 518.107 758.786 518.602 758.169 519.119C746.407 528.977 734.693 538.856 722.836 548.693C721.223 550.006 721.223 550.996 722.836 552.331C734.693 562.167 746.407 572.047 758.169 581.905C758.833 582.464 759.639 582.981 760.588 583.713C761.584 582.959 762.343 582.4 763.054 581.819C774.721 572.025 786.341 562.21 798.198 552.438C799.905 551.039 799.905 549.984 798.198 548.607C786.388 538.835 774.769 529.041 763.054 519.226C762.39 518.645 761.584 518.107 760.541 517.289Z" fill="#042CB0" fill-opacity="0.3"/>
<path fill-rule="evenodd" clip-rule="evenodd" d="M990.33 406.507C989.192 405.625 988.338 405.022 987.579 404.398C974.726 393.636 961.968 382.852 949.021 372.112C947.361 370.713 947.313 369.679 949.021 368.28C961.968 357.54 974.726 346.756 987.579 335.994C988.338 335.37 989.192 334.746 990.282 333.906C991.136 334.487 991.8 334.875 992.322 335.305C1005.55 346.39 1018.79 357.475 1032.02 368.56C1033.25 369.615 1033.73 370.454 1032.3 371.617C1018.74 382.874 1005.32 394.174 991.895 405.452C991.61 405.711 991.183 405.948 990.377 406.507H990.33ZM990.33 403.257C991.326 402.547 991.99 402.116 992.511 401.686C1004.42 391.699 1016.32 381.69 1028.32 371.746C1029.79 370.54 1029.5 369.615 1028.13 368.496C1016.23 358.594 1004.42 348.65 992.559 338.749C991.99 338.276 991.183 337.845 990.282 337.221C989.476 337.781 988.907 338.125 988.48 338.491C976.481 348.543 964.529 358.616 952.435 368.625C950.965 369.83 951.25 370.734 952.625 371.875C964.435 381.711 976.196 391.591 987.958 401.449C988.575 401.966 989.286 402.439 990.377 403.257H990.33Z" fill="#042CB0" fill-opacity="0.3"/>
<path fill-rule="evenodd" clip-rule="evenodd" d="M760.541 273.656C761.49 274.388 762.249 274.883 762.818 275.378C775.955 286.399 789.093 297.419 802.23 308.439C803.463 309.451 804.08 310.269 802.657 311.474C788.998 322.774 775.528 334.139 762.012 345.482C761.727 345.741 761.3 345.956 760.684 346.365C759.925 345.891 759.166 345.547 758.692 345.138C745.317 333.924 731.943 322.71 718.521 311.517C717.288 310.484 717.24 309.709 718.521 308.676C732.038 297.419 745.459 286.14 758.929 274.862C759.308 274.539 759.783 274.237 760.589 273.656H760.541ZM760.541 343.308C761.585 342.49 762.391 341.952 763.055 341.371C774.722 331.578 786.342 321.763 798.199 312.012C799.906 310.613 799.859 309.559 798.199 308.181C786.389 298.409 774.77 288.616 763.055 278.822C762.391 278.241 761.585 277.703 760.589 276.949C759.64 277.66 758.834 278.198 758.17 278.757C746.408 288.616 734.693 298.495 722.837 308.332C721.224 309.666 721.272 310.656 722.837 311.969C734.693 321.806 746.408 331.685 758.17 341.543C758.787 342.06 759.498 342.555 760.541 343.373V343.308Z" fill="#042CB0" fill-opacity="0.3"/>
<path fill-rule="evenodd" clip-rule="evenodd" d="M71.2378 93.4121C72.3286 94.2085 72.9926 94.7036 73.6091 95.1987C86.6991 106.154 99.6941 117.132 112.879 128.066C114.397 129.336 114.349 130.261 112.879 131.51C99.789 142.38 86.8413 153.292 73.8463 164.184C73.1823 164.743 72.376 165.281 71.3326 166.035C70.3367 165.303 69.5304 164.786 68.8664 164.227C55.8713 153.335 42.9237 142.423 29.8338 131.553C28.3635 130.326 28.079 129.401 29.6441 128.109C42.9237 117.11 56.0136 106.068 69.151 95.048C69.6727 94.596 70.2892 94.1655 71.2852 93.3906L71.2378 93.4121ZM71.2378 162.806C72.044 162.268 72.4709 162.053 72.8029 161.794C85.0391 151.549 97.2279 141.282 109.512 131.058C110.697 130.089 110.555 129.336 109.417 128.41C97.2279 118.251 85.134 108.049 72.9451 97.8676C72.5183 97.5233 71.8069 97.2434 71.0481 96.8345C70.1469 97.5017 69.4355 97.9968 68.8664 98.5134C57.1993 108.307 45.5796 118.122 33.7702 127.872C32.0628 129.271 32.1577 130.326 33.8651 131.704C45.5796 141.411 57.1044 151.14 68.7241 160.869C69.3881 161.428 70.1944 161.967 71.2852 162.784L71.2378 162.806Z" fill="#042CB0" fill-opacity="0.3"/>
<path fill-rule="evenodd" clip-rule="evenodd" d="M530.8 93.4375C531.938 94.32 532.792 94.9227 533.551 95.5469C546.403 106.309 559.161 117.093 572.109 127.833C573.769 129.211 573.816 130.265 572.109 131.664C559.161 142.405 546.403 153.189 533.551 163.951C532.792 164.575 531.938 165.199 530.847 166.038C529.994 165.457 529.33 165.07 528.808 164.639C515.576 153.554 502.344 142.469 489.111 131.385C487.878 130.351 487.404 129.49 488.827 128.328C502.391 117.071 515.813 105.771 529.235 94.4922C529.519 94.2339 529.946 93.9971 530.752 93.4375H530.8ZM530.8 162.767C531.559 162.293 531.891 162.121 532.128 161.927C544.412 151.617 556.695 141.286 569.074 130.997C570.259 130.007 569.975 129.254 568.884 128.35C556.79 118.233 544.744 108.117 532.65 98.0006C532.175 97.5917 531.369 97.2903 530.61 96.8383C529.994 97.2688 529.567 97.5056 529.282 97.7638C517.141 107.945 505.047 118.147 492.763 128.307C491.246 129.577 491.91 130.459 493.19 131.557C504.905 141.329 516.572 151.144 528.286 160.937C528.95 161.497 529.756 162.013 530.8 162.788V162.767Z" fill="#042CB0" fill-opacity="0.3"/>
<path fill-rule="evenodd" clip-rule="evenodd" d="M990.23 166.064C989.234 165.289 988.523 164.815 987.953 164.299C974.863 153.343 961.821 142.366 948.684 131.431C947.308 130.291 947.118 129.365 948.589 128.181C961.916 117.118 975.101 106.011 988.333 94.9265C988.855 94.496 989.471 94.1086 990.372 93.4844C991.368 94.2377 992.174 94.7543 992.838 95.3139C1005.83 106.205 1018.83 117.096 1031.82 127.988C1033.01 128.978 1033.91 129.796 1032.44 131.044C1018.78 142.366 1005.31 153.73 991.795 165.074C991.51 165.332 991.084 165.547 990.277 166.042L990.23 166.064ZM990.325 96.756C989.376 97.4233 988.665 97.8753 988.048 98.3704C976.191 108.293 964.429 118.237 952.478 128.117C950.913 129.408 951.245 130.355 952.667 131.561C964.429 141.333 976.049 151.126 987.764 160.92C988.428 161.479 989.234 161.996 990.277 162.749C991.226 162.082 991.985 161.63 992.554 161.135C1004.41 151.212 1016.17 141.268 1028.17 131.388C1029.74 130.097 1029.4 129.15 1027.93 127.945C1016.17 118.173 1004.55 108.358 992.838 98.5856C992.174 98.026 991.368 97.5094 990.325 96.756Z" fill="#042CB0" fill-opacity="0.3"/>
<path fill-rule="evenodd" clip-rule="evenodd" d="M714.918 478.655C712.784 478.655 711.172 478.655 709.559 478.655C682.62 478.333 655.634 477.967 628.696 477.687C625.233 477.644 623.147 477.127 621.344 475.771C607.259 465.246 592.983 454.785 578.802 444.303C578.043 443.743 577.332 443.162 576.336 442.387C577.664 442.28 578.66 442.129 579.703 442.151C607.78 442.495 635.905 442.861 663.982 443.205C666.258 443.227 667.918 443.442 669.199 444.411C684.186 455.539 699.267 466.645 714.254 477.773C714.492 477.945 714.539 478.16 714.918 478.655ZM582.454 443.743C583.023 444.324 583.308 444.647 583.687 444.949C597.204 454.936 610.768 464.902 624.19 474.91C625.376 475.793 626.799 476.051 628.933 476.073C654.259 476.374 679.585 476.697 704.959 476.998C706.05 476.998 707.14 476.933 708.658 476.869C708.041 476.245 707.662 475.793 707.093 475.362C693.908 465.633 680.676 455.904 667.586 446.154C665.973 444.949 664.029 444.669 661.231 444.626C636.711 444.346 612.191 444.023 587.671 443.722C586.106 443.722 584.541 443.722 582.454 443.722V443.743Z" fill="#042CB0" fill-opacity="0.3"/>
<path fill-rule="evenodd" clip-rule="evenodd" d="M715.25 238.228C713.069 238.228 711.693 238.228 710.271 238.228C683 237.905 655.729 237.539 628.411 237.238C625.423 237.216 623.384 236.872 621.676 235.602C607.164 224.775 592.461 213.991 577.854 203.186C577.379 202.82 577 202.433 576.336 201.83C577.664 201.766 578.565 201.68 579.466 201.68C607.543 202.024 635.667 202.412 663.744 202.734C666.495 202.756 668.108 203.165 669.578 204.241C684.186 215.132 698.935 225.98 713.638 236.85C714.065 237.151 714.397 237.496 715.25 238.206V238.228ZM708.705 236.42C707.994 235.774 707.567 235.322 706.998 234.913C693.813 225.184 680.581 215.455 667.491 205.705C666.021 204.585 664.266 204.263 661.61 204.22C636.616 203.94 611.574 203.617 586.58 203.316C585.347 203.316 584.161 203.316 582.501 203.316C582.976 203.854 583.165 204.133 583.497 204.37C597.109 214.422 610.721 224.452 624.285 234.526C625.471 235.43 626.988 235.623 629.075 235.645C654.401 235.946 679.727 236.269 705.101 236.57C706.144 236.57 707.235 236.484 708.8 236.42H708.705Z" fill="#042CB0" fill-opacity="0.3"/>
<path fill-rule="evenodd" clip-rule="evenodd" d="M300.972 273.662C301.92 274.329 302.631 274.781 303.248 275.298C316.48 286.383 329.665 297.468 342.945 308.531C344.273 309.607 344.367 310.447 343.039 311.566C329.665 322.694 316.385 333.865 303.106 344.993C302.584 345.445 301.92 345.833 300.972 346.478C299.976 345.682 299.122 345.079 298.363 344.455C285.463 333.628 272.61 322.802 259.568 311.997C257.86 310.598 257.908 309.564 259.568 308.165C272.61 297.382 285.463 286.534 298.363 275.707C299.122 275.061 299.976 274.437 300.972 273.641V273.662ZM301.066 343.207C301.73 342.776 302.205 342.475 302.584 342.174C314.82 331.928 327.009 321.661 339.34 311.437C340.621 310.361 340.289 309.586 339.103 308.596C326.962 298.479 314.915 288.363 302.821 278.247C302.347 277.838 301.635 277.493 300.877 276.998C300.213 277.493 299.738 277.795 299.359 278.118C287.218 288.299 275.124 298.501 262.84 308.66C261.465 309.823 261.797 310.641 263.077 311.695C275.029 321.683 286.933 331.67 298.837 341.657C299.406 342.152 300.213 342.604 301.019 343.207H301.066Z" fill="#042CB0" fill-opacity="0.3"/>
<path fill-rule="evenodd" clip-rule="evenodd" d="M1174.77 478.627C1171.6 478.627 1169.23 478.649 1166.81 478.627C1140.82 478.305 1114.83 477.939 1088.84 477.702C1084.71 477.659 1082.48 477.013 1080.39 475.442C1066.5 465.046 1052.41 454.693 1038.37 444.339C1037.57 443.737 1036.81 443.091 1035.77 442.252C1037.38 442.209 1038.42 442.122 1039.51 442.144C1067.26 442.488 1095.05 442.876 1122.84 443.177C1125.69 443.199 1127.54 443.522 1129.15 444.705C1143.66 455.532 1158.37 466.316 1172.97 477.121C1173.49 477.487 1173.92 477.874 1174.82 478.627H1174.77ZM1041.6 443.78C1056.44 454.736 1070.81 465.326 1085.04 475.851C1096.9 476.561 1163.77 477.185 1168.04 476.604C1167.33 476.023 1166.71 475.442 1165.95 474.882C1153.2 465.455 1140.39 456.07 1127.77 446.6C1125.83 445.157 1123.7 444.641 1120 444.598C1097.09 444.383 1074.18 444.06 1051.32 443.78C1048.43 443.737 1045.54 443.78 1041.65 443.78H1041.6Z" fill="#042CB0" fill-opacity="0.3"/>
<path fill-rule="evenodd" clip-rule="evenodd" d="M255.68 478.606C251.554 478.606 248.187 478.649 244.819 478.606C219.825 478.305 194.831 477.939 169.789 477.702C165.663 477.659 163.434 476.992 161.347 475.442C147.451 465.046 133.365 454.693 119.327 444.339C118.52 443.737 117.809 443.091 116.766 442.252C118.378 442.209 119.469 442.122 120.512 442.144C148.447 442.488 176.382 442.876 204.316 443.177C207.162 443.199 208.68 443.672 210.103 444.727C224.568 455.489 239.128 466.208 253.688 476.949C254.257 477.379 254.779 477.831 255.728 478.606H255.68ZM122.552 443.801C137.444 454.779 151.767 465.39 166.043 475.894C180.792 476.669 244.962 477.228 248.993 476.583C248.376 476.066 247.807 475.549 247.143 475.054C234.29 465.562 221.39 456.113 208.68 446.578C206.735 445.114 204.506 444.641 200.902 444.619C177.994 444.404 155.087 444.081 132.227 443.801C129.334 443.758 126.488 443.801 122.599 443.801H122.552Z" fill="#042CB0" fill-opacity="0.3"/>
<path fill-rule="evenodd" clip-rule="evenodd" d="M71.2804 333.844C72.4187 334.726 73.2249 335.286 73.8889 335.846C86.7891 346.672 99.6894 357.52 112.684 368.325C114.25 369.617 114.487 370.607 112.827 371.963C99.6894 382.833 86.7891 393.745 73.7941 404.637C73.1301 405.196 72.3238 405.713 71.2804 406.466C70.237 405.713 69.4782 405.196 68.7668 404.637C55.7717 393.745 42.824 382.833 29.7341 371.963C28.2639 370.736 28.0742 369.789 29.5918 368.519C42.8715 357.52 55.9614 346.478 69.0988 335.458C69.6205 335.006 70.237 334.597 71.233 333.844H71.2804ZM71.3278 337.115C70.3319 337.826 69.6679 338.235 69.1462 338.665C57.2419 348.652 45.3377 358.661 33.3386 368.605C31.9158 369.811 32.1055 370.715 33.4809 371.855C45.3851 381.757 57.1945 391.701 69.0513 401.602C69.6205 402.097 70.3793 402.527 71.3278 403.173C72.229 402.527 72.8455 402.14 73.3672 401.688C85.2715 391.701 97.1757 381.692 109.175 371.748C110.598 370.542 110.408 369.638 109.033 368.498C97.2706 358.726 85.6509 348.911 73.9363 339.117C73.2249 338.536 72.4661 337.976 71.3278 337.072V337.115Z" fill="#042CB0" fill-opacity="0.3"/>
<path fill-rule="evenodd" clip-rule="evenodd" d="M530.852 333.922C531.943 334.74 532.797 335.342 533.556 335.967C546.408 346.729 559.166 357.512 572.114 368.253C573.774 369.63 573.916 370.685 572.209 372.084C559.261 382.825 546.456 393.608 533.65 404.37C532.892 404.995 532.038 405.619 530.947 406.458C529.999 405.812 529.24 405.382 528.671 404.908C515.486 393.888 502.396 382.868 489.164 371.847C487.931 370.814 487.409 369.975 488.832 368.791C502.301 357.598 515.628 346.363 529.003 335.149C529.429 334.783 530.046 334.46 530.852 333.922ZM530.805 337.194C529.999 337.753 529.429 338.076 528.955 338.442C516.861 348.558 504.862 358.696 492.673 368.769C491.25 369.932 491.725 370.793 492.958 371.826C504.862 381.749 516.671 391.671 528.528 401.594C529.097 402.089 529.856 402.541 530.805 403.208C531.611 402.67 532.18 402.326 532.654 401.96C544.748 391.843 556.748 381.705 568.936 371.632C570.359 370.47 569.885 369.609 568.652 368.576C556.748 358.653 544.938 348.73 533.081 338.808C532.512 338.313 531.753 337.861 530.852 337.194H530.805Z" fill="#042CB0" fill-opacity="0.3"/>
<path fill-rule="evenodd" clip-rule="evenodd" d="M346.505 502.181C349.588 502.181 352.007 502.16 354.378 502.181C380.178 502.504 406.026 502.849 431.827 503.107C435.953 503.15 438.514 503.688 440.743 505.389C454.592 515.806 468.725 526.138 482.716 536.491C483.522 537.094 484.234 537.739 485.23 538.557C483.57 538.6 482.526 538.686 481.436 538.665C453.643 538.32 425.898 537.955 398.153 537.61C395.592 537.589 393.695 537.416 392.13 536.254C377.333 525.234 362.441 514.256 347.548 503.279C347.216 503.042 347.027 502.763 346.41 502.181H346.505ZM352.908 503.946C353.761 504.678 354.331 505.259 355.042 505.797C367.942 515.354 380.937 524.868 393.743 534.446C395.403 535.673 397.205 536.147 400.335 536.168C424.855 536.426 449.375 536.749 473.895 537.051C475.46 537.051 477.025 537.051 479.159 537.051C478.59 536.491 478.305 536.147 477.926 535.867C464.409 525.88 450.845 515.892 437.376 505.905C436.19 505.023 434.815 504.743 432.633 504.721C407.165 504.441 381.649 504.097 356.133 503.796C355.232 503.796 354.283 503.86 352.813 503.925L352.908 503.946Z" fill="#042CB0" fill-opacity="0.3"/>
<path fill-rule="evenodd" clip-rule="evenodd" d="M116.481 57.7079C121.651 53.8981 126.298 50.4328 130.994 46.9889C141.38 39.3263 151.767 31.6852 162.059 24.0011C163.576 22.8818 165.236 22.3222 168.177 22.3007C196.254 21.9994 224.378 21.6334 252.455 21.2891C253.261 21.2891 254.068 21.3321 255.348 21.3536C254.684 21.9778 254.305 22.4944 253.641 22.9679C239.128 33.7085 224.52 44.4275 210.055 55.1896C208.49 56.3519 206.735 56.7393 203.795 56.7824C176.002 57.1052 148.257 57.4711 120.512 57.8371C119.422 57.8371 118.378 57.7725 116.434 57.7294L116.481 57.7079ZM249.325 23.0325C247.523 22.9895 246.527 22.9464 245.578 22.9464C220.252 23.2478 194.926 23.5921 169.552 23.8504C166.849 23.872 165.521 24.3885 164.24 25.3356C151.103 35.086 137.918 44.815 124.733 54.5439C124.117 54.9959 123.69 55.534 123.026 56.2012C124.401 56.2012 125.208 56.2012 126.014 56.2012C151.53 55.8784 176.998 55.5555 202.514 55.2972C205.407 55.2757 206.83 54.6515 208.205 53.6399C221.153 44.0186 234.195 34.4188 247.191 24.819C247.855 24.3455 248.376 23.8289 249.325 23.0325Z" fill="#042CB0" fill-opacity="0.3"/>
<path fill-rule="evenodd" clip-rule="evenodd" d="M346.359 21.3125C348.588 21.3125 350.154 21.3125 351.719 21.3125C378.657 21.6354 405.643 22.0013 432.582 22.2811C436.187 22.3241 438.416 22.7977 440.36 24.2828C454.494 34.8727 468.864 45.398 483.14 55.9448C483.804 56.4399 484.373 56.9349 485.274 57.6668C483.804 57.7529 482.76 57.8605 481.717 57.839C453.972 57.4946 426.179 57.1071 398.435 56.8058C395.352 56.7628 393.455 56.3753 391.795 55.1484C377.472 44.451 362.959 33.775 348.494 23.099C347.83 22.6255 347.308 22.1089 346.359 21.334V21.3125ZM352.857 23.099C353.568 23.7447 353.995 24.1967 354.517 24.6057C367.702 34.3346 380.934 44.0635 394.024 53.8139C395.494 54.9117 397.201 55.2776 399.905 55.2991C425.089 55.5789 450.225 55.9018 475.409 56.2031C476.452 56.2031 477.496 56.2031 479.061 56.2031C478.587 55.665 478.397 55.3852 478.112 55.1484C464.501 45.0967 450.889 35.0664 437.325 24.9931C436.139 24.1106 434.669 23.8739 432.535 23.8523C407.209 23.551 381.882 23.2281 356.556 22.9268C355.513 22.9268 354.422 23.0129 352.857 23.0775V23.099Z" fill="#042CB0" fill-opacity="0.3"/>
<path fill-rule="evenodd" clip-rule="evenodd" d="M944.798 57.749C943.328 57.7921 942.521 57.8351 941.715 57.8351C913.638 57.4692 885.514 57.1033 857.437 56.7805C854.686 56.7589 853.026 56.3715 851.603 55.2953C836.901 44.3395 822.056 33.4268 807.259 22.514C806.927 22.2557 806.69 21.9975 806.168 21.5454C807.354 21.4594 808.397 21.3087 809.393 21.3302C837.328 21.6531 865.262 22.019 893.197 22.3418C895.758 22.3634 897.655 22.6217 899.22 23.7624C914.018 34.7828 928.91 45.7601 943.802 56.7374C944.134 56.9742 944.324 57.254 944.845 57.7921L944.798 57.749ZM939.154 56.2208C924.214 45.179 909.844 34.5891 895.616 24.0853C880.06 23.2889 816.649 22.7508 812.76 23.3965C813.045 23.6548 813.235 23.9346 813.567 24.1714C826.989 34.094 840.505 43.9951 853.832 53.9608C855.397 55.1231 857.342 55.2953 859.903 55.3168C884.565 55.5966 909.275 55.9195 933.937 56.2208C935.36 56.2208 936.783 56.2208 939.201 56.2208H939.154Z" fill="#042CB0" fill-opacity="0.3"/>
<path fill-rule="evenodd" clip-rule="evenodd" d="M255.921 502.162C253.028 504.315 250.704 506.08 248.332 507.823C235.764 517.121 223.101 526.398 210.628 535.718C208.825 537.074 206.833 537.612 203.324 537.634C175.721 537.914 148.118 538.323 120.516 538.667C119.567 538.667 118.571 538.667 117.148 538.667C117.528 538.129 117.623 537.72 118.097 537.397C132.894 526.463 147.739 515.55 162.394 504.594C164.054 503.367 166.093 503.152 168.844 503.131C188.479 502.916 208.161 502.7 227.796 502.463C235.29 502.377 242.736 502.248 250.182 502.141C251.747 502.141 253.36 502.141 255.921 502.141V502.162ZM122.935 536.967C124.12 537.031 124.595 537.096 125.069 537.074C151.059 536.751 177.049 536.429 203.039 536.149C205.505 536.127 206.786 535.611 207.972 534.707C221.204 524.892 234.484 515.12 247.763 505.305C248.285 504.896 248.569 504.422 249.091 503.798C247.147 503.798 245.676 503.798 244.206 503.798C219.544 504.099 194.834 504.444 170.172 504.68C167.137 504.702 165.524 505.24 164.054 506.359C151.201 515.916 138.254 525.451 125.306 535.008C124.547 535.568 123.931 536.149 122.935 536.945V536.967Z" fill="#042CB0" fill-opacity="0.3"/>
<path fill-rule="evenodd" clip-rule="evenodd" d="M805.789 238.122C812.002 233.516 817.788 229.254 823.574 224.992C832.87 218.148 842.118 211.303 851.367 204.458C852.695 203.49 853.928 202.779 856.963 202.758C885.372 202.456 913.781 202.069 942.237 201.703C942.854 201.703 943.518 201.746 944.609 201.789C944.134 202.327 943.85 202.801 943.328 203.188C928.721 213.993 914.066 224.777 899.505 235.604C898.13 236.637 896.612 237.196 893.767 237.218C865.5 237.519 837.281 237.885 809.014 238.23C808.255 238.23 807.496 238.187 805.931 238.122H805.789ZM938.728 203.404C937.542 203.339 937.068 203.296 936.594 203.296C910.603 203.619 884.613 203.942 858.623 204.221C856.109 204.243 854.876 204.781 853.691 205.664C840.458 215.457 827.179 225.251 813.899 235.066C813.377 235.453 813.14 235.948 812.619 236.572C814.421 236.572 815.701 236.572 817.029 236.572C841.881 236.271 866.733 235.927 891.585 235.668C894.62 235.647 896.185 235.087 897.703 233.989C910.651 224.368 923.693 214.768 936.688 205.147C937.352 204.652 937.874 204.135 938.775 203.404H938.728Z" fill="#042CB0" fill-opacity="0.3"/>
<path fill-rule="evenodd" clip-rule="evenodd" d="M1035.86 538.581C1036.57 537.935 1037 537.505 1037.57 537.074C1052.08 526.334 1066.69 515.615 1081.15 504.853C1082.67 503.733 1084.33 503.195 1087.32 503.152C1115.39 502.851 1143.52 502.485 1171.6 502.141C1172.4 502.141 1173.21 502.184 1174.39 502.205C1173.87 502.765 1173.54 503.217 1172.97 503.626C1158.36 514.431 1143.71 525.215 1129.15 536.041C1127.58 537.203 1125.78 537.569 1122.89 537.612C1095.1 537.935 1067.35 538.301 1039.61 538.667C1038.52 538.667 1037.47 538.603 1035.86 538.559V538.581ZM1041.69 536.988C1043.26 537.053 1043.87 537.096 1044.49 537.096C1070.29 536.773 1096.14 536.45 1121.94 536.17C1124.69 536.149 1125.92 535.503 1127.2 534.578C1140.25 524.892 1153.38 515.227 1166.47 505.563C1167.09 505.089 1167.52 504.573 1168.32 503.755C1140.2 504.099 1112.79 504.444 1085.33 504.788C1070.81 515.486 1056.49 526.075 1041.69 536.988Z" fill="#042CB0" fill-opacity="0.3"/>
<path fill-rule="evenodd" clip-rule="evenodd" d="M1035.86 201.832C1037.28 201.768 1038.23 201.703 1039.13 201.703C1067.21 202.048 1095.33 202.435 1123.41 202.758C1125.97 202.779 1127.54 203.124 1128.91 204.135C1143.61 215.091 1158.46 226.004 1173.26 236.917C1173.68 237.218 1173.97 237.541 1174.58 238.079C1173.02 238.144 1171.83 238.23 1170.6 238.208C1143 237.885 1115.4 237.519 1087.79 237.218C1084.76 237.175 1082.81 236.766 1081.11 235.518C1066.78 224.82 1052.27 214.144 1037.8 203.468C1037.14 202.995 1036.62 202.478 1035.81 201.789L1035.86 201.832ZM1168.13 236.443C1167.52 235.84 1167.19 235.367 1166.62 234.958C1153.43 225.229 1140.2 215.5 1127.11 205.75C1125.5 204.544 1123.55 204.265 1120.75 204.221C1096.23 203.942 1071.71 203.619 1047.2 203.339C1045.63 203.339 1044.06 203.339 1041.93 203.339C1042.5 203.899 1042.74 204.243 1043.16 204.523C1056.68 214.51 1070.24 224.476 1083.71 234.484C1084.9 235.367 1086.28 235.647 1088.46 235.668C1113.97 235.97 1139.44 236.292 1164.96 236.594C1165.86 236.594 1166.81 236.508 1168.18 236.465L1168.13 236.443Z" fill="#042CB0" fill-opacity="0.3"/>
<path fill-rule="evenodd" clip-rule="evenodd" d="M1174.68 261.795C1173.68 262.613 1173.02 263.194 1172.31 263.732C1158.03 274.279 1143.71 284.826 1129.53 295.394C1127.82 296.664 1125.92 297.181 1122.6 297.202C1095 297.504 1067.4 297.891 1039.79 298.235C1038.7 298.235 1037.61 298.192 1036 298.149C1036.62 297.547 1037 297.073 1037.57 296.664C1052.08 285.924 1066.69 275.205 1081.15 264.443C1082.62 263.345 1084.23 262.742 1087.27 262.699C1115.54 262.398 1143.75 262.032 1172.02 261.688C1172.64 261.688 1173.3 261.731 1174.77 261.774L1174.68 261.795ZM1085.28 264.335C1070.76 275.032 1056.39 285.687 1041.64 296.557C1043.3 296.6 1044.06 296.664 1044.82 296.643C1070.48 296.32 1096.14 295.997 1121.8 295.717C1124.5 295.696 1125.83 295.114 1127.11 294.167C1140.25 284.417 1153.48 274.688 1166.61 264.959C1167.18 264.55 1167.47 264.077 1168.23 263.302C1140.2 263.646 1112.78 263.991 1085.28 264.335Z" fill="#042CB0" fill-opacity="0.3"/>
<path fill-rule="evenodd" clip-rule="evenodd" d="M944.798 298.13C943.185 298.173 942.142 298.259 941.051 298.237C913.306 297.893 885.514 297.506 857.769 297.183C855.208 297.161 853.311 296.989 851.746 295.827C836.948 284.806 822.056 273.829 807.164 262.852C806.832 262.615 806.642 262.335 806.168 261.862C807.638 261.797 808.871 261.711 810.057 261.711C837.66 262.034 865.262 262.4 892.865 262.701C895.9 262.744 897.845 263.153 899.552 264.401C913.97 275.164 928.578 285.883 943.138 296.623C943.707 297.032 944.134 297.484 944.845 298.13H944.798ZM938.49 296.602C938.158 296.15 938.111 295.913 937.874 295.741C924.214 285.624 910.508 275.529 896.849 265.392C895.616 264.488 894.098 264.315 892.011 264.294C866.685 263.992 841.359 263.67 816.033 263.368C814.989 263.368 813.946 263.454 812.381 263.519C813.424 264.38 814.136 265.026 814.942 265.628C827.605 274.991 840.363 284.333 852.884 293.717C854.781 295.159 856.868 295.719 860.614 295.762C883.854 295.977 907.046 296.3 930.285 296.602C932.894 296.645 935.455 296.602 938.538 296.602H938.49Z" fill="#042CB0" fill-opacity="0.3"/>
<path fill-rule="evenodd" clip-rule="evenodd" d="M485.369 298.261C473.323 298.132 462.13 298.046 450.937 297.895C433.389 297.68 415.841 297.4 398.34 297.207C395.495 297.185 393.645 296.884 392.032 295.678C377.425 284.787 362.675 273.939 347.972 263.069C347.546 262.768 347.214 262.424 346.645 261.907C347.925 261.821 348.968 261.692 349.964 261.713C377.899 262.036 405.834 262.402 433.768 262.725C436.377 262.746 438.227 263.048 439.744 264.167C454.447 275.123 469.291 286.036 484.089 296.97C484.468 297.271 484.753 297.594 485.464 298.24L485.369 298.261ZM479.061 296.647C478.587 296.13 478.445 295.851 478.16 295.614C464.549 285.562 450.937 275.532 437.42 265.459C436.235 264.576 434.764 264.339 432.678 264.318C407.351 264.016 382.025 263.694 356.652 263.392C355.608 263.392 354.517 263.478 352.952 263.521C353.616 264.146 354.043 264.619 354.565 265.028C367.75 274.757 380.982 284.486 394.024 294.258C395.684 295.485 397.629 295.721 400.427 295.743C424.947 296.023 449.467 296.346 473.987 296.647C475.552 296.647 477.117 296.647 479.061 296.647Z" fill="#042CB0" fill-opacity="0.3"/>
<path fill-rule="evenodd" clip-rule="evenodd" d="M806.075 502.156C808.067 502.156 809.347 502.156 810.628 502.156C837.898 502.501 865.169 502.845 892.487 503.125C895.949 503.168 898.036 503.684 899.838 505.062C914.114 515.716 928.532 526.306 942.902 536.918C943.472 537.348 944.041 537.8 944.799 538.446C943.472 538.554 942.476 538.704 941.432 538.683C913.355 538.338 885.231 537.951 857.154 537.607C854.877 537.585 853.217 537.37 851.937 536.401C837.045 525.338 822.058 514.296 807.071 503.232C806.739 502.996 806.549 502.716 806.027 502.156H806.075ZM938.681 537.025C938.112 536.466 937.923 536.186 937.591 535.949C924.074 525.962 910.51 515.996 897.088 505.988C895.807 505.041 894.289 504.761 891.966 504.739C866.782 504.459 841.598 504.137 816.461 503.835C815.276 503.835 814.09 503.921 812.383 504.007C813.426 504.868 814.185 505.514 814.991 506.117C827.654 515.48 840.412 524.8 852.933 534.206C854.877 535.648 857.012 536.186 860.711 536.207C883.761 536.423 906.81 536.746 929.907 537.025C932.658 537.068 935.361 537.025 938.776 537.025H938.681Z" fill="#042CB0" fill-opacity="0.3"/>
<path fill-rule="evenodd" clip-rule="evenodd" d="M255.969 261.734C249.709 266.384 244.017 270.581 238.326 274.778C228.983 281.687 219.592 288.575 210.297 295.506C208.826 296.603 207.261 297.163 204.179 297.206C176.102 297.508 147.977 297.895 119.9 298.261C119.094 298.261 118.288 298.218 117.055 298.175C117.576 297.615 117.814 297.142 118.383 296.754C132.99 285.949 147.645 275.165 162.205 264.339C163.771 263.177 165.573 262.746 168.466 262.725C179.848 262.638 191.184 262.466 202.566 262.316C218.502 262.122 234.39 261.928 250.325 261.734C251.89 261.734 253.456 261.734 256.017 261.734H255.969ZM122.699 296.711C131.71 296.582 139.82 296.431 147.93 296.324C165.952 296.108 183.975 295.893 201.997 295.721C204.605 295.699 206.455 295.42 207.973 294.279C221.158 284.464 234.437 274.67 247.717 264.877C248.239 264.489 248.523 263.994 249.045 263.37C247.243 263.37 245.962 263.37 244.681 263.37C219.83 263.672 194.978 264.016 170.126 264.253C167.09 264.274 165.478 264.812 164.008 265.932C151.155 275.488 138.207 285.024 125.26 294.58C124.501 295.14 123.884 295.721 122.699 296.69V296.711Z" fill="#042CB0" fill-opacity="0.3"/>
<path fill-rule="evenodd" clip-rule="evenodd" d="M485.558 201.813C478.634 206.935 472.183 211.714 465.733 216.471C457.149 222.82 448.517 229.148 440.028 235.498C438.557 236.617 436.898 237.177 433.91 237.22C405.833 237.521 377.708 237.887 349.631 238.232C348.825 238.232 348.019 238.188 346.738 238.167C347.402 237.564 347.782 237.026 348.446 236.574C362.958 225.834 377.519 215.093 392.031 204.353C393.407 203.319 394.877 202.781 397.77 202.76C425.847 202.458 453.971 202.071 482.048 201.727C482.949 201.727 483.898 201.791 485.7 201.834L485.558 201.813ZM435.807 235.606C450.367 224.887 464.832 214.254 479.392 203.405C477.922 203.341 477.306 203.276 476.689 203.298C450.889 203.621 425.041 203.944 399.24 204.223C396.489 204.245 395.256 204.869 393.976 205.816C380.933 215.502 367.796 225.166 354.706 234.831C354.09 235.304 353.663 235.821 352.809 236.66C380.933 236.316 408.346 235.971 435.807 235.627V235.606Z" fill="#042CB0" fill-opacity="0.3"/>
<path fill-rule="evenodd" clip-rule="evenodd" d="M485.558 442.26C478.729 447.318 472.326 452.032 465.971 456.746C457.292 463.16 448.565 469.531 439.981 475.967C438.511 477.086 436.851 477.646 433.863 477.689C405.786 477.99 377.661 478.356 349.584 478.7C348.778 478.7 347.972 478.657 346.691 478.636C347.355 478.033 347.735 477.495 348.399 477.043C362.912 466.302 377.519 455.583 391.937 444.821C393.502 443.68 395.257 443.25 398.15 443.228C425.942 442.927 453.687 442.54 481.432 442.195C482.523 442.195 483.614 442.238 485.558 442.303V442.26ZM479.345 443.68C470.477 443.81 462.556 443.96 454.588 444.068C436.566 444.283 418.544 444.498 400.521 444.671C397.771 444.692 395.731 444.864 394.071 446.113C380.934 455.949 367.607 465.721 354.327 475.515C353.806 475.902 353.568 476.376 353.047 477.021C354.849 477.021 356.177 477.021 357.457 477.021C382.309 476.72 407.161 476.376 432.013 476.117C435.048 476.096 436.614 475.536 438.131 474.438C451.079 464.817 464.121 455.217 477.116 445.596C477.78 445.101 478.302 444.584 479.393 443.68H479.345Z" fill="#042CB0" fill-opacity="0.3"/>
<path fill-rule="evenodd" clip-rule="evenodd" d="M576.008 538.581C579.992 535.654 583.454 533.071 586.917 530.509C598.489 521.964 610.109 513.441 621.586 504.874C623.056 503.755 624.716 503.174 627.704 503.152C655.971 502.851 684.237 502.485 712.457 502.141C713.073 502.141 713.737 502.184 714.875 502.227C714.259 502.829 713.832 503.346 713.215 503.82C698.703 514.56 684.095 525.279 669.63 536.041C668.112 537.182 666.357 537.612 663.417 537.634C635.624 537.957 607.879 538.323 580.135 538.689C579.044 538.689 577.953 538.646 575.961 538.581H576.008ZM582.174 536.967C583.692 537.031 584.308 537.096 584.925 537.096C610.725 536.773 636.573 536.45 662.373 536.17C665.077 536.149 666.357 535.525 667.638 534.599C680.68 524.913 693.818 515.249 706.908 505.585C707.524 505.111 707.951 504.594 708.805 503.755C680.68 504.099 653.267 504.444 625.76 504.788C611.294 515.464 596.924 526.075 582.174 536.988V536.967Z" fill="#042CB0" fill-opacity="0.3"/>
<path fill-rule="evenodd" clip-rule="evenodd" d="M945.037 442.282C943.329 443.573 942.001 444.563 940.626 445.575C926.92 455.691 913.213 465.786 899.554 475.902C898.084 477 896.519 477.624 893.483 477.646C865.217 477.947 836.95 478.313 808.731 478.657C808.067 478.657 807.45 478.636 806.359 478.593C806.834 478.076 807.071 477.603 807.593 477.215C822.295 466.346 836.997 455.497 851.7 444.606C852.886 443.724 854.071 443.186 856.632 443.164C885.231 442.841 913.782 442.454 942.381 442.109C942.997 442.109 943.614 442.174 945.084 442.26L945.037 442.282ZM939.013 443.81C937.354 443.767 936.547 443.702 935.788 443.724C910.13 444.047 884.472 444.369 858.814 444.649C856.111 444.671 854.83 445.252 853.502 446.22C840.365 455.971 827.133 465.678 813.995 475.429C813.426 475.838 813.141 476.311 812.383 477.086C840.412 476.742 867.778 476.397 895.333 476.053C909.798 465.377 924.169 454.787 938.966 443.831L939.013 443.81Z" fill="#042CB0" fill-opacity="0.3"/>
<path fill-rule="evenodd" clip-rule="evenodd" d="M301.069 153.445C302.112 154.242 302.918 154.866 303.677 155.49C316.577 166.317 329.43 177.143 342.473 187.949C344.133 189.348 344.18 190.381 342.473 191.78C329.43 202.563 316.577 213.412 303.677 224.238C302.918 224.884 302.065 225.508 301.021 226.369C299.978 225.53 299.124 224.927 298.365 224.303C285.37 213.412 272.423 202.52 259.333 191.651C257.862 190.424 257.673 189.498 259.238 188.228C272.517 177.23 285.56 166.209 298.745 155.189C299.361 154.672 300.073 154.199 301.069 153.488V153.445ZM301.021 156.739C300.31 157.234 299.693 157.578 299.266 157.965C287.125 168.146 274.984 178.349 262.747 188.508C261.467 189.563 261.752 190.359 262.937 191.349C275.079 201.444 287.125 211.582 299.219 221.698C299.693 222.107 300.405 222.452 301.211 222.947C301.875 222.452 302.349 222.172 302.729 221.849C314.87 211.668 327.011 201.466 339.248 191.306C340.623 190.166 340.339 189.326 339.058 188.271C327.059 178.306 315.202 168.297 303.298 158.31C302.681 157.815 301.922 157.341 301.116 156.739H301.021Z" fill="#042CB0" fill-opacity="0.3"/>
<path fill-rule="evenodd" clip-rule="evenodd" d="M576.055 57.7079C581.557 53.6614 586.537 49.9377 591.564 46.2571C601.619 38.8528 611.673 31.4485 621.633 24.0226C623.103 22.9034 624.763 22.3437 627.751 22.3007C656.018 21.9994 684.237 21.6334 712.503 21.2891C713.12 21.2891 713.784 21.3321 714.922 21.3752C714.306 21.9778 713.879 22.4944 713.262 22.9679C698.75 33.7085 684.189 44.4275 669.677 55.1896C668.301 56.2227 666.831 56.7609 663.938 56.7824C635.861 57.0837 607.737 57.4711 579.66 57.8371C578.759 57.8371 577.81 57.7725 576.008 57.7294L576.055 57.7079ZM625.806 23.915C611.341 34.6125 596.923 45.2454 582.031 56.2228C584.118 56.2228 585.209 56.2228 586.252 56.2228C611.436 55.9214 636.572 55.577 661.756 55.3187C664.507 55.2972 666.12 54.8667 667.59 53.769C680.68 44.0186 693.912 34.2896 707.097 24.5607C707.666 24.1518 707.998 23.6782 708.804 22.8818C680.775 23.2262 653.362 23.5706 625.806 23.915Z" fill="#042CB0" fill-opacity="0.3"/>
<path fill-rule="evenodd" clip-rule="evenodd" d="M1035.58 57.6904C1039.85 54.5263 1043.64 51.7067 1047.48 48.887C1058.72 40.6002 1069.96 32.3134 1081.11 24.0051C1082.58 22.9074 1084.19 22.3047 1087.23 22.2616C1115.49 21.9603 1143.76 21.5944 1171.98 21.25C1172.6 21.25 1173.26 21.293 1174.45 21.3146C1173.83 21.9172 1173.45 22.4338 1172.83 22.8858C1158.32 33.6264 1143.76 44.3669 1129.25 55.1075C1127.87 56.1191 1126.45 56.7003 1123.56 56.7218C1095.29 57.0231 1067.07 57.4106 1038.8 57.7765C1038.04 57.7765 1037.29 57.7119 1035.63 57.6473L1035.58 57.6904ZM1168.28 23.0796C1166.71 23.015 1165.62 22.9289 1164.58 22.9289C1139.25 23.2302 1113.93 23.5746 1088.6 23.8544C1086.18 23.8759 1084.81 24.2634 1083.57 25.1889C1070.29 35.0685 1056.92 44.905 1043.55 54.7846C1043.02 55.1721 1042.79 55.6456 1042.27 56.2267C1043.74 56.2267 1044.68 56.2267 1045.68 56.2267C1070.86 55.9254 1096 55.581 1121.18 55.3227C1124.17 55.3012 1125.83 54.7631 1127.3 53.6438C1140.25 44.0225 1153.29 34.4228 1166.29 24.8015C1166.95 24.328 1167.43 23.8114 1168.23 23.1011L1168.28 23.0796Z" fill="#042CB0" fill-opacity="0.3"/>
<path fill-rule="evenodd" clip-rule="evenodd" d="M346.406 141.453C377.234 141.841 407.398 142.206 437.751 142.594C453.592 154.303 469.385 165.948 485.558 177.915C483.471 177.958 482.285 178.023 481.052 178.023C453.45 177.7 425.847 177.355 398.244 177.033C395.683 177.011 393.739 176.774 392.221 175.633C377.376 164.549 362.342 153.507 347.355 142.465C347.118 142.293 346.975 142.077 346.406 141.475V141.453ZM352.904 143.326C353.283 143.692 353.52 144.036 353.947 144.337C367.369 154.26 380.838 164.183 394.213 174.127C395.588 175.16 397.296 175.418 399.762 175.44C424.756 175.72 449.798 176.042 474.792 176.344C476.025 176.344 477.258 176.279 479.013 176.236C478.112 175.483 477.543 174.902 476.784 174.342C464.026 164.914 451.173 155.53 438.557 146.059C436.518 144.531 434.242 143.971 430.447 143.95C410.765 143.799 391.13 143.519 371.495 143.326C365.519 143.261 359.496 143.326 352.904 143.326Z" fill="#042CB0" fill-opacity="0.3"/>
<path fill-rule="evenodd" clip-rule="evenodd" d="M255.774 141.586C254.778 142.361 254.161 142.834 253.497 143.33C239.127 153.941 224.709 164.552 210.433 175.185C208.868 176.348 207.256 177.015 203.983 177.058C176.191 177.338 148.446 177.704 120.654 178.026C119.563 178.026 118.472 177.983 116.859 177.94C117.713 177.187 118.282 176.606 118.994 176.068C133.364 165.456 147.735 154.845 162.058 144.212C163.386 143.243 164.619 142.555 167.654 142.533C196.063 142.253 224.519 141.844 252.928 141.5C253.545 141.5 254.209 141.543 255.726 141.586H255.774ZM122.74 176.369C124.875 176.369 126.108 176.369 127.388 176.369C152.24 176.068 177.092 175.723 201.944 175.465C205.216 175.444 206.876 174.862 208.441 173.679C221.199 164.165 234.1 154.694 246.905 145.202C247.711 144.599 248.375 143.954 249.466 143.071C247.521 143.071 246.241 143.071 245.008 143.071C220.156 143.373 195.304 143.717 170.452 143.975C167.275 144.018 165.52 144.556 163.907 145.762C151.007 155.405 137.917 164.983 124.922 174.604C124.353 175.035 123.831 175.487 122.74 176.348V176.369Z" fill="#042CB0" fill-opacity="0.3"/>
<path fill-rule="evenodd" clip-rule="evenodd" d="M1174.82 118.019C1163.53 117.911 1153.15 117.825 1142.76 117.696C1124.26 117.459 1105.72 117.179 1087.22 116.964C1084.52 116.942 1082.81 116.577 1081.34 115.479C1066.78 104.652 1052.13 93.8686 1037.52 83.0635C1036.95 82.6545 1036.57 82.181 1035.86 81.4922C1038.04 81.4922 1039.61 81.4922 1041.17 81.4922C1068.3 81.815 1095.43 82.1594 1122.56 82.4608C1125.59 82.4823 1127.58 82.8697 1129.24 84.1181C1143.76 94.9448 1158.46 105.728 1173.07 116.533C1173.54 116.899 1173.97 117.265 1174.82 117.997V118.019ZM1168.42 116.426C1167.9 115.845 1167.71 115.565 1167.42 115.328C1153.91 105.341 1140.34 95.3537 1126.92 85.345C1125.64 84.3979 1124.12 84.0966 1121.8 84.0751C1096.28 83.7953 1070.81 83.4509 1045.3 83.1495C1044.4 83.1495 1043.5 83.2356 1042.07 83.3217C1042.88 83.9675 1043.4 84.398 1043.97 84.8284C1057.06 94.5143 1070.2 104.157 1083.19 113.865C1084.85 115.113 1086.8 115.5 1089.88 115.543C1114.59 115.802 1139.25 116.125 1163.96 116.447C1165.24 116.447 1166.52 116.447 1168.51 116.447L1168.42 116.426Z" fill="#042CB0" fill-opacity="0.3"/>
<path fill-rule="evenodd" clip-rule="evenodd" d="M255.585 358.307C254.399 358.393 253.782 358.458 253.213 358.458C224.615 358.092 196.063 357.704 167.465 357.403C164.287 357.381 163.291 356.564 162.011 355.616C150.96 347.459 139.91 339.28 128.859 331.122C125.729 328.797 122.551 326.473 119.421 324.148C118.615 323.545 117.856 322.9 116.812 322.017C118.71 321.974 120.085 321.888 121.46 321.91C148.921 322.233 176.334 322.577 203.794 322.9C206.64 322.921 208.537 323.287 210.102 324.471C224.804 335.427 239.649 346.34 254.446 357.274C254.778 357.511 255.016 357.79 255.632 358.307H255.585ZM249.277 356.779C248.803 356.284 248.613 355.939 248.233 355.659C234.717 345.672 221.2 335.685 207.731 325.676C206.545 324.815 205.122 324.536 202.988 324.493C177.472 324.191 151.956 323.868 126.488 323.567C125.492 323.567 124.496 323.696 123.073 323.782C124.069 324.557 124.733 325.138 125.492 325.698C137.823 334.803 150.154 343.929 162.532 353.012C166.991 356.284 164.619 355.81 173.962 355.939C196.063 356.241 218.165 356.499 240.218 356.779C243.111 356.822 245.957 356.779 249.324 356.779H249.277Z" fill="#042CB0" fill-opacity="0.3"/>
<path fill-rule="evenodd" clip-rule="evenodd" d="M715.255 358.485C684.285 358.098 654.122 357.711 623.863 357.323C607.975 345.593 592.229 333.948 575.914 321.938C578.617 321.938 580.372 321.938 582.08 321.938C609.018 322.26 636.004 322.605 662.943 322.928C665.646 322.949 667.733 323.078 669.441 324.348C684.191 335.369 699.13 346.346 714.022 357.323C714.354 357.56 714.544 357.84 715.255 358.485ZM582.649 323.832C583.265 324.327 583.645 324.714 584.166 325.08C597.351 334.809 610.583 344.538 623.673 354.31C625.191 355.451 626.993 355.903 629.886 355.946C654.928 356.225 679.922 356.548 704.964 356.85C706.149 356.85 707.335 356.764 708.9 356.721C708.284 356.182 707.999 355.838 707.572 355.537C694.245 345.679 680.823 335.821 667.591 325.919C666.073 324.8 664.319 324.52 661.663 324.477C645.442 324.305 629.175 324.004 612.907 323.853C603.042 323.767 593.13 323.853 582.649 323.853V323.832Z" fill="#042CB0" fill-opacity="0.3"/>
<path fill-rule="evenodd" clip-rule="evenodd" d="M805.793 358.335C813.144 352.932 820.021 347.831 826.898 342.751C835.15 336.66 843.45 330.59 851.608 324.477C852.888 323.509 854.264 322.949 856.92 322.928C885.518 322.626 914.069 322.26 942.668 321.938C943.142 321.938 943.617 322.002 944.565 322.067C943.996 322.648 943.617 323.164 943 323.638C928.487 334.378 913.88 345.119 899.414 355.86C898.039 356.893 896.521 357.388 893.676 357.431C865.599 357.732 837.474 358.12 809.397 358.464C808.449 358.464 807.548 358.399 805.793 358.356V358.335ZM812.196 356.85C814.188 356.85 815.563 356.85 816.986 356.85C841.695 356.548 866.358 356.204 891.067 355.946C894.197 355.924 896.047 355.429 897.66 354.202C910.512 344.624 923.46 335.089 936.408 325.554C937.119 325.015 937.736 324.434 938.589 323.681C936.835 323.638 935.554 323.573 934.321 323.595C909.327 323.896 884.285 324.241 859.291 324.499C856.493 324.52 854.928 324.972 853.505 326.027C840.462 335.713 827.325 345.377 814.235 355.063C813.571 355.537 813.097 356.075 812.196 356.85Z" fill="#042CB0" fill-opacity="0.3"/>
<path fill-rule="evenodd" clip-rule="evenodd" d="M1174.63 358.331C1173.25 358.396 1172.31 358.46 1171.4 358.46C1143.33 358.116 1115.2 357.729 1087.13 357.406C1084.66 357.384 1083 357.126 1081.58 356.071C1066.78 345.051 1051.84 334.074 1037 323.096C1036.66 322.86 1036.47 322.58 1036 322.128C1037.33 322.063 1038.37 321.934 1039.37 321.956C1067.3 322.278 1095.24 322.623 1123.17 322.946C1125.59 322.967 1127.39 323.204 1128.77 324.259C1143.66 335.322 1158.65 346.364 1173.63 357.427C1173.92 357.664 1174.16 357.901 1174.63 358.331ZM1042.02 323.57C1042.69 324.216 1042.88 324.474 1043.21 324.732C1056.63 334.655 1070.15 344.577 1083.47 354.522C1084.99 355.662 1086.89 355.899 1089.5 355.921C1114.54 356.222 1139.53 356.545 1164.58 356.846C1165.76 356.846 1166.95 356.76 1168.46 356.695C1167.85 356.157 1167.52 355.813 1167.14 355.512C1153.81 345.654 1140.39 335.796 1127.16 325.916C1125.64 324.775 1123.79 324.538 1121.18 324.517C1096.33 324.237 1071.48 323.914 1046.62 323.613C1045.34 323.613 1044.06 323.613 1042.07 323.613L1042.02 323.57Z" fill="#042CB0" fill-opacity="0.3"/>
<path fill-rule="evenodd" clip-rule="evenodd" d="M346.41 598.763C347.264 598.052 347.833 597.557 348.497 597.084C362.867 586.472 377.285 575.882 391.561 565.228C393.221 563.98 395.023 563.355 398.438 563.312C425.709 563.054 453.027 562.688 480.297 562.344C481.72 562.344 483.143 562.344 485.182 562.344C484.424 563.076 483.997 563.592 483.38 564.066C468.962 574.742 454.449 585.418 440.079 596.115C438.466 597.32 436.664 597.794 433.487 597.837C405.694 598.138 377.949 598.504 350.204 598.87C349.114 598.87 348.07 598.806 346.41 598.763ZM479.254 564.109C477.357 564.066 476.219 564.001 475.128 564.001C449.944 564.302 424.76 564.647 399.576 564.905C396.73 564.927 395.213 565.443 393.837 566.476C380.795 576.162 367.658 585.827 354.568 595.512C353.904 595.986 353.477 596.524 352.718 597.191C354.141 597.234 355.089 597.277 355.99 597.277C381.317 596.976 406.69 596.632 432.016 596.373C435.147 596.352 436.617 595.663 438.04 594.587C450.323 585.461 462.702 576.356 475.033 567.251C476.313 566.326 477.499 565.379 479.207 564.109H479.254Z" fill="#042CB0" fill-opacity="0.3"/>
<path fill-rule="evenodd" clip-rule="evenodd" d="M715.107 598.78C713.684 598.823 712.783 598.909 711.882 598.888C683.805 598.543 655.681 598.156 627.604 597.833C625.09 597.812 623.478 597.532 622.055 596.499C607.352 585.543 592.508 574.63 577.71 563.717C577.283 563.416 576.999 563.072 576.43 562.555C577.805 562.49 578.848 562.383 579.892 562.383C607.827 562.706 635.761 563.05 663.696 563.373C666.115 563.394 667.869 563.653 669.292 564.707C684.184 575.771 699.172 586.813 714.159 597.876C714.491 598.113 714.68 598.35 715.107 598.78ZM582.548 564.169C583.212 564.729 583.591 565.116 584.065 565.482C597.345 575.276 610.625 585.069 623.81 594.906C625.28 596.004 626.987 596.369 629.738 596.412C655.064 596.692 680.438 597.015 705.764 597.338C706.665 597.338 707.566 597.273 708.609 597.252C708.372 596.865 708.372 596.628 708.135 596.456C694.476 586.339 680.77 576.223 667.111 566.085C665.878 565.181 664.36 565.009 662.273 564.987C636.947 564.686 611.573 564.363 586.247 564.062C585.204 564.062 584.113 564.148 582.548 564.212V564.169Z" fill="#042CB0" fill-opacity="0.3"/>
<path fill-rule="evenodd" clip-rule="evenodd" d="M715.203 261.797C714.017 262.723 713.258 263.347 712.452 263.971C698.366 274.389 684.138 284.806 670.195 295.267C668.25 296.731 666.068 297.183 662.416 297.226C635.146 297.506 607.875 297.893 580.604 298.237C579.371 298.237 578.138 298.194 576.336 298.151C577.237 297.376 577.854 296.817 578.565 296.279C592.935 285.667 607.353 275.056 621.629 264.423C623.147 263.304 624.807 262.744 627.795 262.723C655.871 262.421 683.996 262.055 712.073 261.711C712.879 261.711 713.638 261.754 715.25 261.797H715.203ZM708.658 263.54C707.425 263.454 706.666 263.368 705.955 263.368C680.154 263.691 654.306 264.014 628.506 264.294C626.135 264.315 625.044 264.853 624 265.65C610.673 275.508 597.299 285.366 583.972 295.224C583.45 295.611 583.213 296.085 582.739 296.645C584.209 296.645 585.205 296.645 586.153 296.645C611.337 296.343 636.474 295.999 661.658 295.741C664.693 295.719 666.258 295.159 667.776 294.04C680.723 284.419 693.766 274.819 706.761 265.198C707.377 264.724 707.899 264.208 708.658 263.519V263.54Z" fill="#042CB0" fill-opacity="0.3"/>
<path fill-rule="evenodd" clip-rule="evenodd" d="M1035.86 562.359C1038.04 562.359 1039.61 562.359 1041.17 562.359C1068.3 562.682 1095.43 563.027 1122.56 563.349C1125.26 563.371 1127.35 563.543 1129.01 564.813C1143.76 575.833 1158.7 586.811 1173.59 597.81C1173.92 598.046 1174.11 598.305 1174.58 598.757C1173.21 598.821 1172.12 598.907 1171.07 598.886C1143.33 598.541 1115.54 598.154 1087.79 597.853C1084.99 597.831 1083.05 597.594 1081.44 596.389C1066.92 585.562 1052.22 574.779 1037.61 563.974C1037.05 563.565 1036.67 563.091 1035.95 562.381L1035.86 562.359ZM1042.02 564.017C1042.64 564.641 1042.83 564.899 1043.16 565.136C1056.59 575.059 1070.1 584.981 1083.43 594.925C1084.95 596.066 1086.8 596.324 1089.4 596.346C1114.4 596.626 1139.44 596.97 1164.48 597.272C1165.67 597.272 1166.85 597.185 1168.42 597.121C1167.8 596.583 1167.52 596.238 1167.09 595.937C1153.76 586.079 1140.34 576.221 1127.11 566.341C1125.59 565.222 1123.79 564.942 1121.18 564.921C1096.47 564.641 1071.81 564.318 1047.1 564.017C1045.68 564.017 1044.21 564.017 1042.07 564.017H1042.02Z" fill="#042CB0" fill-opacity="0.3"/>
<path fill-rule="evenodd" clip-rule="evenodd" d="M576.43 81.5528C580.651 81.5528 584.208 81.5097 587.765 81.5528C612.617 81.8541 637.469 82.1985 662.32 82.4353C666.21 82.4783 668.391 83.1025 670.383 84.5877C684.564 95.1776 698.887 105.703 713.21 116.25C713.779 116.68 714.348 117.132 715.107 117.778C713.827 117.864 712.783 118.015 711.787 117.993C683.71 117.649 655.586 117.283 627.509 116.938C625.28 116.917 623.62 116.745 622.292 115.755C607.4 104.691 592.413 93.6493 577.426 82.5859C577.094 82.3492 576.951 82.0694 576.43 81.5312V81.5528ZM582.453 83.1456C583.117 83.7913 583.354 84.0711 583.686 84.3079C597.108 94.2305 610.625 104.153 623.999 114.097C625.375 115.13 627.035 115.453 629.548 115.496C654.874 115.776 680.248 116.121 705.574 116.422C706.57 116.422 707.566 116.314 708.847 116.228C708.372 115.776 708.135 115.496 707.803 115.238C694.381 105.315 680.865 95.3928 667.538 85.4486C666.02 84.3079 664.123 84.0926 661.562 84.0711C636.852 83.7913 612.19 83.4684 587.48 83.1671C586.057 83.1671 584.635 83.1671 582.5 83.1671L582.453 83.1456Z" fill="#042CB0" fill-opacity="0.3"/>
<path fill-rule="evenodd" clip-rule="evenodd" d="M346.266 118.042C347.356 117.181 347.926 116.686 348.59 116.191C362.865 105.644 377.236 95.1189 391.369 84.529C393.266 83.0869 395.353 82.5057 399.1 82.4627C425.896 82.2044 452.692 81.8385 479.489 81.5156C481.196 81.5156 482.951 81.5156 485.322 81.5156C484.374 82.3551 483.805 82.9362 483.093 83.4743C468.818 94.0212 454.495 104.568 440.266 115.136C438.607 116.385 436.804 116.966 433.39 117.009C405.597 117.289 377.852 117.676 350.107 118.042C349.159 118.042 348.21 118.042 346.313 118.042H346.266ZM352.526 116.449C354.233 116.449 355.04 116.449 355.846 116.449C381.172 116.126 406.546 115.804 431.872 115.524C434.86 115.481 436.52 114.964 438.037 113.845C450.89 104.267 463.885 94.7314 476.785 85.1963C477.544 84.6581 478.161 84.077 479.204 83.2806C477.212 83.2376 475.837 83.173 474.414 83.1945C449.562 83.4958 424.71 83.8402 399.858 84.0985C396.823 84.12 395.258 84.6797 393.74 85.7774C380.888 95.3556 367.94 104.891 354.992 114.448C354.233 114.986 353.617 115.567 352.526 116.471V116.449Z" fill="#042CB0" fill-opacity="0.3"/>
<path fill-rule="evenodd" clip-rule="evenodd" d="M255.774 118.015C244.344 117.907 233.768 117.821 223.239 117.692C204.885 117.455 186.531 117.175 168.176 116.982C165.473 116.96 163.765 116.594 162.295 115.518C147.735 104.691 133.08 93.9076 118.472 83.1025C117.903 82.6936 117.524 82.22 116.812 81.5312C118.994 81.5312 120.559 81.5312 122.124 81.5312C149.253 81.8541 176.381 82.1985 203.51 82.4998C206.545 82.5214 208.489 82.9088 210.197 84.1572C224.71 94.9838 239.412 105.767 254.02 116.573C254.494 116.938 254.921 117.304 255.822 118.036L255.774 118.015ZM122.931 83.1456C123.595 83.7913 123.832 84.0711 124.164 84.3079C137.586 94.2305 151.102 104.153 164.477 114.097C165.852 115.109 167.512 115.453 170.026 115.496C195.352 115.776 220.726 116.121 246.052 116.422C247.048 116.422 248.044 116.314 249.324 116.228C248.85 115.755 248.613 115.496 248.281 115.238C234.859 105.315 221.342 95.3928 208.015 85.4486C206.497 84.3079 204.6 84.0926 202.039 84.0711C177.33 83.7913 152.668 83.4684 127.958 83.1671C126.535 83.1671 125.112 83.1671 122.978 83.1671L122.931 83.1456Z" fill="#042CB0" fill-opacity="0.3"/>
<path fill-rule="evenodd" clip-rule="evenodd" d="M116.627 418.366C117.86 417.376 118.619 416.752 119.472 416.128C133.606 405.71 147.739 395.292 161.777 384.853C163.437 383.605 165.192 383.002 168.607 382.959C196.21 382.679 223.812 382.292 251.415 381.969C252.648 381.969 253.881 382.033 255.589 382.076C254.877 382.658 254.45 383.045 253.929 383.389C239.274 394.194 224.619 404.978 210.058 415.805C208.541 416.945 206.833 417.441 203.893 417.484C176.1 417.785 148.356 418.129 120.563 418.474C119.472 418.474 118.381 418.431 116.484 418.388L116.627 418.366ZM123.077 416.687C124.689 416.73 125.78 416.816 126.871 416.795C152.055 416.493 177.239 416.149 202.423 415.891C205.221 415.869 206.786 415.374 208.209 414.341C221.251 404.655 234.389 394.991 247.478 385.305C248.142 384.831 248.617 384.293 249.376 383.605C247.953 383.562 247.052 383.497 246.103 383.518C220.777 383.82 195.403 384.164 170.077 384.423C166.994 384.444 165.477 385.09 164.007 386.187C151.154 395.744 138.159 405.279 125.211 414.836C124.5 415.374 123.93 415.955 123.077 416.687Z" fill="#042CB0" fill-opacity="0.3"/>
<path fill-rule="evenodd" clip-rule="evenodd" d="M1174.87 382.055C1165.67 388.835 1156.94 395.314 1148.21 401.771C1142 406.356 1135.69 410.919 1129.62 415.546C1127.87 416.902 1125.83 417.484 1122.32 417.505C1106.72 417.613 1091.11 417.85 1075.56 418.043C1064.17 418.172 1052.84 418.323 1041.46 418.474C1039.84 418.474 1038.23 418.474 1035.91 418.474C1036.76 417.72 1037.28 417.139 1037.99 416.623C1052.41 405.947 1066.92 395.271 1081.29 384.573C1082.67 383.54 1084.19 383.023 1087.03 383.002C1115.11 382.701 1143.23 382.313 1171.31 381.969C1172.26 381.969 1173.16 382.012 1174.87 382.076V382.055ZM1168.61 383.54C1166.9 383.54 1166.09 383.54 1165.29 383.54C1139.96 383.863 1114.59 384.186 1089.26 384.466C1086.27 384.487 1084.61 385.025 1083.1 386.144C1070.05 395.83 1056.92 405.495 1043.83 415.181C1043.26 415.611 1042.78 416.041 1041.93 416.73C1043.92 416.773 1045.3 416.838 1046.67 416.816C1071.38 416.515 1096.04 416.171 1120.75 415.934C1124.22 415.912 1125.97 415.288 1127.63 414.04C1140.29 404.591 1153.1 395.185 1165.86 385.757C1166.66 385.154 1167.37 384.509 1168.56 383.518L1168.61 383.54Z" fill="#042CB0" fill-opacity="0.3"/>
<path fill-rule="evenodd" clip-rule="evenodd" d="M301.116 466.73C300.167 466.063 299.456 465.589 298.839 465.073C285.607 453.988 272.422 442.903 259.143 431.84C257.815 430.742 257.767 429.902 259.143 428.805C272.517 417.677 285.797 406.506 299.076 395.378C299.598 394.926 300.31 394.538 301.211 393.914C302.207 394.71 303.06 395.313 303.819 395.959C316.719 406.785 329.572 417.612 342.615 428.417C344.322 429.816 344.275 430.871 342.615 432.249C329.572 443.032 316.719 453.88 303.819 464.707C303.06 465.353 302.207 465.955 301.211 466.752L301.116 466.73ZM300.974 463.48C301.732 462.985 302.159 462.77 302.444 462.512C314.775 452.201 327.011 441.87 339.39 431.581C340.718 430.484 340.149 429.709 339.01 428.74C327.059 418.753 315.154 408.766 303.25 398.779C302.634 398.262 301.875 397.788 300.974 397.121C299.978 397.918 299.124 398.542 298.365 399.166C286.745 408.895 275.221 418.645 263.459 428.331C261.609 429.838 261.846 430.936 263.601 432.378C275.363 442.085 286.888 451.814 298.507 461.543C299.219 462.124 299.978 462.684 301.021 463.48H300.974Z" fill="#042CB0" fill-opacity="0.3"/>
<path fill-rule="evenodd" clip-rule="evenodd" d="M760.541 466.795C759.497 465.956 758.644 465.331 757.885 464.707C744.985 453.88 732.132 443.054 719.089 432.249C717.429 430.871 717.335 429.816 719.089 428.417C732.132 417.634 744.985 406.786 757.885 395.959C758.644 395.335 759.45 394.711 760.588 393.828C761.679 394.689 762.533 395.313 763.292 395.937C776.192 406.764 789.045 417.591 802.087 428.396C803.794 429.795 803.747 430.828 802.087 432.227C789.045 443.011 776.192 453.859 763.292 464.686C762.533 465.331 761.679 465.934 760.636 466.795H760.541ZM760.588 397.1C759.782 397.659 759.308 397.939 758.928 398.262C746.692 408.508 734.503 418.775 722.172 428.999C720.892 430.075 721.318 430.871 722.504 431.84C734.551 441.892 746.502 451.943 758.501 461.995C759.023 462.447 759.687 462.856 760.541 463.459C761.489 462.77 762.248 462.232 762.96 461.672C774.722 451.814 786.389 441.935 798.293 432.098C799.905 430.764 799.811 429.773 798.198 428.46C786.389 418.689 774.769 408.873 763.102 399.08C762.39 398.499 761.632 397.939 760.541 397.078L760.588 397.1Z" fill="#042CB0" fill-opacity="0.3"/>
<path fill-rule="evenodd" clip-rule="evenodd" d="M255.726 238.232C253.497 238.232 251.932 238.232 250.415 238.232C223.286 237.909 196.158 237.564 169.077 237.241C166.136 237.198 164.002 236.962 162.247 235.67C147.64 224.779 132.89 213.931 118.187 203.061C117.76 202.76 117.476 202.437 116.859 201.899C118.424 201.834 119.61 201.727 120.796 201.727C148.399 202.071 176.001 202.458 203.604 202.76C206.687 202.803 208.584 203.147 210.244 204.417C224.472 215.072 238.937 225.661 253.308 236.273C254.066 236.811 254.683 237.392 255.726 238.253V238.232ZM122.551 203.362C137.395 214.318 151.766 224.93 165.994 235.433C178.657 236.165 244.818 236.768 248.944 236.165C248.233 235.584 247.569 235.003 246.858 234.443C234.1 225.016 221.294 215.631 208.679 206.161C206.734 204.718 204.6 204.202 200.901 204.18C177.993 203.965 155.086 203.642 132.226 203.362C129.333 203.319 126.44 203.362 122.551 203.362Z" fill="#042CB0" fill-opacity="0.3"/>
<path fill-rule="evenodd" clip-rule="evenodd" d="M944.702 562.447C943.943 563.136 943.516 563.653 942.852 564.126C928.434 574.802 913.922 585.478 899.551 596.176C898.081 597.273 896.421 597.812 893.433 597.855C865.356 598.156 837.232 598.543 809.155 598.909C808.349 598.909 807.542 598.888 806.262 598.845C806.783 598.285 807.115 597.833 807.637 597.446C822.245 586.641 836.9 575.857 851.46 565.03C852.835 564.019 854.258 563.394 857.151 563.373C885.228 563.072 913.352 562.706 941.429 562.383C942.331 562.383 943.279 562.426 944.702 562.469V562.447ZM812.143 597.273C814.135 597.273 815.51 597.273 816.933 597.273C841.642 596.972 866.305 596.628 891.014 596.391C894.144 596.348 895.994 595.874 897.607 594.648C910.459 585.069 923.407 575.534 936.355 565.999C937.066 565.461 937.683 564.88 938.536 564.126C936.782 564.083 935.548 564.019 934.268 564.04C909.226 564.342 884.232 564.686 859.19 564.944C856.392 564.966 854.827 565.418 853.404 566.494C840.362 576.18 827.225 585.844 814.135 595.53C813.471 596.004 812.996 596.542 812.095 597.317L812.143 597.273Z" fill="#042CB0" fill-opacity="0.3"/>
<path fill-rule="evenodd" clip-rule="evenodd" d="M1035.91 177.94C1036.81 177.166 1037.38 176.606 1038.09 176.046C1052.46 165.435 1066.83 154.823 1081.15 144.191C1082.48 143.2 1083.81 142.555 1086.8 142.533C1115.2 142.253 1143.66 141.866 1172.07 141.5C1172.69 141.5 1173.35 141.543 1174.44 141.586C1173.87 142.124 1173.54 142.576 1173.02 142.964C1158.41 153.769 1143.76 164.574 1129.15 175.379C1127.77 176.412 1126.3 176.993 1123.46 177.015C1095.38 177.316 1067.26 177.682 1039.18 178.005C1038.28 178.005 1037.38 177.962 1035.91 177.919V177.94ZM1041.98 176.261C1043.4 176.348 1044.06 176.412 1044.68 176.391C1070.53 176.068 1096.33 175.723 1122.18 175.444C1124.69 175.422 1125.92 174.884 1127.11 174.001C1140.34 164.186 1153.62 154.393 1166.9 144.599C1167.47 144.191 1167.75 143.717 1168.28 143.114C1165.9 143.114 1163.96 143.114 1162.02 143.114C1138.16 143.416 1114.26 143.738 1090.4 143.975C1086.7 144.018 1084.61 144.578 1082.67 146.02C1070.05 155.469 1057.2 164.875 1044.44 174.303C1043.68 174.841 1043.02 175.422 1041.98 176.24V176.261Z" fill="#042CB0" fill-opacity="0.3"/>
<path fill-rule="evenodd" clip-rule="evenodd" d="M116.344 562.359C118.905 562.359 120.47 562.359 122.035 562.359C149.163 562.682 176.292 563.027 203.373 563.349C206.029 563.371 208.163 563.5 209.87 564.77C224.62 575.79 239.56 586.768 254.452 597.767C254.784 598.003 254.974 598.283 255.638 598.864C224.905 598.606 194.646 598.154 164.245 597.745C148.405 586.036 132.611 574.391 116.344 562.381V562.359ZM249.33 597.25C248.808 596.69 248.618 596.411 248.334 596.174C234.817 586.187 221.253 576.199 207.831 566.191C206.55 565.244 205.033 564.942 202.709 564.921C177.383 564.641 152.009 564.297 126.683 563.995C125.639 563.995 124.596 564.081 122.984 564.146C123.79 564.792 124.312 565.222 124.881 565.653C137.971 575.338 151.108 584.981 164.103 594.689C165.763 595.937 167.755 596.324 170.79 596.346C194.978 596.604 219.214 596.927 243.401 597.228C245.204 597.25 246.958 597.228 249.377 597.228L249.33 597.25Z" fill="#042CB0" fill-opacity="0.3"/>
<path fill-rule="evenodd" clip-rule="evenodd" d="M1220.02 466.711C1218.98 465.893 1218.22 465.333 1217.55 464.752C1204.56 453.861 1191.66 442.97 1178.52 432.1C1176.91 430.765 1176.95 429.775 1178.52 428.462C1191.7 417.528 1204.7 406.572 1217.79 395.616C1218.41 395.1 1219.12 394.626 1220.02 393.938C1220.92 394.54 1221.68 394.971 1222.25 395.466C1235.48 406.551 1248.66 417.636 1261.9 428.721C1263.04 429.668 1263.65 430.464 1262.32 431.562C1248.62 442.948 1235.05 454.356 1221.44 465.764C1221.16 466.022 1220.68 466.237 1219.97 466.711H1220.02ZM1220.11 397.209C1219.54 397.575 1219.07 397.769 1218.79 398.027C1206.41 408.402 1194.08 418.798 1181.6 429.151C1180.32 430.206 1181.03 430.938 1182.08 431.798C1194.17 441.915 1206.22 452.031 1218.31 462.148C1218.79 462.556 1219.5 462.901 1220.26 463.353C1220.87 462.944 1221.25 462.707 1221.58 462.449C1233.82 452.203 1246.01 441.936 1258.29 431.712C1259.53 430.679 1259.57 429.904 1258.29 428.85C1246.25 418.819 1234.25 408.746 1222.25 398.694C1221.68 398.199 1220.92 397.747 1220.07 397.188L1220.11 397.209Z" fill="#042CB0" fill-opacity="0.3"/>
<path fill-rule="evenodd" clip-rule="evenodd" d="M576.149 418.364C577.477 417.331 578.331 416.642 579.232 415.953C593.27 405.6 607.356 395.247 621.252 384.851C623.055 383.495 625.047 382.978 628.556 382.935C656.017 382.656 683.429 382.29 710.89 381.945C712.123 381.945 713.356 381.988 715.253 382.031C714.399 382.677 713.878 383.108 713.309 383.517C698.748 394.257 684.188 404.976 669.723 415.738C668.205 416.857 666.593 417.417 663.605 417.439C635.813 417.74 608.068 418.084 580.275 418.429C579.184 418.429 578.094 418.386 576.102 418.343L576.149 418.364ZM582.172 416.793C584.401 416.793 585.682 416.793 586.915 416.793C611.767 416.492 636.619 416.147 661.471 415.91C664.696 415.889 666.403 415.329 667.968 414.145C680.726 404.632 693.626 395.161 706.432 385.669C707.238 385.066 707.902 384.421 708.898 383.603C707.38 383.56 706.432 383.517 705.531 383.517C680.204 383.818 654.831 384.162 629.505 384.421C626.374 384.442 624.904 385.109 623.481 386.207C611.198 395.333 598.819 404.417 586.488 413.543C585.208 414.468 583.975 415.415 582.125 416.793H582.172Z" fill="#042CB0" fill-opacity="0.3"/>
<path fill-rule="evenodd" clip-rule="evenodd" d="M805.934 117.933C806.692 117.308 807.119 116.921 807.594 116.577C822.201 105.771 836.904 94.9878 851.416 84.1612C852.934 83.0204 854.641 82.5254 857.582 82.4823C885.374 82.181 913.119 81.8366 940.912 81.4922C942.002 81.4922 943.093 81.5352 944.706 81.5783C943.994 82.2671 943.52 82.8052 942.904 83.2572C928.486 93.9331 913.973 104.609 899.555 115.285C898.227 116.254 896.994 116.942 893.959 116.986C865.55 117.265 837.141 117.674 808.732 118.04C808.115 118.04 807.451 117.997 805.981 117.954L805.934 117.933ZM812.052 116.426C813.759 116.426 814.565 116.426 815.372 116.426C840.698 116.103 866.071 115.78 891.398 115.5C894.385 115.479 896.045 114.919 897.563 113.8C910.511 104.179 923.553 94.5789 936.548 84.9576C937.212 84.484 937.734 83.9675 938.588 83.2572C936.833 83.2141 935.6 83.128 934.367 83.1495C909.325 83.4509 884.331 83.7953 859.289 84.0536C856.254 84.0751 854.689 84.6562 853.219 85.754C840.366 95.3322 827.371 104.867 814.471 114.403C813.712 114.941 813.095 115.522 812.052 116.426Z" fill="#042CB0" fill-opacity="0.3"/>
<path fill-rule="evenodd" clip-rule="evenodd" d="M806.074 141.611C807.307 141.568 808.066 141.482 808.872 141.503C837.281 141.869 865.69 142.235 894.147 142.558C896.281 142.58 897.704 142.859 898.889 143.742C913.782 154.805 928.769 165.869 943.756 176.911C944.088 177.147 944.277 177.427 944.704 177.901C942.997 177.944 941.621 178.03 940.246 178.008C912.786 177.685 885.373 177.341 857.912 177.018C855.351 176.997 853.407 176.803 851.842 175.662C836.902 164.513 821.773 153.406 806.738 142.3C806.548 142.171 806.501 142.041 806.074 141.611ZM938.539 176.243C937.685 175.512 937.116 174.93 936.357 174.392C923.504 164.9 910.604 155.451 897.893 145.916C896.091 144.56 894.004 144.022 890.542 143.979C866.165 143.72 841.834 143.398 817.457 143.096C815.892 143.096 814.374 143.096 812.382 143.096C812.809 143.613 812.904 143.893 813.236 144.129C826.847 154.181 840.459 164.233 854.023 174.285C855.209 175.167 856.727 175.404 858.813 175.425C884.329 175.727 909.798 176.05 935.314 176.373C936.215 176.373 937.163 176.286 938.539 176.222V176.243Z" fill="#042CB0" fill-opacity="0.3"/>
<path fill-rule="evenodd" clip-rule="evenodd" d="M346.316 381.945C358.078 382.053 368.939 382.139 379.8 382.29C397.68 382.505 415.513 382.806 433.393 382.978C436.476 383 438.373 383.387 440.033 384.636C454.308 395.29 468.679 405.88 483.049 416.492C483.761 417.03 484.33 417.611 485.326 418.45C483.097 418.45 481.532 418.45 479.966 418.45C452.838 418.127 425.71 417.783 398.581 417.46C395.878 417.439 393.791 417.266 392.131 416.018C377.381 404.998 362.442 394.02 347.549 383.022C347.217 382.785 346.98 382.526 346.316 381.945ZM352.624 383.56C353.383 384.248 353.762 384.657 354.237 385.023C367.516 394.817 380.843 404.61 393.981 414.425C395.451 415.523 397.158 415.867 399.862 415.889C424.856 416.169 449.898 416.492 474.892 416.793C476.125 416.793 477.311 416.707 479.113 416.642C478.212 415.932 477.642 415.415 476.979 414.942C464.031 405.407 451.036 395.871 438.23 386.293C436.381 384.894 434.199 384.464 430.784 384.421C406.739 384.184 382.693 383.861 358.647 383.56C356.845 383.56 355.09 383.56 352.529 383.56H352.624Z" fill="#042CB0" fill-opacity="0.3"/>
<path fill-rule="evenodd" clip-rule="evenodd" d="M576.242 177.934C577.333 177.009 578.044 176.385 578.898 175.761C593.079 165.278 607.355 154.796 621.44 144.292C623.195 142.979 625.14 142.549 628.412 142.527C655.873 142.247 683.286 141.86 710.746 141.516C712.026 141.516 713.26 141.516 715.204 141.516C714.398 142.183 713.971 142.613 713.402 143.044C698.842 153.784 684.282 164.503 669.816 175.265C668.346 176.363 666.828 177.009 663.746 177.03C635.669 177.332 607.544 177.676 579.467 178.021C578.661 178.021 577.855 177.978 576.242 177.934ZM709.039 143.151C707.521 143.108 706.715 143.065 705.908 143.065C680.392 143.388 654.924 143.711 629.408 143.991C626.563 144.012 625.045 144.572 623.669 145.605C610.532 155.356 597.3 165.085 584.163 174.813C583.593 175.222 583.309 175.696 582.692 176.32C584.779 176.32 586.392 176.32 588.004 176.32C612.192 176.019 636.38 175.674 660.615 175.459C664.315 175.416 666.401 174.878 668.346 173.436C680.867 164.03 693.625 154.71 706.288 145.347C707.141 144.723 707.853 144.077 709.039 143.13V143.151Z" fill="#042CB0" fill-opacity="0.3"/>
<path fill-rule="evenodd" clip-rule="evenodd" d="M485.608 322.018C469.435 333.964 453.642 345.608 437.801 357.339C407.495 357.726 377.331 358.092 346.551 358.501C347.357 357.748 347.784 357.253 348.4 356.779C362.818 346.103 377.331 335.449 391.702 324.751C393.267 323.567 394.974 322.965 398.199 322.922C425.802 322.642 453.404 322.276 481.007 321.953C482.24 321.953 483.473 321.996 485.608 322.039V322.018ZM479.205 323.675C477.735 323.61 477.071 323.546 476.454 323.546C450.606 323.869 424.806 324.213 398.958 324.471C396.112 324.493 395.021 325.246 393.836 326.129C380.841 335.75 367.798 345.35 354.803 354.971C354.092 355.509 353.57 356.069 352.764 356.758C354.044 356.801 354.661 356.844 355.325 356.844C380.983 356.521 406.641 356.198 432.347 355.918C435.287 355.897 436.663 355.272 438.038 354.261C451.08 344.575 464.218 334.911 477.308 325.225C477.877 324.794 478.399 324.364 479.252 323.675H479.205Z" fill="#042CB0" fill-opacity="0.3"/>
<path fill-rule="evenodd" clip-rule="evenodd" d="M760.497 226.289C759.454 225.471 758.695 224.933 758.031 224.352C745.036 213.46 732.136 202.569 718.998 191.699C717.386 190.365 717.386 189.396 718.998 188.062C732.183 177.128 745.178 166.172 758.268 155.216C758.885 154.699 759.596 154.226 760.497 153.516C761.398 154.118 762.157 154.549 762.726 155.044C775.959 166.129 789.143 177.214 802.376 188.299C803.514 189.246 804.178 190.042 802.85 191.14C789.143 202.526 775.579 213.934 761.968 225.342C761.683 225.6 761.256 225.815 760.497 226.289ZM760.592 223.017C761.304 222.544 761.778 222.242 762.157 221.941C774.394 211.695 786.582 201.428 798.913 191.204C800.194 190.128 799.862 189.353 798.676 188.363C786.63 178.333 774.678 168.26 762.679 158.208C762.11 157.734 761.351 157.325 760.45 156.766C759.501 157.476 758.837 157.971 758.221 158.488C746.459 168.346 734.744 178.225 722.888 188.062C721.322 189.375 721.275 190.365 722.888 191.699C734.792 201.536 746.459 211.416 758.221 221.274C758.885 221.833 759.691 222.35 760.592 223.039V223.017Z" fill="#042CB0" fill-opacity="0.3"/>
<path fill-rule="evenodd" clip-rule="evenodd" d="M1220.02 226.289C1218.98 225.492 1218.22 224.933 1217.55 224.352C1204.56 213.46 1191.61 202.569 1178.52 191.699C1176.91 190.386 1176.91 189.396 1178.52 188.062C1191.71 177.128 1204.7 166.172 1217.79 155.216C1218.41 154.699 1219.12 154.226 1220.02 153.516C1220.92 154.118 1221.68 154.549 1222.25 155.044C1235.48 166.129 1248.67 177.214 1261.9 188.299C1263.04 189.246 1263.7 190.042 1262.37 191.14C1248.67 202.526 1235.1 213.934 1221.49 225.342C1221.21 225.6 1220.78 225.815 1220.02 226.289ZM1220.16 156.68C1219.4 157.196 1218.93 157.498 1218.55 157.799C1206.31 168.044 1194.13 178.311 1181.79 188.535C1180.51 189.612 1180.85 190.408 1182.03 191.377C1194.17 201.493 1206.22 211.609 1218.31 221.726C1218.79 222.135 1219.5 222.479 1220.31 222.953C1221.16 222.307 1221.78 221.876 1222.3 221.446C1234.15 211.523 1245.92 201.579 1257.87 191.678C1259.48 190.343 1259.43 189.353 1257.87 188.04C1246.01 178.204 1234.3 168.324 1222.53 158.466C1221.92 157.95 1221.21 157.455 1220.21 156.68H1220.16Z" fill="#042CB0" fill-opacity="0.3"/>
<path fill-rule="evenodd" clip-rule="evenodd" d="M944.801 418.362C939.964 418.362 935.79 418.405 931.569 418.362C907.381 418.061 883.193 417.717 858.958 417.48C855.164 417.437 852.84 416.92 850.8 415.392C836.857 404.931 822.629 394.514 808.543 384.096C807.736 383.493 806.93 382.869 805.887 382.073C807.215 382.008 807.973 381.922 808.732 381.922C837.141 382.266 865.55 382.654 894.007 382.977C896.378 382.998 897.801 383.386 899.034 384.311C913.831 395.31 928.771 406.309 943.615 417.286C943.947 417.523 944.137 417.803 944.754 418.362H944.801ZM812.195 383.558C812.953 384.225 813.285 384.634 813.76 385C827.039 394.793 840.319 404.587 853.504 414.402C854.974 415.5 856.681 415.844 859.385 415.887C884.379 416.167 909.42 416.49 934.415 416.791C935.648 416.791 936.833 416.726 938.636 416.662C937.64 415.887 936.976 415.306 936.264 414.768C923.506 405.34 910.654 395.956 898.038 386.485C895.999 384.935 893.627 384.44 889.833 384.419C866.594 384.182 843.402 383.859 820.162 383.579C817.744 383.558 815.325 383.579 812.1 383.579L812.195 383.558Z" fill="#042CB0" fill-opacity="0.3"/>
<path fill-rule="evenodd" clip-rule="evenodd" d="M530.948 286.381C529.715 285.477 528.909 284.938 528.245 284.379C515.25 273.488 502.302 262.575 489.212 251.705C487.837 250.586 487.457 249.703 488.927 248.477C502.255 237.413 515.439 226.307 528.672 215.222C529.193 214.791 529.81 214.382 530.901 213.586C545.556 225.876 559.926 237.887 574.344 249.983C560.021 262.015 545.698 274.004 530.948 286.381ZM491.251 249.833C495.52 254.396 528.529 281.624 531.327 282.829C544.417 271.852 557.46 260.918 570.502 249.962C557.318 238.92 544.323 228.007 530.806 216.685C517.242 228.05 504.246 238.963 491.251 249.833Z" fill="#042CB0" fill-opacity="0.3"/>
<path fill-rule="evenodd" clip-rule="evenodd" d="M946.789 249.981C961.16 237.949 975.435 225.96 989.995 213.734C990.944 214.251 991.703 214.574 992.177 214.983C1005.6 226.197 1018.93 237.432 1032.35 248.625C1033.34 249.443 1033.77 250.132 1032.63 251.057C1018.88 262.508 1005.22 274.002 991.513 285.474C991.323 285.647 990.896 285.776 990.043 286.206C975.53 274.045 961.207 262.035 946.789 249.96V249.981ZM990.375 283.257C1003.94 271.871 1017.03 260.894 1029.98 250.046C1021.58 242.06 992.983 218.513 989.853 217.092C976.763 228.069 963.721 239.004 950.678 249.96C963.815 260.98 976.858 271.893 990.375 283.236V283.257Z" fill="#042CB0" fill-opacity="0.3"/>
<path fill-rule="evenodd" clip-rule="evenodd" d="M71.2832 213.453C86.0805 225.851 100.356 237.818 114.821 249.98C100.546 261.969 86.1754 274.001 71.7575 286.076C68.8644 284.763 32.962 255.102 27.8398 249.85C42.068 237.926 56.3911 225.894 71.2358 213.453H71.2832ZM110.98 249.98C97.8425 238.959 84.8 228.025 71.2832 216.703C57.7664 228.046 44.7239 238.981 31.7763 249.85C35.8076 254.177 69.0067 281.62 71.8049 282.868C84.8474 271.956 97.7951 261.065 110.98 250.001V249.98Z" fill="#042CB0" fill-opacity="0.3"/>
<path fill-rule="evenodd" clip-rule="evenodd" d="M990.518 454.031C1005.27 466.408 1019.54 478.397 1033.87 490.407C1019.5 502.461 1005.17 514.45 990.566 526.697C989.522 526.03 988.763 525.621 988.194 525.147C974.962 514.062 961.73 502.977 948.45 491.892C947.264 490.902 946.98 490.127 948.26 489.051C961.73 477.858 975.057 466.623 988.431 455.409C988.858 455.043 989.427 454.698 990.471 454.031H990.518ZM990.328 523.705C1003.89 512.319 1016.94 501.384 1029.88 490.515C1023.34 483.928 992.51 458.637 989.712 457.604C976.669 468.56 963.627 479.494 950.632 490.407C963.816 501.449 976.764 512.34 990.328 523.683V523.705Z" fill="#042CB0" fill-opacity="0.3"/>
<path fill-rule="evenodd" clip-rule="evenodd" d="M531.09 454.141C545.65 466.366 559.973 478.355 574.343 490.409C560.02 502.441 545.697 514.43 531.137 526.634C530.189 526.117 529.43 525.795 528.955 525.386C515.534 514.171 502.207 502.957 488.785 491.743C487.789 490.925 487.362 490.237 488.5 489.311C502.254 477.86 515.913 466.366 529.62 454.894C529.809 454.722 530.236 454.571 531.09 454.141ZM491.203 490.28C496.278 495.532 528.481 522.071 531.327 523.255C544.417 512.277 557.459 501.343 570.502 490.409C557.317 479.367 544.275 468.454 530.805 457.132C517.241 468.497 504.198 479.431 491.251 490.301L491.203 490.28Z" fill="#042CB0" fill-opacity="0.3"/>
<path fill-rule="evenodd" clip-rule="evenodd" d="M71.0472 526.74C56.3922 514.449 42.0691 502.46 27.7461 490.407C42.1166 478.375 56.3922 466.386 70.9049 454.203C71.7586 454.634 72.5174 454.892 72.8968 455.236C86.3662 466.515 99.7881 477.815 113.305 489.094C114.301 489.912 114.728 490.6 113.589 491.526C99.883 502.912 86.3188 514.342 72.7071 525.749C72.4226 525.986 71.9957 526.201 71.0946 526.74H71.0472ZM71.2843 523.683C84.9434 512.232 97.9859 501.298 110.981 490.385C97.7962 479.322 84.7537 468.409 71.2843 457.109C57.7201 468.495 44.6776 479.429 31.5877 490.407C44.6776 501.406 57.7201 512.34 71.2843 523.705V523.683Z" fill="#042CB0" fill-opacity="0.3"/>
<path fill-rule="evenodd" clip-rule="evenodd" d="M71.3749 574.324C72.4657 575.164 73.2246 575.723 73.8885 576.305C86.7888 587.131 99.6416 597.979 112.684 608.784C114.249 610.097 114.486 611.131 112.684 612.422C109.791 614.553 107.325 616.813 104.716 619.008C103.768 619.826 102.629 620.3 100.163 619.633C102.914 617.286 105.475 614.919 108.51 612.659C110.408 611.238 110.455 610.119 108.653 608.612C96.8908 598.926 85.366 589.176 73.7937 579.447C73.1297 578.887 72.3235 578.349 71.2801 577.574C70.3315 578.22 69.5727 578.651 69.0035 579.124C57.1467 589.047 45.3848 598.969 33.4331 608.871C31.9154 610.14 31.868 611.109 33.4805 612.314C35.9467 614.144 38.0335 616.06 40.2626 617.932C40.9266 618.492 41.4483 619.073 42.0649 619.676C39.8832 620.149 38.6975 619.869 37.7964 619.095C34.8085 616.555 31.868 614.015 28.6904 611.518C27.315 610.442 28.6904 609.688 29.6389 608.871C38.3655 601.531 47.0921 594.213 55.8188 586.894C60.1346 583.257 64.498 579.619 68.8138 576.003C69.4778 575.465 70.2841 574.97 71.2801 574.281L71.3749 574.324Z" fill="#042CB0" fill-opacity="0.3"/>
<path fill-rule="evenodd" clip-rule="evenodd" d="M530.898 577.494C529.713 578.398 528.906 578.915 528.195 579.496C516.575 589.225 505.098 598.975 493.336 608.661C491.534 610.168 491.534 611.265 493.478 612.707C496.513 614.967 499.075 617.335 501.825 619.681C499.739 620.241 498.458 620.047 497.509 619.251C494.427 616.646 491.344 614.063 488.214 611.481C487.123 610.598 488.119 609.931 488.973 609.221C492.909 605.906 496.845 602.613 500.782 599.298C509.841 591.7 518.899 584.123 527.91 576.547C528.669 575.901 529.523 575.277 530.566 574.438C531.42 574.933 532.179 575.277 532.653 575.686C545.98 586.835 559.26 598.006 572.634 609.134C573.962 610.232 574.01 611.115 572.634 612.191C569.741 614.408 567.133 616.711 564.477 618.992C563.528 619.789 562.485 620.349 559.829 619.746C562.011 617.873 564.24 616.022 566.374 614.15C571.401 609.759 571.496 611.524 566.421 607.24C555.703 598.136 544.794 589.074 533.981 579.991C533.127 579.28 532.226 578.592 530.946 577.515L530.898 577.494Z" fill="#042CB0" fill-opacity="0.3"/>
<path fill-rule="evenodd" clip-rule="evenodd" d="M990.375 574.242C991.466 575.125 992.13 575.62 992.747 576.136C1005.74 587.028 1018.69 597.94 1031.78 608.81C1033.39 610.144 1033.49 611.156 1031.78 612.448C1028.98 614.514 1026.61 616.709 1024.1 618.862C1023.19 619.615 1022.34 620.304 1019.64 619.787C1019.97 619.357 1020.21 618.883 1020.68 618.474C1023.29 616.257 1025.9 614.04 1028.55 611.866C1029.5 611.113 1029.88 610.467 1028.89 609.606C1016.37 599.189 1003.94 588.728 991.466 578.31C991.229 578.117 991.039 577.923 990.518 577.492C989.427 578.267 988.668 578.719 988.099 579.214C976.242 589.137 964.48 599.06 952.528 608.961C950.963 610.231 951.106 611.199 952.671 612.405C955.706 614.751 958.409 617.161 961.397 619.658C959.453 620.175 958.125 620.132 957.176 619.314C953.999 616.666 950.774 614.019 947.738 611.328C947.264 610.898 947.548 610.188 947.975 609.692C948.829 608.745 950.062 607.863 951.153 606.959C963.294 596.778 975.436 586.597 987.577 576.416C988.336 575.792 989.19 575.189 990.423 574.242H990.375Z" fill="#042CB0" fill-opacity="0.3"/>
</g>
</svg>
