<svg width="262" height="237" viewBox="0 0 262 237" fill="none" xmlns="http://www.w3.org/2000/svg">
<path d="M260.915 123.42C257.689 98.2146 247.551 73.1404 234.36 52.6367C217.201 25.9637 189.786 4.56448 157.26 0.598587C134.238 -2.20872 107.988 4.94197 90.1845 20.2794C81.3316 27.9063 74.5094 37.3945 70.4823 48.2724C66.1247 60.0412 64.2681 73.5278 54.8791 82.7662C43.596 93.8689 28.0136 99.1809 16.3564 109.778C-9.48968 133.276 -1.94432 175.721 19.8288 199.165C39.4271 220.268 68.5048 216.365 94.6502 220.343C114.498 223.362 131.675 234.372 151.959 236.456C181.306 239.47 211.603 229.805 233.129 209.845C258.191 186.604 264.946 154.91 260.915 123.42Z" fill="#FDF2E9"/>
<mask id="mask0_7509_67314" style="mask-type:alpha" maskUnits="userSpaceOnUse" x="17" y="11" width="223" height="227">
<path d="M238.138 141.902C235.437 120.797 238.701 64.9971 227.656 47.8293C213.289 25.4959 178.581 14.5081 151.347 11.1875C132.071 8.8369 110.092 42.6998 95.1853 55.5419C87.7727 61.9279 77.8888 67.7819 74.5169 76.89C70.8682 86.744 65.5035 92.7402 57.642 100.476C48.1946 109.772 39.1375 118.136 29.3769 127.009C7.73591 146.684 18.0456 185.693 36.2763 205.323C52.686 222.993 77.0328 219.724 98.9244 223.055C115.543 225.583 129.925 234.802 146.909 236.547C171.482 239.071 196.85 230.978 214.873 214.265C235.858 194.806 241.514 168.269 238.138 141.902Z" fill="#FDF2E9"/>
</mask>
<g mask="url(#mask0_7509_67314)">
<path d="M144.049 153.987C143.614 153.438 142.957 153.126 142.267 153.125L95.4887 153.309L74.8187 153.39C73.9317 153.392 73.1473 153.901 72.7694 154.712C72.3916 155.526 72.5047 156.46 73.0651 157.156L84.2102 170.975C84.8676 171.792 84.7524 173.002 83.9519 173.675L33.1777 216.345V216.841L84.191 173.97C85.1516 173.162 85.2914 171.711 84.5005 170.734L73.3565 156.916C72.889 156.335 72.795 155.554 73.1099 154.874C73.4258 154.197 74.0801 153.774 74.8208 153.772L95.7971 153.69L142.268 153.507H142.275C142.854 153.507 143.394 153.77 143.756 154.226C144.121 154.687 144.255 155.28 144.128 155.855L136.074 192.156L134.077 201.154L129.531 221.647C129.368 222.383 128.838 222.925 128.115 223.098C127.391 223.271 126.678 223.027 126.208 222.443L115.558 209.238L112.448 205.383C112.061 204.902 111.514 204.605 110.904 204.546C110.297 204.486 109.702 204.671 109.233 205.067L75.8188 233.147H76.4079L109.473 205.36C109.866 205.031 110.361 204.876 110.868 204.926C111.376 204.976 111.833 205.224 112.155 205.625L115.265 209.483L125.914 222.686C126.471 223.374 127.348 223.674 128.201 223.47C129.055 223.265 129.705 222.598 129.898 221.731L134.38 201.529V201.528L136.461 192.155L144.496 155.94C144.648 155.25 144.486 154.539 144.049 153.987Z" fill="#989898"/>
<path d="M190.065 142.864L176.536 203.48C176.182 205.065 174.17 205.544 173.151 204.286L163.84 192.812L162.777 191.501V191.5L162.495 191.155L160.397 188.568C159.718 187.73 158.49 187.61 157.663 188.301L145.33 198.603L145.06 198.829L103.981 233.144H45.833L134.232 159.379C135.051 158.696 135.168 157.475 134.495 156.645L127.016 147.426L126.73 147.075L124.166 143.914C123.136 142.644 124.028 140.737 125.656 140.731L148.81 140.641H148.811L154.515 140.618H154.516L163.283 140.583L164.775 140.578L168.417 140.564H168.418L170.779 140.555H170.782L177.144 140.53L182.479 140.51H182.48L188.171 140.487C189.413 140.482 190.339 141.644 190.065 142.864Z" fill="#AEC0FC"/>
<path d="M86.334 233.146H119.694L147.099 210.12C147.493 209.788 148.076 209.846 148.401 210.247L156.098 219.788C156.584 220.392 157.542 220.162 157.712 219.402L163.657 192.605L165.623 183.745C165.753 183.159 165.313 182.603 164.722 182.606L164.521 182.607L164.163 182.608L128.16 182.749C127.385 182.751 126.959 183.665 127.45 184.273L133.758 192.094C134.079 192.491 134.023 193.077 133.632 193.404L86.334 233.146Z" fill="#CBCBCB"/>
<path d="M99.0902 69.9896C99.0902 69.9896 100.902 65.8958 105.488 66.4087C110.074 66.9217 109.528 71.0253 111.711 70.6406C113.895 70.2558 116.952 70.6406 117.607 73.2053C118.262 75.7701 121.21 74.3594 121.319 76.5395C121.428 78.7195 117.935 80.2584 113.895 78.3348C109.855 76.4112 107.89 79.8292 102.213 79.2102C96.5352 78.5913 95.8318 77.8219 92.4714 78.2066C89.111 78.5913 89.1907 75.8888 90.7193 74.0934C92.2479 72.298 98.4351 72.4689 99.0902 69.9896Z" fill="white"/>
<path d="M207.125 103.462C207.125 103.462 204.707 98.6588 198.588 99.2607C192.469 99.8625 193.197 104.678 190.283 104.226C187.369 103.775 183.29 104.226 182.416 107.235C181.542 110.245 177.608 108.59 177.462 111.148C177.317 113.706 181.979 115.511 187.369 113.254C192.76 110.997 195.382 115.008 202.958 114.281C210.534 113.555 211.473 112.652 215.957 113.104C220.442 113.555 220.335 110.384 218.295 108.277C216.256 106.171 207.999 106.371 207.125 103.462Z" fill="white"/>
<path d="M180.793 29.4111C180.793 29.4111 180.712 28.9155 180.47 28.9155C180.228 28.9156 179.864 29.0495 179.703 29.4111C179.541 29.7728 180.793 29.4111 180.793 29.4111Z" fill="#FFC19D"/>
<path d="M174.625 37.298L174.867 33.3894L175.634 29.3652C175.634 29.3652 176.239 28.7107 176.562 28.8628C176.885 29.0151 176.764 29.5529 176.764 29.5529C176.764 29.5529 177.611 28.6268 177.934 28.8399C178.256 29.0531 178.135 29.5529 178.135 29.5529C178.135 29.5529 178.902 28.525 179.265 28.8081C179.628 29.0911 179.265 29.5529 179.265 29.5529C179.265 29.5529 179.746 34.0616 179.504 35.6723C179.262 37.283 177.906 37.8813 177.906 37.8813L176.845 42.0555L173.363 40.1227L174.625 37.298Z" fill="#F3B783"/>
<path d="M178.968 32.2852L160.609 32.0792V30.593L178.968 30.0723V32.2852Z" fill="#FF735D"/>
<path d="M198.354 33.7602L172.413 32.6517C172.089 31.7601 172.077 30.7949 172.394 29.7518L198.171 28.6021C199.358 29.8491 199.371 32.4768 198.354 33.7602Z" fill="#FF735D"/>
<path d="M198.1 28.8462C198.1 28.8462 197.318 29.5864 197.349 31.1981C197.379 32.8098 198.164 33.4873 198.164 33.4873C198.164 33.4873 199.015 32.5777 198.891 30.9623C198.77 29.3835 198.1 28.8462 198.1 28.8462Z" fill="#E1E1E1"/>
<path d="M197.066 33.7634C197.047 33.7799 196.818 33.5638 196.561 33.1266C196.306 32.6952 196.035 32.0139 196.049 31.222C196.061 30.4466 196.256 29.749 196.505 29.3046C196.749 28.8552 196.994 28.6494 197.01 28.6665C197.038 28.6896 196.84 28.9276 196.642 29.3733C196.44 29.8153 196.278 30.4789 196.266 31.2265C196.252 31.9655 196.484 32.6172 196.696 33.0534C196.91 33.4936 197.093 33.7421 197.066 33.7634Z" fill="#1A2E35"/>
<path d="M198.224 28.6581C198.252 28.6803 198.061 28.9262 197.855 29.3728C197.647 29.8153 197.441 30.4775 197.459 31.2243C197.471 31.9722 197.701 32.6258 197.923 33.0603C198.13 33.516 198.394 33.6705 198.384 33.6935C198.38 33.7055 198.297 33.6915 198.178 33.6048C198.059 33.5195 197.92 33.3546 197.79 33.1365C197.524 32.7049 197.255 32.0205 197.242 31.2288C197.224 30.437 197.467 29.7424 197.718 29.302C197.969 28.8556 198.206 28.6415 198.224 28.6581Z" fill="#1A2E35"/>
<path d="M198.56 30.0061C198.526 29.9223 198.486 29.8388 198.422 29.7758C198.358 29.7127 198.265 29.6728 198.178 29.6917C198.091 29.7106 198.022 29.7859 197.998 29.872C197.973 29.9582 197.988 30.0526 198.025 30.1339C198.119 30.3238 198.273 30.4999 198.268 30.6894C198.263 30.8789 198.216 31.0671 198.231 31.256C198.237 31.3252 198.252 31.3958 198.292 31.4526C198.331 31.5093 198.399 31.5496 198.467 31.5401C198.578 31.5246 198.634 31.3974 198.659 31.2872C198.758 30.8635 198.722 30.4092 198.56 30.0061Z" fill="white"/>
<path d="M172.413 32.7441C172.366 32.7717 172.04 32.1177 172.058 31.2372C172.069 30.3563 172.417 29.7139 172.463 29.7431C172.524 29.7669 172.284 30.4111 172.275 31.2409C172.256 32.0702 172.475 32.7224 172.413 32.7441Z" fill="#1A2E35"/>
<path d="M160.572 32.4385C160.418 32.4385 160.292 32.3116 160.292 32.155V30.5833C160.292 30.4267 160.418 30.2998 160.572 30.2998C160.727 30.2998 160.853 30.4267 160.853 30.5833V32.155C160.853 32.3116 160.727 32.4385 160.572 32.4385Z" fill="#FF735D"/>
<path d="M160.574 32.4378C160.572 32.4196 160.648 32.4182 160.724 32.3411C160.76 32.3029 160.793 32.244 160.793 32.1736C160.788 32.0759 160.783 31.9779 160.778 31.8783C160.77 31.624 160.763 31.3641 160.755 31.0957C160.753 30.944 160.75 30.7905 160.748 30.6335C160.763 30.4944 160.682 30.4148 160.574 30.4086C160.466 30.4147 160.385 30.4944 160.4 30.6334C160.397 30.7905 160.395 30.9439 160.393 31.0957C160.385 31.3641 160.378 31.624 160.37 31.8784C160.365 31.978 160.36 32.0759 160.355 32.1737C160.355 32.2441 160.387 32.3029 160.424 32.3411C160.5 32.4182 160.576 32.4196 160.574 32.4378C160.578 32.4474 160.495 32.4851 160.37 32.4072C160.312 32.3679 160.249 32.2924 160.234 32.1843C160.228 32.083 160.223 31.9815 160.217 31.8784C160.209 31.624 160.202 31.3641 160.194 31.0957C160.191 30.9439 160.189 30.7905 160.187 30.6334C160.179 30.5628 160.198 30.4155 160.273 30.3348C160.343 30.2455 160.457 30.1889 160.574 30.1895C160.691 30.189 160.805 30.2457 160.875 30.335C160.95 30.4157 160.969 30.563 160.961 30.6335C160.958 30.7905 160.956 30.944 160.954 31.0957C160.946 31.3641 160.939 31.624 160.931 31.8783C160.925 31.9814 160.919 32.083 160.914 32.1842C160.899 32.2924 160.836 32.3679 160.777 32.4072C160.653 32.485 160.57 32.4474 160.574 32.4378Z" fill="#1A2E35"/>
<path d="M164.037 35.9063C164.037 35.9063 163.679 31.4377 163.785 31.0458C163.907 30.5972 165.111 29.2739 165.537 29.226C165.963 29.1781 166.01 29.657 166.01 29.657C166.01 29.657 166.609 29.2408 167.194 29.2227C167.815 29.2033 167.896 29.7569 167.896 29.7569C167.896 29.7569 168.243 29.4986 168.838 29.6069C169.089 29.6524 169.376 30.1029 169.376 30.1029C169.376 30.1029 170.001 29.8305 170.298 30.1123C170.672 30.467 170.667 31.1004 170.667 31.1004C170.087 31.0568 169.562 31.456 169.562 31.456C169.562 31.456 169.419 33.3924 169.182 34.3501C168.945 35.3079 168.009 36.099 167.694 36.5948L167.446 39.8997L163.425 37.7453L164.037 35.9063Z" fill="#F3B783"/>
<path d="M164.942 31.3845C164.891 31.3923 164.875 30.7977 165.275 30.2258C165.67 29.6493 166.227 29.4616 166.238 29.513C166.265 29.566 165.794 29.8152 165.438 30.341C165.072 30.8597 165.001 31.3927 164.942 31.3845Z" fill="#FF9C6A"/>
<path d="M166.907 31.3111C166.86 31.3289 166.745 30.7969 167.073 30.2507C167.233 29.9839 167.473 29.8082 167.663 29.7429C167.855 29.6747 167.981 29.6905 167.983 29.7137C167.998 29.7694 167.521 29.8685 167.242 30.3566C166.953 30.8275 166.967 31.3123 166.907 31.3111Z" fill="#FF9C6A"/>
<path d="M168.347 31.1593C168.295 31.1502 168.381 30.7253 168.758 30.3825C169.131 30.0362 169.558 29.9895 169.562 30.0421C169.577 30.0989 169.22 30.2231 168.891 30.531C168.557 30.8326 168.401 31.1798 168.347 31.1593Z" fill="#FF9C6A"/>
<path d="M177.228 36.3492C177.914 35.5329 177.391 33.3441 177.391 33.3441C177.391 33.3441 178.359 33.0176 178.602 32.038C178.844 31.0583 178.359 30.895 178.359 30.895C178.198 30.9767 176.705 31.9563 175.938 32.3645C175.172 32.7726 174.93 36.9295 174.93 36.9295" fill="#F3B783"/>
<path d="M174.929 36.9327C174.915 36.9319 174.913 36.7377 174.93 36.3876C174.948 36.0377 174.983 35.5316 175.059 34.9087C175.147 34.2883 175.225 33.5405 175.54 32.7464C175.586 32.6488 175.632 32.5491 175.704 32.4557C175.766 32.3615 175.896 32.2723 175.981 32.2331C176.166 32.13 176.354 32.019 176.545 31.9041C176.923 31.6685 177.315 31.4252 177.716 31.176C177.917 31.0506 178.103 30.9284 178.314 30.8072L178.353 30.7847L178.391 30.8016C178.576 30.8843 178.661 31.034 178.714 31.1846C178.765 31.3363 178.772 31.4896 178.764 31.635C178.743 31.9235 178.679 32.2002 178.55 32.4481C178.292 32.9422 177.859 33.2613 177.417 33.4284L177.473 33.3273C177.664 34.2514 177.684 35.0421 177.583 35.5836C177.537 35.8553 177.442 36.0544 177.371 36.1817C177.286 36.302 177.233 36.3576 177.227 36.3524C177.22 36.346 177.259 36.2794 177.327 36.1569C177.38 36.0261 177.457 35.8328 177.487 35.5675C177.557 35.0425 177.513 34.2642 177.309 33.3675L177.292 33.2951L177.364 33.2664C177.755 33.11 178.16 32.8015 178.381 32.3604C178.492 32.1435 178.549 31.8835 178.566 31.6244C178.589 31.3762 178.51 31.0802 178.327 30.995L178.404 30.9895C178.222 31.0953 178.019 31.2275 177.823 31.3499C177.422 31.6023 177.03 31.8474 176.646 32.0768C176.454 32.1913 176.263 32.3018 176.073 32.4053C175.965 32.4593 175.916 32.4946 175.855 32.5737C175.796 32.646 175.752 32.737 175.709 32.8249C175.404 33.5661 175.305 34.3194 175.201 34.9287C175.107 35.545 175.05 36.0475 175.009 36.3944C174.967 36.7415 174.943 36.9336 174.929 36.9327Z" fill="#FF9C6A"/>
<path d="M123.25 28.6677C124.133 28.7814 124.879 29.4147 125.713 29.7633C127.279 30.4178 129.048 30.0078 130.388 29.1961C131.729 28.3845 132.763 27.2142 133.935 26.2016C135.106 25.1889 136.02 24.1912 137.831 23.829C141.024 23.1904 144.56 25.7197 143.348 28.3172L140.741 29.5638C139.896 33.4971 137.662 37.0399 134.466 39.5167C133.832 40.008 133.102 40.4766 132.247 40.4601C131.392 40.4437 130.445 39.7208 130.543 38.9244C129.231 39.3459 127.88 39.7624 126.454 39.701C125.027 39.6396 123.489 39.0023 122.73 37.7947C121.972 36.587 122.347 34.828 123.672 34.4367C122.343 33.796 121.14 32.6475 120.918 31.2821C120.696 29.9167 121.81 28.4823 123.25 28.6677Z" fill="#1A2E35"/>
<path d="M149.578 20.2912C147.781 19.9987 146.21 20.7117 144.705 21.7482C143.201 22.7848 142.075 24.3392 141.432 26.0616C140.755 27.8758 140.604 29.9119 141.152 31.7699C141.701 33.6282 142.977 35.2845 144.694 36.1475C147.038 37.3258 150.019 36.8811 152.094 35.2653C154.168 33.6496 155.339 30.9982 155.416 28.3511C155.469 26.5274 155.022 24.666 154.002 23.1615C152.981 21.6569 151.364 20.5404 149.578 20.2912Z" fill="#1A2E35"/>
<path d="M144.532 26.5076C144.788 25.8108 144.679 25.0365 144.777 24.2996C144.991 22.6768 145.571 21.2004 147.058 20.5551C148.442 19.955 150.839 20.2337 152.517 20.766C153.667 21.1308 154.752 21.7752 155.525 22.7108C156.551 23.9526 156.923 25.7163 156.49 27.2738L148.283 26.1392C147.521 26.7882 146.741 27.4484 145.813 27.8148C145.541 27.9224 145.248 28.004 144.959 27.9603C144.67 27.9166 144.388 27.7206 144.317 27.4338C144.239 27.1206 144.42 26.8103 144.532 26.5076Z" fill="#1A2E35"/>
<path d="M144.551 41.6515L144.329 25.9857C144.336 25.2838 144.873 24.7042 145.565 24.6513L152.708 23.0539C154.985 22.8799 156.411 25.7537 156.486 28.063C156.57 30.6285 156.572 33.7642 156.215 35.6656C155.498 39.4893 152.572 39.8899 152.572 39.8899C152.572 39.8769 152.571 40.0365 152.513 41.4321C152.513 41.4321 153.566 44.5948 150.371 44.3029C148.292 44.1129 144.551 41.6515 144.551 41.6515Z" fill="#F3B783"/>
<g opacity="0.2">
<path d="M152.573 39.8906C152.573 39.8906 150.013 39.9797 147.527 38.3638C147.527 38.3638 148.727 41.0621 152.539 40.818L152.573 39.8906Z" fill="black"/>
</g>
<path d="M143.207 25.3982C143.929 23.1872 147.142 20.1548 149.437 20.3428L153.079 22.6089C152.843 23.8705 151.867 24.9602 150.648 25.3205C149.998 25.5129 149.216 25.5591 148.825 26.1188C148.425 26.6903 148.646 27.5315 148.273 28.1214C147.756 28.9389 146.368 28.8843 145.977 29.7705C145.806 30.1578 145.888 30.6235 145.711 31.0076C145.474 31.5194 144.18 32.157 143.65 31.9802C143.119 31.8035 143.128 30.8867 142.959 30.4043C142.671 29.58 142.798 29.1559 142.901 28.6984C143.145 27.615 142.862 26.4531 143.207 25.3982Z" fill="#1A2E35"/>
<path d="M145.218 32.4517C145.226 32.1657 144.919 31.4812 144.641 31.4286C143.899 31.2883 142.552 31.3081 142.483 33.2239C142.388 35.8429 145.007 35.399 145.014 35.324C145.02 35.2655 145.191 33.4397 145.218 32.4517Z" fill="#F3B783"/>
<path d="M144.26 34.3086C144.249 34.2998 144.214 34.3388 144.136 34.3713C144.061 34.403 143.932 34.4221 143.799 34.3658C143.528 34.2543 143.314 33.8064 143.318 33.3339C143.32 33.0953 143.378 32.8702 143.468 32.6854C143.554 32.4967 143.682 32.3673 143.821 32.3478C143.959 32.3207 144.053 32.4077 144.082 32.4825C144.115 32.5572 144.096 32.6089 144.11 32.6137C144.117 32.6207 144.167 32.572 144.15 32.4632C144.141 32.4107 144.113 32.3477 144.054 32.2952C143.994 32.2418 143.903 32.2124 143.807 32.2192C143.606 32.2259 143.42 32.405 143.321 32.6079C143.21 32.8113 143.14 33.0642 143.138 33.3321C143.135 33.8605 143.385 34.3641 143.755 34.4874C143.936 34.5422 144.09 34.4924 144.171 34.4334C144.253 34.3719 144.269 34.3137 144.26 34.3086Z" fill="#FF9C6A"/>
<path d="M152.321 21.8251C152.569 22.8889 154.182 24.2414 154.892 25.065C156.247 26.6365 156.516 27.1598 156.534 30.6996C157.156 29.4715 157.631 28.2693 157.57 26.8905C157.51 25.5116 156.995 24.1343 156.039 23.1501C155.083 22.1659 153.67 21.6152 152.321 21.8251Z" fill="#1A2E35"/>
<path d="M142.479 24.2178C142.545 24.2696 141.712 25.2043 141.274 26.646C140.816 28.0817 140.969 29.3305 140.885 29.3341C140.825 29.3601 140.543 28.0702 141.021 26.5652C141.482 25.0556 142.444 24.1619 142.479 24.2178Z" fill="#375A64"/>
<path d="M123.259 27.4257C123.276 27.4057 123.482 27.5996 123.92 27.8346C124.358 28.0628 125.052 28.3042 125.938 28.3107C126.821 28.3298 127.866 28.0768 128.918 27.5483C129.978 27.0328 131.036 26.2641 132.183 25.4993C133.327 24.7351 134.51 24.0853 135.695 23.8175C136.872 23.536 137.978 23.5748 138.87 23.7327C139.766 23.8952 140.453 24.176 140.904 24.4066C141.129 24.5231 141.299 24.6211 141.409 24.6975C141.521 24.7706 141.577 24.8126 141.572 24.8206C141.548 24.8854 140.607 24.1992 138.84 23.9202C137.965 23.7896 136.889 23.7725 135.752 24.0581C134.612 24.3295 133.465 24.965 132.328 25.7243C131.19 26.4828 130.115 27.2559 129.024 27.7715C127.943 28.3003 126.848 28.5458 125.933 28.5007C125.016 28.4694 124.304 28.1893 123.87 27.926C123.652 27.7914 123.496 27.6682 123.398 27.5767C123.301 27.4841 123.253 27.4326 123.259 27.4257Z" fill="#1A2E35"/>
<path d="M136.706 29.0842C136.7 29.0772 136.743 29.0307 136.832 28.9471C136.927 28.8716 137.071 28.7591 137.285 28.6658C137.707 28.4652 138.394 28.3577 139.212 28.4609C140.031 28.5451 140.965 28.8793 142.011 28.8519C142.53 28.8366 143.056 28.6689 143.534 28.3643C144.012 28.0563 144.445 27.6377 144.879 27.1937C145.314 26.7502 145.745 26.3074 146.225 25.9449C146.707 25.5824 147.252 25.3364 147.782 25.203C148.841 24.9315 149.813 24.8854 150.57 24.6252C151.333 24.3813 151.875 23.9955 152.164 23.655C152.461 23.3174 152.533 23.0632 152.559 23.0762C152.568 23.0794 152.551 23.141 152.511 23.2571C152.465 23.3698 152.388 23.5367 152.244 23.7215C151.967 24.0989 151.412 24.5301 150.63 24.8052C149.849 25.0978 148.865 25.1653 147.846 25.4419C147.335 25.5786 146.836 25.8102 146.38 26.1563C145.925 26.5048 145.504 26.9371 145.067 27.3835C144.632 27.8287 144.184 28.262 143.672 28.5876C143.162 28.9107 142.574 29.0915 142.019 29.0993C140.905 29.1111 139.979 28.7514 139.188 28.6494C138.395 28.5257 137.739 28.6005 137.324 28.7627C136.905 28.9193 136.722 29.1068 136.706 29.0842Z" fill="#375A64"/>
<path d="M150.463 128.979L150.137 136.506C150.137 136.506 157.59 139.368 157.664 140.765L143.216 140.651L143.247 128.903L150.463 128.979Z" fill="#F3B783"/>
<path d="M143.216 140.65L143.265 139.466L157.099 140.018C157.099 140.018 157.74 140.306 157.664 140.764L143.216 140.65Z" fill="#1A2E35"/>
<path d="M150.257 134.707C150.227 134.771 149.904 134.67 149.505 134.695C149.105 134.711 148.794 134.844 148.757 134.782C148.717 134.73 149.022 134.468 149.492 134.446C149.962 134.42 150.292 134.651 150.257 134.707Z" fill="#1A2E35"/>
<path d="M172.732 128.947L172.407 136.474C172.407 136.474 179.86 139.336 179.934 140.733L165.485 140.619L165.516 128.871L172.732 128.947Z" fill="#F3B783"/>
<path d="M165.485 140.618L165.534 139.434L179.369 139.986C179.369 139.986 180.01 140.274 179.934 140.731L165.485 140.618Z" fill="#1A2E35"/>
<path d="M172.526 134.682C172.496 134.747 172.173 134.645 171.774 134.67C171.375 134.686 171.063 134.819 171.027 134.757C170.987 134.705 171.292 134.443 171.762 134.421C172.232 134.395 172.561 134.626 172.526 134.682Z" fill="#1A2E35"/>
<path d="M145.261 72.8623C143.504 76.4668 142.258 79.6239 142.561 83.6161C142.719 85.6894 144.492 88.5173 144.643 90.8757C144.968 95.9338 144.791 105.083 144.544 106.308C143.989 109.061 142.561 115.755 142.561 124.198C142.561 132.641 142.702 135.404 142.702 135.404H150.969C150.969 135.404 151.539 119.352 154.091 110.067C156.461 101.442 159.19 88.329 159.19 82.6392V74.9305L145.261 72.8623Z" fill="#1A2E35"/>
<path d="M163.044 74.1259C163.044 74.1259 173.417 100.281 173.417 107.488C173.417 109.159 172.689 135.404 172.689 135.404H165.069C164.721 124.886 163.351 117.907 163.926 108.029L155.812 89.5978V71.198L162.596 70.1982L163.044 74.1259Z" fill="#1A2E35"/>
<path d="M159.189 87.7798C159.205 87.7837 159.167 88.0151 159.083 88.4297C158.994 88.8876 158.878 89.4785 158.74 90.1878C158.445 91.7158 158.052 93.7469 157.618 95.9921C157.176 98.259 156.76 100.309 156.429 101.786C156.263 102.525 156.119 103.121 156.011 103.531C155.901 103.94 155.832 104.165 155.816 104.161C155.8 104.157 155.839 103.926 155.922 103.511C156.012 103.053 156.127 102.462 156.266 101.753C156.561 100.225 156.953 98.1937 157.387 95.9477C157.83 93.6816 158.245 91.6321 158.577 90.1543C158.742 89.4154 158.886 88.8194 158.994 88.4095C159.105 88.0002 159.174 87.776 159.189 87.7798Z" fill="#375A64"/>
<path d="M153.213 43.3255C153.54 43.3075 168.068 48.128 167.228 47.7727L167.616 47.3634L172.851 39.3799L177.62 42.2405C177.62 42.2405 172.889 51.3863 172.107 52.8192C171.407 54.1028 170.055 55.132 168.253 55.1289C167.188 55.1271 158.089 53.5885 158.089 53.5885L153.213 43.3255Z" fill="#EE7E22"/>
<path d="M140.71 44.3194C137.794 48.0341 138.375 49.61 140.221 54.1564C140.528 54.9105 143.222 61.1302 143.631 62.0091C145.417 65.8479 143.719 71.8733 143.325 73.2842C140.999 81.6161 139.727 111.33 139.727 111.33L142.518 111.369C142.396 106.81 145.201 85.8784 145.645 85.8825C146.497 85.8902 145.592 112.727 146.612 113.088C155.706 116.304 175.576 111.096 175.576 109.74C175.576 107.554 165.897 78.8695 165.417 74.4568C165.181 72.2865 164.264 67.24 163.685 64.6098C162.966 61.3399 161.755 56.8177 161.198 55.1282C160.594 53.2944 154.795 39.8989 152.612 41.8151C151.217 43.0393 149.588 43.8221 147.753 43.2278C147.016 42.9895 146.38 42.5085 145.86 41.9298L144.537 40.457L143.404 42.1111L140.71 44.3194Z" fill="#EE7E22"/>
<g opacity="0.3">
<path d="M141.935 53.9192C141.935 53.9192 149.229 57.7842 152.124 58.5785C160.659 60.9197 161.648 56.8187 161.648 56.8187L157.184 57.0082L148.31 51.8608L141.935 53.9192Z" fill="black"/>
</g>
<path d="M141.201 53.6738C141.076 53.5771 156.455 59.1103 159.588 58.1129C162.721 57.1154 163.782 53.1496 164.634 51.0807C166.323 46.9775 168.518 40.0031 168.518 40.0031L163.002 37.6479L157.33 49.0199C157.33 49.0199 146.09 43.8918 145.035 43.5803C143.98 43.2686 140.72 42.8414 139.125 46.6958C137.357 50.9672 141.201 53.6738 141.201 53.6738Z" fill="#EE7E22"/>
<path d="M141.202 53.6733C141.209 53.6763 141.157 53.6533 141.086 53.5981C141.012 53.5442 140.904 53.4608 140.769 53.3415C140.5 53.1041 140.112 52.7322 139.705 52.1668C139.304 51.6037 138.878 50.8313 138.691 49.8338C138.586 49.3376 138.589 48.7898 138.639 48.2138C138.701 47.9323 138.737 47.6336 138.827 47.3417C138.935 47.0563 139.002 46.7439 139.152 46.4578C139.4 45.863 139.77 45.2819 140.244 44.7542C140.724 44.23 141.355 43.7943 142.086 43.5455C142.816 43.2898 143.636 43.2302 144.453 43.3515C144.658 43.3801 144.862 43.4268 145.066 43.4828C145.268 43.5522 145.467 43.6264 145.66 43.7074C146.052 43.8646 146.444 44.0327 146.843 44.2033C150.03 45.5783 153.568 47.1758 157.382 48.9043L157.22 48.9625C158.974 45.4393 160.889 41.593 162.884 37.5871L162.94 37.4751L163.054 37.5239C163.692 37.7961 164.377 38.0886 165.066 38.3827C166.267 38.8954 167.454 39.4028 168.57 39.8793L168.682 39.927L168.645 40.0433C167.792 42.7166 166.926 45.3031 166.033 47.7747C165.587 49.0096 165.124 50.2163 164.648 51.3799C164.192 52.5462 163.783 53.72 163.212 54.787C162.933 55.3227 162.618 55.8342 162.249 56.2956C161.889 56.7629 161.472 57.1805 161.002 57.5118C160.54 57.8618 160.019 58.0901 159.481 58.2567C158.923 58.3777 158.378 58.3461 157.851 58.3082C155.743 58.1002 153.846 57.5968 152.123 57.1522C148.683 56.2233 145.963 55.3141 144.089 54.6868C142.218 54.0532 141.202 53.6733 141.202 53.6733C141.203 53.6565 141.466 53.7368 141.959 53.8945C142.464 54.0579 143.19 54.2921 144.12 54.5923C146.002 55.1902 148.729 56.0723 152.168 56.9762C153.888 57.4082 155.789 57.8995 157.868 58.0942C158.384 58.1302 158.922 58.1545 159.43 58.0408C159.926 57.8836 160.434 57.6621 160.87 57.3259C161.319 57.0074 161.72 56.6046 162.067 56.1497C162.424 55.7014 162.73 55.2011 163.002 54.6742C163.56 53.6242 163.962 52.464 164.419 51.2867C164.893 50.1195 165.35 48.9213 165.793 47.686C166.68 45.2179 167.543 42.6313 168.393 39.962L168.467 40.1258C167.351 39.6496 166.163 39.1426 164.963 38.6302C164.274 38.336 163.589 38.0434 162.951 37.7711L163.121 37.708C161.121 41.7114 159.201 45.5552 157.442 49.0762L157.389 49.184L157.28 49.1344C153.471 47.3978 149.937 45.788 146.761 44.3996C146.363 44.2304 145.97 44.0638 145.584 43.8998C145.39 43.8172 145.199 43.7452 145.01 43.6784C144.816 43.6244 144.62 43.5783 144.423 43.5498C143.636 43.4284 142.845 43.4815 142.145 43.7224C141.442 43.9568 140.834 44.3693 140.367 44.8722C139.905 45.379 139.539 45.9408 139.292 46.5223C139.143 46.8016 139.075 47.105 138.967 47.3832C138.876 47.6676 138.839 47.9578 138.775 48.2322C138.721 48.7926 138.712 49.3266 138.809 49.8124C138.979 50.7886 139.386 51.5547 139.772 52.1186C140.163 52.6848 140.539 53.0637 140.797 53.3098C141.012 53.5032 141.121 53.6008 141.202 53.6733Z" fill="#1A2E35"/>
<path d="M168.225 51.1493C168.186 51.191 167.612 50.5882 167.291 49.6311C166.961 48.6764 167.046 47.8446 167.102 47.8531C167.171 47.8518 167.189 48.6475 167.505 49.5566C167.81 50.4688 168.28 51.1077 168.225 51.1493Z" fill="#1A2E35"/>
<path d="M157.987 52.3538C157.946 52.3975 157.382 51.7225 157.214 50.6805C157.036 49.6398 157.35 48.8156 157.403 48.8435C157.473 48.859 157.277 49.6632 157.447 50.6409C157.603 51.6208 158.049 52.3158 157.987 52.3538Z" fill="#1A2E35"/>
<path d="M172.69 135.435C172.69 135.51 170.999 135.57 168.914 135.57C166.829 135.57 165.139 135.51 165.139 135.435C165.139 135.361 166.829 135.301 168.914 135.301C170.999 135.301 172.69 135.361 172.69 135.435Z" fill="#375A64"/>
<path d="M150.624 135.435C150.624 135.51 148.827 135.57 146.612 135.57C144.396 135.57 142.6 135.51 142.6 135.435C142.6 135.361 144.396 135.301 146.612 135.301C148.827 135.301 150.624 135.361 150.624 135.435Z" fill="#375A64"/>
<path d="M150.439 136.456C150.439 136.456 146.968 138.528 146.513 139.972L153.443 140.083C153.443 140.083 154.353 138.612 154.746 138.402C155.139 138.193 150.439 136.456 150.439 136.456Z" fill="#1A2E35"/>
<path d="M172.844 136.456C172.844 136.456 169.373 138.528 168.918 139.972L175.848 140.083C175.848 140.083 176.758 138.612 177.151 138.402C177.544 138.193 172.844 136.456 172.844 136.456Z" fill="#1A2E35"/>
</g>
</svg>
