<svg width="260" height="235" viewBox="0 0 260 235" fill="none" xmlns="http://www.w3.org/2000/svg">
<path d="M258.923 122.38C255.722 97.3868 245.662 72.524 232.571 52.1931C215.543 25.7449 188.337 4.52605 156.059 0.593582C133.213 -2.19008 107.163 4.90036 89.496 20.1085C80.7108 27.6711 73.9406 37.0793 69.9443 47.8656C65.6199 59.5351 63.7775 72.9081 54.4602 82.0686C43.2632 93.0777 27.7998 98.345 16.2315 108.853C-9.41724 132.153 -1.92948 174.24 19.6775 197.487C39.1261 218.412 67.9818 214.541 93.9276 218.485C113.624 221.479 130.67 232.397 150.799 234.463C179.922 237.452 209.988 227.868 231.349 208.076C256.22 185.032 262.924 153.605 258.923 122.38Z" fill="#FDF2E9"/>
<path d="M70.0049 222.3L83.4675 222.595L74.6178 218.841L74.2157 215.474C72.852 215.474 72.5228 216.395 71.1457 216.395C70.7564 218.543 70.0049 222.3 70.0049 222.3Z" fill="#17282F"/>
<path d="M49.5928 222.3L63.0554 222.595L54.2057 218.841L53.8036 215.474C52.4399 215.474 52.1107 216.395 50.7336 216.395C50.3443 218.543 49.5928 222.3 49.5928 222.3Z" fill="#17282F"/>
<path d="M130.782 74.0645C132.971 74.2676 136.623 74.4596 138.796 74.2251C140.888 73.9994 142.468 73.4184 143.2 72.9853C143.376 72.8812 143.242 72.5838 143.034 72.6134C142.489 72.6908 141.73 72.8791 141.2 73.0106C139.451 73.445 138.684 73.2405 138.385 72.8755C138.483 72.5176 139.154 72.3144 141.579 71.7523C142.7 71.4923 144.235 71.1364 144.416 70.9458C144.991 69.902 142.513 70.5488 141.419 70.8965C140.294 71.2546 139.159 71.7603 138.728 71.2331C138.587 71.0608 139.914 70.3331 141.71 69.6851C148.237 67.3308 145.407 66.8932 142.327 68.2847C139.519 69.5532 138.274 70.1696 138.08 69.9325C138.112 69.6083 138.699 69.2663 140.603 68.2683C141.698 67.6937 143.347 66.5067 143.455 66.1724C143.519 65.5143 142.472 65.981 141.953 66.3225C141.9 66.3576 136.527 69.7721 135.559 68.9254C134.574 68.066 136.153 67.1693 137.104 66.6485C138.074 66.1171 138.09 64.8887 137.598 64.8364C136.99 64.7715 136.54 66.3438 134.9 67.0908C133.26 67.8377 130.882 69.1277 130.355 69.5559C130.114 69.7521 127.284 71.4397 123.403 72.3084C122.686 72.4689 121.899 72.6032 121.07 72.6904C121.101 74.2279 121.097 75.7712 121.066 77.3193C125.061 76.2127 128.801 74.8521 130.782 74.0645Z" fill="#F3B783"/>
<path d="M99.4793 105.876L90.9414 102.677L92.274 106.227L95.2103 112.989L100.034 110.238L99.4793 105.876Z" fill="#F3B783"/>
<path d="M126.18 70.5446C124.174 68.5434 107.002 73.7991 107.002 73.7991L82.9807 63.7729L80.5762 82.2795L105.797 85.3417C105.797 85.3417 122.299 81.9005 125.664 77.7976C126.818 76.3907 126.773 71.1361 126.18 70.5446Z" fill="#EC7E21"/>
<path d="M83.7756 64.868L82.8735 64.5933L80.5762 82.2749L84.6562 82.7704C83.6478 75.5557 83.9753 68.5703 83.7756 64.868Z" fill="#333333"/>
<path d="M83.5422 63.9887L73.8091 60.1938L59.2972 61.0663L50.9482 63.2287C50.9482 63.2287 54.5154 87.9351 55.3471 96.6589C56.1787 105.383 56.1787 112.361 56.1787 112.361L57.8368 118.028C67.1918 118.825 74.3009 118.154 83.7377 119.289C83.8405 114.286 83.8717 114.455 83.8717 114.455L83.5422 63.9887Z" fill="#EE7E22"/>
<path d="M72.3226 58.1954L72.3076 63.4516L61.8852 63.3757L61.7959 57.3911L72.3226 58.1954Z" fill="#80669A"/>
<path d="M52.5166 169.502C52.5166 169.502 50.7979 183.692 49.9109 193.928C49.0238 204.164 49.116 219.653 49.116 219.653L56.1194 220.082C56.1194 220.082 58.9201 186.6 62.4129 177.004L71.6439 136.613L69.1414 218.748L76.4978 218.519C76.4978 218.519 83.4611 132.594 83.7347 119.289C74.2979 118.154 67.1888 118.825 57.8338 118.028L52.5166 169.502Z" fill="#1A2E35"/>
<path d="M71.9483 53.1946C71.6214 54.1675 71.7625 61.1087 71.5041 62.8562C71.2487 64.5816 63.3526 67.2559 63.1976 60.9797C63.0428 54.7034 63.6643 47.3223 63.6643 47.3223L71.9483 53.1946Z" fill="#F3B783"/>
<g style="mix-blend-mode:multiply" opacity="0.5">
<path d="M71.9472 53.1946L69.1977 51.2454L63.6632 47.3223C63.6632 47.3223 63.6629 47.3257 63.6624 47.332C63.6622 47.3343 63.6621 47.3364 63.6618 47.3391C63.6618 47.3401 63.6616 47.3412 63.6614 47.3426C63.6595 47.3689 63.6554 47.4178 63.6497 47.4881C63.6315 47.7165 63.596 48.1726 63.5525 48.8027L63.5523 48.8056C63.5435 48.9331 63.5342 49.0678 63.5248 49.2091C63.5243 49.2184 63.5236 49.2274 63.5232 49.2366C63.4928 49.6926 63.4597 50.217 63.4265 50.7945C63.4248 50.827 63.423 50.8593 63.421 50.8919C63.4132 51.0288 63.4054 51.1683 63.3976 51.3108C63.3976 51.3124 63.3976 51.314 63.3974 51.3157C63.3934 51.3895 63.3895 51.4643 63.3854 51.5396C63.3849 51.5475 63.3846 51.5555 63.3841 51.5636C63.3826 51.5918 63.3812 51.6202 63.3797 51.6486C63.3791 51.6597 63.3786 51.6707 63.3779 51.6817C63.3753 51.7309 63.3729 51.7805 63.3701 51.8303C64.3984 55.1945 68.2856 58.8482 71.6479 59.2822C71.6551 59.0504 71.6676 58.8157 71.6842 58.5803C71.7268 56.2231 71.7616 53.7469 71.9472 53.1946Z" fill="#FCB273"/>
</g>
<path d="M57.8363 118.028L83.7372 118.487L83.6114 122.582L57.4521 121.748L57.8363 118.028Z" fill="#333333"/>
<path d="M76.1142 122.244L70.001 122.148L70.1457 118.305L76.2578 118.434L76.1142 122.244Z" fill="white"/>
<path d="M72.0586 118.751C72.1799 118.751 75.8881 118.903 75.8881 118.903L75.5244 121.977L75.4942 119.245L72.0586 118.751Z" fill="#8F94AF"/>
<path d="M64.6729 66.2341L68.4442 68.001H71.4497L73.7163 66.2341L71.6875 62.6796H67.2191L66.0873 62.1216L64.6729 66.2341Z" fill="#EC7E21"/>
<path d="M67.2178 62.6836H71.6862L71.4484 68.005H68.4429L67.2178 62.6836Z" fill="#042CAF"/>
<path d="M64.8493 67.9991L68.3663 62.6777L61.7982 57.3911L59.2959 61.0639L64.8493 67.9991Z" fill="white"/>
<path d="M73.9024 67.6129L71.2529 62.6766L72.3237 58.1943L76.1768 60.9898L73.9024 67.6129Z" fill="white"/>
<path d="M68.4443 68.0029C68.4443 70.1066 68.6021 113.118 68.6021 113.118L73.7165 119.291L76.6415 112.791L71.4499 68.0029H68.4443Z" fill="#042CAF"/>
<path d="M77.3351 106.042C71.2546 102.678 63.8984 97.0329 63.8984 97.0329L50.9475 63.228C50.9475 63.228 46 68.9454 46 76.4477C46 83.95 54.8699 106.569 56.0758 107.834C56.7845 108.577 68.9129 114.563 76.6416 112.789C76.342 110.492 76.4838 108.422 77.3351 106.042Z" fill="#EC7E21"/>
<path d="M63.8991 97.0329C59.8841 87.5107 58.6877 84.3407 50.9482 63.228C54.4818 74.6548 60.1687 88.9882 63.4364 97.3881C63.5103 97.435 71.2089 103.122 77.3359 106.042C76.2008 105.308 67.8593 100.137 63.8991 97.0329Z" fill="#333333"/>
<path d="M82.5016 107.311C81.1883 107.001 79.3532 106.548 77.3331 106.042C76.4817 108.421 76.3399 110.491 76.6395 112.788C78.5515 112.804 80.3783 112.81 81.9687 112.811C81.7862 111.018 81.816 109.217 82.5016 107.311Z" fill="white"/>
<path d="M92.9344 106.256C92.9344 106.256 86.4298 108.062 84.3805 107.726C84.0827 107.678 83.4139 107.529 82.5023 107.313C81.8168 109.22 81.787 111.02 81.9695 112.813C84.9038 112.815 87.0453 112.799 87.4456 112.799C88.9425 112.799 92.8511 115.46 94.2232 115.46C95.5954 115.46 96.4271 114.064 96.4271 114.064C96.4271 114.064 97.6745 112.93 98.0904 111.97C98.5061 111.011 98.8804 111.185 98.8804 110.182C98.8804 109.179 92.9344 106.256 92.9344 106.256Z" fill="#F3B783"/>
<path d="M90.9384 102.677C90.9384 102.677 88.2772 107.911 88.7762 108.435C89.275 108.958 92.4228 106.391 92.4228 106.391L90.9384 102.677Z" fill="#F3B783"/>
<path d="M87.4482 113.146C87.4482 113.146 90.8856 110.296 91.44 110.878C91.9945 111.459 90.2134 113.146 90.2134 113.146C90.2134 113.146 92.1677 111.554 92.6043 111.75C93.0408 111.946 91.4608 113.887 91.4608 113.887C91.4608 113.887 93.3111 112.13 93.9349 112.343C94.5587 112.557 93.1353 115.179 93.1353 115.179C93.1353 115.179 87.677 115.239 87.4482 113.146Z" fill="#F3B783"/>
<path fill-rule="evenodd" clip-rule="evenodd" d="M159.276 213.055C159.276 213.055 156.76 216.82 154.034 217.97C151.307 219.121 148.948 220.115 150.363 221.004C151.779 221.893 164.623 220.324 164.623 220.324L164.759 214.067L159.276 213.055Z" fill="#17282F"/>
<path fill-rule="evenodd" clip-rule="evenodd" d="M146.692 145.128L145.797 124.631L165.234 121.447C166.942 139.442 168.601 167.584 164.887 215.779C163.442 217.959 159.486 216.543 157.098 215.473C155.954 189.463 150.986 161.262 146.692 145.128Z" fill="#333333"/>
<path fill-rule="evenodd" clip-rule="evenodd" d="M131.387 213.055C131.387 213.055 128.871 216.82 126.145 217.97C123.419 219.121 121.059 220.115 122.475 221.004C123.89 221.893 136.734 220.324 136.734 220.324L136.871 214.067L131.387 213.055Z" fill="#17282F"/>
<path fill-rule="evenodd" clip-rule="evenodd" d="M147.622 146.333L148.517 125.836L129.08 122.652C127.372 140.647 125.713 166.655 129.427 214.85C130.872 217.029 134.828 218.765 137.216 217.695C138.36 191.685 143.328 162.467 147.622 146.333Z" fill="#333333"/>
<path fill-rule="evenodd" clip-rule="evenodd" d="M165.173 68.397L165.764 68.4973C165.764 68.4973 167.979 96.3907 168.287 99.3463C169.748 113.341 175.99 146.828 175.99 146.828C175.071 147.287 173.985 147.708 172.764 148.09C172.08 148.303 167.504 134.046 166.74 134.236C166.192 134.372 169.475 148.962 168.89 149.086C154.288 152.186 129.009 151.479 124.436 147.735C124.436 147.735 128.594 81.8417 133.452 70.9393C134.531 68.5156 148.19 65.9559 150.149 66.0607C151.864 66.1527 162.532 67.9494 165.173 68.397Z" fill="#CBCBCB"/>
<path d="M128.755 69.8862L124.117 70.6731C123.563 73.1677 123.246 75.6333 123.601 77.9261L128.596 76.0295L128.755 69.8862Z" fill="#EC7E21"/>
<path fill-rule="evenodd" clip-rule="evenodd" d="M172.717 137.183C172.717 137.183 170.843 141.155 170.436 140.92C170.028 140.686 170.278 139.261 170.278 139.261C170.278 139.261 169.54 139.976 169.217 139.711C168.894 139.446 169.785 137.436 169.785 137.436C169.785 137.436 169.538 138.003 169.235 137.635C168.932 137.267 170.752 132.549 170.752 132.549L172.717 137.183Z" fill="#FAB173"/>
<path fill-rule="evenodd" clip-rule="evenodd" d="M172.846 127.361C172.909 128.061 173.844 132.973 173.586 135.019C173.33 137.065 172.929 141.913 172.418 141.653C171.906 141.393 171.523 135.9 171.523 135.9L170.47 133.371C170.47 133.371 169.146 136.116 167.89 138.079C167.506 138.679 165.987 138.291 168.729 131.909C169.1 131.047 169.117 130.09 169.117 130.09C169.117 130.09 168.299 127.469 168.868 127.286C169.436 127.103 172.578 127.119 172.578 127.119C172.578 127.119 172.784 126.659 172.846 127.361Z" fill="#FAB173"/>
<path d="M164.579 102.615L155.63 78.1632C155.825 70.7747 161.848 70.2789 161.848 70.2789C167.148 69.9453 167.982 74.4411 167.982 74.4411L173.989 101.337C173.989 101.337 175.043 117.212 172.717 128.945L166.535 128.6C166.535 128.6 165.891 107.807 164.579 102.615Z" fill="#333333"/>
<path d="M137.62 86.871L133.618 70.6719L117.884 97.7906L99.4775 105.875C99.4775 108.063 100.032 111.009 100.635 111.636C100.635 111.636 123.101 106.189 124.097 105.144C125.649 103.516 137.62 86.871 137.62 86.871Z" fill="#CBCBCB"/>
<path d="M61.0855 43.8295C60.8939 49.3689 60.6964 51.7332 63.2065 54.7854C66.9925 59.4396 73.8553 58.4624 75.6994 53.0921C77.3409 48.2578 77.4273 40.0048 72.2045 37.2979C68.5042 35.3465 63.9187 36.757 61.9626 40.4483C61.4097 41.4916 61.1092 42.6496 61.0855 43.8295Z" fill="#F3B783"/>
<path d="M59.2285 48.0753C59.5287 49.1056 60.2268 49.9747 61.1693 50.4917C62.419 51.1713 63.373 50.126 63.2775 48.7857C63.1987 47.5781 62.4592 45.7687 61.0768 45.6444C60.0715 45.5724 59.198 46.327 59.1258 47.3297C59.1076 47.5827 59.1426 47.8367 59.2285 48.0753Z" fill="#F3B783"/>
<path d="M63.36 52.1179C63.36 52.1179 62.8238 48.5255 61.4419 47.6501C60.06 46.7746 59.4365 46.2409 59.1868 44.9721C58.9371 43.7031 56.485 41.9529 57.2377 39.8664C57.9903 37.7802 59.442 37.706 61.2773 34.0788C63.1125 30.4515 65.0936 28.4437 69.3718 29.7654C73.6496 31.0869 74.2456 33.6901 74.2456 33.6901C74.2456 33.6901 75.9352 33.4754 77.2869 35.6167C79.9523 39.8397 70.8367 42.3744 67.3305 38.8767C65.6304 37.1809 63.4082 38.7605 62.5648 41.2808C61.7213 43.8008 65.3562 47.7596 63.36 52.1179Z" fill="#1A2E35"/>
<path d="M165.35 102.502L156.153 77.3166C156.367 69.6569 163.336 68.325 163.336 68.325C169.135 67.9791 170.047 72.64 170.047 72.64L176.619 100.523C176.619 100.523 177.772 116.981 175.227 129.146L167.336 128.645C167.336 128.645 166.786 107.886 165.35 102.502Z" fill="#CBCBCB"/>
<path d="M155.632 66.8229L154.433 61.4397L144.9 61.104L144.294 69.2341C144.294 69.2341 146.453 71.2107 149.751 70.4648C153.05 69.7189 155.632 66.8229 155.632 66.8229Z" fill="#FAB173"/>
<path fill-rule="evenodd" clip-rule="evenodd" d="M147.256 69.1282C146.922 69.0735 148.213 72.6273 148.213 72.6273C152.629 71.4615 155.209 69.5523 156.533 67.1332C156.362 66.0122 155.593 64.3698 155.025 64.1836C155.243 65.4292 149.311 69.4634 147.256 69.1282Z" fill="#989898"/>
<path fill-rule="evenodd" clip-rule="evenodd" d="M144.98 66.7803C144.916 67.7161 145.472 68.1444 145.472 68.1444C145.472 68.1444 144.777 72.2998 144.628 72.1964C144.481 72.0923 143.112 70.1729 143.112 70.1729C143.112 70.1729 143.798 67.1944 144.98 66.7803Z" fill="#989898"/>
<path d="M160.042 55.2075C159.823 56.1453 159.239 56.9577 158.419 57.4657C157.326 58.1299 156.435 57.2406 156.447 56.0307C156.459 54.9459 157.041 53.2873 158.278 53.1122C159.183 53.0121 159.998 53.6628 160.098 54.5653C160.122 54.781 160.103 54.9992 160.042 55.2075Z" fill="#FAB173"/>
<path d="M157.171 54.3626C157.165 54.6555 155.997 56.0583 154.535 57.6948C152.125 60.3966 148.921 63.731 148.809 63.7586C148.634 63.8071 142.22 59.9658 142.22 59.9658C142.22 59.9658 141.966 58.9718 141.775 57.8064C141.584 56.6447 141.743 55.3437 141.779 54.5442C141.812 53.7443 141.167 52.434 140.854 51.6813C140.701 51.3111 140.669 50.7327 140.846 50.0667C141.027 49.3702 141.439 48.5727 142.19 47.8202C143.659 46.3465 146.337 43.9219 146.337 43.9219L147.567 44.0426C147.567 44.0426 149.516 45.1989 153.321 48.1473C157.121 51.0952 157.197 52.6818 157.171 54.3626Z" fill="#FAB173"/>
<path d="M156.545 54.2967C156.545 54.2967 156.553 52.9968 156.02 51.5364C155.487 50.076 154.365 49 154.365 49C154.365 49 157.625 52.2663 157.998 52.4148C158.37 52.5632 157.129 54.7733 157.129 54.7733L156.545 54.2967Z" fill="#263237"/>
<path d="M146.851 43.8406C146.831 43.9236 146.819 43.9687 146.819 43.9687C146.819 43.9687 143.041 47.2352 141.681 48.5497C140.316 49.8637 140.941 51.8902 140.941 51.8902C140.941 51.8902 139.813 51.7139 139.027 51.1272C138.922 51.0513 138.822 50.9681 138.734 50.8746C137.972 50.0855 136.54 44.6672 138.116 41.4434C138.881 39.8776 140.434 38.4237 142.101 37.3324L142.105 37.3289C143.165 36.6336 144.268 36.0816 145.238 35.7443C145.25 35.7416 145.262 35.7389 145.27 35.7358C145.285 35.7335 145.293 35.7304 145.293 35.7304C145.922 35.5141 146.492 35.3886 146.954 35.3721C148.982 35.3006 147.127 42.7711 146.851 43.8406Z" fill="#666666"/>
<path d="M159.074 53.2212L157.754 53.5358C157.754 53.5358 155.209 49.0044 150.365 46.3556C146.46 44.2237 144.84 42.2811 144.434 40.1254L144.43 40.1212C144.334 39.606 144.305 39.0742 144.332 38.5286C144.468 35.6925 145.952 35.2651 145.952 35.2651C145.952 35.2651 154.603 35.11 160.306 40.7206C161.666 42.0587 162.151 43.639 162.167 45.208C162.211 49.2355 159.074 53.2212 159.074 53.2212Z" fill="#989898"/>
<path d="M144.479 37.0157C144.479 37.0157 146.644 36.6168 149.337 37.0739C152.03 37.531 154.114 37.9606 154.114 37.9606C154.114 37.9606 151.671 36.9244 149.108 36.2471C146.544 35.5697 145.118 35.9335 145.118 35.9335C145.118 35.9335 144.624 36.8096 144.479 37.0157Z" fill="#666666"/>
<path d="M161.374 49.0998C161.374 49.0998 158.669 43.4535 153.272 40.1729C147.875 36.8924 143.634 37.5868 143.634 37.5868L143.698 36.9336C143.698 36.9336 149.718 37.2183 154.123 40.0151C158.527 42.8119 161.412 48.7113 161.412 48.7113L161.374 49.0998Z" fill="#666666"/>
<path d="M142.933 38.3438C142.933 38.3438 140.324 40.2963 138.73 43.3793C137.136 46.4623 137.592 47.3584 137.592 47.3584L137.806 48.4703C137.806 48.4703 138.144 44.864 140.251 42.392C142.357 39.9201 142.891 38.774 142.891 38.774L142.933 38.3438Z" fill="#989898"/>
<path d="M160.106 51.6798C159.536 52.6316 159.076 53.2197 159.076 53.2197L157.665 53.7333C157.665 53.7333 155.211 49.0028 150.367 46.354C149.724 46.0014 149.139 45.6545 148.615 45.3136L148.608 45.3052C148.608 45.3052 151.948 47.0419 154.394 48.4169C156.84 49.7919 160.106 51.6798 160.106 51.6798Z" fill="#666666"/>
<path d="M157.175 54.3591L156.55 54.2979C156.55 54.2979 154.41 57.1303 153.449 57.0593C152.488 56.9883 151.525 57.0708 151.406 56.9857C151.134 56.7969 150.716 56.7211 150.716 56.7211L150.942 56.6584C151.165 56.5953 151.535 56.5351 151.535 56.5351L151.262 56.5199C151 56.5057 150.596 56.4429 149.75 56.5415C149.715 56.5457 149.676 56.5497 149.637 56.5536C148.614 56.681 147.671 57.2527 147.671 57.2527C146.983 57.4863 146.531 57.2412 145.243 57.2655C144.045 57.287 143.291 57.9119 143.189 58.0022C143.214 57.9892 143.286 57.9577 143.497 57.8587C143.781 57.7282 144.118 57.6493 144.201 57.6305C144.14 57.6631 143.912 57.7797 143.469 58.1455C142.95 58.5773 142.387 58.7614 142.387 58.7614C142.387 58.7614 142.656 59.0465 142.919 59.0568C142.91 59.1795 142.89 59.3436 142.842 59.5551C142.796 59.7551 142.58 58.8774 142.28 59.2109C141.837 59.6965 141.208 60.3104 140.65 61.0164C139.709 62.2058 139.345 64.1701 139.345 64.1701C139.345 64.1701 139.51 63.7539 139.923 62.9721C140.341 62.1945 141.104 61.4354 141.104 61.4354C141.104 61.4354 140.338 62.9664 140.378 64.9973C140.418 67.0282 141.663 68.1387 141.663 68.1387L141.317 68.4677C140.971 68.7929 140.57 68.7072 140.57 68.7072C140.57 68.7072 140.889 69.391 142.348 69.5572C143.748 69.7177 144.828 69.2908 144.912 69.2566C144.882 69.2846 144.6 69.5156 143.789 69.8182C142.925 70.1427 142.286 70.1805 142.286 70.1805C142.286 70.1805 143.579 70.5698 145.957 69.6949C148.338 68.8166 149.76 66.2533 150.751 65.3119C151.737 64.3739 154.382 62.3168 154.382 62.3168L153.991 64.0853C153.991 64.0853 154.954 62.8786 155.993 59.7218C157.031 56.5689 157.175 54.3591 157.175 54.3591ZM143.744 58.8945C143.744 58.8945 143.739 58.7859 144.024 58.5977C144.272 58.4367 144.699 58.1542 144.81 58.0878C144.772 58.1189 144.692 58.1882 144.51 58.3441C144.18 58.6246 143.993 58.9189 143.993 58.9189C143.993 58.9189 144.794 59.0361 146.655 58.6934C147.495 58.5364 148.633 58.2157 149.631 57.9119C150.225 57.7309 150.769 57.5526 151.165 57.4216C151.151 57.5669 151.137 57.7431 151.123 57.9309C151.081 58.4364 150.597 60.2313 149.397 60.6657C148.198 61.0963 148.151 60.5435 148.151 60.5435L147.337 60.7571C147.337 60.7571 146.947 61.4176 145.654 60.7851C144.58 60.2589 143.971 59.6503 143.799 59.0775C143.76 58.9617 143.744 58.8945 143.744 58.8945Z" fill="#263237"/>
<path d="M185.019 72.0342C183.883 73.3703 182.004 75.1054 182.578 79.7825C183.161 84.5366 183.953 91.555 183.953 91.555L188.684 88.8448L185.019 72.0342Z" fill="#666666"/>
<path d="M197.169 217.943C198.879 217.3 200.711 215.477 200.711 215.477L200.833 207.116L194.97 207.652C194.97 207.652 195.215 214.084 194.97 215.37C194.726 216.656 197.169 217.943 197.169 217.943Z" fill="#FAB173"/>
<path d="M193.505 215.265C194.581 214.714 195.582 214.944 196.925 215.694C198.269 216.444 200.712 215.48 200.712 215.48C200.712 215.48 201.2 215.908 201.445 217.409C201.689 218.91 201.811 219.767 201.567 220.303C201.322 220.839 187.57 220.303 186.348 220.303C185.127 220.303 185.493 219.231 187.448 218.481C189.402 217.731 192.039 216.016 193.505 215.265Z" fill="#17282F"/>
<path d="M206.079 138.168C206.079 138.168 203.541 161.201 203.265 166.075C202.989 170.949 201.91 211.896 201.91 211.896C201.91 211.896 193.654 212.063 193.654 211.896C193.654 211.73 187.149 168.51 186.306 156.5C185.463 144.49 187.231 133.969 185.94 132.437C184.648 130.905 187.494 118.73 187.494 118.73L197.454 119.992L206.079 138.168Z" fill="#CBCBCB"/>
<path d="M198.903 53.2017C198.903 53.2017 199.775 56.8319 200.366 58.6631C200.958 60.4941 201.389 61.4464 201.738 61.9877C202.509 63.1874 206.821 66.6302 206.821 66.6302C206.821 66.6302 195.376 74.3305 191.808 74.7149C188.239 75.0994 189.718 67.5226 189.718 67.5226C189.718 67.5226 192.275 64.3374 192.687 62.7248C193.099 61.1123 192.937 56.5886 192.937 56.5886L198.903 53.2017Z" fill="#C5732D"/>
<path d="M185.664 42.7589C184.652 43.5062 182.943 45.0395 182.968 46.0375C182.993 47.0352 182.908 49.9741 183.237 51.6554C183.566 53.3366 184.148 56.5249 184.66 58.4733C185.173 60.4214 187.386 64.0566 187.941 64.3569C188.496 64.6571 191.954 64.4805 192.981 63.8748C194.008 63.269 199.636 58.2134 198.967 53.9943C198.967 53.9943 200.28 54.2993 201.502 50.3146C201.821 49.2754 198.17 43.1258 197.603 42.0079C196.225 39.2909 189.701 43.4161 187.985 43.3782C186.269 43.3399 185.664 42.7589 185.664 42.7589Z" fill="#C5732D"/>
<path d="M188.37 45.2468C192.933 43.4614 194.069 44.4339 194.33 47.0486C194.418 47.9373 196.303 49.0839 196.468 49.9246C196.632 50.7651 197.653 51.1065 197.653 51.1065L198.147 53.6285C198.147 53.6285 198.271 54.8305 198.597 55.7261C198.923 56.6218 200.065 57.9379 200.065 57.9379C200.065 57.9379 199.507 56.1955 201.098 53.8526C204.881 48.2842 199.328 41.3909 194.617 39.118C192.182 37.9428 189.103 39.5538 187.396 41.9616C185.389 44.7928 186.492 45.9819 188.37 45.2468Z" fill="#333333"/>
<path d="M216.265 217.943C218.042 217.3 219.946 215.477 219.946 215.477L220.073 207.116L213.98 207.652C213.98 207.652 214.234 214.084 213.98 215.37C213.726 216.656 216.265 217.943 216.265 217.943Z" fill="#FAB173"/>
<path d="M212.457 215.265C213.575 214.714 214.615 214.944 216.012 215.694C217.408 216.444 219.947 215.48 219.947 215.48C219.947 215.48 220.455 215.908 220.709 217.409C220.963 218.91 221.089 219.767 220.836 220.303C220.582 220.839 208.081 220.303 206.812 220.303C205.542 220.303 205.923 219.231 207.954 218.481C209.985 217.731 210.934 216.016 212.457 215.265Z" fill="#17282F"/>
<path d="M217.672 115.401C217.672 115.401 220.087 134.976 220.152 151.223C220.218 167.47 221.304 211.923 221.304 211.923H211.907C211.907 211.923 203.638 169.095 200.878 158.65C198.118 148.206 193.267 118.228 193.267 118.228L217.672 115.401Z" fill="#CBCBCB"/>
<path d="M177.772 93.172C177.309 94.1245 177.698 96.5487 176.309 96.2272C174.92 95.9056 174.867 92.8119 174.894 90.563C174.924 88.1245 175.523 86.1906 176.579 87.0074C177.635 87.8242 178.121 92.4554 177.772 93.172Z" fill="#304BC9"/>
<path d="M192.146 99.4858C191.785 96.893 191.378 94.2797 191.067 91.658C189.867 91.0757 188.155 90.7993 187.274 90.5548C184.682 89.8354 179.737 88.2556 176.232 86.9458L176.231 86.9377C174.89 86.1362 173.281 85.2012 172.718 84.4794C172.155 83.7577 171.778 82.4743 171.108 81.9398C170.437 81.4054 168.212 80.7113 167.22 79.9363C166.227 79.1613 165.315 78.1457 165.101 78.6539C164.887 79.1621 164.941 79.8039 165.585 80.4186C166.228 81.0333 167.408 81.9151 167.811 82.4497C168.213 82.9844 168.589 83.4655 168.589 83.4655C168.589 83.4655 166.636 82.4409 165.805 81.9867C164.973 81.5326 163.621 80.7433 162.844 80.1286C162.066 79.514 160.301 78.5993 159.871 78.9884C159.49 79.3344 159.918 79.7852 160.27 80.1258C160.27 80.1258 158.785 79.514 158.294 79.7192C157.992 79.8456 157.686 80.5982 158.452 81.1018C159.142 81.5561 159.574 81.9914 159.574 81.9914C159.574 81.9914 158.947 82.5265 159.437 83.2177C159.928 83.9089 160.66 84.2933 160.66 84.2933C160.66 84.2933 159.786 84.8923 160.552 85.4697C161.429 86.1315 161.995 86.7573 162.992 87.3888C164.287 88.2094 165.872 89.6327 166.917 89.8461C167.963 90.0594 170.121 89.8561 171.676 90.2831C172.501 90.5098 173.928 91.1496 175.089 91.701C178.463 93.5081 183.67 97.4647 186.645 98.4974C188.338 99.0849 190.379 99.5884 192.22 99.9829C192.196 99.8165 192.169 99.6527 192.146 99.4858Z" fill="#E59F6A"/>
<path d="M176.308 96.2247C176.308 96.2247 187.33 99.2148 189.956 99.7463C190.002 98.7071 190.036 97.6672 190.047 96.626C190.061 95.3593 190.05 94.0922 190.01 92.8261C189.988 92.124 189.931 91.4195 189.918 90.7174C189.918 90.6959 181.463 88.3941 181.465 88.3752L176.579 87.0049C176.579 87.0049 176.927 88.3643 176.399 91.5886C175.87 94.813 176.308 96.2247 176.308 96.2247Z" fill="#666666"/>
<path d="M183.751 184.576C183.751 184.576 188.768 186.079 196.702 185.912C197.956 185.887 199.287 185.822 200.682 185.701C212.825 184.641 220.638 185.615 224.517 184.712C224.689 184.671 224.851 184.626 225.003 184.581C225.003 184.581 221.387 132.085 220.426 125.309C220.158 123.418 218.639 108 216.936 95.7975C215.874 88.2908 217.583 76.2428 214.453 70.8107C212.978 68.2497 204.531 64.3584 204.531 64.3584C204.531 64.3584 200.02 70.1044 194.518 70.7299C189.39 71.3152 189.956 66.6538 189.956 66.6538L185.021 72.0356C185.021 72.0356 183.912 79.4055 183.872 87.6033C183.852 91.5483 183.503 99.344 184.059 107.315C183.928 113.828 184.656 125.042 183.953 139.258C182.866 161.183 183.751 184.576 183.751 184.576Z" fill="#666666"/>
<path d="M202.29 50.7834C202.29 50.7834 199.955 48.5636 196.702 47.6822C193.633 46.8506 190.537 46.4208 187.383 46.6595C184.109 46.9075 182.776 47.7102 182.776 47.7102C182.776 47.7102 183.031 44.2148 184.05 41.9552C185.142 39.5334 188.294 37.3211 195.726 38.8211C199.416 39.5658 201.43 42.3554 202.147 44.8088C202.865 47.2622 202.29 50.7834 202.29 50.7834Z" fill="#989898"/>
<path d="M196.969 50.1519C197.345 48.8625 197.697 47.6981 198.96 47.7794C200.222 47.8608 201.229 49.2253 200.066 51.2138C198.904 53.2022 198.149 53.6284 198.149 53.6284C198.149 53.6284 196.858 50.5315 196.969 50.1519Z" fill="#C5732D"/>
<path d="M204.53 64.3556C204.53 64.3556 202.137 67.897 199.126 70.2335C196.115 72.57 193.133 71.9625 193.133 71.9625L193.677 69.0273C193.677 69.0273 195.995 68.5717 198.678 66.0948C201.36 63.6178 202.837 62.2432 202.837 62.2432L204.53 64.3556Z" fill="url(#paint0_linear_7509_67183)"/>
<path d="M193.133 71.9639L192.533 68.8594C192.533 68.8594 191.007 66.9894 190.855 65.5898L189.201 66.9212C189.201 66.9212 188.678 68.4589 191.016 70.7328C192.141 71.8269 193.133 71.9639 193.133 71.9639Z" fill="url(#paint1_linear_7509_67183)"/>
<path d="M177.972 95.2742C177.843 96.3252 176.475 97.4243 175.627 97.613C174.95 97.7636 175.123 94.573 175.036 92.208C174.954 89.9604 175.763 87.6632 176.736 88.5774C177.709 89.4915 178.232 93.146 177.972 95.2742Z" fill="#333333"/>
<path d="M191.263 102.782C191.153 100.167 191 97.5264 190.942 94.8869C189.804 94.1924 188.127 93.7533 187.273 93.4255C184.763 92.4613 179.747 90.3816 176.384 88.7423L176.384 88.7342C175.126 87.8079 173.615 86.7231 173.123 85.9507C172.632 85.1783 172.381 83.8649 171.765 83.2687C171.149 82.6724 169.001 81.7685 168.088 80.902C167.175 80.0356 166.365 78.9372 166.103 79.4226C165.84 79.908 165.832 80.552 166.414 81.2254C166.996 81.899 168.085 82.8898 168.434 83.4605C168.784 84.0311 169.111 84.5461 169.111 84.5461C169.111 84.5461 167.266 83.3391 166.482 82.8074C165.698 82.2758 164.429 81.3606 163.714 80.6744C162.999 79.988 161.329 78.9086 160.865 79.2547C160.452 79.5626 160.835 80.0523 161.152 80.4251C161.152 80.4251 159.733 79.6738 159.224 79.8311C158.912 79.9281 158.535 80.6479 159.248 81.2224C159.892 81.7409 160.28 82.2154 160.28 82.2154C160.28 82.2154 159.604 82.6879 160.026 83.4229C160.447 84.1579 161.139 84.6106 161.139 84.6106C161.139 84.6106 160.212 85.1232 160.919 85.7713C161.728 86.514 162.231 87.1911 163.163 87.9152C164.373 88.8561 165.813 90.4246 166.833 90.7371C167.853 91.0496 170.6 92.1498 172.106 92.7238C172.906 93.0284 174.265 93.8021 175.367 94.4619C178.552 96.5838 183.02 99.9583 185.883 101.271C187.511 102.018 189.494 102.715 191.289 103.284C191.281 103.116 191.27 102.95 191.263 102.782Z" fill="#FAB173"/>
<path d="M194.302 87.901L192.237 86.1664L192.244 85.9732L192.735 71.9443L193.532 71.9723L193.046 85.8079L194.816 87.2926L194.302 87.901Z" fill="#333333"/>
<path d="M194.991 76.0293C195.351 76.0293 195.643 75.7383 195.643 75.3794C195.643 75.0205 195.351 74.7295 194.991 74.7295C194.632 74.7295 194.34 75.0205 194.34 75.3794C194.34 75.7383 194.632 76.0293 194.991 76.0293Z" fill="#333333"/>
<path d="M194.991 84.0532C195.351 84.0532 195.643 83.7622 195.643 83.4033C195.643 83.0444 195.351 82.7534 194.991 82.7534C194.632 82.7534 194.34 83.0444 194.34 83.4033C194.34 83.7622 194.632 84.0532 194.991 84.0532Z" fill="#333333"/>
<path d="M196.699 185.906C197.953 185.88 199.283 185.815 200.679 185.694C212.822 184.634 220.635 185.608 224.514 184.705C220.473 183.978 208.244 183.386 204.204 182.665C202.292 182.322 201.434 179.769 200.66 175.279C197.357 156.21 195.506 130.63 194.014 111.313C194.995 134.63 195.971 157.947 196.952 181.269C197.018 182.818 197.073 184.422 196.699 185.906Z" fill="#333333"/>
<path d="M185.986 60.8819C185.986 60.8819 186.89 64.6925 188.831 67.17C189.287 67.752 190.173 67.7458 190.628 67.1625C191.661 65.8368 193.317 63.3894 193.722 60.8819C194.322 57.1671 190.947 62.1299 190.547 61.9054C190.147 61.681 190.222 60.459 190.222 60.459C190.222 60.459 188.922 60.7333 188.572 60.5089C188.222 60.2844 188.572 62.1299 188.572 62.1299C188.572 62.1299 184.857 57.5858 185.986 60.8819Z" fill="#263237"/>
<path d="M202.48 46.9163C193.723 42.2519 183.438 44.1181 183.339 44.1383L183.434 43.7063C183.535 43.6861 193.558 41.69 202.447 46.4235L202.48 46.9163Z" fill="#263237"/>
<path d="M207.611 70.0922C203.251 72.4391 201.684 79.3585 199.555 85.2833C198.108 89.3112 195.254 94.2515 195.254 94.2515L193.523 93.99C193.522 93.9558 193.515 93.9186 193.517 93.886C193.519 93.8646 181.464 90.4374 181.468 90.4187L176.736 88.5867C176.736 88.5867 177.912 90.9737 177.075 94.1324C176.238 97.2911 175.627 97.6225 175.627 97.6225C175.627 97.6225 198.829 108.103 199.555 107.999C202.859 107.528 210.083 94.6217 211.705 90.6244C213.327 86.6271 215.37 82.7182 215.889 76.6161C216.592 68.3533 209.637 69.0021 207.611 70.0922Z" fill="#666666"/>
<path d="M207.611 70.0922C203.251 72.4391 201.684 79.3585 199.555 85.2833C198.108 89.3112 195.254 94.2515 195.254 94.2515L193.523 93.99C193.522 93.9558 193.515 93.9186 193.517 93.886C193.519 93.8646 181.464 90.4374 181.468 90.4187L176.736 88.5867C176.736 88.5867 177.912 90.9737 177.075 94.1324C176.238 97.2911 175.627 97.6225 175.627 97.6225C175.627 97.6225 198.829 108.103 199.555 107.999C202.859 107.528 210.083 94.6217 211.705 90.6244C213.327 86.6271 215.37 82.7182 215.889 76.6161C216.592 68.3533 209.637 69.0021 207.611 70.0922Z" stroke="#333333" stroke-width="0.5" stroke-miterlimit="10"/>
<defs>
<linearGradient id="paint0_linear_7509_67183" x1="204.745" y1="66.4802" x2="192.666" y2="67.7883" gradientUnits="userSpaceOnUse">
<stop stop-color="#EEEEEE"/>
<stop offset="1" stop-color="#D5D5D5"/>
</linearGradient>
<linearGradient id="paint1_linear_7509_67183" x1="192.764" y1="68.6927" x2="189.31" y2="69.0668" gradientUnits="userSpaceOnUse">
<stop stop-color="#EEEEEE"/>
<stop offset="1" stop-color="#D5D5D5"/>
</linearGradient>
</defs>
</svg>
