<svg width="162" height="147" viewBox="0 0 162 147" fill="none" xmlns="http://www.w3.org/2000/svg">
<path opacity="0.1" d="M100.365 146.539C98.1799 146.539 95.9929 146.429 93.8143 146.206C81.2915 144.927 70.6872 138.165 58.4337 136.311C42.2925 133.868 24.3409 136.265 12.2416 123.306C4.75932 115.291 -0.00142463 103.662 3.19789e-07 92.4359C0.00113736 83.4944 3.02339 74.8095 10.0979 68.4116C17.2947 61.9036 26.9146 58.6414 33.8805 51.8231C39.6769 46.1496 40.8231 37.8672 43.5133 30.6399C45.9995 23.9596 50.2113 18.1327 55.6768 13.4489C65.0996 5.37415 78.3524 0.994919 90.8985 0.994919C92.987 0.994919 95.0581 1.11653 97.0866 1.36263C117.167 3.79814 134.093 16.9397 144.686 33.32C152.83 45.9117 159.088 61.3101 161.08 76.7892C161.519 80.198 161.75 83.6107 161.75 86.9981C161.747 102.828 156.671 118.107 143.926 129.864C132.235 140.648 116.352 146.539 100.365 146.539Z" fill="#EF7E22"/>
<mask id="mask0_9725_97900" style="mask-type:alpha" maskUnits="userSpaceOnUse" x="0" y="0" width="162" height="147">
<path d="M100.365 146.539C98.1799 146.539 95.9929 146.429 93.8143 146.206C81.2915 144.927 70.6872 138.165 58.4337 136.311C42.2925 133.868 24.3409 136.265 12.2416 123.306C4.75931 115.291 -0.00142463 103.662 3.19789e-07 92.4359C0.00113736 83.4944 3.02339 74.8095 10.0979 68.4116C17.2947 61.9036 26.9146 58.6414 33.8805 51.8231C39.6769 46.1496 40.8231 37.8672 43.5133 30.6399C45.9995 23.9596 50.2113 18.1327 55.6768 13.4489C65.0996 5.37415 78.3524 0.994917 90.8985 0.994917C92.987 0.994917 95.0581 1.11653 97.0866 1.36262C117.167 3.79814 134.093 16.9397 144.686 33.32C152.83 45.9117 159.088 61.3101 161.08 76.7892C161.519 80.198 161.75 83.6107 161.75 86.9981C161.747 102.828 156.671 118.107 143.926 129.864C132.235 140.648 116.352 146.539 100.365 146.539Z" fill="#EF7E22"/>
</mask>
<g mask="url(#mask0_9725_97900)">
<path d="M125.85 65.5C125.85 65.5 130.617 67.9963 134.193 77.3526C137.768 86.7088 150.348 127.445 150.348 127.445L134.458 128.739C134.458 128.739 122.567 70.2442 118.611 67.3105L125.85 65.5V65.5Z" fill="#333333"/>
<path d="M129.34 102.289C130.573 104.332 133.386 112.149 134.48 116.142C139.472 134.361 143.695 158.863 145.098 163.856C146.967 170.509 151.152 185.563 153.282 195.587L143.052 199.944C143.052 199.944 129.654 164.686 125.999 156.023C122.211 147.046 115.892 130.113 115.892 130.113L112.242 197.277L102.443 197.572C102.443 197.572 99.0916 178.647 97.759 167.335C96.4269 156.024 96.278 132.74 96.2666 126.83C96.2533 119.634 99.4472 103.444 99.4472 103.444C99.4472 103.444 103.269 106.246 110.436 105.174C116.144 104.32 127.978 100.031 127.978 100.031L129.34 102.289" fill="#042CB0"/>
<path d="M99.7568 101.336C99.7568 101.336 95.584 116.166 94.1715 127.805C92.759 139.444 91.1699 165.136 91.1699 165.136C91.1699 165.136 121.803 169.705 146.875 165.136C146.875 165.136 140.525 127.863 134.803 111.102C133.861 108.343 132.545 105.721 130.89 103.302L127.718 98.6641L99.7568 101.336V101.336Z" fill="#EF7E22"/>
<path d="M80.0935 25.6583L74.5405 144.697L-15.0164 142.212L-20.3447 133.122L-10.7129 22.4893L72.6327 17.1016L80.0935 25.6583" fill="#DADBD8"/>
<path d="M74.5394 144.697L67.0781 136.14L72.6316 17.1016L80.0924 25.6583L74.5394 144.697" fill="#8F9192"/>
<path d="M72.6322 17.1018L67.0793 136.141L-20.3447 133.122L-13.7313 15.8984L72.6322 17.1018" fill="#FAFAF9"/>
<path d="M72.6325 17.1036C71.7742 17.093 38.6881 16.6708 -13.7329 16.0022L-13.6276 15.9056C-15.4687 48.6639 -17.749 89.2407 -20.2163 133.131L-20.34 132.999C-19.8854 133.014 -19.3912 133.031 -18.8971 133.048C11.8637 134.114 41.0624 135.127 67.083 136.028L66.9618 136.137C70.3106 65.8381 72.584 18.12 72.6325 17.1036C72.586 18.119 70.4065 65.842 67.1962 136.148L67.1908 136.261L67.0746 136.257C41.054 135.362 11.8553 134.358 -18.906 133.3C-19.4007 133.283 -19.8943 133.266 -20.3494 133.25L-20.4805 133.245L-20.4735 133.117C-17.9879 89.2277 -15.6908 48.6518 -13.8358 15.8945L-13.8304 15.7969L-13.73 15.7983C38.6891 16.5906 71.7747 17.091 72.6325 17.1036" fill="#17282F"/>
<path d="M-3.67298 44.6032L26.8573 45.4771C27.4984 45.4954 28.0331 45.0032 28.0519 44.3771L28.0855 43.2598C28.1043 42.6337 27.5998 42.1115 26.9587 42.0931L-3.57109 41.2192C-4.21215 41.2009 -4.74687 41.6931 -4.76566 42.3192L-4.7993 43.4366C-4.81809 44.0626 -4.31355 44.5848 -3.67298 44.6032" fill="#DADBD8"/>
<path d="M-3.96106 51.1422L26.5692 52.0161C27.2098 52.0345 27.745 51.5422 27.7638 50.9162L27.7969 49.7988C27.8162 49.1728 27.3117 48.6505 26.6706 48.6322L-3.85917 47.7583C-4.50024 47.74 -5.03496 48.2322 -5.05375 48.8583L-5.08738 49.9756C-5.10617 50.6017 -4.60163 51.1239 -3.96106 51.1422" fill="#DADBD8"/>
<path d="M-4.25696 57.6896L26.2733 58.5635C26.9139 58.5818 27.4491 58.0891 27.4679 57.4635L27.501 56.3462C27.5198 55.7201 27.0158 55.1979 26.3747 55.1796L-4.15507 54.3052C-4.79614 54.2868 -5.33086 54.7796 -5.34965 55.4056L-5.38328 56.523C-5.40207 57.1486 -4.89753 57.6713 -4.25696 57.6896" fill="#DADBD8"/>
<path d="M-4.55286 64.2282L25.9774 65.1025C26.618 65.1209 27.1532 64.6282 27.172 64.0026L27.2052 62.8848C27.2239 62.2592 26.7199 61.737 26.0788 61.7186L-4.45097 60.8442C-5.09203 60.8259 -5.62675 61.3186 -5.64554 61.9442L-5.67918 63.062C-5.69797 63.6876 -5.19343 64.2098 -4.55286 64.2282" fill="#DADBD8"/>
<path d="M-4.84485 70.775L25.6854 71.6494C26.326 71.6678 26.8607 71.175 26.8795 70.5495L26.9132 69.4316C26.9319 68.806 26.4279 68.2838 25.7868 68.2655L-4.74296 67.3911C-5.38403 67.3728 -5.91875 67.8655 -5.93754 68.4911L-5.97117 69.6089C-5.98996 70.2345 -5.48542 70.7567 -4.84485 70.775" fill="#DADBD8"/>
<path d="M-5.13684 77.3219L25.3935 78.1963C26.034 78.2146 26.5687 77.7219 26.5875 77.0959L26.6212 75.9785C26.64 75.3529 26.1359 74.8302 25.4948 74.8119L-5.03495 73.938C-5.67602 73.9196 -6.21074 74.4124 -6.22953 75.038L-6.26316 76.1553C-6.28195 76.7814 -5.77791 77.3036 -5.13684 77.3219" fill="#DADBD8"/>
<path d="M-5.43763 83.861L25.0927 84.7354C25.7332 84.7537 26.268 84.261 26.2868 83.6349L26.3204 82.5176C26.3392 81.8915 25.8351 81.3693 25.1941 81.3509L-5.33623 80.4771C-5.9768 80.4587 -6.51152 80.951 -6.53031 81.577L-6.56394 82.6944C-6.58273 83.3204 -6.07869 83.8426 -5.43763 83.861" fill="#DADBD8"/>
<path d="M31.0672 78.2985L61.5971 79.1729C62.2381 79.1912 62.7728 78.6985 62.7916 78.0729L62.8253 76.9551C62.8441 76.3295 62.3395 75.8073 61.699 75.7889L31.1687 74.9146C30.5281 74.8962 29.9929 75.3889 29.9741 76.0145L29.9409 77.1323C29.9221 77.7579 30.4262 78.2801 31.0673 78.2985" fill="#DADBD8"/>
<path d="M30.7752 84.8454L61.3051 85.7197C61.9461 85.7381 62.4808 85.2454 62.4996 84.6193L62.5333 83.5019C62.5521 82.8764 62.0475 82.3537 61.407 82.3353L30.8767 81.4614C30.2356 81.4431 29.7009 81.9358 29.6821 82.5614L29.6489 83.6787C29.6302 84.3048 30.1342 84.827 30.7753 84.8454" fill="#DADBD8"/>
<path d="M30.4159 91.7438L60.9462 92.6182C61.5872 92.6365 62.122 92.1438 62.1408 91.5182L62.1744 90.4004C62.1932 89.7748 61.6887 89.2526 61.0481 89.2342L30.5178 88.3599C29.8767 88.3415 29.342 88.8343 29.3232 89.4598L29.2896 90.5777C29.2708 91.2032 29.7753 91.7254 30.4159 91.7438" fill="#DADBD8"/>
<path d="M30.0633 98.6427L60.5936 99.5166C61.2342 99.535 61.7694 99.0427 61.7882 98.4166L61.8214 97.2993C61.8407 96.6732 61.3361 96.151 60.695 96.1327L30.1652 95.2583C29.5242 95.24 28.9895 95.7327 28.9707 96.3587L28.937 97.4761C28.9182 98.1017 29.4228 98.6244 30.0633 98.6427" fill="#DADBD8"/>
<path d="M29.7118 105.541L60.2421 106.415C60.8826 106.433 61.4173 105.941 61.4362 105.315L61.4698 104.197C61.4886 103.571 60.9845 103.049 60.3435 103.031L29.8137 102.157C29.1726 102.138 28.6379 102.631 28.6191 103.257L28.5855 104.374C28.5667 105 29.0712 105.522 29.7118 105.541" fill="#DADBD8"/>
<path d="M29.3514 112.447L59.8812 113.321C60.5223 113.339 61.057 112.847 61.0758 112.221L61.1094 111.104C61.1282 110.477 60.6242 109.955 59.9831 109.937L29.4528 109.063C28.8123 109.045 28.2775 109.537 28.2588 110.163L28.2251 111.28C28.2063 111.906 28.7104 112.429 29.3514 112.447" fill="#DADBD8"/>
<path d="M28.9999 119.345L59.5297 120.22C60.1707 120.238 60.7055 119.745 60.7242 119.119L60.7579 118.002C60.7767 117.376 60.2721 116.854 59.6316 116.835L29.1013 115.961C28.4607 115.943 27.9255 116.436 27.9067 117.061L27.8736 118.179C27.8548 118.805 28.3588 119.327 28.9999 119.345" fill="#DADBD8"/>
<path d="M-8.43374 124.486L58.9465 126.415C59.5871 126.434 60.1218 125.942 60.1406 125.315L60.1743 124.198C60.193 123.572 59.689 123.05 59.0479 123.031L-8.33232 121.102C-8.97289 121.084 -9.50761 121.576 -9.5264 122.203L-9.56004 123.32C-9.57883 123.945 -9.07478 124.468 -8.43372 124.486" fill="#DADBD8"/>
<path d="M-3.14173 36.0797L17.4471 36.6691C18.0877 36.6874 18.6224 36.1947 18.6412 35.5691L18.6748 34.4513C18.6936 33.8257 18.1896 33.3035 17.5485 33.2852L-3.04033 32.6958C-3.6809 32.6775 -4.21562 33.1697 -4.23441 33.7958L-4.26805 34.9131C-4.28684 35.5392 -3.78279 36.0614 -3.14173 36.0797" fill="#DADBD8"/>
<path d="M-15.5166 135.804C-15.5166 135.804 -15.3731 135.817 -15.0912 135.83C-14.8033 135.842 -14.3853 135.86 -13.8382 135.883C-12.7297 135.923 -11.1028 135.983 -9.00154 136.061C-4.78415 136.206 1.3312 136.417 8.95228 136.679C24.2078 137.182 45.4852 137.884 69.5998 138.68L69.7294 138.684L69.7359 138.557C69.9644 133.85 70.2048 128.914 70.4487 123.89C71.7432 96.8921 72.915 72.4543 73.7633 54.7593C74.1744 45.917 74.5067 38.7613 74.7373 33.8088C74.8461 31.3393 74.9307 29.4205 74.9886 28.1124C75.0143 27.465 75.0336 26.9704 75.0469 26.6303C75.0588 26.2965 75.0583 26.125 75.0583 26.125C75.0583 26.125 75.0405 26.2955 75.0197 26.6293C75.0004 26.9689 74.9722 27.4631 74.9351 28.1095C74.8659 29.4176 74.7645 31.3354 74.6334 33.8039C74.3836 38.7555 74.022 45.9103 73.5753 54.7506C72.7067 72.4446 71.5077 96.881 70.1826 123.877C69.9397 128.902 69.7007 133.838 69.4727 138.545L69.6087 138.423C45.4926 137.662 24.2142 136.99 8.95771 136.509C1.33614 136.28 -4.78021 136.096 -8.99809 135.969C-11.1004 135.911 -12.7277 135.866 -13.8368 135.835C-14.3838 135.822 -14.8023 135.812 -15.0902 135.806C-15.3722 135.801 -15.5166 135.804 -15.5166 135.804" fill="#17282F"/>
<path d="M-8.4082 139.369C-8.4082 139.369 -8.27267 139.382 -8.00654 139.395C-7.73448 139.408 -7.34025 139.425 -6.82433 139.448C-5.77716 139.49 -4.24078 139.551 -2.25524 139.631C1.73065 139.779 7.5141 139.995 14.7325 140.264C29.1832 140.782 49.3744 141.506 72.3622 142.329L72.4908 142.333L72.4978 142.207C72.8045 136.528 73.124 130.62 73.4505 124.584C74.8721 97.9447 76.1587 73.8315 77.0906 56.3713C77.5432 47.6469 77.9097 40.5858 78.163 35.6991C78.2837 33.2624 78.3777 31.3693 78.4415 30.078C78.4702 29.4394 78.4919 28.9515 78.5068 28.6157C78.5201 28.2863 78.5201 28.1172 78.5201 28.1172C78.5201 28.1172 78.5018 28.2853 78.48 28.6143C78.4588 28.9495 78.4281 29.4374 78.3875 30.0751C78.3124 31.3659 78.202 33.2581 78.0596 35.6937C77.7861 40.5796 77.3908 47.6392 76.9026 56.3616C75.9509 73.8209 74.6361 97.9326 73.1843 124.57C72.8593 130.607 72.5417 136.514 72.2361 142.194L72.3716 142.073C49.3823 141.285 29.1902 140.592 14.7385 140.097C7.51905 139.86 1.7346 139.671 -2.25177 139.54C-4.23779 139.48 -5.77467 139.434 -6.82283 139.402C-7.33875 139.389 -7.73348 139.379 -8.00603 139.372C-8.27215 139.366 -8.40817 139.369 -8.40817 139.369" fill="#17282F"/>
<path d="M20.5361 15.5821L21.8564 14.3203L37.5996 14.3957L38.3628 15.8014L20.5361 15.5821" fill="#333333"/>
<path d="M38.2671 23.1228L38.3616 15.7974L20.5349 15.5781L20.4404 22.9035L38.2671 23.1228" fill="#333333"/>
<path d="M38.873 23.3658L38.8759 23.1131C38.8804 22.7793 38.6063 22.5049 38.2645 22.5006L20.4388 22.2813C20.097 22.2774 19.8161 22.5446 19.8116 22.8789L19.8086 23.1315C19.8042 23.4653 20.0777 23.7397 20.42 23.744L38.2458 23.9634C38.5876 23.9672 38.8685 23.7001 38.873 23.3658" fill="#333333"/>
<path d="M29.5721 7.48333L29.4761 7.48477C27.5495 7.53261 25.9444 9.16586 25.9715 11.0513C25.9889 12.2006 26.5844 13.272 27.5653 13.9169L27.7266 14.0232L25.2835 20.4404C25.2607 20.4998 25.2691 20.5636 25.3053 20.6162C25.3419 20.6684 25.4002 20.6988 25.4655 20.6998L33.3062 20.7964C33.3755 20.7964 33.4294 20.7684 33.4674 20.7177C33.5055 20.6669 33.5154 20.6032 33.4956 20.5437L31.3142 14.0797L31.4784 13.9792C32.5241 13.3401 33.1568 12.2426 33.1721 11.0436C33.1845 10.0794 32.8046 9.17504 32.1012 8.4973C31.4211 7.84128 30.5258 7.48331 29.5721 7.48331L29.5721 7.48333H29.5721ZM33.3087 21.2795H33.3003L25.4596 21.1829C25.2345 21.18 25.0243 21.0703 24.8977 20.8891C24.7705 20.7085 24.7414 20.4776 24.8195 20.2723L27.129 14.2068C26.1095 13.4653 25.4957 12.302 25.4769 11.0586C25.4452 8.87701 27.2339 7.05727 29.4638 7.00172C30.5802 6.96983 31.6491 7.38238 32.4485 8.15289C33.2484 8.92437 33.6807 9.95282 33.6668 11.0499C33.6505 12.3503 32.9951 13.5455 31.9044 14.2841L33.9656 20.3926C34.0349 20.5998 33.9983 20.8278 33.8662 21.0037C33.7361 21.1766 33.5283 21.2795 33.3087 21.2795" fill="#33535F"/>
<path d="M38.144 22.499C38.143 22.4941 38.0807 22.4907 37.9644 22.4893C37.8324 22.4859 37.6627 22.4816 37.453 22.4763C36.9895 22.4671 36.3504 22.454 35.5684 22.4381C33.9603 22.4125 31.7699 22.3777 29.3496 22.3391C26.9283 22.3125 24.7375 22.2883 23.1294 22.2709C22.3473 22.2685 21.7078 22.2666 21.2443 22.2656C21.034 22.2676 20.8639 22.2695 20.7313 22.2709C20.6141 22.2738 20.5527 22.2777 20.5527 22.2825C20.5522 22.2879 20.6141 22.2932 20.7308 22.2999C20.8634 22.3053 21.0331 22.3125 21.2433 22.3212C21.7068 22.3333 22.3459 22.3507 23.1279 22.3719C24.7192 22.4081 26.9184 22.4482 29.3476 22.4821C31.7764 22.5154 33.9751 22.5357 35.5674 22.5391C36.3632 22.541 37.0073 22.5386 37.453 22.5318C37.6756 22.527 37.8477 22.5251 37.9664 22.5178C38.0846 22.5101 38.145 22.5038 38.144 22.499" fill="#33535F"/>
<path d="M38.3999 15.6478C38.3989 15.643 38.3366 15.6396 38.2208 15.6377C38.0882 15.6343 37.9186 15.63 37.7088 15.6247C37.2453 15.6155 36.6062 15.6024 35.8242 15.587C34.2161 15.5614 32.0258 15.5266 29.6055 15.488C27.1842 15.4614 24.9934 15.4372 23.3852 15.4194C22.6032 15.4174 21.9636 15.4155 21.5001 15.4141C21.2899 15.4165 21.1197 15.4184 20.9872 15.4194C20.8699 15.4227 20.8086 15.4266 20.8086 15.4314C20.8086 15.4363 20.8699 15.4421 20.9867 15.4484C21.1192 15.4542 21.2894 15.4609 21.4991 15.4696C21.9626 15.4822 22.6017 15.4991 23.3838 15.5203C24.975 15.5566 27.1743 15.5971 29.6035 15.6305C32.0322 15.6638 34.2309 15.6841 35.8232 15.6879C36.6191 15.6894 37.2631 15.6875 37.7088 15.6802C37.9319 15.6759 38.1036 15.6739 38.2223 15.6662C38.3405 15.6585 38.4013 15.6527 38.3998 15.6478" fill="#33535F"/>
<path d="M18.6815 116.448L-2.85503 115.831C-5.29217 115.761 -7.20993 113.775 -7.1387 111.395L-6.58717 93.0291C-6.51595 90.6489 -4.48243 88.7761 -2.04529 88.8456L19.4918 89.4625C21.9289 89.5321 23.8467 91.518 23.7749 93.8981L23.2239 112.264C23.1522 114.644 21.1187 116.517 18.6815 116.448" fill="#E7E8E5"/>
<path d="M-7.07721 109.419C-7.06831 109.187 -6.94613 108.973 -6.74877 108.844L3.19123 102.33C3.96733 101.724 5.07238 101.748 5.81881 102.377C5.85938 102.411 5.9029 102.442 5.95039 102.466L10.4557 104.724C10.7396 104.867 11.0849 104.816 11.3129 104.598L18.1386 98.0801C19.0463 97.2889 20.4481 97.4053 21.2064 98.3347L23.3962 101.02C23.5026 101.15 23.5594 101.312 23.558 101.478L23.4541 112.324C23.4318 114.622 21.4789 116.452 19.1274 116.38L-3.09478 115.693C-5.41815 115.622 -7.23846 113.718 -7.15339 111.449L-7.07721 109.419" fill="#DADBD8"/>
<path d="M7.59745 96.1108C7.67413 97.747 6.37864 99.1334 4.70326 99.2083C3.02837 99.2832 1.60823 98.018 1.53155 96.3818C1.45488 94.7462 2.75086 93.3592 4.42575 93.2844C6.10114 93.21 7.52078 94.4751 7.59745 96.1108Z" fill="#DADBD8"/>
<path d="M57.9189 70.7596L36.3823 70.1427C33.9451 70.0732 32.0274 68.0872 32.0986 65.7071L32.6501 47.3411C32.7214 44.961 34.7554 43.0881 37.1925 43.1582L58.7291 43.7746C61.1662 43.8441 63.084 45.8305 63.0128 48.2106L62.4612 66.5762C62.39 68.9563 60.356 70.8292 57.9189 70.7596" fill="#E7E8E5"/>
<path d="M32.1717 63.3624L42.4258 56.6424C43.2231 56.0197 44.3673 56.0622 45.1137 56.7419L50.1655 59.2751L57.3736 52.3923C58.2813 51.6015 59.6831 51.7179 60.4409 52.6469L62.7949 55.5337L62.6955 65.916C62.6698 68.6086 60.3811 70.754 57.6249 70.6689L36.8649 70.0279C34.1419 69.9438 32.0079 67.7125 32.1079 65.0537L32.1717 63.3624" fill="#DADBD8"/>
<path d="M46.8338 50.4156C46.9104 52.0513 45.6145 53.4382 43.9396 53.513C42.2647 53.5879 40.8446 52.3223 40.7679 50.6866C40.6912 49.0509 41.9867 47.664 43.6621 47.5891C45.3369 47.5142 46.7571 48.7794 46.8338 50.4156Z" fill="#DADBD8"/>
<path d="M-4.52564 36.7977C-4.52564 36.7977 -4.67156 36.7914 -4.92433 36.6885C-5.17215 36.5827 -5.52879 36.3624 -5.83004 35.9417C-6.12336 35.5291 -6.37663 34.9006 -6.27176 34.1693C-6.17975 33.4451 -5.76573 32.6655 -5.07124 32.0529C-4.37625 31.4331 -3.41713 31.0148 -2.3665 30.7539C-1.31289 30.4979 -0.158878 30.3337 1.06242 30.3216C3.49659 30.2902 6.21469 30.838 8.67607 32.207C9.28598 32.5568 9.85828 32.9843 10.2896 33.5297C10.7175 34.0736 10.994 34.732 11.0138 35.4093C11.0425 36.0895 10.7467 36.7489 10.2911 37.2141C9.83553 37.6856 9.25679 37.9856 8.68349 38.1996C7.52007 38.6252 6.3423 38.6913 5.26694 38.7387C4.18415 38.7744 3.17456 38.7208 2.26144 38.6121C0.432228 38.3923 -1.00127 37.9624 -1.96286 37.617C-2.44465 37.443 -2.81168 37.2909 -3.05605 37.1778C-3.3009 37.0662 -3.42753 37.0039 -3.42357 36.9962C-3.4201 36.988 -3.28655 37.0349 -3.03576 37.131C-2.78546 37.2286 -2.41349 37.3658 -1.92922 37.5242C-0.962674 37.8401 0.467852 38.2401 2.28222 38.4353C3.18843 38.5319 4.18861 38.5744 5.25853 38.5304C6.3245 38.4749 7.48495 38.3986 8.5989 37.9826C9.14994 37.7744 9.69554 37.4846 10.1115 37.0493C10.5271 36.6208 10.7882 36.031 10.7615 35.4161C10.7427 34.8021 10.4865 34.189 10.0868 33.6823C9.68269 33.1727 9.13808 32.7635 8.54549 32.4239C6.13605 31.0834 3.45949 30.5341 1.0649 30.5534C-0.137103 30.5587 -1.27629 30.7133 -2.31406 30.9563C-3.34738 31.2037 -4.27732 31.6007 -4.94956 32.1853C-5.62278 32.7645 -6.02889 33.5031 -6.1293 34.1881C-6.24258 34.8779 -6.01652 35.4808 -5.74694 35.8866C-5.46993 36.2991 -5.13654 36.5252 -4.90207 36.6431C-4.66315 36.7576 -4.52169 36.7836 -4.52564 36.7976" fill="#17282F"/>
<path d="M71.3756 104.578L78.1765 104.744L81.4214 108.828L77.9292 112.988L70.9502 112.788L71.3756 104.578" fill="#042CB0"/>
<path d="M72.0191 92.9297L78.8201 93.0954L82.065 97.1793L78.5723 101.34L71.5938 101.14L72.0191 92.9297" fill="#EF7E22"/>
<path d="M99.3076 43.0547C99.3076 43.0547 97.0604 51.2592 96.867 57.0648L96.8027 58.9991C96.8027 58.9991 101.761 63.0197 105.92 63.2675L109.405 54.8968L99.3076 43.0547" fill="#17282F"/>
<path d="M121.33 48.0858C120.382 44.0835 120.018 39.4257 116.61 36.8166C114.082 34.8805 111.201 34.3404 107.99 34.4718C106.41 34.536 104.625 35.2486 103.248 36.0099C101.36 37.0533 100.56 39.1702 99.6494 41.0928C97.8246 44.9448 98.0556 50.1611 99.2918 51.6113L115.775 60.1119C119.066 58.4391 121.128 57.7729 121.654 53.488C121.876 51.6847 121.749 49.8553 121.33 48.0858" fill="#17282F"/>
<path d="M116.438 39.9971L106.064 37.0079C102.723 36.5325 100.329 40.4817 99.9841 43.7627C99.6013 47.407 99.2807 51.8716 99.6141 54.615C100.285 60.1312 104.559 60.994 104.559 60.994C104.561 60.9756 104.569 61.0766 104.535 62.7065L104.523 66.0629C104.479 67.1305 104.67 67.4894 105.339 68.3353C106.869 70.271 109.658 70.5299 112.945 69.3415C114.851 68.6532 116.176 67.2682 116.322 65.3813L118.125 42.0207C118.186 41.0208 117.453 40.1416 116.438 39.9972" fill="#C5732D"/>
<path opacity="0.1" d="M104.536 60.9893C104.536 60.9893 108.303 61.3724 112.133 59.3203C112.133 59.3203 110.12 63.0849 104.522 62.356L104.536 60.9893" fill="black"/>
<path d="M106.029 36.4141L106.003 36.5336L106.022 36.5418L106.029 36.4141Z" fill="#17282F"/>
<path d="M113.277 63.2018C113.436 61.7641 112.843 60.3202 113.015 58.8845C113.197 57.3619 114.207 56.0571 114.622 54.5789C115.285 52.2113 114.375 49.6931 114.041 47.2463C112.636 47.0772 111.326 46.2531 110.39 45.1879C109.264 43.9058 108.583 42.3175 107.92 40.7576C107.96 42.2865 108.502 43.7995 109.447 45.0188C108.824 45.1463 108.166 44.8855 107.698 44.4638C107.229 44.042 106.923 43.4778 106.671 42.9063C106.061 41.5223 105.729 40.0258 105.676 38.52C105.469 40.674 105.714 42.8701 106.41 44.9246C106.018 44.8063 105.596 44.9126 105.189 44.97C104.782 45.0275 104.315 45.0159 104.028 44.729C103.836 44.5372 103.766 44.2609 103.71 43.9981C103.323 42.1668 103.259 40.2697 103.524 38.4176C103.022 39.4195 102.526 40.432 102.236 41.5098C101.946 42.588 101.87 43.7464 102.212 44.8097C102.05 45.0101 101.707 44.9783 101.515 44.8053C101.323 44.6324 101.25 44.3686 101.21 44.1164C101.062 43.1957 101.228 42.2571 101.395 41.3392C100.833 42.3107 100.647 43.4382 100.336 44.5121C100.026 45.586 99.5317 46.6869 98.5761 47.2989C98.4103 45.6922 98.4692 44.5952 98.716 43.0913C98.905 41.9416 99.4635 40.8016 99.9789 39.7519C100.557 38.576 101.359 37.4244 102.256 36.6573C103.91 35.2423 104.601 35.8515 105.657 36.3906L105.783 36.4418L105.791 36.366L105.838 36.1462C108.588 35.5418 111.504 35.6747 114.184 36.5278C116.175 37.1616 116.358 41.3489 116.843 39.3591C117.137 38.1553 118.735 39.2543 118.755 39.2886C121.103 43.4256 123.593 49.9887 123.707 60.3584L113.277 63.2018V63.2018Z" fill="#17282F"/>
<path d="M120.074 31.6052C119.135 30.6038 117.813 29.9116 116.423 29.8691C115.033 29.827 113.604 30.4937 112.897 31.6627C112.19 32.8318 112.329 34.4737 113.331 35.4148L115.067 36.7707C116.26 37.4128 117.737 37.6248 119.008 37.1437C120.278 36.663 121.265 35.4215 121.233 34.0906C121.209 33.1607 120.718 32.2912 120.074 31.6052" fill="#17282F"/>
<path d="M118.736 39.1308C118.4 39.2839 117.45 37.8632 115.754 36.7463C114.084 35.5923 112.387 35.2276 112.415 34.8667C112.43 34.7025 112.908 34.5701 113.682 34.6479C114.45 34.7223 115.503 35.0498 116.486 35.7116C117.468 36.3754 118.154 37.2207 118.497 37.8966C118.846 38.5758 118.888 39.0593 118.736 39.1308" fill="#33535F"/>
<path d="M94.6098 84.1952L101.109 78.25L105.513 85.0807C105.425 85.6932 99.812 97.5049 97.3823 99.9526C94.6098 102.745 90.8302 102.529 89.1622 98.6729C87.8479 95.6334 85.666 86.2734 85.666 86.2734L94.6098 84.1952" fill="#EF7E22"/>
<path d="M101.694 66.3123C100.142 66.8587 96.5704 68.7649 95.5297 70.016C95.0261 70.6218 94.5379 71.3083 94.2174 71.9976C93.4037 73.7449 91.8584 86.6995 91.8584 86.6995L98.781 91.595L104.807 68.9369L104.423 65.3438L101.694 66.3123" fill="#EF7E22"/>
<path d="M99.3972 103.713L99.833 100.367C99.833 100.367 98.4989 94.3958 98.0087 89.2124C97.2297 80.9716 99.4299 75.8496 99.7311 74.981C99.9018 74.4888 104.422 65.3446 104.422 65.3446C104.422 65.3446 105.372 68.1614 109.186 67.4953C114.506 66.5663 116.444 63.75 116.444 63.75L123.317 65.2016C123.317 65.2016 125.995 75.7047 126.389 79.1847C126.601 81.0504 124.083 91.5959 124.083 91.5959L128.137 97.5179C128.258 97.8092 126.376 105.902 126.008 106.236C125.639 106.571 119.046 108.066 118.964 108.342C118.882 108.618 106.394 113.723 106.402 113.514C106.41 113.306 100.393 106.327 100.393 106.327L99.3972 103.713Z" fill="#EF7E22"/>
<path d="M97.843 76.2344C97.8514 76.2358 97.845 76.3199 97.8267 76.4793C97.8039 76.6667 97.7757 76.8962 97.7421 77.174C97.6684 77.7768 97.564 78.6498 97.4725 79.7314C97.3008 81.8907 97.1243 84.9012 97.6337 88.1779C98.0779 91.4614 98.7269 94.398 99.1449 96.5332C99.3576 97.5998 99.5198 98.4655 99.6232 99.0655C99.6672 99.3423 99.7038 99.5708 99.7335 99.7577C99.7558 99.9162 99.7632 100.001 99.7543 100.002C99.7454 100.004 99.7212 99.9224 99.6826 99.7669C99.64 99.5823 99.5881 99.3572 99.5248 99.0838C99.3848 98.4524 99.1958 97.6022 98.9668 96.5689C98.5033 94.4444 97.8247 91.5082 97.3785 88.2108C96.8655 84.9123 97.0723 81.8728 97.2909 79.7149C97.4062 78.6319 97.5383 77.7599 97.6426 77.16C97.6956 76.86 97.7406 76.6276 97.7757 76.4711C97.8103 76.3141 97.8341 76.2329 97.8429 76.2344" fill="#17282F"/>
<path d="M109.417 107.5C109.4 107.502 109.421 107.777 109.474 108.271C109.527 108.766 109.616 109.48 109.736 110.361C109.976 112.124 110.351 114.553 110.84 117.224C111.329 119.895 111.84 122.301 112.241 124.035C112.44 124.902 112.61 125.602 112.737 126.084C112.862 126.566 112.94 126.83 112.957 126.827C112.974 126.823 112.93 126.551 112.834 126.063C112.727 125.533 112.586 124.838 112.417 123.998C112.061 122.256 111.58 119.848 111.091 117.18C110.603 114.512 110.2 112.09 109.915 110.336C109.776 109.492 109.66 108.792 109.573 108.258C109.489 107.768 109.435 107.498 109.417 107.5" fill="#33535F"/>
<path d="M112.916 107.363C112.93 107.363 112.901 107.242 112.726 107.167C112.556 107.096 112.288 107.075 111.979 107.144C111.824 107.179 111.657 107.233 111.49 107.339C111.315 107.452 111.194 107.655 111.156 107.87C111.075 108.302 111.281 108.813 111.717 109.085C112.14 109.357 112.694 109.385 113.082 109.146C113.277 109.03 113.409 108.83 113.46 108.649C113.515 108.464 113.517 108.287 113.496 108.131C113.453 107.817 113.305 107.587 113.166 107.474C113.025 107.36 112.919 107.351 112.916 107.363C112.907 107.383 112.994 107.423 113.096 107.542C113.196 107.66 113.3 107.871 113.317 108.148C113.334 108.416 113.261 108.782 112.96 108.949C112.659 109.125 112.205 109.102 111.857 108.877C111.506 108.661 111.336 108.246 111.388 107.908C111.413 107.738 111.494 107.593 111.613 107.507C111.741 107.417 111.889 107.356 112.025 107.314C112.301 107.23 112.542 107.225 112.693 107.259C112.847 107.293 112.897 107.375 112.916 107.363" fill="#33535F"/>
<path d="M106.651 124.44C106.633 124.471 107.096 124.76 107.837 125.233C108.578 125.707 109.592 126.373 110.679 127.155C111.765 127.938 112.717 128.688 113.398 129.24C114.081 129.791 114.5 130.138 114.525 130.111C114.548 130.087 114.172 129.695 113.517 129.107C112.863 128.519 111.923 127.743 110.83 126.955C109.737 126.168 108.7 125.52 107.932 125.084C107.163 124.647 106.667 124.412 106.651 124.44" fill="#33535F"/>
<path d="M86.9916 76.2344L91.7121 80.996L91.9035 85.1423L86.4248 86.3727H86.1458L85.7916 83.6964L82.6338 79.5966L86.9917 76.2344" fill="#C5732D"/>
<path d="M42.6285 72.7155C47.8564 77.498 54.6781 80.0061 61.8377 79.7766C68.9963 79.5481 75.6365 76.6101 80.533 71.5049C85.4296 66.3993 87.9978 59.7367 87.7633 52.7452C87.5298 45.7532 84.5214 39.2693 79.2929 34.4869C74.065 29.7044 67.2432 27.1968 60.0837 27.4258C52.9251 27.6543 46.2849 30.5923 41.3884 35.6975C35.2552 42.0924 33.0481 50.7201 34.6715 58.7228C35.7231 63.9091 38.3844 68.8335 42.6284 72.7155H42.6285V72.7155ZM81.9378 72.7899C76.6896 78.2622 69.5735 81.4104 61.9005 81.6553C54.228 81.9007 46.9161 79.2129 41.3127 74.0874C29.7458 63.5062 29.1497 45.7082 39.9841 34.4125C45.2323 28.9402 52.3479 25.792 60.0214 25.5466C67.6944 25.3017 75.0058 27.9895 80.6087 33.1145C85.158 37.2762 88.0097 42.5523 89.1375 48.112C90.8767 56.688 88.5107 65.936 81.9378 72.7899" fill="#33535F"/>
<path d="M42.6285 72.7155C47.8564 77.498 54.6781 80.0061 61.8377 79.7766C68.9963 79.5481 75.6365 76.6101 80.533 71.5049C85.4296 66.3993 87.9978 59.7367 87.7633 52.7452C87.5298 45.7532 84.5214 39.2693 79.2929 34.4869C74.065 29.7044 67.2432 27.1968 60.0837 27.4258C52.9251 27.6543 46.2849 30.5923 41.3884 35.6975C35.2552 42.0924 33.0481 50.7201 34.6715 58.7228C35.7231 63.9091 38.3844 68.8335 42.6284 72.7155H42.6285V72.7155ZM81.9378 72.7899C76.6896 78.2622 69.5735 81.4104 61.9005 81.6553C54.228 81.9007 46.9161 79.2129 41.3127 74.0874C29.7458 63.5062 29.1497 45.7082 39.9841 34.4125C45.2323 28.9402 52.3479 25.792 60.0214 25.5466C67.6944 25.3017 75.0058 27.9895 80.6087 33.1145C85.158 37.2762 88.0097 42.5523 89.1375 48.112C90.8767 56.688 88.5107 65.936 81.9378 72.7899" fill="#17282F"/>
<path d="M43.3326 71.3635C48.5606 76.1459 55.3823 78.654 62.5414 78.4246C69.7005 78.1961 76.3407 75.2585 81.2367 70.1529C86.1337 65.0473 88.702 58.3847 88.467 51.3936C88.2335 44.4011 85.2256 37.9173 79.9971 33.1348C74.7692 28.3524 67.9474 25.8448 60.7879 26.0737C53.6293 26.3022 46.9891 29.2403 42.0926 34.3459C35.9594 40.7409 33.7523 49.3681 35.3752 57.3707C36.4273 62.5575 39.0886 67.482 43.3327 71.3635L43.3326 71.3635V71.3635ZM82.642 71.4379C77.3933 76.9101 70.2777 80.0588 62.6047 80.3037C54.9317 80.5487 47.6203 77.8608 42.0169 72.7359C30.45 62.1546 29.8539 44.3562 40.6877 33.0609C45.936 27.5887 53.052 24.44 60.7255 24.1951C68.3985 23.9501 75.71 26.6375 81.3129 31.7629C85.8622 35.9241 88.7138 41.2007 89.8411 46.7605C91.5808 55.336 89.2144 64.584 82.642 71.4379" fill="#33535F"/>
<path d="M114.548 106.876L115.463 106.012C116.279 105.241 115.822 103.479 114.965 102.623L82.8561 70.2109L78.5625 74.2673L110.624 106.631C111.707 107.669 113.499 107.869 114.548 106.876" fill="#33535F"/>
<path d="M84.9596 74.1174C84.8077 73.9768 84.5109 73.8894 84.3106 73.9483C84.1103 74.0077 83.948 74.1498 83.8011 74.2957C82.7569 75.3309 82.1495 76.7743 82.1465 78.2279C82.1455 78.8506 82.3147 79.565 82.8825 79.8486L83.5276 79.4844C83.7279 79.2322 84.3244 78.811 84.4041 78.5013C84.7375 77.1994 84.2587 77.254 85.0946 74.9951C85.1767 74.7734 85.2673 74.4024 84.9596 74.1174" fill="#C5732D"/>
<path d="M84.8052 75.9646C84.9857 75.6559 85.1885 75.3564 85.4438 75.1429C85.699 74.9289 86.0156 74.8096 86.2926 74.8951C86.7382 75.0313 86.9549 75.6573 86.904 76.2395C86.853 76.8216 86.5988 77.3694 86.3504 77.895C85.8217 79.0142 85.2929 80.1335 84.7641 81.2533L84.4569 81.0325C84.2383 81.2417 83.9183 81.134 83.7718 80.8847C83.6249 80.6359 83.6101 80.2949 83.621 79.9707C83.6665 78.5722 84.1057 77.1568 84.8052 75.9646" fill="#C5732D"/>
<path d="M85.587 79.3166C85.9516 78.5287 86.5615 77.8707 87.1748 77.2379C87.3885 77.0181 87.6156 76.7915 87.9119 76.6915C88.2087 76.5915 88.5945 76.6635 88.7409 76.9287C88.8814 77.1838 88.7567 77.4925 88.6286 77.7529C87.8332 79.3712 86.9201 80.9368 85.8976 82.4353L84.9494 81.502C84.5196 80.745 85.2219 80.1045 85.587 79.3166" fill="#C5732D"/>
<path d="M111.199 89.67L110.328 89.4898L105.772 85.6976L103.279 83.6523C103.07 83.4813 102.818 83.3678 102.549 83.3238L100.081 82.9219C100.081 82.9219 99.6948 83.9706 100.82 84.575L102.173 85.2585L103.41 86.6865L103.251 86.9956C103.251 86.9956 95.1416 88.2246 94.6356 88.8289C94.129 89.4328 94.6355 89.9825 94.8606 90.0921C95.0852 90.2018 95.4789 90.1472 95.4789 90.1472C95.4789 90.1472 95.0852 91.081 96.2664 91.85C96.2664 91.85 95.3666 93.0036 96.9416 93.5529C96.9416 93.5529 97.3912 94.4316 98.2915 94.7065C99.1913 94.9808 104.028 95.5301 104.535 95.5301C105.041 95.5301 110.349 95.5383 110.349 95.5383L111.516 95.7248L111.199 89.6699" fill="#C5732D"/>
<path d="M95.295 90.1594C95.2885 90.2236 96.2946 90.3599 97.5382 90.2772C98.7773 90.1884 99.7626 90.0178 99.7572 89.9555C99.7508 89.8811 98.7466 89.941 97.5219 90.029C96.2986 90.1101 95.3004 90.0864 95.295 90.1594" fill="#6F3430"/>
<path d="M96.2666 91.8505C96.2671 91.8858 96.4773 91.9133 96.8157 91.9573C97.154 91.9988 97.6209 92.0636 98.1488 92.095C98.681 92.1288 99.1569 92.08 99.4942 92.067C99.8345 92.0447 100.039 92.0496 100.048 92.0182C100.058 91.9829 99.8425 91.9133 99.4962 91.8906C99.1485 91.8592 98.6766 91.879 98.1636 91.8462C97.6472 91.8158 97.1728 91.7781 96.8266 91.7815C96.4803 91.7824 96.2661 91.8167 96.2666 91.8505" fill="#6F3430"/>
<path d="M96.7822 93.5187C96.7773 93.5873 97.7562 93.7153 98.9691 93.8052C99.577 93.8424 100.112 93.8892 100.465 94.0317C100.823 94.1631 100.986 94.3505 101.018 94.3225C101.043 94.3109 100.919 94.0641 100.541 93.8713C100.169 93.6704 99.5909 93.5936 98.9884 93.5568C97.7755 93.467 96.7877 93.4501 96.7822 93.5187" fill="#6F3430"/>
<path d="M123.318 65.2031C123.318 65.2031 126.745 65.7804 129.344 70.7681C130.781 73.5255 137.494 90.1061 137.892 91.5602C139.596 97.7807 136.3 101.79 133.126 102.063C129.632 102.363 111.566 96.6696 111.566 96.6696L111.167 89.1313L127.647 91.5751L119.729 76.566C119.729 76.566 119.426 66.5697 123.318 65.2031" fill="#EF7E22"/>
<path d="M124.056 65.5024C124.08 65.5421 123.59 65.8179 122.907 66.3923C122.223 66.9633 121.376 67.8734 120.717 69.0511C120.064 70.2322 119.743 71.4211 119.625 72.2921C119.503 73.1645 119.533 73.7162 119.486 73.7181C119.468 73.7191 119.448 73.5823 119.428 73.3326C119.402 73.0833 119.405 72.7191 119.444 72.2718C119.479 71.8235 119.578 71.2945 119.74 70.7211C119.915 70.1506 120.158 69.5376 120.491 68.9308C120.831 68.3284 121.225 67.7951 121.62 67.3425C122.024 66.8971 122.424 66.528 122.79 66.2551C123.154 65.9802 123.465 65.7792 123.693 65.6648C123.919 65.5454 124.047 65.487 124.056 65.5024" fill="#17282F"/>
<path d="M133.188 95.6985C133.212 95.6908 133.103 95.2787 132.744 94.6937C132.392 94.1082 131.757 93.3769 130.89 92.7701C130.021 92.1663 129.106 91.8185 128.425 91.6832C127.741 91.5421 127.307 91.5755 127.308 91.6006C127.305 91.6441 127.73 91.674 128.381 91.8542C129.032 92.0291 129.901 92.3895 130.742 92.973C131.58 93.5599 132.212 94.2449 132.593 94.7899C132.979 95.3328 133.146 95.7154 133.188 95.6985" fill="#17282F"/>
<path d="M128.6 101.418C128.599 101.421 128.571 101.417 128.515 101.406C128.448 101.392 128.367 101.376 128.268 101.355C128.049 101.311 127.733 101.218 127.319 101.109C126.496 100.875 125.297 100.517 123.787 100.048C120.77 99.1068 116.505 97.732 111.491 96.0755L111.415 96.0504L111.411 95.9717C111.294 93.8022 111.167 91.438 111.035 88.9714L111.026 88.8173L111.183 88.842C112.482 89.0478 113.848 89.2632 115.237 89.483C119.706 90.1951 123.937 90.8694 127.665 91.4636L127.543 91.6274C125.302 87.343 123.41 83.7257 122.07 81.162C121.417 79.8969 120.899 78.8921 120.536 78.1868C120.367 77.852 120.235 77.5892 120.137 77.395C120.049 77.2148 120.006 77.1202 120.012 77.1173C120.018 77.1144 120.072 77.2037 120.172 77.3786C120.277 77.5684 120.419 77.8264 120.601 78.1544C120.979 78.8529 121.516 79.8476 122.194 81.1012C123.555 83.6537 125.475 87.2565 127.75 91.5235L127.856 91.7235L127.628 91.6878C123.899 91.1008 119.666 90.4347 115.196 89.7313C113.807 89.511 112.442 89.2941 111.142 89.0878L111.29 88.9589C111.416 91.4255 111.537 93.7901 111.648 95.9596L111.568 95.8562C116.568 97.5107 120.816 98.916 123.832 99.914C125.323 100.391 126.509 100.771 127.341 101.037C127.751 101.158 128.064 101.262 128.277 101.318C128.375 101.346 128.453 101.369 128.519 101.387C128.573 101.404 128.601 101.414 128.6 101.418" fill="#17282F"/>
<path d="M100.368 66.7287L111.167 78.468L104.545 84.2664L93.6985 72.2593C93.5294 72.072 93.5271 71.7924 93.6946 71.6036C94.364 70.8486 97.1685 68.2977 99.7585 66.6453C99.9549 66.52 100.216 66.5544 100.368 66.7287V66.7287Z" fill="#333333"/>
<path d="M117.832 63.7941C115.888 65.9933 104.855 78.4623 102.417 80.9807C102.17 81.2365 102.163 81.6341 102.399 81.8995L106.767 86.7941C107.226 87.3088 108.047 87.3023 108.498 86.7804L126.028 66.5338C126.324 66.1922 126.209 65.672 125.798 65.4754C124.843 65.0195 121.958 64.105 118.569 63.5346C118.294 63.4883 118.015 63.5879 117.832 63.7941Z" fill="#333333"/>
</g>
</svg>
