<svg width="553" height="510" viewBox="0 0 553 510" fill="none" xmlns="http://www.w3.org/2000/svg">
<path d="M550.701 265.352C543.892 211.161 522.496 157.252 494.654 113.169C458.437 55.8218 400.572 9.81366 331.92 1.28704C283.331 -4.74866 227.925 10.6253 190.349 43.6006C171.663 59.9983 157.264 80.3979 148.764 103.785C139.566 129.088 135.648 158.084 115.831 177.947C92.0161 201.817 59.1272 213.237 34.5227 236.022C-20.0294 286.543 -4.1038 377.797 41.8519 428.203C83.2171 473.575 144.591 465.182 199.774 473.735C241.666 480.226 277.921 503.897 320.733 508.377C382.676 514.859 446.622 494.079 492.056 451.164C544.953 401.198 559.21 333.056 550.701 265.352Z" fill="#FDF2E9"/>
<path d="M126.322 278.801C126.322 278.801 128.168 295.531 126.485 302.681L179.61 306.051L179.174 279.547L126.322 278.801V278.801Z" fill="#FBB273"/>
<path d="M121.99 230.345L82.3207 397.495H68.5391L117.824 227.202C117.824 227.202 119.035 221.263 127.797 217.5L128.902 218.667L121.99 230.345H121.99Z" fill="#EF7E22"/>
<path d="M121.99 231.362L82.321 411.755H70.7227L117.824 227.971C117.824 227.971 119.036 221.561 127.798 217.5L128.903 218.759L121.99 231.362H121.99Z" fill="#042CB0"/>
<path d="M256.948 417.054C256.948 417.054 264.619 416.482 268.807 416.451C268.807 416.451 279.526 361.312 280.37 334.851C281.213 308.389 271.924 300.424 240.617 301.628L233.474 343.345L256.948 417.054Z" fill="#EF7E22"/>
<path d="M248.507 425.011C248.507 425.011 256.197 424.829 260.381 425.011C260.381 425.011 275.737 362.807 277.921 336.422C280.104 310.038 271.23 301.611 239.902 301.223L230.654 342.523L248.507 425.011Z" fill="#042CB0"/>
<path d="M124.899 231.362L115.47 411.755H75.9082L120.733 227.971C120.733 227.971 128.5 218.718 130.706 217.5L131.811 218.759L124.899 231.362H124.899Z" fill="#EF7E22"/>
<path d="M119.035 50.7383V221.563H391.807V50.7383H119.035Z" fill="#FAFAF9"/>
<path d="M391.807 77.7355H119.035V60.7695H391.807V77.7355Z" fill="#E7E8E5"/>
<path d="M391.807 61.1842H119.035V49.3984H391.807V61.1842Z" fill="#F3F2F1"/>
<path d="M126.951 55.824C126.951 56.6698 126.266 57.355 125.421 57.355C124.577 57.355 123.893 56.6698 123.893 55.824C123.893 54.9783 124.577 54.293 125.421 54.293C126.266 54.293 126.951 54.9783 126.951 55.824Z" fill="#DADBD8"/>
<path d="M132.64 55.824C132.64 56.6698 131.956 57.355 131.111 57.355C130.267 57.355 129.582 56.6698 129.582 55.824C129.582 54.9783 130.267 54.293 131.111 54.293C131.956 54.293 132.64 54.9783 132.64 55.824Z" fill="#DADBD8"/>
<path d="M138.33 55.824C138.33 56.6698 137.645 57.355 136.8 57.355C135.956 57.355 135.271 56.6698 135.271 55.824C135.271 54.9783 135.956 54.293 136.8 54.293C137.645 54.293 138.33 54.9783 138.33 55.824" fill="#DADBD8"/>
<path d="M350.503 73.3206H154.995C152.752 73.3206 150.934 71.5001 150.934 69.2541C150.934 67.0089 152.752 65.1875 154.995 65.1875H350.503C352.747 65.1875 354.564 67.0089 354.564 69.2541C354.564 71.5001 352.747 73.3206 350.503 73.3206Z" fill="white"/>
<path d="M233.855 191.854H143.025V103.867H233.855V191.854Z" fill="#F1F1F1"/>
<path d="M150.068 184.324L175.195 139.047L195.747 167.986L208.234 152.618L226.814 184.324H150.068" fill="#CCCCCC"/>
<path d="M204.502 130.24C204.502 133.854 201.575 136.784 197.965 136.784C194.355 136.784 191.428 133.854 191.428 130.24C191.428 126.625 194.355 123.695 197.965 123.695C201.575 123.695 204.502 126.625 204.502 130.24Z" fill="#F3F2F1"/>
<path d="M226.813 110.782C204.586 110.765 178.238 110.745 150.076 110.722C150.16 110.625 149.249 111.548 149.635 111.168V112.404L149.636 113.657V116.156C149.636 117.819 149.636 119.475 149.636 121.123C149.637 124.42 149.638 127.688 149.639 130.92C149.642 137.385 149.646 143.717 149.65 149.88C149.664 162.202 149.678 173.853 149.691 184.569V184.949L150.068 184.947C173.073 184.869 192.289 184.803 205.798 184.756C212.468 184.713 217.728 184.68 221.364 184.657C223.119 184.638 224.48 184.622 225.443 184.613C225.875 184.604 226.213 184.596 226.477 184.591C226.708 184.584 226.821 184.577 226.813 184.57C226.807 184.563 226.679 184.556 226.435 184.548C226.16 184.543 225.809 184.536 225.36 184.528C224.379 184.517 222.994 184.502 221.207 184.484C217.552 184.46 212.264 184.427 205.557 184.384C192.18 184.338 173.183 184.273 150.445 184.193C150.458 173.579 150.472 162.06 150.486 149.88C150.49 143.717 150.493 137.385 150.497 130.92C150.498 127.688 150.499 124.42 150.5 121.123C150.5 119.475 150.501 117.819 150.501 116.156V111.589C178.348 111.566 204.406 111.545 226.443 111.527C226.521 133.334 226.586 151.503 226.632 164.281C226.674 170.688 226.706 175.735 226.728 179.224C226.747 180.926 226.762 182.247 226.772 183.183C226.78 183.611 226.788 183.945 226.792 184.209C226.8 184.442 226.807 184.564 226.813 184.57C226.821 184.577 226.828 184.47 226.834 184.251C226.839 183.997 226.846 183.676 226.855 183.265C226.865 182.346 226.879 181.049 226.898 179.376C226.92 175.908 226.954 170.89 226.995 164.518C227.041 151.608 227.106 133.227 227.184 111.156L227.186 110.784L226.813 110.782" fill="#CCCCCC"/>
<path d="M276.817 164.445V293.447H482.806V164.445H276.817Z" fill="#FAFAF9"/>
<path d="M276.817 183.523H482.806V170.711H276.817V183.523Z" fill="#E7E8E5"/>
<path d="M482.806 171.022H276.817V162.121H482.806V171.022Z" fill="#F3F2F1"/>
<path d="M282.795 166.977C282.795 167.616 282.278 168.133 281.641 168.133C281.002 168.133 280.485 167.616 280.485 166.977C280.485 166.338 281.002 165.82 281.641 165.82C282.278 165.82 282.795 166.338 282.795 166.977Z" fill="#DADBD8"/>
<path d="M287.09 166.977C287.09 167.616 286.573 168.133 285.936 168.133C285.298 168.133 284.781 167.616 284.781 166.977C284.781 166.338 285.298 165.82 285.936 165.82C286.573 165.82 287.09 166.338 287.09 166.977Z" fill="#DADBD8"/>
<path d="M291.387 166.977C291.387 167.616 290.87 168.133 290.233 168.133C289.595 168.133 289.078 167.616 289.078 166.977C289.078 166.338 289.595 165.82 290.233 165.82C290.87 165.82 291.387 166.338 291.387 166.977Z" fill="#DADBD8"/>
<path d="M451.615 180.189H303.973C302.28 180.189 300.905 178.815 300.905 177.119C300.905 175.422 302.28 174.047 303.973 174.047H451.615C453.309 174.047 454.681 175.422 454.681 177.119C454.681 178.815 453.309 180.189 451.615 180.189Z" fill="white"/>
<path d="M473.462 279.425H404.87V212.98H473.462V279.425" fill="#E7E8E5"/>
<path d="M410.188 273.738L429.162 239.547L444.683 261.401L454.113 249.795L468.142 273.738H410.188Z" fill="#F3F2F1"/>
<path d="M451.293 232.895C451.293 235.625 449.083 237.837 446.357 237.837C443.631 237.837 441.421 235.625 441.421 232.895C441.421 230.165 443.631 227.953 446.357 227.953C449.083 227.953 451.293 230.165 451.293 232.895Z" fill="#F3F2F1"/>
<path d="M468.143 218.2C451.358 218.187 431.46 218.171 410.194 218.154C410.257 218.081 409.569 218.778 409.861 218.49V219.424L409.861 220.37V222.258C409.861 223.513 409.861 224.764 409.862 226.009C409.862 228.499 409.863 230.966 409.863 233.407C409.866 238.289 409.869 243.071 409.871 247.724C409.882 257.03 409.894 265.828 409.903 273.922V274.208L410.187 274.206C427.561 274.148 442.071 274.097 452.273 274.062C457.31 274.03 461.283 274.004 464.028 273.987C465.353 273.973 466.381 273.961 467.108 273.955C467.434 273.948 467.689 273.941 467.889 273.938C468.063 273.932 468.148 273.927 468.143 273.922C468.138 273.916 468.041 273.911 467.858 273.905C467.65 273.902 467.385 273.896 467.045 273.889C466.304 273.882 465.259 273.87 463.91 273.856C461.149 273.839 457.155 273.813 452.091 273.782C441.989 273.747 427.644 273.697 410.472 273.637C410.482 265.622 410.493 256.922 410.503 247.724C410.505 243.071 410.508 238.289 410.511 233.407C410.512 230.966 410.513 228.499 410.513 226.009V218.808C431.544 218.791 451.221 218.776 467.864 218.762C467.922 235.23 467.972 248.95 468.006 258.6C468.038 263.439 468.062 267.25 468.079 269.885C468.094 271.17 468.103 272.168 468.112 272.875C468.118 273.197 468.124 273.45 468.128 273.649C468.133 273.825 468.138 273.917 468.143 273.922C468.149 273.927 468.154 273.846 468.158 273.681C468.163 273.49 468.168 273.246 468.176 272.936C468.182 272.242 468.193 271.262 468.207 270C468.224 267.381 468.249 263.591 468.28 258.78C468.315 249.031 468.364 235.149 468.424 218.481L468.425 218.201L468.143 218.2" fill="#F3F2F1"/>
<path d="M371.193 279.425H302.601V212.98H371.193V279.425" fill="#E7E8E5"/>
<path d="M307.919 273.738L326.894 239.547L342.414 261.401L351.845 249.795L365.875 273.738H307.919Z" fill="#F3F2F1"/>
<path d="M349.025 232.895C349.025 235.625 346.815 237.837 344.088 237.837C341.362 237.837 339.152 235.625 339.152 232.895C339.152 230.165 341.362 227.953 344.088 227.953C346.815 227.953 349.025 230.165 349.025 232.895Z" fill="#F3F2F1"/>
<path d="M365.874 218.2C349.089 218.187 329.191 218.171 307.925 218.154C307.989 218.081 307.301 218.778 307.592 218.49V219.424L307.592 220.37V222.258C307.592 223.513 307.592 224.764 307.593 226.009C307.593 228.499 307.594 230.966 307.594 233.407C307.598 238.289 307.601 243.071 307.603 247.724C307.614 257.03 307.624 265.828 307.634 273.922V274.208L307.918 274.206C325.292 274.148 339.803 274.097 350.005 274.062C355.042 274.03 359.014 274.004 361.76 273.987C363.084 273.973 364.113 273.961 364.839 273.955C365.166 273.948 365.421 273.941 365.621 273.938C365.795 273.932 365.88 273.927 365.874 273.922C365.87 273.916 365.773 273.911 365.589 273.905C365.382 273.902 365.116 273.896 364.776 273.889C364.036 273.882 362.991 273.87 361.642 273.856C358.88 273.839 354.887 273.813 349.823 273.782C339.721 273.747 325.375 273.697 308.204 273.637C308.214 265.622 308.224 256.922 308.235 247.724C308.237 243.071 308.24 238.289 308.243 233.407C308.244 230.966 308.245 228.499 308.245 226.009V218.808C329.275 218.791 348.953 218.776 365.595 218.762C365.654 235.23 365.702 248.95 365.738 258.6C365.77 263.439 365.793 267.25 365.811 269.885C365.825 271.17 365.835 272.168 365.844 272.875C365.85 273.197 365.855 273.45 365.858 273.649C365.864 273.825 365.87 273.917 365.874 273.922C365.88 273.927 365.886 273.846 365.89 273.681C365.894 273.49 365.899 273.246 365.907 272.936C365.914 272.242 365.925 271.262 365.938 270C365.956 267.381 365.98 263.591 366.011 258.78C366.046 249.031 366.096 235.149 366.155 218.481L366.156 218.201L365.874 218.2" fill="#F3F2F1"/>
<path d="M300.707 451.386C299.319 450.195 296.221 446.417 298.609 442.023C299.485 440.413 301.345 439.616 303.028 438.906C304.711 438.196 306.481 437.579 307.874 436.393C310.501 434.156 311.225 430.438 312.969 427.452C314.97 424.025 318.708 421.458 322.656 421.638C327.176 421.843 330.946 425.54 332.654 429.756C334.365 433.97 334.424 438.651 334.459 443.203C334.479 445.72 334.367 448.557 332.521 450.257C330.819 451.824 328.257 451.843 325.952 451.773C317.717 451.518 309.482 451.265 301.247 451.013" fill="#F3F2F1"/>
<path d="M345.031 402.795H338.494L340.096 384.016H347.232L345.031 402.795ZM339.452 450.417H334.43L335.934 432.8H341.516L339.452 450.417ZM290.385 384.016C290.643 385.374 291.829 392.763 293.418 402.795H286.897L283.75 384.016H290.385ZM329.868 402.795L330.491 384.016H339.449L337.847 402.795H329.868ZM328.289 450.417L328.873 432.8H335.287L333.783 450.417H328.289ZM298.14 432.8C299.096 438.895 300.036 444.907 300.897 450.417H294.874L291.923 432.8H298.14ZM297.377 427.937H291.108L287.711 407.658H294.186C295.176 413.925 296.273 420.899 297.377 427.937H297.377ZM306.053 407.658L307.627 427.937H298.03C297.708 425.879 297.38 423.797 297.053 421.715C296.301 416.928 295.547 412.142 294.839 407.658H306.053ZM305.676 402.796H294.07C293.66 400.201 293.271 397.747 292.919 395.538C291.707 387.946 291.253 385.091 291 384.016H304.218L305.676 402.796ZM317.291 402.796H306.322L304.864 384.016H316.858L317.291 402.796ZM317.935 402.796L317.504 384.016H329.846L329.223 402.796H317.935ZM318.514 427.937L318.047 407.658H329.061L328.388 427.937H318.514ZM308.274 427.937L306.7 407.658H317.403L317.868 427.937H308.274ZM309.373 450.417H301.55C300.806 445.659 299.84 439.478 298.793 432.8H308.005L309.373 450.417ZM308.651 432.8H317.98L318.385 450.417H310.018L308.651 432.8ZM319.031 450.417L318.626 432.8H328.227L327.643 450.417H319.031ZM338.079 407.658H344.462L342.086 427.937H336.348L338.079 407.658ZM335.702 427.937H329.034L329.707 407.658H337.432L335.702 427.937ZM347.957 383.367H282.988L294.692 453.239C295.203 456.29 297.409 458.643 300.238 459.459L300.466 459.521C300.66 459.57 300.846 459.636 301.045 459.67C301.473 459.76 301.916 459.805 302.365 459.823L302.376 459.891L302.694 459.84H331.651C332.195 459.84 332.727 459.783 333.242 459.681C336.662 459.151 339.399 456.403 339.815 452.852L345.457 404.709L345.711 402.795H345.681L347.915 383.73L347.957 383.367Z" fill="#DADBD8"/>
<path d="M135.951 460.317H127.888L124.898 423.977H134.393L135.951 460.317Z" fill="#666666"/>
<path d="M205.826 460.317H213.889L216.879 423.977H207.384L205.826 460.317Z" fill="#666666"/>
<path d="M222.417 428.578L118.64 431.017L115.482 363.904C115.173 357.333 120.411 351.836 126.981 351.836H215.399C222.071 351.836 227.345 357.496 226.883 364.16L222.417 428.578Z" fill="#CCCCCC"/>
<path d="M227.738 363.675C227.738 363.682 227.639 363.69 227.449 363.699C227.232 363.705 226.951 363.714 226.598 363.724C225.819 363.736 224.723 363.752 223.327 363.774C220.454 363.785 216.352 363.798 211.296 363.817C201.139 363.834 187.105 363.72 171.616 364.08C156.119 364.595 142.074 364.507 131.918 364.352C126.839 364.273 122.73 364.173 119.891 364.088C118.495 364.04 117.4 364.002 116.622 363.976C116.269 363.959 115.989 363.944 115.772 363.935C115.581 363.922 115.482 363.912 115.482 363.904C115.483 363.896 115.581 363.89 115.773 363.886C115.99 363.885 116.27 363.883 116.624 363.881C117.402 363.887 118.498 363.895 119.894 363.905C122.766 363.933 126.867 363.972 131.922 364.02C142.079 364.09 156.109 364.126 171.605 363.61C187.106 363.25 201.141 363.417 211.297 363.486C216.353 363.53 220.455 363.565 223.327 363.591C224.723 363.607 225.819 363.621 226.598 363.63C226.951 363.639 227.232 363.645 227.448 363.65C227.639 363.659 227.738 363.667 227.738 363.675" fill="#17282F"/>
<path d="M153.336 352.886C153.365 353.042 150.084 353.098 146.599 354.911C143.086 356.674 141.116 359.3 141.007 359.184C140.965 359.155 141.39 358.462 142.292 357.515C143.188 356.569 144.603 355.406 146.385 354.492C148.17 353.583 149.94 353.119 151.232 352.948C152.527 352.774 153.336 352.834 153.336 352.886" fill="#17282F"/>
<path d="M215.912 351.849C215.741 351.841 215.57 351.838 215.399 351.838H187.507C187.987 351.409 188.275 351.169 188.239 351.129C188.238 351.126 188.234 351.126 188.23 351.126C188.159 351.126 187.735 351.363 187.106 351.838H162.271C167.1 351.587 171.938 351.229 176.775 350.871C185.603 350.218 194.432 349.566 203.215 349.566C206.923 349.566 210.624 349.682 214.313 349.964C214.321 349.964 214.329 349.965 214.337 349.965C214.543 349.965 214.804 349.771 215.061 349.578C215.32 349.385 215.576 349.191 215.77 349.191C215.828 349.191 215.879 349.209 215.925 349.247C216.634 349.85 216.361 351 215.925 351.822C215.921 351.832 215.916 351.84 215.912 351.849Z" fill="#A7A9A8"/>
<path d="M145.458 355.542C145.29 355.47 145.123 355.397 144.957 355.322C145.401 355.032 145.878 354.752 146.385 354.492C148.17 353.583 149.94 353.119 151.232 352.947C151.881 352.86 152.408 352.832 152.772 352.832C153.135 352.832 153.336 352.86 153.336 352.886C153.365 353.042 150.085 353.098 146.599 354.91C146.198 355.111 145.818 355.323 145.458 355.542" fill="#0F191D"/>
<path d="M224.242 407.019C224.15 406.629 224.068 406.235 223.993 405.841L224.802 394.184C224.519 400.898 224.242 407.019 224.242 407.019Z" fill="#A7A9A8"/>
<path d="M213.691 379.675C213.561 379.592 213.431 379.509 213.301 379.426C216.467 378.88 219.096 378.672 220.986 378.628C221.385 378.605 221.752 378.598 222.085 378.598C222.349 378.598 222.592 378.602 222.812 378.607C223.034 378.61 223.232 378.615 223.408 378.615H223.49C223.753 378.622 223.967 378.628 224.142 378.632C224.288 378.639 224.363 378.647 224.363 378.655C224.363 378.663 224.287 378.671 224.141 378.681C223.967 378.689 223.753 378.698 223.49 378.71C222.92 378.745 222.076 378.721 220.994 378.81C219.179 378.9 216.684 379.137 213.691 379.675Z" fill="#A7A9A8"/>
<path d="M159.129 221.055C159.124 221.198 159.129 221.055 159.129 221.055V221.055Z" fill="#F8A58D"/>
<path d="M231.761 296.661L227.783 290.638L221.395 287.43L221.156 287.256C219.067 285.735 216.407 285.243 213.911 285.908C211.311 286.6 207.84 287.464 204.829 287.978L177.699 281.277L177.062 294.849L204.844 297.475L232.626 297.334L231.761 296.661Z" fill="#FBB273"/>
<path d="M231.521 296.296C231.557 296.25 230.995 295.741 230.057 294.957C229.118 294.171 227.803 293.111 226.335 291.959C225.858 291.59 225.397 291.232 224.959 290.892L224.918 290.861L224.871 290.851C223.45 290.584 222.215 290.369 221.332 290.232C220.451 290.096 219.921 290.039 219.911 290.088C219.902 290.136 220.414 290.284 221.282 290.492C222.15 290.701 223.375 290.969 224.79 291.261L224.703 291.22C225.138 291.564 225.596 291.925 226.069 292.299C227.538 293.451 228.883 294.473 229.869 295.195C230.856 295.92 231.484 296.343 231.521 296.296" fill="#F68260"/>
<path d="M228.818 297.469C228.876 297.365 226.643 296.016 223.832 294.456C223.412 294.225 223.006 294.002 222.616 293.788L222.573 293.764L222.528 293.761C219.982 293.622 218.095 293.586 218.089 293.687C218.083 293.788 219.958 293.993 222.501 294.18L222.413 294.154C222.801 294.372 223.206 294.598 223.623 294.833C226.434 296.392 228.76 297.574 228.818 297.469" fill="#F68260"/>
<path d="M272.121 258.66C270.96 258.006 269.494 258.321 268.703 259.394L240.778 297.261L196.591 297.861C194.826 297.967 192.686 301.538 194.267 303.267L244.164 302.585L272.971 262.509C273.891 261.229 273.494 259.432 272.121 258.66" fill="#DADBD8"/>
<path d="M272.12 258.659C272.122 258.654 272.196 258.694 272.341 258.78C272.48 258.872 272.686 259.02 272.898 259.276C273.314 259.748 273.814 260.807 273.307 262.046C273.024 262.641 272.56 263.168 272.127 263.817C271.677 264.452 271.185 265.143 270.654 265.89C269.59 267.385 268.368 269.1 267.002 271.019C261.505 278.701 253.681 289.636 244.331 302.704L244.27 302.788L244.166 302.79C229.794 302.995 213.016 303.234 195.173 303.489C194.87 303.492 194.566 303.497 194.27 303.501L194.166 303.502L194.093 303.424C193.641 302.94 193.459 302.262 193.485 301.642C193.505 301.012 193.686 300.414 193.955 299.871C194.225 299.328 194.58 298.829 195.026 298.41C195.46 298.004 196.037 297.624 196.7 297.626C198.997 297.594 201.274 297.564 203.524 297.534C208.027 297.476 212.431 297.417 216.714 297.362C225.279 297.253 233.36 297.151 240.774 297.059L240.614 297.141C249.698 284.881 257.267 274.666 262.576 267.501C265.232 263.946 267.322 261.148 268.761 259.223C269.585 258.278 270.666 258.208 271.249 258.323C271.865 258.443 272.12 258.659 272.12 258.659C272.112 258.682 271.843 258.481 271.238 258.385C270.665 258.293 269.625 258.388 268.855 259.303C267.439 261.241 265.382 264.06 262.766 267.641C257.489 274.831 249.967 285.081 240.939 297.381L240.88 297.462L240.78 297.463C233.368 297.571 225.289 297.689 216.726 297.814C212.444 297.874 208.041 297.935 203.539 297.999C201.289 298.03 199.013 298.061 196.717 298.093C196.206 298.086 195.742 298.385 195.344 298.753C194.949 299.125 194.621 299.583 194.374 300.077C193.891 301.043 193.713 302.316 194.439 303.108L194.263 303.031C194.56 303.028 194.863 303.023 195.167 303.019C213.009 302.785 229.788 302.566 244.161 302.378L243.996 302.463C253.404 289.437 261.274 278.536 266.806 270.878C268.188 268.971 269.424 267.266 270.503 265.779C271.042 265.04 271.541 264.354 271.999 263.725C272.437 263.088 272.92 262.543 273.189 261.994C273.693 260.823 273.238 259.792 272.847 259.316C272.44 258.809 272.1 258.683 272.12 258.659" fill="#17282F"/>
<path d="M134.855 215.488C133.111 215.958 132.153 217.003 130.854 218.26C128.04 220.986 125.997 224.724 124.898 228.023C123.423 232.454 122.182 251.21 122.182 256.274C122.182 261.337 125.687 287.764 126.323 290.929C126.959 294.093 180.302 292.423 180.302 292.423C180.302 292.423 180.16 282.849 180.995 271.937C181.687 262.893 181.867 253.189 180.21 247.944C177.681 239.938 167.563 226.766 157.474 218.992C157.474 218.992 149.519 217.286 147.72 216.654C142.336 214.766 140.286 214.023 134.855 215.488" fill="#042CB0"/>
<path d="M155.694 274.852L154.499 234.584C154.499 234.584 152.878 218.181 144.668 216.656L128.902 239.651C130.007 252.071 128.519 274.489 134.218 283.553C138.857 293.031 142.223 294.574 155.976 295.55C170.012 294.906 180.971 297.277 180.971 297.277L183.159 280.892L155.694 274.852Z" fill="#042CB0"/>
<path d="M155.786 275.008C155.896 275.095 154.785 276.547 153.851 278.571C152.901 280.588 152.504 282.372 152.366 282.344C152.249 282.333 152.447 280.455 153.426 278.372C154.391 276.283 155.701 274.925 155.786 275.008" fill="#17282F"/>
<path d="M135.68 286.559C135.667 286.568 135.513 286.392 135.23 286.048C135.083 285.879 134.919 285.658 134.74 285.389C134.55 285.125 134.344 284.814 134.142 284.449C133.298 283.015 132.353 280.747 132.155 277.817C132.067 276.359 132.152 274.739 132.602 273.06C133.027 271.365 133.96 269.712 134.691 267.934C135.05 267.044 135.355 266.105 135.421 265.133C135.492 264.162 135.284 263.165 134.744 262.277C133.695 260.48 131.644 259.113 130.624 256.995C129.583 254.913 129.464 252.642 129.644 250.557C129.806 248.452 130.383 246.478 130.68 244.603C130.821 243.663 130.873 242.738 130.75 241.857C130.631 240.977 130.32 240.149 129.957 239.372C129.21 237.826 128.336 236.419 127.806 235.035C126.693 232.284 126.401 229.905 126.337 228.284C126.302 227.47 126.337 226.838 126.362 226.411C126.401 225.984 126.428 225.76 126.445 225.762C126.461 225.763 126.464 225.987 126.457 226.413C126.461 226.84 126.456 227.469 126.52 228.276C126.638 229.882 126.979 232.23 128.117 234.931C128.659 236.29 129.534 237.659 130.314 239.235C130.693 240.024 131.026 240.883 131.159 241.81C131.295 242.733 131.247 243.693 131.109 244.653C130.814 246.575 130.255 248.52 130.102 250.589C129.93 252.638 130.058 254.838 131.051 256.82C132 258.825 134.022 260.173 135.15 262.084C135.725 263.032 135.951 264.129 135.868 265.158C135.792 266.192 135.468 267.163 135.097 268.068C134.337 269.879 133.407 271.498 132.979 273.143C132.523 274.779 132.421 276.368 132.486 277.802C132.638 280.683 133.52 282.935 134.306 284.375C135.096 285.825 135.726 286.532 135.68 286.559" fill="white"/>
<path d="M167.501 276.117C167.437 276.1 167.953 275.425 167.955 274.019C167.951 273.326 167.807 272.476 167.447 271.557C167.088 270.637 166.5 269.666 165.832 268.598C165.162 267.536 164.436 266.318 163.979 264.879C163.508 263.45 163.248 261.838 163.312 260.145C163.368 258.455 163.742 256.676 164.52 255.002C165.272 253.331 166.318 251.746 166.815 249.931C167.295 248.115 167.021 246.226 166.323 244.587C165.657 242.929 164.698 241.461 163.828 240.044C162.948 238.629 162.103 237.271 161.505 235.891C160.897 234.518 160.539 233.156 160.344 231.898C159.948 229.372 160.226 227.29 160.533 225.914C160.691 225.223 160.857 224.698 160.985 224.348C161.116 223.998 161.191 223.819 161.206 223.824C161.25 223.839 160.976 224.574 160.712 225.951C160.462 227.323 160.242 229.377 160.672 231.845C160.883 233.074 161.252 234.4 161.86 235.733C162.458 237.071 163.304 238.405 164.194 239.813C165.074 241.225 166.053 242.701 166.749 244.414C167.476 246.1 167.782 248.122 167.267 250.052C166.739 251.968 165.673 253.564 164.938 255.193C164.18 256.811 163.81 258.523 163.744 260.161C163.67 261.801 163.908 263.367 164.349 264.759C164.778 266.161 165.461 267.348 166.114 268.426C166.764 269.503 167.346 270.504 167.691 271.464C168.04 272.42 168.162 273.306 168.137 274.021C168.112 274.741 167.944 275.283 167.789 275.624C167.638 275.969 167.501 276.117 167.501 276.117Z" fill="white"/>
<path d="M177.944 278.8C177.9 278.794 178.031 278.108 178.065 276.857C178.097 275.614 178.023 273.784 177.392 271.647C177.084 270.578 176.603 269.459 176.004 268.287C175.415 267.113 174.719 265.877 174.158 264.48C173.611 263.085 173.209 261.494 173.385 259.823C173.468 258.993 173.738 258.151 174.172 257.409C174.597 256.662 175.129 255.998 175.545 255.275C176.419 253.852 176.443 252.123 176.003 250.619C175.581 249.094 174.793 247.753 173.95 246.549C173.106 245.339 172.234 244.221 171.533 243.085C170.825 241.957 170.299 240.801 170.041 239.686C169.524 237.448 169.761 235.587 169.914 234.348C170 233.724 170.094 233.244 170.159 232.919C170.228 232.596 170.272 232.427 170.287 232.43C170.303 232.432 170.291 232.606 170.252 232.935C170.21 233.314 170.159 233.789 170.096 234.369C169.997 235.605 169.819 237.451 170.362 239.604C170.632 240.676 171.154 241.78 171.862 242.877C172.563 243.981 173.44 245.083 174.303 246.3C175.168 247.513 175.997 248.897 176.446 250.496C176.919 252.062 176.899 253.973 175.951 255.511C175.51 256.273 174.979 256.936 174.577 257.641C174.17 258.338 173.924 259.097 173.842 259.874C173.67 261.432 174.039 262.965 174.561 264.321C175.095 265.687 175.773 266.923 176.353 268.114C176.941 269.301 177.418 270.46 177.711 271.556C178.313 273.75 178.336 275.613 178.248 276.866C178.206 277.496 178.127 277.981 178.069 278.309C178.003 278.633 177.961 278.803 177.944 278.8" fill="white"/>
<g style="mix-blend-mode:multiply">
<path d="M166.624 277.139L155.692 274.854C155.692 274.854 156.06 270.629 155.784 267.121C155.517 263.734 155.32 260.33 155.16 256.911L154.498 234.586C154.498 234.586 154.453 234.136 154.342 233.379C158.783 247.623 157.906 269.144 166.624 277.139" fill="#001B74"/>
</g>
<path d="M155.161 256.908C154.788 248.966 154.607 240.942 154.18 232.863C154.235 233.033 154.289 233.204 154.343 233.376C154.454 234.134 154.499 234.584 154.499 234.584L155.161 256.908Z" fill="#CC4341"/>
<path d="M227.507 383.367L220.63 434.101L238.622 437.055L251.421 392.038L227.507 383.367" fill="#F8A58D"/>
<path d="M172.953 305.415C172.953 305.415 249.697 298.108 255.387 303.331C261.076 308.552 265.817 319.946 263.92 323.743C262.024 327.541 257.757 340.358 257.757 340.358L222.41 332.288L172.953 305.415" fill="#17282F"/>
<path d="M242.839 340.842C242.852 340.928 241.884 341.063 240.422 341.587C239.688 341.843 238.848 342.232 237.955 342.734C237.074 343.256 236.15 343.903 235.267 344.689C234.394 345.488 233.657 346.343 233.047 347.167C232.456 348.004 231.985 348.801 231.655 349.505C230.983 350.908 230.749 351.858 230.665 351.837C230.634 351.829 230.671 351.587 230.766 351.153C230.852 350.717 231.049 350.103 231.352 349.368C231.651 348.629 232.106 347.792 232.695 346.917C233.301 346.055 234.053 345.163 234.953 344.34C235.862 343.53 236.825 342.873 237.744 342.357C238.673 341.861 239.552 341.495 240.316 341.274C241.077 341.045 241.709 340.912 242.151 340.872C242.591 340.822 242.835 340.81 242.839 340.842Z" fill="#33535F"/>
<path d="M239.91 315.555C239.798 315.496 240.314 314.31 241.208 312.999C242.1 311.685 243.012 310.771 243.107 310.853C243.209 310.938 242.472 311.973 241.595 313.263C240.717 314.551 240.026 315.619 239.91 315.555Z" fill="#33535F"/>
<path d="M267.735 334.257C267.727 334.257 267.703 334.177 267.662 334.019C267.618 333.836 267.563 333.604 267.496 333.318C267.349 332.7 267.121 331.793 266.753 330.65C266.382 329.508 265.855 328.127 265 326.658C264.145 325.216 262.924 323.601 261.022 322.65C257.122 320.876 252.268 319.185 246.809 317.592C241.355 315.959 235.341 314.229 228.991 312.547C216.29 309.17 204.634 306.754 196.142 305.344C191.897 304.625 188.448 304.133 186.064 303.802C184.898 303.643 183.98 303.519 183.316 303.428C183.025 303.383 182.79 303.348 182.603 303.319C182.442 303.292 182.361 303.274 182.361 303.266C182.362 303.259 182.446 303.261 182.608 303.271C182.797 303.289 183.034 303.308 183.327 303.335C183.993 303.404 184.916 303.499 186.087 303.62C188.481 303.897 191.94 304.339 196.196 305.016C204.711 306.343 216.398 308.712 229.112 312.093C235.467 313.776 241.483 315.521 246.934 317.178C252.398 318.798 257.246 320.52 261.172 322.353C263.152 323.373 264.377 325.049 265.227 326.526C266.075 328.032 266.581 329.437 266.927 330.594C267.27 331.754 267.47 332.673 267.587 333.297C267.637 333.588 267.677 333.823 267.71 334.01C267.734 334.172 267.743 334.255 267.735 334.257" fill="#33535F"/>
<path d="M239.442 434.173C239.442 434.173 227.206 430.414 221.799 425.48L214.666 438.166L255.321 456.265C256.857 452.373 239.442 434.173 239.442 434.173Z" fill="#F8A58D"/>
<path d="M214.666 438.164L216.155 434.941L254.658 453.537C254.658 453.537 256.108 455.111 255.321 456.263L214.666 438.164Z" fill="#263238"/>
<path d="M227.625 370.186C227.497 370.359 226.538 369.836 225.257 369.806C223.975 369.745 222.988 370.199 222.87 370.019C222.727 369.874 223.726 369.004 225.277 369.066C226.828 369.113 227.776 370.052 227.625 370.186" fill="#17282F"/>
<path d="M227.43 369.88C227.413 369.914 227.098 369.811 226.55 369.559C226.022 369.297 225.169 368.909 224.505 367.974C224.343 367.743 224.205 367.479 224.099 367.193C223.991 366.91 223.887 366.595 223.92 366.212C223.932 365.823 224.289 365.402 224.717 365.329C225.139 365.222 225.595 365.367 225.922 365.591C227.191 366.489 227.997 368.179 227.732 369.93L227.156 369.744C227.303 369.463 227.488 369.176 227.705 368.911C228.888 367.436 230.867 366.872 232.469 367.195C232.671 367.234 232.903 367.284 233.12 367.441C233.339 367.598 233.472 367.875 233.473 368.114C233.48 368.592 233.244 368.952 232.987 369.223C232.473 369.76 231.827 370.043 231.241 370.195C230.035 370.502 229.052 370.234 228.42 370.136C227.777 370.006 227.426 369.921 227.43 369.88C227.433 369.84 227.801 369.846 228.452 369.905C229.099 369.936 230.055 370.118 231.118 369.786C231.643 369.624 232.196 369.348 232.607 368.888C232.807 368.675 232.948 368.383 232.934 368.138C232.922 367.906 232.745 367.797 232.374 367.739C230.946 367.485 229.226 367.995 228.186 369.29C227.995 369.522 227.833 369.772 227.704 370.018C227.628 370.165 227.444 370.223 227.292 370.148C227.17 370.088 227.108 369.956 227.127 369.832C227.373 368.33 226.655 366.803 225.613 366.035C225.121 365.651 224.443 365.793 224.41 366.274C224.37 366.767 224.613 367.349 224.859 367.756C225.394 368.608 226.17 369.049 226.66 369.364C227.166 369.672 227.449 369.843 227.43 369.88Z" fill="#17282F"/>
<path d="M230.225 373.5C230.168 373.629 229.024 373.108 227.542 373.232C226.059 373.33 225.005 374.014 224.93 373.896C224.835 373.818 225.871 372.878 227.508 372.765C229.143 372.633 230.307 373.409 230.225 373.5Z" fill="#17282F"/>
<path d="M232.025 376.425C231.991 376.56 230.911 376.341 229.596 376.507C228.278 376.655 227.279 377.123 227.215 377.001C227.143 376.903 228.114 376.206 229.541 376.04C230.964 375.865 232.072 376.313 232.025 376.425Z" fill="#17282F"/>
<path d="M477.131 460.317C477.131 460.447 391.859 460.552 286.696 460.552C181.496 460.552 96.2422 460.447 96.2422 460.317C96.2422 460.188 181.496 460.082 286.696 460.082C391.859 460.082 477.131 460.188 477.131 460.317" fill="#17282F"/>
<path d="M201.686 77.8008V241.176H462.562V77.8008H201.686Z" fill="#FAFAF9"/>
<path d="M320.625 103.625C320.625 103.625 312.133 218.042 462.2 214.729V103.625H320.625Z" fill="#999999"/>
<path d="M462.562 103.624H201.686V87.3984H462.562V103.624" fill="#F3F2F1"/>
<path d="M462.562 87.7944H201.686V76.5234H462.562V87.7944" fill="#333333"/>
<path d="M209.257 82.6675C209.257 83.4763 208.602 84.1318 207.795 84.1318C206.987 84.1318 206.332 83.4763 206.332 82.6675C206.332 81.8586 206.987 81.2031 207.795 81.2031C208.602 81.2031 209.257 81.8586 209.257 82.6675Z" fill="#33535F"/>
<path d="M214.696 82.6675C214.696 83.4763 214.042 84.1318 213.234 84.1318C212.427 84.1318 211.771 83.4763 211.771 82.6675C211.771 81.8586 212.427 81.2031 213.234 81.2031C214.042 81.2031 214.696 81.8586 214.696 82.6675Z" fill="#33535F"/>
<path d="M220.138 82.6675C220.138 83.4763 219.483 84.1318 218.675 84.1318C217.868 84.1318 217.213 83.4763 217.213 82.6675C217.213 81.8586 217.868 81.2031 218.675 81.2031C219.483 81.2031 220.138 81.8586 220.138 82.6675Z" fill="#33535F"/>
<path d="M332.123 111.664C332.123 111.749 326.975 111.817 320.624 111.817C314.272 111.817 309.124 111.749 309.124 111.664C309.124 111.58 314.272 111.512 320.624 111.512C326.975 111.512 332.123 111.58 332.123 111.664Z" fill="#CCCCCC"/>
<path d="M362.715 111.664C362.715 111.749 357.566 111.817 351.217 111.817C344.864 111.817 339.716 111.749 339.716 111.664C339.716 111.58 344.864 111.512 351.217 111.512C357.566 111.512 362.715 111.58 362.715 111.664Z" fill="#CCCCCC"/>
<path d="M393.308 111.664C393.308 111.749 388.158 111.817 381.808 111.817C375.456 111.817 370.309 111.749 370.309 111.664C370.309 111.58 375.456 111.512 381.808 111.512C388.158 111.512 393.308 111.58 393.308 111.664Z" fill="#CCCCCC"/>
<path d="M424.169 111.664C424.169 111.749 419.021 111.817 412.671 111.817C406.318 111.817 401.17 111.749 401.17 111.664C401.17 111.58 406.318 111.512 412.671 111.512C419.021 111.512 424.169 111.58 424.169 111.664Z" fill="#CCCCCC"/>
<path d="M450.98 115.326C450.979 115.308 451.175 115.317 451.528 115.234C451.875 115.146 452.4 114.942 452.851 114.422C453.072 114.164 453.275 113.832 453.377 113.431C453.495 113.034 453.459 112.576 453.459 112.077C453.396 111.112 453.688 109.856 452.814 108.94C452.418 108.494 451.827 108.179 451.177 108.132C450.516 108.115 449.794 108.132 449.066 108.13C447.598 108.135 446.032 108.14 444.384 108.145C441.083 108.148 437.461 108.153 433.656 108.157C432.754 108.151 431.899 108.691 431.508 109.475C431.304 109.868 431.228 110.292 431.242 110.741C431.241 111.199 431.241 111.652 431.24 112.101C431.246 112.557 431.208 112.995 431.325 113.39C431.427 113.794 431.648 114.156 431.928 114.451C432.212 114.742 432.567 114.957 432.947 115.077C433.329 115.199 433.727 115.185 434.146 115.185C437.439 115.198 440.405 115.209 442.908 115.218C445.382 115.238 447.392 115.255 448.814 115.266C449.491 115.279 450.028 115.289 450.42 115.295C450.588 115.301 450.726 115.306 450.838 115.31C450.932 115.316 450.98 115.32 450.98 115.326C450.98 115.331 450.932 115.336 450.838 115.342C450.726 115.345 450.588 115.351 450.42 115.357C450.028 115.364 449.491 115.373 448.814 115.385C447.393 115.397 445.382 115.414 442.908 115.434C440.405 115.443 437.439 115.455 434.146 115.466C433.745 115.467 433.294 115.487 432.864 115.351C432.438 115.218 432.039 114.98 431.719 114.655C431.403 114.327 431.156 113.92 431.04 113.466C430.972 113.243 430.952 113.006 430.943 112.773C430.943 112.55 430.942 112.326 430.942 112.101C430.941 111.652 430.941 111.199 430.941 110.742C430.923 110.279 431.009 109.769 431.238 109.337C431.676 108.454 432.641 107.844 433.656 107.852C437.461 107.856 441.083 107.861 444.384 107.864C446.032 107.869 447.598 107.873 449.066 107.878C449.803 107.885 450.498 107.872 451.196 107.898C451.908 107.955 452.55 108.307 452.975 108.797C453.403 109.286 453.63 109.902 453.636 110.485C453.634 111.048 453.631 111.578 453.629 112.077C453.62 112.566 453.651 113.045 453.516 113.47C453.399 113.892 453.179 114.237 452.94 114.501C452.453 115.033 451.9 115.224 451.542 115.294C451.175 115.359 450.98 115.326 450.98 115.326" fill="#CCCCCC"/>
<path d="M229.978 115.16C229.978 117.906 227.755 120.132 225.012 120.132C222.269 120.132 220.046 117.906 220.046 115.16C220.046 112.414 222.269 110.188 225.012 110.188C227.755 110.188 229.978 112.414 229.978 115.16Z" fill="#333333"/>
<path d="M423.059 99.3998H236.077C233.931 99.3998 232.192 97.6587 232.192 95.5109C232.192 93.3631 233.931 91.6211 236.077 91.6211H423.059C425.205 91.6211 426.943 93.3631 426.943 95.5109C426.943 97.6587 425.205 99.3998 423.059 99.3998Z" fill="white"/>
<path d="M421.127 95.0127C421.042 95.0452 421.098 94.2796 420.309 93.6962C419.931 93.423 419.332 93.2833 418.762 93.5051C418.197 93.7097 417.718 94.3121 417.723 95.0118C417.717 95.7115 418.197 96.3147 418.762 96.5194C419.332 96.7412 419.931 96.6005 420.309 96.3282C421.098 95.7448 421.042 94.9793 421.127 95.0126C421.154 95.0108 421.202 95.1758 421.159 95.4788C421.117 95.7755 420.949 96.2281 420.51 96.5924C420.086 96.9558 419.35 97.183 418.615 96.926C417.888 96.6943 417.246 95.9215 417.255 95.0117C417.246 94.1028 417.888 93.3301 418.615 93.0984C419.35 92.8414 420.086 93.0677 420.51 93.4329C420.949 93.7972 421.117 94.248 421.159 94.5456C421.202 94.8485 421.154 95.0135 421.127 95.0126" fill="#17282F"/>
<path d="M422.161 97.8695C422.07 97.9615 421.643 97.6891 421.205 97.26C420.769 96.8299 420.488 96.407 420.579 96.315C420.67 96.2221 421.097 96.4953 421.534 96.9245C421.971 97.3537 422.251 97.7766 422.161 97.8695Z" fill="#17282F"/>
<path d="M293.927 140.899C293.927 141.028 278.065 141.133 258.501 141.133C238.93 141.133 223.07 141.028 223.07 140.899C223.07 140.769 238.93 140.664 258.501 140.664C278.065 140.664 293.927 140.769 293.927 140.899" fill="#CCCCCC"/>
<path d="M293.927 153.766C293.927 153.896 278.065 154.001 258.501 154.001C238.93 154.001 223.07 153.896 223.07 153.766C223.07 153.637 238.93 153.531 258.501 153.531C278.065 153.531 293.927 153.637 293.927 153.766" fill="#CCCCCC"/>
<path d="M264.968 166.634C264.968 166.764 255.589 166.868 244.021 166.868C232.449 166.868 223.07 166.764 223.07 166.634C223.07 166.504 232.449 166.398 244.021 166.398C255.589 166.398 264.968 166.504 264.968 166.634Z" fill="#CCCCCC"/>
<path d="M347.544 223.901C347.544 229.975 342.626 234.899 336.56 234.899C330.494 234.899 325.575 229.975 325.575 223.901C325.575 217.826 330.494 212.902 336.56 212.902C342.626 212.902 347.544 217.826 347.544 223.901Z" fill="#FAFAF9"/>
<path d="M347.545 223.899C347.478 223.905 347.543 222.918 347.113 221.236C346.687 219.587 345.585 217.162 343.107 215.289C341.878 214.374 340.333 213.598 338.552 213.288C336.783 212.988 334.789 213.048 332.893 213.773C331.937 214.106 331.017 214.61 330.171 215.244C329.316 215.867 328.54 216.64 327.9 217.535C326.577 219.297 325.833 221.563 325.811 223.898C325.832 226.233 326.576 228.499 327.899 230.263C328.54 231.158 329.316 231.931 330.171 232.554C331.017 233.189 331.937 233.692 332.893 234.025C334.789 234.751 336.784 234.811 338.553 234.511C340.334 234.2 341.879 233.424 343.107 232.509C345.586 230.636 346.688 228.211 347.113 226.562C347.543 224.88 347.478 223.894 347.545 223.899C347.562 223.899 347.566 224.141 347.557 224.603C347.558 224.835 347.548 225.121 347.493 225.456C347.45 225.791 347.409 226.182 347.29 226.606C346.912 228.296 345.836 230.807 343.308 232.773C342.056 233.733 340.466 234.555 338.624 234.894C336.795 235.222 334.725 235.175 332.745 234.433C331.749 234.09 330.788 233.572 329.904 232.913C329.011 232.269 328.199 231.467 327.529 230.536C326.146 228.701 325.363 226.334 325.342 223.898C325.363 221.462 326.147 219.096 327.53 217.262C328.2 216.331 329.012 215.529 329.905 214.884C330.789 214.226 331.75 213.708 332.745 213.366C334.724 212.624 336.794 212.577 338.623 212.904C340.466 213.243 342.055 214.065 343.307 215.025C345.836 216.991 346.912 219.501 347.29 221.192C347.409 221.617 347.45 222.007 347.493 222.342C347.548 222.678 347.558 222.963 347.557 223.195C347.566 223.658 347.562 223.899 347.545 223.899" fill="#17282F"/>
<path d="M334.287 222.82H338.835L336.561 226.283L334.287 222.82Z" fill="#17282F"/>
<path d="M259.147 210.904H227.224C224.01 210.904 221.403 208.294 221.403 205.075C221.403 201.856 224.009 199.246 227.224 199.246H259.147C262.362 199.246 264.968 201.856 264.968 205.075C264.968 208.294 262.362 210.904 259.147 210.904Z" fill="#CCCCCC"/>
<path d="M308.079 210.904H279.532C276.317 210.904 273.71 208.294 273.71 205.075C273.71 201.856 276.317 199.246 279.532 199.246H308.079C311.294 199.246 313.901 201.856 313.901 205.075C313.901 208.294 311.294 210.904 308.079 210.904Z" fill="#CCCCCC"/>
<path d="M393.583 165.016C393.583 165.016 387.878 166.427 386.054 173.898C384.231 181.369 383.537 199.47 383.537 199.47L392.954 199.455L393.557 165.742" fill="#042CB0"/>
<path d="M438.232 167.426C438.232 167.426 444.259 171.752 445.955 186.835C447.416 199.814 447.215 214.661 447.215 214.661C447.215 214.661 438.978 214.344 434.708 213.933C434.708 213.933 434.03 195.091 433.138 188.212C432.246 181.333 427.589 175.008 427.589 175.008L435.129 167.585L438.232 167.426Z" fill="white"/>
<path d="M424.452 153.051L424.812 162.179C424.812 162.179 425.774 171.67 418.922 171.67C412.07 171.67 407.462 172.801 406.26 168.56C405.058 164.319 405.269 162.898 405.269 162.898L406.556 158.503L424.452 153.051V153.051Z" fill="#FBB273"/>
<path d="M431.457 156.61C437.472 156.61 442.348 151.728 442.348 145.706C442.348 139.683 437.472 134.801 431.457 134.801C425.442 134.801 420.565 139.683 420.565 145.706C420.565 151.728 425.442 156.61 431.457 156.61Z" fill="#1A2E35"/>
<path d="M396.697 140.035C394.705 140.035 393.09 141.652 393.09 143.647C393.09 146.28 395.766 147.645 397.759 147.645" fill="#FBB273"/>
<path d="M426.861 133.078C427.862 143.899 428.523 148.456 423.971 154.794C417.123 164.333 403.636 163.204 399.417 152.903C395.623 143.632 394.618 127.506 404.427 121.611C411.415 117.363 420.518 119.592 424.76 126.588C425.955 128.558 426.674 130.78 426.861 133.078Z" fill="#FBB273"/>
<path d="M427.849 147.259C429.841 147.259 431.457 145.642 431.457 143.647C431.457 141.652 429.841 140.035 427.849 140.035C425.856 140.035 424.241 141.652 424.241 143.647C424.241 145.642 425.856 147.259 427.849 147.259Z" fill="#FBB273"/>
<path d="M396.84 135.761C396.84 135.761 398.017 132.295 403.549 131.287C403.549 131.287 407.931 125.631 409.887 123.658C409.887 123.658 406.249 129.049 405.888 130.993C405.888 130.993 422.215 138.458 422.252 144.611C422.252 144.611 422.225 145.715 422.915 145.703C423.421 145.694 423.607 145.38 423.653 144.974C423.653 144.974 424.218 140.17 427.517 140.042C427.517 140.042 430.393 122.367 414.22 119.593C414.22 119.593 398.835 116.711 396.84 135.761V135.761Z" fill="#1A2E35"/>
<path opacity="0.1" d="M406.097 160.074C406.097 160.074 409.847 161.864 413.568 161.219C417.29 160.575 418.941 159.398 418.941 159.398C418.941 159.398 416.459 163.271 411.538 163.271C411.538 163.271 407.723 163.01 405.407 162.431L406.097 160.074V160.074Z" fill="black"/>
<path d="M430.438 213.521C430.424 211.986 427.43 206.153 427.43 206.153C427.43 206.153 428.237 204.531 430.438 199.203C432.303 194.689 431.285 189.442 431.285 189.442L435.128 167.898L424.855 162.959C424.855 162.959 417.868 169.284 411.658 168.761C405.448 168.237 405.27 162.898 405.27 162.898L393.583 165.016L392.247 197.572L393.554 205.753C393.554 205.753 411.404 211.804 430.438 213.521" fill="#042CB0"/>
<path d="M399.752 164.155C399.752 164.155 414.409 189.271 416.598 192.573C416.598 192.573 411.672 196.919 407.161 198.617C406.385 198.909 405.513 198.584 405.104 197.864L388.143 168.038C388.143 168.038 393.874 162.898 399.752 164.155Z" fill="white"/>
<path d="M443.534 182.244C443.133 169.158 435.129 167.898 435.129 167.898L431.33 185.597L431.474 202.992L443.661 202.534C443.832 195.5 443.662 186.37 443.534 182.244" fill="#042CB0"/>
<path d="M384.736 199.264L386.025 185.134L388.467 168.954C388.965 168.483 390.127 167.264 390.315 165.978C390.558 164.334 389.738 154.779 389.738 154.779C389.738 154.779 388.46 154.633 387.979 156.525C387.621 157.931 387.362 161.035 387.362 161.035C387.362 161.035 385.332 155.836 384.636 154.056C384.025 152.49 383.006 150.156 382.133 150.25C381.259 150.344 382.38 153.398 382.593 154.775C382.807 156.153 383.151 158.099 383.151 158.099C383.209 158.187 380.602 151.976 379.455 150.509C378.617 149.438 377.411 150.662 378.111 152.055C378.111 152.055 376.813 150.972 376.704 152.315C376.595 153.659 379.198 159.655 378.757 159.765C378.314 159.874 375.922 155.12 375.077 155.015C374.599 154.955 374.376 155.646 374.926 156.883C375.464 158.098 379.548 167.076 380.529 168.463C379.214 172.795 374.912 187.397 373.608 197.107C379.546 200.216 385.116 202.805 390.083 204.531C390.794 203.179 391.572 201.367 392.17 199.458L384.736 199.264" fill="#FBB273"/>
<path d="M381.827 164.197C381.829 164.157 382.269 164.12 382.97 164.244C383.668 164.365 384.627 164.68 385.544 165.296L385.279 165.408L385.301 165.294C385.511 164.186 385.94 163.247 386.327 162.627C386.714 162.003 387.037 161.682 387.07 161.709C387.163 161.762 386.037 163.211 385.639 165.358L385.617 165.468L385.567 165.727L385.352 165.581C383.591 164.382 381.801 164.302 381.827 164.197" fill="#F68260"/>
<path d="M378.014 151.829C378.094 151.794 378.949 153.456 379.935 155.551C380.925 157.649 381.474 159.459 381.382 159.487C381.294 159.516 380.607 157.782 379.623 155.695C378.642 153.607 377.92 151.869 378.014 151.829Z" fill="#F68260"/>
<path d="M382.724 169.224C382.752 169.128 383.634 169.341 384.734 169.353C385.836 169.375 386.722 169.188 386.749 169.285C386.78 169.368 385.889 169.718 384.729 169.697C383.568 169.683 382.69 169.307 382.724 169.224" fill="#F68260"/>
<path d="M411.021 208.899C409.392 208.899 407.766 208.342 406.236 207.725C404.945 207.204 403.653 206.624 402.587 205.728C404.818 206.222 407.082 206.662 409.362 206.662C409.562 206.662 409.762 206.658 409.961 206.652C411.492 206.598 413.511 206.551 415.02 206.286C416.836 205.966 418.147 205.426 419.962 205.106L420.233 205.082C418.502 206.051 416.737 206.958 414.942 207.801C414.05 208.221 413.139 208.626 412.169 208.8C411.787 208.868 411.403 208.899 411.021 208.899" fill="#17282F"/>
<path d="M431.365 189.954C431.319 189.625 431.284 189.441 431.284 189.441L431.358 189.027L431.365 189.954Z" fill="#979999"/>
<path d="M431.365 195.013C431.354 194.786 431.346 194.559 431.339 194.335C431.362 194.558 431.371 194.785 431.365 195.013ZM431.339 194.335C431.156 192.457 430.101 190.719 429.572 188.878C428.7 185.839 429.352 182.402 431.276 179.895C430.992 182.626 431.1 185.493 431.329 188.239C431.339 188.351 431.347 188.464 431.355 188.578L431.358 189.028L431.284 189.441C431.284 189.441 431.32 189.625 431.365 189.955L431.375 191.078C431.351 192.126 431.311 193.214 431.339 194.335" fill="#17282F"/>
<path d="M431.375 191.078L431.365 189.955L431.358 189.028L431.354 188.578C431.403 189.381 431.394 190.216 431.375 191.078" fill="#CC4341"/>
<path d="M406.852 164.117C406.852 164.117 406.854 164.208 406.852 164.117V164.117Z" fill="#F8A58D"/>
<path d="M393.553 205.753C393.532 205.757 393.481 205.559 393.404 205.184C393.321 204.736 393.222 204.198 393.104 203.558C392.857 202.057 392.531 200.08 392.149 197.748L392.165 197.805C391.189 195.75 390.336 193.17 390.016 190.329C389.498 185.911 390.352 181.889 391.338 179.19C391.841 177.835 392.604 176.141 392.634 176.156C392.72 176.201 392.561 176.59 391.651 179.299C390.757 181.993 389.974 185.944 390.481 190.274C390.796 193.06 391.61 195.593 392.535 197.631L392.549 197.661L392.552 197.688C392.869 200.029 393.137 202.015 393.341 203.523C393.415 204.169 393.477 204.713 393.53 205.165C393.566 205.546 393.576 205.751 393.553 205.753" fill="#17282F"/>
<path d="M431.203 180.723C431.333 180.721 431.498 185.297 431.573 190.941C431.648 196.588 431.603 201.165 431.474 201.167C431.344 201.169 431.178 196.594 431.103 190.948C431.029 185.302 431.073 180.724 431.203 180.723Z" fill="#17282F"/>
<path d="M436.058 168.946C436.136 169.068 434.633 169.915 433.519 171.641C432.376 173.35 432.193 175.066 432.05 175.043C431.933 175.065 431.911 173.212 433.128 171.383C434.323 169.541 436.032 168.829 436.058 168.946" fill="#17282F"/>
<path d="M432.05 202.972L431.171 213.6C434.546 213.958 438.292 214.227 442.262 214.443L443.073 202.559L432.05 202.972" fill="#FBB273"/>
<path d="M390.821 221.98C380.232 221.98 371.649 230.574 371.649 241.176H409.994C409.994 230.574 401.41 221.98 390.821 221.98" fill="#CCCCCC"/>
<path d="M371.991 210.896C371.991 213.051 370.245 214.799 368.093 214.799C365.939 214.799 364.194 213.051 364.194 210.896C364.194 208.74 365.939 206.992 368.093 206.992C370.245 206.992 371.991 208.74 371.991 210.896Z" fill="#33535F"/>
<path d="M201.686 76.522C203.633 76.5202 309.356 76.4327 462.562 76.3056L462.778 76.3047V76.522C462.784 127.136 462.789 182.775 462.797 241.156V241.411H462.562C363.704 241.392 272.734 241.375 201.686 241.362H201.5V241.177C201.613 140.529 201.684 78.0233 201.686 76.522C201.687 78.0224 201.758 140.529 201.87 241.177L201.686 240.992C272.734 240.978 363.704 240.96 462.562 240.941L462.327 241.177V241.156C462.334 182.775 462.34 127.136 462.345 76.522L462.561 76.7384C309.356 76.6112 203.631 76.5229 201.686 76.522" fill="#17282F"/>
<path d="M409.486 181.156C409.486 181.156 414.344 176.959 427.225 162.598C427.225 162.598 433.884 164.101 438.232 167.425C438.232 167.425 424.546 185.884 416.598 192.575L409.486 181.156Z" fill="white"/>
<path d="M178.716 209.75C177.357 197.65 176.845 185.274 175.585 173.164C174.903 166.606 169.649 157.725 165.102 155.219L157.232 158.135C153.773 154.262 151.488 168.886 149.113 173.505C144.801 181.895 154.878 187.827 154.34 193.957C153.692 201.341 153.692 212.547 153.826 221.254C153.936 228.47 158.263 237.113 165.466 236.83C167.269 236.759 168.991 236.89 170.247 236.836C173.581 236.693 178.077 231.196 178.776 227.929C180.036 222.04 179.393 215.785 178.716 209.75" fill="#1A2E35"/>
<path d="M180.863 274.901C180.863 274.901 153.468 257.093 129.012 219.336C129.012 219.336 131.019 216.384 133.79 215.653C136.56 214.923 139.457 215.581 148.673 222.173C157.889 228.764 174.008 240.64 174.008 240.64C174.008 240.64 186.251 251.995 180.863 274.901Z" fill="#042CB0"/>
<path d="M126.323 301.447C126.323 301.447 122.173 315.794 124.898 330.823C124.898 330.823 125.869 349.894 146.6 354.909L218.401 352.798C219.612 352.762 220.341 354.129 219.639 355.117L189.708 397.221C189.708 397.221 220.681 427.524 251.839 431.077C251.839 431.077 277.583 340.822 271.852 314.155C268.216 297.239 234.174 301.428 212.481 301.428C190.787 301.428 126.323 301.447 126.323 301.447L126.323 301.447Z" fill="#EF7E22"/>
<path d="M181.412 272.285C181.412 272.285 155.161 255.256 130.705 217.5C130.705 217.5 132.929 215.473 135.7 214.742C138.47 214.011 137.473 213.427 147.72 218.257C159.73 223.918 175.947 239.181 175.947 239.181C175.947 239.181 185.85 251.019 181.412 272.285H181.412Z" fill="#EF7E22"/>
<path d="M140.403 204.676L137.037 216.656L157.065 223.824L159.976 207.59L140.403 204.676Z" fill="#FBB273"/>
<path opacity="0.1" d="M159.727 209.399C159.727 209.399 155.304 211.535 149.986 210.614C144.668 209.693 142.309 208.012 142.309 208.012C142.309 208.012 145.855 213.546 152.888 213.546C152.888 213.546 156.012 213.685 159.321 212.857L159.727 209.399Z" fill="black"/>
<path d="M154.856 155.905C153.897 154.429 153.184 151.498 151.321 151.302C143.717 150.502 135.083 154.809 126.696 170.327C122.754 176.887 126.841 180.38 130.258 187.228L134.095 184.761C139.98 184.138 148.172 170.061 156.031 160.592C157.007 159.417 155.69 157.187 154.856 155.905" fill="#1A2E35"/>
<path d="M131.011 170.406C129.555 185.87 128.592 192.382 135.216 201.439C145.181 215.07 164.808 213.457 170.946 198.737C176.467 185.487 177.93 162.443 163.656 154.02C153.488 147.95 140.241 151.134 134.067 161.132C132.329 163.947 131.282 167.123 131.011 170.406H131.011Z" fill="#FBB273"/>
<path d="M129.579 190.671C132.426 190.671 134.735 188.36 134.735 185.509C134.735 182.659 132.426 180.348 129.579 180.348C126.732 180.348 124.424 182.659 124.424 185.509C124.424 188.36 126.732 190.671 129.579 190.671Z" fill="#FBB273"/>
<path d="M174.89 174.24C174.89 174.24 164.383 163.372 155.084 168.416C155.084 168.416 137.631 178.095 137.578 186.887C137.578 186.887 137.617 188.465 136.63 188.448C135.907 188.435 135.642 187.986 135.576 187.406C135.576 187.406 134.769 180.541 130.054 180.359C130.054 180.359 125.944 155.1 149.056 151.136C149.056 151.136 172.039 147.019 174.89 174.24V174.24Z" fill="#1A2E35"/>
<path d="M144.355 209.749C142.996 197.649 137.109 188.185 145.205 175.307C146.022 174.008 139.466 170.49 138.444 169.346L138.444 169.346C134.985 165.474 128.733 166.294 126.358 170.914C122.046 179.304 120.517 187.826 119.979 193.956C119.331 201.34 119.331 212.546 119.465 221.253C119.575 228.469 120.676 238.263 132.335 238.263C140.732 238.263 143.717 231.196 144.415 227.928C145.675 222.039 145.032 215.784 144.355 209.749" fill="#1A2E35"/>
<path d="M404.081 137.373C404.981 137.373 405.71 136.642 405.71 135.741C405.71 134.84 404.981 134.109 404.081 134.109C403.181 134.109 402.451 134.84 402.451 135.741C402.451 136.642 403.181 137.373 404.081 137.373Z" fill="#B5221F"/>
<path d="M239.895 434.652C239.895 434.652 233.649 435.091 229.354 441.319L246.262 449.485C246.262 449.485 248.362 447.429 250.287 446.668L239.895 434.652Z" fill="#263238"/>
<path d="M221.249 426.457C221.249 426.457 223.216 433.905 221.647 438.072L215.855 435.59L221.249 426.457H221.249Z" fill="#263238"/>
<path d="M234.407 438.639C225.401 435.266 220.707 431.093 220.512 430.917L221.426 429.262C221.471 429.302 226.452 433.588 235.086 436.821L234.407 438.639H234.407Z" fill="#263238"/>
<path d="M126.322 301.447L127.112 297.473H179.61L180.438 301.447H126.322Z" fill="#042CB0"/>
</svg>
