<svg width="260" height="235" viewBox="0 0 260 235" fill="none" xmlns="http://www.w3.org/2000/svg">
<path d="M258.923 122.38C255.722 97.3868 245.662 72.524 232.571 52.1931C215.543 25.7449 188.337 4.52605 156.059 0.593582C133.213 -2.19008 107.163 4.90036 89.496 20.1085C80.7108 27.6711 73.9406 37.0793 69.9443 47.8656C65.6199 59.5351 63.7775 72.9081 54.4602 82.0686C43.2632 93.0777 27.7998 98.345 16.2315 108.853C-9.41724 132.153 -1.92948 174.24 19.6775 197.487C39.1261 218.412 67.9818 214.541 93.9276 218.485C113.624 221.479 130.67 232.397 150.799 234.463C179.922 237.452 209.988 227.868 231.349 208.076C256.22 185.032 262.924 153.605 258.923 122.38Z" fill="#FDF2E9"/>
<path d="M234.74 170.893L230.914 152.496C230.914 152.496 248.923 156.92 253.561 138.325L252.679 86.625C252.679 86.625 250.261 73.9306 235.284 73.9155C220.306 73.9004 157.631 74.254 157.631 74.254C157.631 74.254 145.505 74.7089 143.277 86.2174C141.049 97.7258 143.909 136.632 143.909 136.632C143.909 136.632 144.3 151.301 158.633 152.891C172.967 154.482 197.214 152.321 197.214 152.321L234.74 170.893Z" fill="white"/>
<path d="M79.1935 224.783L83.02 206.385C83.02 206.385 65.0111 210.81 60.373 192.215L61.2552 140.514C61.2552 140.514 63.6724 127.82 78.6499 127.805C93.6273 127.79 156.303 128.143 156.303 128.143C156.303 128.143 168.429 128.598 170.657 140.107C172.885 151.615 170.025 190.521 170.025 190.521C170.025 190.521 169.633 205.19 155.3 206.781C140.967 208.371 116.72 206.21 116.72 206.21L79.1935 224.783Z" fill="white"/>
<path d="M43.7255 23.2637L47.4698 41.6776C47.4698 41.6776 29.4809 37.1746 24.7598 55.7493L25.411 107.453C25.411 107.453 27.7715 120.158 42.7487 120.238C57.7259 120.319 120.402 120.238 120.402 120.238C120.402 120.238 132.531 119.836 134.81 108.338C137.089 96.8389 134.403 57.9204 134.403 57.9204C134.403 57.9204 134.077 43.2505 119.751 41.5972C105.425 39.9439 81.1685 41.9992 81.1685 41.9992L43.7255 23.2637Z" fill="white"/>
<path d="M59.3203 141.144C59.6047 140.024 59.8148 138.879 60.1856 137.788C62.6267 130.602 68.915 126.235 76.8724 126.221C88.7039 126.201 100.536 126.216 112.367 126.216C126.558 126.216 140.748 126.22 154.939 126.214C161.597 126.211 166.735 128.936 170.221 134.556C171.877 137.225 172.562 140.181 172.557 143.305C172.548 148.183 172.554 153.061 172.554 157.939C172.554 169.006 172.569 180.073 172.549 191.139C172.535 198.619 168.163 204.877 161.092 207.237C159.145 207.887 156.983 208.154 154.916 208.168C142.459 208.251 130 208.201 117.542 208.231C116.843 208.232 116.074 208.408 115.456 208.727C104.268 214.507 93.099 220.322 81.9257 226.129C81.6326 226.281 81.3415 226.541 81.0408 226.554C80.3479 226.584 79.4678 226.73 79.0048 226.383C78.5434 226.038 78.2133 225.102 78.3168 224.509C78.9482 220.892 79.7202 217.299 80.4441 213.697C80.8016 211.919 81.1566 210.14 81.5436 208.207C79.7083 208.207 77.9899 208.227 76.2721 208.204C68.8355 208.104 62.599 203.647 60.2041 196.694C59.8293 195.606 59.611 194.465 59.3203 193.349C59.3203 175.947 59.3203 158.546 59.3203 141.144ZM82.7176 221.481C83.3168 221.186 83.7131 221 84.1007 220.799C94.0986 215.6 104.087 210.383 114.108 205.226C114.979 204.778 116.058 204.523 117.042 204.519C129.719 204.473 142.397 204.495 155.075 204.486C163.07 204.481 168.78 198.833 168.784 190.919C168.793 175.122 168.794 159.325 168.773 143.528C168.772 142.408 168.694 141.26 168.439 140.174C166.954 133.859 161.802 129.953 154.986 129.951C128.968 129.943 102.949 129.946 76.9304 129.954C76.0487 129.954 75.1518 129.961 74.2879 130.111C67.5295 131.282 63.0976 136.526 63.0918 143.377C63.0785 159.21 63.0822 175.044 63.0898 190.877C63.0937 198.855 68.7948 204.477 76.8683 204.488C79.0427 204.491 81.2172 204.476 83.3914 204.493C85.1404 204.507 85.8743 205.357 85.6288 207.063C85.5513 207.602 85.4172 208.133 85.309 208.668C84.4597 212.867 83.6104 217.066 82.7176 221.481Z" fill="#C9C9C9"/>
<path d="M165.372 150.641C158.033 150.637 166.183 150.639 158.844 150.634C150.848 150.628 145.138 144.98 145.134 137.066C145.133 135.221 145.132 136.112 145.131 134.268H141.362C141.364 136.186 141.366 135.368 141.37 137.286C141.383 144.766 145.756 151.024 152.826 153.384C154.773 154.034 156.936 154.302 159.002 154.316C166.288 154.364 158.086 154.369 165.372 154.369V150.641Z" fill="#C9C9C9"/>
<path d="M253.732 83.9352C251.291 76.7498 245.003 72.3827 237.046 72.3689C225.214 72.3483 213.383 72.363 201.551 72.363C187.36 72.363 173.17 72.368 158.979 72.3612C152.321 72.3586 147.183 75.0837 143.697 80.7041C142.041 83.3723 141.356 86.3289 141.361 89.4525C141.37 94.3305 141.361 122.391 141.361 122.391H145.129C145.129 122.391 145.135 97.4309 145.145 89.6751C145.147 88.5557 145.224 87.4076 145.479 86.3218C146.964 80.0064 152.116 76.101 158.932 76.0988C184.95 76.0903 210.969 76.0938 236.988 76.1015C237.869 76.1019 238.766 76.1086 239.63 76.2586C246.389 77.43 250.82 82.6738 250.826 89.5242C250.84 105.358 250.836 121.191 250.828 137.025C250.824 145.003 245.123 150.624 237.05 150.636C234.875 150.639 232.701 150.623 230.527 150.64C228.778 150.654 228.044 151.505 228.289 153.211C228.367 153.75 228.501 154.281 228.609 154.815C229.458 159.015 230.308 163.214 231.2 167.628C230.601 167.333 230.205 167.148 229.817 166.946C219.819 161.747 209.831 156.53 199.81 151.373C198.939 150.925 197.86 150.671 196.876 150.667C196.243 150.665 176.406 150.666 175.773 150.664V154.377C176.24 154.378 195.909 154.377 196.376 154.378C197.075 154.38 197.845 154.556 198.462 154.875C209.65 160.655 220.819 166.47 231.992 172.276C232.286 172.428 232.576 172.689 232.877 172.702C233.57 172.732 234.45 172.877 234.913 172.531C235.375 172.186 235.705 171.249 235.601 170.656C234.97 167.039 234.198 163.446 233.474 159.845C233.117 158.066 232.761 156.287 232.375 154.355C234.21 154.355 235.928 154.374 237.646 154.351C245.082 154.251 251.319 149.795 253.714 142.842C254.089 141.754 254.307 140.613 254.598 139.496V87.2916C254.313 86.1713 254.103 85.0268 253.732 83.9352Z" fill="#C9C9C9"/>
<path d="M144.322 160.948C143.365 159.624 142.48 158.24 141.427 156.995C140.545 155.95 139.288 155.708 137.984 156.17C137.149 156.466 136.362 156.893 135.506 157.284C134.841 156.056 134.151 154.782 133.463 153.512C134.957 151.945 138.17 151.588 140.283 152.753C141.753 153.563 142.825 154.778 143.744 156.136C144.749 157.622 145.742 159.116 146.711 160.625C146.945 160.99 147.196 161.13 147.631 161.108C148.391 161.071 150.075 161.08 150.145 161.1L150.904 164.022C149.438 164.032 148.077 163.995 148.077 163.995C148.077 164.347 148.097 175.286 148.094 180.067C148.093 180.545 147.188 181.064 146.735 180.826C145.929 180.403 145.13 179.962 144.354 179.487C144.212 179.401 144.133 179.116 144.131 178.922C144.117 176.494 144.121 174.065 144.121 171.636C144.121 171.415 144.121 171.195 144.121 170.835C142.477 170.915 140.889 170.874 139.342 171.101C137.626 171.353 136.814 172.775 137.426 174.386C137.787 175.336 138.375 176.223 138.978 177.056C139.561 177.861 140.294 178.559 141 179.346C140.373 179.895 139.739 180.45 139.055 181.049C136.839 178.758 134.482 176.621 133.515 173.472C133.476 173.344 133.263 173.182 133.13 173.181C130.919 173.164 128.708 173.146 126.499 173.194C126.156 173.201 125.821 173.533 125.386 173.767C126.501 174.519 127.501 175.196 128.504 175.868C129.544 176.565 130.588 177.257 131.628 177.955C132.041 178.232 132.137 179.04 131.772 179.366C130.983 180.071 130.174 180.754 129.287 181.522C128.696 180.908 128.133 180.298 127.543 179.716C125.049 177.254 122.551 174.797 120.042 172.35C119.763 172.078 119.654 171.854 119.834 171.477C120.117 170.886 120.642 169.727 120.642 169.727C121.067 169.727 123.527 169.639 124.022 169.639C124.394 169.639 124.572 169.496 124.571 169.129C124.569 167.456 124.57 165.783 124.57 164.067H116.597C116.597 164.556 116.644 175.238 116.642 179.963C116.642 180.532 115.785 181.089 115.275 180.824C114.466 180.404 113.668 179.962 112.892 179.488C112.748 179.401 112.66 179.121 112.658 178.928C112.64 177.273 112.648 175.617 112.648 173.916H107.424C107.424 174.592 107.402 175.281 107.432 175.968C107.448 176.343 107.269 176.499 106.984 176.715C105.998 177.464 105.168 177.195 104.286 176.519C102.766 175.352 101.403 174.066 100.509 172.349C100.32 171.988 100.381 171.731 100.574 171.375C100.98 170.628 101.504 170.412 102.388 170.412C102.746 170.412 103.099 170.422 103.526 170.422C103.437 168.272 103.351 166.193 103.263 164.07H96.9509C96.9509 164.556 96.9591 175.257 96.9574 180.001C96.9572 180.557 96.0732 181.075 95.5572 180.803C94.7845 180.396 94.0157 179.979 93.2723 179.523C93.1121 179.425 92.9833 179.144 92.9815 178.946C92.9614 176.725 92.969 174.504 92.9691 172.282C92.9691 172.078 92.9691 171.875 92.9691 171.629H88.6393C88.6393 172.392 88.5983 173.158 88.653 173.918C88.6926 174.467 88.5233 174.752 87.9998 174.976C86.7568 175.506 86.7624 175.543 85.7653 174.603C84.4371 173.351 83.4267 171.887 82.7705 170.185C82.6219 169.8 82.6867 169.524 82.8969 169.154C83.4188 168.233 84.1361 167.989 85.1779 168.025C87.5381 168.107 89.9033 168.051 92.2664 168.051C92.4737 168.051 92.681 168.051 92.9287 168.051V164.028C92.71 164.028 92.5067 164.028 92.3033 164.028C88.9873 164.028 85.6713 164.022 82.3553 164.037C81.9881 164.039 81.7505 163.942 81.5598 163.632C81.333 163.263 81.0636 162.919 80.8118 162.565C80.4748 162.091 80.496 161.653 80.8966 161.229C80.9638 161.158 81.0857 161.123 81.1886 161.103C81.2987 161.082 81.4163 161.097 81.5307 161.097C93.4797 161.098 105.429 161.098 117.378 161.098C126.182 161.098 134.987 161.099 143.791 161.099C143.923 161.099 144.056 161.099 144.188 161.099C144.233 161.049 144.277 160.998 144.322 160.948ZM128.648 169.98C130.273 169.98 131.906 169.986 133.539 169.968C133.669 169.966 133.842 169.823 133.92 169.699C134.795 168.312 136.079 167.488 137.689 167.336C139.426 167.173 141.182 167.203 142.929 167.153C143.304 167.143 143.679 167.152 144.081 167.152V164.077C138.373 164.077 128.632 163.892 128.635 164.077C128.659 165.485 128.648 168.483 128.648 169.98ZM107.195 164.056C107.258 164.143 107.276 169.69 107.276 170.39H112.613V164.056H107.195Z" fill="#EC7E22"/>
<path d="M23.4961 54.8115C23.7868 53.695 24.0051 52.5542 24.3799 51.4659C26.7748 44.513 33.0113 40.0567 40.4479 39.9566C42.1657 39.9335 43.8841 39.9532 45.7194 39.9532C45.3324 38.0204 44.9774 36.2414 44.6199 34.4628C43.896 30.8616 43.124 27.2686 42.4926 23.6516C42.389 23.0582 42.7191 22.1218 43.1806 21.7768C43.6436 21.4306 44.5237 21.5763 45.2166 21.6062C45.5173 21.6192 45.8084 21.8794 46.1014 22.0317C57.2748 27.8384 68.444 33.653 79.6315 39.433C80.2494 39.7521 81.0186 39.928 81.7179 39.9297C94.176 39.959 106.635 39.9092 119.092 39.9922C121.159 40.006 123.321 40.2734 125.268 40.9233C132.338 43.2836 136.711 49.5414 136.725 57.021C136.745 68.0877 136.73 79.1544 136.73 90.221C136.73 95.0991 136.723 99.9772 136.732 104.855C136.738 107.979 136.053 110.935 134.397 113.604C130.911 119.224 125.772 121.949 119.115 121.946C104.924 121.94 90.7335 121.945 76.5429 121.945C64.7113 121.945 52.8797 121.96 41.0482 121.939C33.0908 121.925 26.8025 117.558 24.3614 110.373C23.9906 109.281 23.7805 108.136 23.4961 107.016C23.4961 89.6146 23.4961 72.213 23.4961 54.8115ZM49.4848 39.4924C49.593 40.0271 49.7271 40.5581 49.8046 41.0971C50.0501 42.8031 49.3162 43.6538 47.5672 43.6673C45.393 43.6842 43.2185 43.6689 41.0441 43.672C32.9706 43.6838 27.2694 49.305 27.2656 57.2832C27.258 73.1166 27.2543 88.9501 27.2676 104.784C27.2734 111.634 31.7053 116.878 38.4637 118.049C39.3276 118.199 40.2245 118.206 41.1062 118.206C67.1249 118.214 93.1436 118.217 119.162 118.209C125.978 118.207 131.13 114.301 132.614 107.986C132.87 106.9 132.947 105.752 132.949 104.633C132.97 88.8356 132.969 73.0386 132.96 57.2415C132.956 49.3277 127.246 43.6795 119.25 43.6739C106.573 43.6651 93.8951 43.6872 81.2176 43.6409C80.2338 43.6373 79.1546 43.3825 78.2834 42.9342C68.263 37.7776 58.2744 32.5607 48.2765 27.3615C47.8889 27.1599 47.4926 26.9744 46.8934 26.6796C47.7862 31.094 48.6355 35.2932 49.4848 39.4924Z" fill="#C9C9C9"/>
<path d="M228.682 118.691C227.735 118.703 226.835 119.605 226.838 120.54C226.84 121.555 227.717 122.411 228.74 122.398C229.733 122.385 230.632 121.501 230.624 120.545C230.615 119.578 229.672 118.677 228.682 118.691Z" fill="#333333"/>
<path d="M240.195 105.99C240.191 105.483 240.15 105.436 239.649 105.436C233.302 105.436 226.955 105.438 220.607 105.443C220.032 105.443 219.89 105.547 219.757 106.087C219.67 106.437 219.515 106.379 219.282 106.231C218.579 105.781 217.807 105.543 216.975 105.419C216.088 105.286 215.216 105.434 214.338 105.434C207.793 105.433 201.248 105.435 194.703 105.429C193.893 105.429 193.085 105.289 192.274 105.372C191.408 105.459 190.542 105.432 189.675 105.433C184.725 105.435 179.774 105.434 174.823 105.434C169.355 105.434 163.887 105.434 158.418 105.434C158.251 105.434 158.083 105.44 157.915 105.437C157.635 105.431 157.506 105.561 157.509 105.838C157.514 106.321 157.506 106.804 157.51 107.286C157.514 107.779 157.558 107.822 158.071 107.823C160.141 107.826 162.21 107.824 164.28 107.825C165.944 107.825 167.609 107.829 169.273 107.822C169.601 107.821 169.814 107.898 169.814 108.275C169.81 110.302 169.814 112.329 169.813 114.357C169.812 114.478 169.828 114.635 169.687 114.681C169.532 114.732 169.482 114.576 169.415 114.476C168.905 113.714 168.342 112.995 167.655 112.377C165.924 110.82 163.92 110.388 161.705 111.087C159.922 111.649 159.12 113.186 159.575 114.971C159.954 116.458 161.182 117.213 162.739 116.883C163.938 116.628 165.12 115.523 164.502 113.795C164.465 113.691 164.42 113.574 164.518 113.485C164.642 113.371 164.753 113.475 164.857 113.535C165.591 113.957 166.211 114.515 166.738 115.164C168.347 117.148 169.513 119.394 170.63 121.667C171.122 122.668 171.117 122.66 172.246 122.664C172.56 122.664 172.668 122.559 172.66 122.257C172.645 121.692 172.656 121.126 172.656 120.561C172.656 116.52 172.655 112.48 172.657 108.439C172.657 107.867 172.701 107.827 173.277 107.825C174.061 107.823 174.844 107.833 175.627 107.821C175.978 107.816 176.202 107.915 176.191 108.303C176.182 108.593 176.337 108.701 176.619 108.752C176.974 108.817 177.321 108.931 177.665 109.045C180.042 109.835 181.213 111.549 181.415 113.876C181.449 114.27 181.318 114.457 180.889 114.473C180.218 114.497 179.601 114.727 179.066 115.127C178.325 115.683 178.022 116.433 178.136 117.344C178.239 118.172 178.744 118.697 179.499 118.98C180.807 119.471 182.025 119.26 183.13 118.424C183.304 118.292 183.449 118.165 183.688 118.286C185.358 119.136 186.952 120.117 187.97 121.711C188.49 122.526 189.056 122.825 189.99 122.719C190.69 122.64 190.7 122.703 190.7 121.977C190.702 118.02 190.703 114.062 190.704 110.104C190.704 109.553 190.703 109.001 190.707 108.449C190.71 107.878 190.758 107.829 191.322 107.826C191.769 107.823 192.217 107.825 192.664 107.825C194.65 107.824 196.636 107.824 198.622 107.821C198.897 107.821 199.172 107.813 199.239 108.165C199.436 109.19 199.436 110.201 198.919 111.146C198.597 111.736 198.044 111.987 197.384 111.973C196.769 111.96 196.378 111.607 196.171 111.053C196.1 110.863 195.992 110.741 195.781 110.739C195.292 110.736 194.803 110.733 194.313 110.74C194.089 110.743 193.987 110.865 194.017 111.092C194.155 112.121 194.558 112.999 195.472 113.588C197.115 114.646 200.305 114.544 201.281 111.52C201.433 111.049 201.537 111.03 201.882 111.386C202.583 112.107 203.324 112.773 204.277 113.164C204.367 113.201 204.451 113.253 204.531 113.308C204.619 113.369 204.746 113.415 204.716 113.554C204.688 113.688 204.561 113.694 204.452 113.717C201.524 114.358 198.929 115.702 196.489 117.378C196.259 117.536 196.163 117.736 196.167 118.007C196.174 118.545 196.169 119.083 196.17 119.621C196.171 120.823 196.126 120.568 197.162 120.788C198.811 121.14 200.415 121.599 201.92 122.352C203.45 123.117 204.804 124.109 205.723 125.57C205.978 125.976 206.256 126.178 206.731 126.11C206.827 126.096 206.927 126.108 207.025 126.108C207.632 126.105 207.639 126.1 207.639 125.509C207.64 122.765 207.64 120.021 207.64 117.277C207.64 117.139 207.64 117.001 207.649 116.863C207.662 116.661 207.78 116.562 207.982 116.579C209.03 116.666 210.071 116.782 211.021 117.28C211.576 117.57 212.049 117.951 212.333 118.517C212.442 118.735 212.606 119.017 212.442 119.215C212.264 119.429 212.01 119.181 211.789 119.137C211.734 119.126 211.684 119.097 211.63 119.085C210.932 118.938 210.268 118.949 209.701 119.462C208.999 120.097 208.752 121.264 209.123 122.132C209.716 123.514 211.289 123.866 212.607 123.372C214.248 122.757 215.173 120.356 214.891 118.7C214.588 116.916 213.473 115.748 211.948 114.895C210.773 114.238 209.486 113.94 208.15 113.813C207.995 113.798 207.763 113.849 207.726 113.64C207.691 113.445 207.911 113.388 208.054 113.315C208.564 113.051 209.059 112.778 209.422 112.313C210.319 111.16 210.507 109.865 210.217 108.479C210.097 107.906 210.14 107.826 210.738 107.825C212.57 107.824 214.402 107.825 216.234 107.825C216.473 107.825 216.704 107.843 216.932 107.936C217.832 108.304 218.224 109.001 218.228 109.922C218.238 112.804 218.231 115.686 218.232 118.568C218.232 119.616 218.241 120.664 218.227 121.712C218.222 122.088 218.367 122.233 218.747 122.22C219.291 122.202 219.837 122.217 220.383 122.216C220.834 122.215 221.061 121.995 221.061 121.556C221.06 117.598 221.079 113.64 221.041 109.683C221.031 108.616 222.02 107.843 222.728 107.84C226.49 107.823 230.252 107.829 234.014 107.829C234.158 107.829 234.294 107.855 234.369 108.001C234.572 108.392 234.339 108.844 233.892 108.924C233.796 108.942 233.698 108.954 233.605 108.981C230.55 109.876 227.852 111.451 225.268 113.242C225.07 113.379 224.965 113.552 224.966 113.797C224.972 114.638 224.972 115.479 224.969 116.32C224.969 116.581 225.08 116.717 225.353 116.767C227.357 117.136 229.27 117.777 231.095 118.67C232.812 119.51 234.33 120.593 235.364 122.224C235.584 122.572 235.821 122.76 236.236 122.706C236.332 122.693 236.432 122.704 236.53 122.704C237.194 122.703 237.197 122.701 237.197 122.025C237.199 120.426 237.199 118.826 237.2 117.227C237.2 114.317 237.199 111.407 237.2 108.498C237.2 107.86 237.239 107.826 237.894 107.824C238.467 107.823 239.041 107.826 239.614 107.824C240.171 107.822 240.192 107.801 240.195 107.272C240.198 106.845 240.199 106.417 240.195 105.99ZM187.808 117.424C187.605 117.542 187.482 117.331 187.345 117.233C186.485 116.616 185.586 116.06 184.642 115.58C184.29 115.4 184.161 115.175 184.128 114.78C183.951 112.639 183.425 110.622 181.807 109.044C181.539 108.783 181.245 108.548 180.971 108.293C180.859 108.189 180.61 108.14 180.699 107.935C180.777 107.757 180.997 107.829 181.157 107.828C181.981 107.822 182.806 107.825 183.63 107.825C184.817 107.824 186.005 107.823 187.192 107.824C187.901 107.825 187.934 107.856 187.934 108.539C187.935 109.931 187.935 111.322 187.935 112.714C187.935 114.119 187.936 115.524 187.933 116.929C187.932 117.102 187.99 117.319 187.808 117.424ZM204.797 118.886C204.797 119.492 204.799 120.098 204.796 120.705C204.795 120.841 204.807 120.997 204.664 121.075C204.507 121.161 204.404 121.024 204.296 120.948C203.026 120.045 201.645 119.37 200.13 118.966C200.001 118.931 199.826 118.922 199.787 118.767C199.739 118.578 199.929 118.518 200.043 118.43C201.276 117.479 202.684 116.897 204.197 116.547C204.638 116.445 204.787 116.568 204.794 117.026C204.804 117.645 204.797 118.266 204.797 118.886ZM207.592 110.003C207.474 110.59 207.024 111.002 206.423 111.09C205.868 111.171 205.338 111.105 204.839 110.841C203.756 110.268 202.924 109.467 202.495 108.308C202.356 107.934 202.423 107.837 202.835 107.83C203.505 107.819 204.176 107.827 204.846 107.827V107.822C205.461 107.822 206.076 107.835 206.69 107.817C207.046 107.806 207.248 107.925 207.384 108.267C207.611 108.835 207.712 109.404 207.592 110.003ZM234.396 117.094C234.396 117.217 234.423 117.35 234.299 117.433C234.179 117.513 234.085 117.426 234 117.359C232.497 116.171 230.727 115.482 228.98 114.751C228.856 114.699 228.68 114.704 228.658 114.533C228.636 114.363 228.802 114.315 228.914 114.242C230.313 113.324 231.767 112.518 233.382 112.014C234.297 111.729 234.367 111.756 234.365 112.679C234.364 113.353 234.492 114.025 234.396 114.554C234.396 115.498 234.396 116.296 234.396 117.094Z" fill="#333333"/>
<path d="M120.818 80.6319C120.818 82.6245 120.797 84.6175 120.83 86.6097C120.84 87.2432 120.684 87.5146 119.981 87.4878C118.361 87.4261 118.57 87.6536 118.557 86.0755C118.545 84.6674 118.534 83.2588 118.563 81.8512C118.574 81.282 118.404 81.0205 117.787 81.0526C117.061 81.0905 116.33 81.0858 115.603 81.0534C115.05 81.0287 114.863 81.2492 114.808 81.783C114.59 83.8804 113.515 85.4005 111.433 86.0088C109.137 86.6798 106.988 86.4071 105.284 84.543C104.653 83.8531 104.31 83.0131 104.216 82.0919C104.168 81.623 103.986 81.4103 103.483 81.3479C102.749 81.2569 102.323 80.2157 102.718 79.6034C102.877 79.3577 103.141 79.4051 103.375 79.398C104.183 79.3735 104.995 79.4019 105.799 79.3336C106.648 79.2615 107.384 78.9347 107.664 78.0479C108.061 76.788 107.11 75.6682 105.705 75.7192C105.544 75.725 105.383 75.7563 105.225 75.7848C104.042 75.9968 104.076 75.9843 103.643 74.8825C103.391 74.2408 103.551 73.9573 104.216 73.8347C106.006 73.5046 107.744 73.4805 109.106 74.9051C111.097 76.9873 110.065 80.4464 107.203 81.1894C106.332 81.4155 106.357 81.8033 106.58 82.4343C107.027 83.703 108.206 84.3834 109.81 84.2872C111.227 84.2022 112.269 83.2996 112.527 81.8804C112.796 80.4049 112.612 78.9105 112.672 77.4259C112.689 77.0153 112.461 76.4453 112.86 76.2317C113.373 75.9573 114.022 76.096 114.608 76.1622C114.928 76.1984 114.89 76.5114 114.896 76.7413C114.91 77.2989 114.916 77.8572 114.905 78.4149C114.897 78.8463 115.075 79.0438 115.529 79.0338C116.311 79.0167 117.094 79.0069 117.875 79.0386C118.423 79.0608 118.568 78.8184 118.56 78.3244C118.539 77.076 118.578 75.8265 118.545 74.5786C118.529 73.9726 118.706 73.7232 119.366 73.7456C121.022 73.8016 120.804 73.5876 120.815 75.1321C120.828 76.9653 120.818 78.7986 120.818 80.6319Z" fill="#042CAD"/>
<path d="M66.073 80.6742C66.0728 82.6669 66.0555 84.6599 66.0834 86.6522C66.0917 87.2482 65.9486 87.5119 65.2771 87.4879C63.6375 87.4291 63.8512 87.6478 63.8382 86.0889C63.8258 84.6011 63.8208 83.1129 63.8414 81.6253C63.8485 81.118 63.6778 80.9068 63.1431 80.9258C62.2812 80.9565 61.4172 80.9464 60.5545 80.9291C60.1273 80.9205 59.9229 81.0423 59.9069 81.5092C59.8935 81.8998 59.8667 82.5755 59.6626 82.6372C58.9779 82.8442 58.1495 82.9787 57.4996 82.4224C56.8813 81.893 56.381 80.8387 56.4419 80.1922C56.4676 79.9185 56.8103 79.7326 57.0918 79.4971C57.8403 78.8708 58.0356 77.5591 57.5142 76.6264C57.0776 75.8456 56.0698 75.5567 55.0162 75.9621C53.4415 76.5679 52.8039 77.8577 52.6579 79.3941C52.3197 82.9538 54.4963 85.3238 58.1236 85.4171C58.3121 85.422 58.5011 85.4196 58.6897 85.415C59.8751 85.3857 60.2374 85.886 59.9074 87.0504C59.8203 87.358 59.5954 87.4041 59.3619 87.4243C56.3826 87.6816 53.6529 87.1351 51.7955 84.6112C49.9216 82.065 49.8101 79.2666 51.2192 76.4754C52.2366 74.4602 54.5519 73.4192 56.801 73.7876C58.6859 74.0962 59.8567 75.488 59.9171 77.4918C59.9598 78.9095 59.9606 78.936 61.3392 78.8997C62.1344 78.8787 63.1393 79.2554 63.6698 78.7042C64.1589 78.1961 63.8016 77.2306 63.8303 76.4674C63.8563 75.7775 63.8525 75.0856 63.833 74.3954C63.8193 73.9107 64.0318 73.746 64.5113 73.753C66.425 73.7808 66.0454 73.5928 66.0677 75.2541C66.0918 77.0605 66.0732 78.8675 66.073 80.6742Z" fill="#042CAD"/>
<path d="M47.2969 80.6216C47.2973 82.6413 47.2955 84.6611 47.2991 86.6808C47.2997 87.0162 47.2627 87.3222 47.6612 87.5617C49.3421 88.5722 49.9538 89.8081 49.6199 91.3671C49.2782 92.9624 48.0103 94.0881 46.201 94.3029C42.9426 94.6897 40.5411 93.2097 38.5766 90.8203C38.3468 90.5408 38.3402 90.2999 38.6498 90.0792C38.7152 90.0326 38.7755 89.9788 38.8366 89.9267C39.5132 89.3497 40.1429 89.3977 40.7258 90.0707C41.7589 91.2537 43.0035 92.0934 44.6 92.3523C45.1985 92.4494 45.7842 92.4191 46.3481 92.1872C47.1663 91.8508 47.5867 91.1027 47.3937 90.3425C47.1961 89.5643 46.5095 89.1333 45.5891 89.2288C45.3781 89.2507 45.1231 89.2696 44.9736 89.3915C44.2088 90.015 43.7968 89.6303 43.3621 88.9645C42.8606 88.1963 42.7878 88.0067 43.661 87.7733C44.9934 87.4171 45.0646 86.6068 45.044 85.4794C44.9784 81.8929 45.0422 78.3042 45.002 74.7169C44.9933 73.944 45.2188 73.6344 45.998 73.7546C46.156 73.779 46.3237 73.7765 46.4825 73.7553C47.1228 73.6695 47.3192 73.9386 47.3089 74.5626C47.2757 76.5818 47.2965 78.6018 47.2969 80.6216Z" fill="#042CAD"/>
<path d="M39.4481 87.5986C36.3244 87.6157 34.4227 85.8199 34.3706 82.8409C34.3605 82.2613 34.1119 82.0709 33.6127 82.0766C32.6857 82.0872 32.9065 81.4307 32.8745 80.9035C32.8325 80.2094 33.3351 80.3311 33.7514 80.3164C35.0138 80.2718 36.2895 80.4484 37.535 80.1258C38.716 79.8199 39.5868 79.1767 39.7998 77.9143C40.0235 76.5884 39.0243 75.4149 37.784 75.5139C36.6388 75.6054 36.0271 76.6904 36.6513 77.633C36.9225 78.0426 36.7703 78.1551 36.4613 78.353C35.3284 79.0782 34.4219 78.6846 34.1788 77.3473C33.946 76.0667 34.5241 74.8272 35.6681 74.1542C37.6332 72.9981 40.4277 73.672 41.5696 75.5772C42.7411 77.5319 42.0071 80.1596 39.9709 81.3234C39.1868 81.7715 38.3367 82.0274 37.4451 82.1036C36.7023 82.167 36.5772 82.564 36.6624 83.1848C36.8699 84.6951 38.1722 85.6694 39.8014 85.5003C40.0947 85.4699 40.3806 85.373 40.6738 85.3388C41.0305 85.2972 41.4445 84.8015 41.686 85.1459C41.9916 85.5816 42.0833 86.1794 42.1988 86.7214C42.2616 87.0158 41.9274 87.0785 41.7155 87.1689C40.96 87.4914 40.1523 87.5501 39.4481 87.5986Z" fill="#042CAD"/>
<path d="M99.5934 80.696C99.5932 82.7153 99.5779 84.7348 99.6032 86.7538C99.6102 87.3089 99.4207 87.4961 98.8586 87.4832C97.0336 87.4411 97.3288 87.6487 97.322 86.0332C97.306 82.2604 97.3387 78.4872 97.299 74.7147C97.2909 73.9404 97.5177 73.6342 98.2953 73.7542C98.4532 73.7786 98.6209 73.7762 98.7797 73.7548C99.417 73.6692 99.6166 73.9325 99.6063 74.5586C99.5727 76.6039 99.5937 78.6501 99.5934 80.696Z" fill="#042CAD"/>
<path d="M125.002 80.5353C125.003 78.516 125.018 76.4965 124.992 74.4775C124.985 73.9219 125.173 73.7357 125.735 73.7492C127.565 73.7931 127.267 73.5772 127.274 75.1945C127.29 78.9673 127.258 82.7404 127.296 86.513C127.304 87.2822 127.084 87.5989 126.302 87.4782C126.144 87.4539 125.977 87.4565 125.818 87.4776C125.181 87.562 124.979 87.3 124.99 86.6727C125.023 84.6274 125.002 82.5812 125.002 80.5353Z" fill="#042CAD"/>
<path d="M61.5113 65.9834C61.8334 65.9344 61.9761 66.0993 62.1143 66.265C63.3982 67.8045 64.6759 69.3489 65.9673 70.8822C66.2685 71.2399 66.1825 71.383 65.7628 71.5485C65.0515 71.8289 64.5064 71.8198 63.8847 71.2379C62.4561 69.9008 61.0642 68.5348 59.7413 67.0962C59.3009 66.6173 59.377 66.4189 59.9991 66.311C60.5294 66.2189 61.052 66.0844 61.5113 65.9834Z" fill="#042CAD"/>
<path d="M127.347 71.1439C127.397 71.3288 127.294 71.3809 127.211 71.4439C126.677 71.8499 125.814 71.8312 125.305 71.3968C123.753 70.0724 122.338 68.6147 120.958 67.1193C120.463 66.5834 120.643 66.4833 121.242 66.2832C122.483 65.8687 123.368 66.0234 124.15 67.2062C124.984 68.4673 126.068 69.5683 127.041 70.7408C127.159 70.8834 127.265 71.0358 127.347 71.1439Z" fill="#042CAD"/>
<path d="M93.903 75.7727C92.8753 73.8625 90.3642 73.1446 88.3658 74.177C86.5511 75.1143 85.887 77.3578 86.9065 79.2851C87.6519 80.6939 88.941 81.3561 90.4867 81.5937C91.3972 81.7338 91.4241 81.7877 90.8493 82.5108C89.8781 83.7321 88.6725 84.6483 87.1733 85.1485C85.8106 85.6031 84.429 85.7664 83.0741 85.1307C82.338 84.7854 81.8919 84.2067 81.9275 83.3619C81.9632 82.5111 82.4769 82.0104 83.2386 81.7145C83.7733 81.5069 84.3374 81.4323 84.9055 81.444C85.7315 81.4612 85.499 80.8657 85.5247 80.4342C85.5518 79.9784 85.6022 79.4967 84.8747 79.5244C84.4463 79.5406 84.0069 79.5175 83.586 79.4404C82.2459 79.1952 81.467 78.2689 81.6678 77.2073C81.8663 76.1578 82.9485 75.529 84.247 75.7101C84.327 75.7212 84.4086 75.733 84.4842 75.7591C85.0089 75.9398 85.2557 75.7807 85.3793 75.2198C85.6747 73.8778 85.6838 73.8567 84.2931 73.7304C84.0782 73.711 83.8633 73.6857 83.6478 73.6785C80.9414 73.5884 79.107 75.3058 79.3657 77.6961C79.5162 79.0872 80.4063 79.9116 81.7808 80.5029C80.6648 81.1197 80.0685 82.0188 79.3665 82.8221C77.9517 84.4412 74.9036 84.6519 73.5364 83.2367C73.1831 82.8709 72.7449 82.4347 72.8381 81.9475C72.9095 81.5737 73.5279 81.6737 73.8989 81.5623C76.9298 80.6523 78.032 77.1864 75.9932 74.9413C74.9402 73.7816 72.1903 73.266 70.7892 73.9645C70.6144 74.0515 70.4355 74.1375 70.5209 74.378C70.698 74.8774 70.7842 75.449 71.0958 75.8489C71.3653 76.1947 71.841 75.8037 72.2205 75.7435C73.4207 75.5526 74.3821 76.0567 74.6481 77.0659C74.9547 78.2295 74.3722 79.2482 73.185 79.6241C72.08 79.9741 71.9271 79.8919 71.6215 78.7854C71.4209 78.0585 70.5724 77.7812 69.955 78.2411C69.0968 78.8801 69.0591 80.8216 69.9454 81.4589C70.3447 81.746 70.5636 82.0777 70.7363 82.5097C71.7364 85.0118 73.8392 86.3313 76.5607 86.1873C77.5733 86.1338 78.5333 85.8775 79.4095 85.3745C79.7687 85.1683 79.9807 85.119 80.2479 85.5311C81.0498 86.7678 82.309 87.3012 83.72 87.4691C88.6387 88.0544 93.2556 84.8147 94.2954 80.0501C94.6124 78.5977 94.6388 77.1403 93.903 75.7727ZM90.4609 79.6741C89.6244 79.4039 88.9662 78.9431 88.7079 78.0619C88.4445 77.1633 88.8085 76.3167 89.6313 75.9124C90.3912 75.5391 91.3231 75.7589 91.8765 76.4585C92.3105 77.0072 92.4344 77.6545 92.4447 78.2044C92.3981 79.9002 91.9994 80.1709 90.4609 79.6741Z" fill="#042CAD"/>
</svg>
