<svg width="120" height="32" viewBox="0 0 120 32" fill="none" xmlns="http://www.w3.org/2000/svg">
<path fill-rule="evenodd" clip-rule="evenodd" d="M37.7398 13.9724L39.2293 11.8634C39.7484 12.4126 40.374 12.8501 41.068 13.1493C41.7619 13.4485 42.5096 13.6029 43.2653 13.6033C44.7679 13.6033 45.4745 12.9337 45.4745 12.1956C45.4745 9.97323 38.1616 11.5286 38.1616 6.72806C38.1616 4.61909 39.9911 2.85547 42.9832 2.85547C44.9973 2.85547 46.6739 3.45916 47.9288 4.62436L46.4182 6.64106C45.4035 5.73521 44.0877 5.2399 42.7275 5.25178C41.5808 5.25178 40.9454 5.73948 40.9454 6.51716C40.9454 8.51277 48.2267 7.16303 48.2267 11.9082C48.2267 14.2492 46.5527 15.9943 43.1467 15.9943C40.6924 15.9943 38.9446 15.1666 37.7372 13.9724" fill="#1E2654"/>
<path fill-rule="evenodd" clip-rule="evenodd" d="M55.9455 15.7653L53.5096 12.2222L52.405 13.4006V15.7653H49.985V3.04297H52.405V10.6484L55.8875 6.55704H58.8532L55.2179 10.7302L58.9665 15.7653H55.9455Z" fill="#1E2654"/>
<path d="M82.297 3.04297H79.5948V15.7653H82.297V3.04297Z" fill="#1E2654"/>
<path fill-rule="evenodd" clip-rule="evenodd" d="M90.9701 15.7661V10.2037C90.9701 8.93038 90.3058 8.46904 89.2856 8.46904C88.8758 8.47967 88.4736 8.58205 88.1087 8.76865C87.7437 8.95524 87.4252 9.22131 87.1766 9.54725V15.7661H84.7592V6.55779H87.1766V7.73618C87.5824 7.28642 88.0794 6.92826 88.6344 6.68553C89.1894 6.4428 89.7897 6.32107 90.3954 6.32844C92.4227 6.32844 93.4007 7.46992 93.4007 9.26254V15.7661H90.9701Z" fill="#1E2654"/>
<path fill-rule="evenodd" clip-rule="evenodd" d="M102.098 12.7942V9.53058C101.856 9.20846 101.544 8.94594 101.185 8.76316C100.826 8.58037 100.431 8.48217 100.028 8.4761C98.6362 8.4761 97.6871 9.58594 97.6871 11.1598C97.6871 12.7336 98.6362 13.8592 100.028 13.8592C100.431 13.8532 100.826 13.755 101.185 13.5722C101.544 13.3894 101.856 13.1269 102.098 12.8048M102.098 15.7731V14.5868C101.77 15.0298 101.342 15.389 100.849 15.635C100.356 15.881 99.8119 16.0069 99.261 16.0025C96.9648 16.0025 95.1827 14.2573 95.1827 11.1598C95.1827 8.15975 96.92 6.33023 99.261 6.33023C99.8122 6.32223 100.357 6.44633 100.851 6.69215C101.344 6.93798 101.772 7.29839 102.098 7.74323V3.05078H104.525V15.7626L102.098 15.7731Z" fill="#1E2654"/>
<path fill-rule="evenodd" clip-rule="evenodd" d="M106.938 6.55499H109.36V15.7633H106.938V6.55499ZM106.706 4.10595C106.707 3.82076 106.793 3.54243 106.953 3.30617C107.113 3.06991 107.339 2.88632 107.603 2.77863C107.867 2.67094 108.157 2.64397 108.437 2.70115C108.716 2.75832 108.972 2.89706 109.173 3.09983C109.373 3.3026 109.509 3.56029 109.564 3.84031C109.618 4.12034 109.587 4.41011 109.477 4.673C109.366 4.93589 109.18 5.16008 108.942 5.31723C108.704 5.47438 108.425 5.55743 108.14 5.55587C107.95 5.55518 107.763 5.51709 107.588 5.44378C107.413 5.37048 107.255 5.2634 107.122 5.1287C106.988 4.99399 106.883 4.8343 106.812 4.6588C106.74 4.48329 106.704 4.29541 106.706 4.10595" fill="#1E2654"/>
<path fill-rule="evenodd" clip-rule="evenodd" d="M117.272 13.5503V12.3904C116.879 11.8632 116.112 11.5864 115.337 11.5864C114.38 11.5864 113.599 12.0925 113.599 12.9756C113.599 13.8588 114.39 14.3438 115.337 14.3438C116.112 14.3438 116.879 14.0802 117.272 13.553M117.272 15.7674V14.7973C116.642 15.5723 115.553 15.9967 114.372 15.9967C112.911 15.9967 111.193 15.0055 111.193 12.9493C111.193 10.7639 112.911 9.97037 114.372 9.97037C115.611 9.97037 116.684 10.3737 117.272 11.1066V9.93873C117.272 9.00288 116.465 8.38073 115.26 8.38073C114.276 8.39079 113.332 8.77757 112.624 9.46158L111.672 7.77177C112.782 6.80534 114.213 6.28826 115.685 6.32185C117.794 6.32185 119.718 7.1628 119.718 9.8201V15.7648L117.272 15.7674Z" fill="#1E2654"/>
<path fill-rule="evenodd" clip-rule="evenodd" d="M61.3972 4.34766L59.6098 6.77033H60.1845V15.7677H62.6019V6.77033H63.1871L61.3972 4.34766Z" fill="#EF7E22"/>
<path fill-rule="evenodd" clip-rule="evenodd" d="M66.2162 0.984375L64.4315 3.43341H65.0061V15.7656H67.4288V3.43341H68.0062L66.2162 0.984375Z" fill="#009C4D"/>
<path fill-rule="evenodd" clip-rule="evenodd" d="M71.0298 0.984375L69.2504 3.43341H69.8277V15.7656H72.2425V3.43341H72.8251L71.0298 0.984375Z" fill="#1E2654"/>
<path fill-rule="evenodd" clip-rule="evenodd" d="M42.6906 24.9323C42.5937 24.9315 42.4977 24.9505 42.4084 24.988C42.3191 25.0256 42.2384 25.081 42.1713 25.1509C42.1042 25.2207 42.052 25.3035 42.018 25.3942C41.984 25.4849 41.9689 25.5816 41.9735 25.6784V28.0272H40.8162V26.8884H40.782C40.5238 27.094 40.2025 27.2039 39.8725 27.1995C39.6621 27.2037 39.4531 27.1646 39.2585 27.0845C39.0639 27.0044 38.8879 26.8851 38.7414 26.7339C38.595 26.5828 38.4813 26.4031 38.4074 26.2061C38.3334 26.0091 38.3009 25.7989 38.3118 25.5888C38.3118 24.4262 39.2503 23.862 40.2231 23.9622L40.4182 24.9719C39.8698 24.8427 39.4586 25.1116 39.4586 25.6098C39.4584 25.6954 39.4758 25.7802 39.5096 25.8588C39.5434 25.9374 39.593 26.0083 39.6552 26.0671C39.7174 26.1258 39.791 26.1713 39.8715 26.2005C39.9519 26.2298 40.0375 26.2423 40.1229 26.2373C40.22 26.2362 40.3159 26.215 40.4044 26.1751C40.493 26.1352 40.5723 26.0774 40.6374 26.0054C40.7025 25.9333 40.7521 25.8486 40.7828 25.7565C40.8136 25.6643 40.825 25.5668 40.8162 25.4701V23.3612H37.8268V22.4648H44.9445V23.3612H41.9735V24.3234H42.0052C42.2563 24.1016 42.5824 23.9838 42.9173 23.9938C43.1248 23.9893 43.331 24.0274 43.5232 24.1057C43.7154 24.184 43.8895 24.3009 44.0348 24.4491C44.18 24.5974 44.2934 24.7738 44.3678 24.9675C44.4422 25.1613 44.4761 25.3682 44.4674 25.5756C44.4674 26.7355 43.5342 27.2996 42.5588 27.2232L42.369 26.2162C42.9278 26.3374 43.3154 26.0448 43.3154 25.5466C43.3193 25.4641 43.3057 25.3817 43.2755 25.3048C43.2453 25.228 43.1992 25.1584 43.1402 25.1006C43.0812 25.0428 43.0106 24.9982 42.9331 24.9697C42.8556 24.9411 42.773 24.9293 42.6906 24.935" fill="#434444"/>
<path fill-rule="evenodd" clip-rule="evenodd" d="M46.4183 23.3519V28.0312H45.232V23.3519H44.3673V22.4556H44.7601V22.4108C43.8402 21.9911 43.0006 21.4139 42.2794 20.7051L43.2812 20.0777L45.5615 22.4503H45.6274L44.217 20.2675L45.4771 20.0039L46.3972 22.4609H47.2961V23.3572L46.4183 23.3519Z" fill="#434444"/>
<path fill-rule="evenodd" clip-rule="evenodd" d="M51.5851 22.4503H53.6361V23.3466H52.7635V28.0259H51.5851V22.4503ZM48.4217 24.8624C48.1667 24.8039 47.9405 24.6573 47.7829 24.4486C47.6252 24.2398 47.5462 23.9822 47.5596 23.7209C47.5596 22.9933 48.2134 22.3633 49.115 22.3633C50.354 22.3633 50.9155 23.1911 50.9155 24.0531C50.9155 25.4002 49.8452 26.0329 48.8751 26.0672V26.0962C49.2676 26.3113 49.6301 26.5772 49.9533 26.887L50.7283 27.5803L49.7608 28.2552L47.7362 26.3598L47.0271 25.8325L47.6888 24.9626C47.9521 25.0942 48.2433 25.1602 48.5376 25.155C49.26 25.155 49.7398 24.7438 49.7398 24.0505C49.7398 23.5417 49.4761 23.286 49.1782 23.286C49.1229 23.2801 49.067 23.2858 49.014 23.3026C48.961 23.3194 48.912 23.347 48.8702 23.3836C48.8283 23.4203 48.7945 23.4652 48.7709 23.5155C48.7472 23.5658 48.7342 23.6205 48.7327 23.6761C48.7349 23.7899 48.7738 23.8998 48.8437 23.9896C48.9135 24.0794 49.0105 24.1442 49.1203 24.1744L48.4217 24.8624Z" fill="#434444"/>
<path fill-rule="evenodd" clip-rule="evenodd" d="M57.6246 24.2194V23.3494H53.0561V22.4531H59.673V23.3494H58.8083V28.0287H57.6246V25.1579C57.5044 25.0789 57.365 25.0343 57.2213 25.0287C56.8891 25.0287 56.7441 25.2607 56.7441 25.7009V26.476H55.6897V25.635C55.6897 25.2607 55.5078 25.0445 55.2231 25.0445C55.0042 25.0445 54.7275 25.1921 54.7275 25.7747C54.7275 26.2862 55.0042 26.9373 55.919 27.425L55.1809 28.1895C54.7067 27.9701 54.3037 27.622 54.0175 27.1849C53.7314 26.7477 53.5736 26.2391 53.5622 25.7167C53.5622 24.5805 54.3531 24.0665 55.0965 24.0665C55.3146 24.0471 55.5332 24.0961 55.7222 24.2067C55.9111 24.3172 56.061 24.4838 56.151 24.6834H56.1721C56.2105 24.4969 56.3125 24.3295 56.4606 24.2098C56.6086 24.0901 56.7936 24.0255 56.984 24.0269C57.204 24.0121 57.4215 24.0808 57.593 24.2194H57.6246Z" fill="#434444"/>
<path fill-rule="evenodd" clip-rule="evenodd" d="M64.3603 22.4559H67.0677V23.3522H66.1898V28.0314H65.0378V25.7485H63.6406V26.629H62.5677C62.3589 26.4557 62.1908 26.2386 62.0756 25.993C61.9603 25.7474 61.9006 25.4794 61.9007 25.2081L62.5386 24.7309V23.7845C62.5386 23.4603 62.3857 23.3416 62.101 23.3416H61.5316V22.4453H62.3225C62.8866 22.4453 63.6801 22.6615 63.6801 23.716V24.7098H65.0378V23.3416H64.3576L64.3603 22.4559Z" fill="#434444"/>
<path fill-rule="evenodd" clip-rule="evenodd" d="M68.5387 23.3494V28.0287H67.3629V23.3494H66.4772V22.4531H69.4007V23.3494H68.5387Z" fill="#434444"/>
<path fill-rule="evenodd" clip-rule="evenodd" d="M71.0167 25.9118C71.2615 26.1405 71.4896 26.3863 71.6995 26.6473L72.4587 27.5595L71.5017 28.1605L69.1054 25.1921L69.9886 24.5146C70.2337 24.8784 70.4183 25.0155 70.6608 25.0155C70.8427 25.0155 70.9982 24.9153 70.9982 24.6069V23.3494H68.826V22.4531H72.9938V23.3494H72.1661V24.6333C72.1809 24.7834 72.165 24.935 72.1194 25.0788C72.0738 25.2227 71.9994 25.3557 71.9008 25.4699C71.8022 25.5841 71.6813 25.677 71.5457 25.743C71.41 25.809 71.2623 25.8467 71.1116 25.8538L71.0299 25.867L71.0167 25.9118Z" fill="#434444"/>
<path fill-rule="evenodd" clip-rule="evenodd" d="M74.3225 28.1422C73.9284 27.8816 73.6029 27.5299 73.3735 27.1169C73.1441 26.704 73.0175 26.2418 73.0044 25.7696C73.0044 24.5516 73.9192 24.1009 74.7258 24.1009H75.7645V23.3416H72.3981V22.4453H77.8076V23.3416H76.9244V28.0209H75.7566V25.1H74.9288C74.8325 25.0909 74.7353 25.1029 74.6441 25.1353C74.5529 25.1676 74.4699 25.2195 74.4009 25.2873C74.3318 25.3551 74.2784 25.4372 74.2444 25.5277C74.2104 25.6183 74.1965 25.7153 74.2039 25.8118C74.2201 26.1337 74.3157 26.4466 74.4822 26.7226C74.6488 26.9985 74.881 27.229 75.1582 27.3935L74.3225 28.1422Z" fill="#434444"/>
<path fill-rule="evenodd" clip-rule="evenodd" d="M87.2161 24.9323C87.1193 24.9311 87.0232 24.9498 86.9339 24.9873C86.8445 25.0247 86.7639 25.0802 86.6969 25.1501C86.6299 25.2201 86.5779 25.3031 86.5444 25.394C86.5108 25.4849 86.4963 25.5817 86.5017 25.6784V28.0272H85.3365V26.8884H85.3049C85.0478 27.094 84.7272 27.204 84.398 27.1995C84.1873 27.2041 83.9779 27.1652 83.7828 27.0853C83.5878 27.0054 83.4113 26.8862 83.2644 26.7351C83.1175 26.5839 83.0032 26.4041 82.9289 26.2069C82.8545 26.0097 82.8216 25.7993 82.8321 25.5888C82.8321 24.4262 83.768 23.862 84.7592 23.9622L84.9385 24.9719C84.398 24.8427 83.9841 25.1116 83.9841 25.6098C83.9829 25.6948 83.9992 25.7792 84.032 25.8576C84.0648 25.936 84.1133 26.0068 84.1746 26.0657C84.236 26.1245 84.3087 26.1701 84.3884 26.1996C84.4681 26.2292 84.5531 26.242 84.6379 26.2373C84.7356 26.2373 84.8322 26.217 84.9216 26.1775C85.011 26.1381 85.0911 26.0804 85.1569 26.0082C85.2226 25.9359 85.2726 25.8508 85.3035 25.7581C85.3345 25.6655 85.3457 25.5674 85.3365 25.4701V23.3612H82.7003V22.4648H89.478V23.3612H86.5017V24.3234H86.5307C86.7828 24.1049 87.1068 23.9875 87.4402 23.9938C87.6476 23.9897 87.8536 24.0281 88.0457 24.1065C88.2377 24.1849 88.4116 24.3018 88.5568 24.45C88.702 24.5981 88.8154 24.7744 88.8899 24.968C88.9645 25.1615 88.9986 25.3683 88.9903 25.5756C88.9903 26.7355 88.0597 27.2996 87.0738 27.2232L86.9051 26.2162C87.4481 26.3374 87.8383 26.0448 87.8383 25.5466C87.8417 25.4644 87.8279 25.3825 87.7978 25.306C87.7676 25.2295 87.7217 25.1602 87.6631 25.1026C87.6044 25.045 87.5344 25.0003 87.4574 24.9714C87.3804 24.9425 87.2982 24.9301 87.2161 24.935" fill="#434444"/>
<path fill-rule="evenodd" clip-rule="evenodd" d="M93.7776 22.4503H95.8128V23.3466H94.9534V28.0259H93.7776V22.4503ZM90.6142 24.8624C90.3597 24.8033 90.1341 24.6566 89.977 24.4479C89.8199 24.2392 89.7412 23.9818 89.7548 23.7209C89.7548 22.9933 90.4165 22.3633 91.3022 22.3633C92.5412 22.3633 93.0922 23.1911 93.0922 24.0531C93.0922 25.4002 92.0377 26.0329 91.057 26.0672V26.0962C91.4538 26.3123 91.8214 26.5781 92.1511 26.887L92.9156 27.5803L91.9481 28.2552L89.9156 26.3598L89.217 25.8325L89.8708 24.9626C90.1373 25.0929 90.4308 25.1588 90.7275 25.155C91.434 25.155 91.9191 24.7438 91.9191 24.0505C91.9191 23.5417 91.6713 23.286 91.3628 23.286C91.3073 23.2793 91.2509 23.2844 91.1974 23.3009C91.1439 23.3173 91.0944 23.3449 91.0522 23.3816C91.01 23.4184 90.9759 23.4636 90.9523 23.5143C90.9286 23.565 90.9158 23.6201 90.9147 23.6761C90.9174 23.7909 90.9574 23.9017 91.0288 23.9916C91.1002 24.0815 91.199 24.1457 91.3101 24.1744L90.6142 24.8624Z" fill="#434444"/>
<path fill-rule="evenodd" clip-rule="evenodd" d="M99.8066 24.2194V23.3494H95.2433V22.4531H101.866V23.3494H100.988V28.0287H99.8093V25.1579C99.6951 25.0787 99.5606 25.0339 99.4217 25.0287C99.0817 25.0287 98.934 25.2607 98.934 25.7009V26.476H97.8611V25.635C97.8611 25.2607 97.6766 25.0445 97.4024 25.0445C97.1731 25.0445 96.9015 25.1921 96.9015 25.7747C96.9015 26.2862 97.1651 26.9373 98.0957 27.425L97.347 28.1895C96.8767 27.9665 96.4775 27.6172 96.194 27.1806C95.9105 26.744 95.7539 26.2372 95.7416 25.7167C95.7416 24.5805 96.5325 24.0665 97.2917 24.0665C97.5097 24.0471 97.7284 24.0961 97.9174 24.2067C98.1063 24.3172 98.2562 24.4838 98.3462 24.6834H98.3778C98.4123 24.4988 98.5102 24.3322 98.6547 24.2123C98.7991 24.0924 98.9809 24.0268 99.1687 24.0269C99.3896 24.0112 99.6082 24.0799 99.7803 24.2194H99.8066Z" fill="#434444"/>
<path fill-rule="evenodd" clip-rule="evenodd" d="M106.545 22.4559H109.258V23.3522H108.385V28.0314H107.23V25.7485H105.838V26.629H104.763C104.554 26.4557 104.386 26.2386 104.271 25.993C104.155 25.7474 104.096 25.4794 104.096 25.2081L104.729 24.7309V23.7845C104.729 23.4603 104.573 23.3416 104.283 23.3416H103.526V22.4453H104.518C105.09 22.4453 105.881 22.6615 105.881 23.716V24.7098H107.23V23.3416H106.545V22.4559Z" fill="#434444"/>
<path fill-rule="evenodd" clip-rule="evenodd" d="M110.726 23.3494V28.0287H109.545V23.3494H108.68V22.4531H111.593V23.3494H110.726Z" fill="#434444"/>
<path fill-rule="evenodd" clip-rule="evenodd" d="M113.215 25.9118C113.454 26.1433 113.679 26.3889 113.889 26.6473L114.643 27.5595L113.694 28.1605L111.295 25.1921L112.173 24.5146C112.437 24.8784 112.603 25.0155 112.843 25.0155C113.038 25.0155 113.18 24.9153 113.18 24.6069V23.3494H111.005V22.4531H115.171V23.3494H114.359V24.6333C114.373 24.7833 114.357 24.9348 114.311 25.0785C114.265 25.2221 114.191 25.355 114.092 25.4691C113.994 25.5832 113.873 25.6761 113.738 25.7422C113.602 25.8084 113.455 25.8463 113.304 25.8538L113.225 25.867L113.215 25.9118Z" fill="#434444"/>
<path fill-rule="evenodd" clip-rule="evenodd" d="M116.512 28.1422C116.119 27.8806 115.794 27.5287 115.565 27.116C115.336 26.7032 115.209 26.2415 115.194 25.7696C115.194 24.5516 116.101 24.1009 116.913 24.1009H117.949V23.3416H114.591V22.4453H120V23.3416H119.114V28.0209H117.946V25.1H117.116C117.019 25.09 116.921 25.1015 116.83 25.1335C116.738 25.1654 116.654 25.2172 116.584 25.2851C116.515 25.353 116.461 25.4353 116.427 25.5263C116.392 25.6173 116.378 25.7148 116.386 25.8118C116.386 26.4471 116.76 26.998 117.34 27.3935L116.512 28.1422Z" fill="#434444"/>
<path fill-rule="evenodd" clip-rule="evenodd" d="M86.3857 31.4674C85.8401 31.452 85.3051 31.3133 84.8207 31.0618C84.3363 30.8102 83.9151 30.4523 83.5887 30.0148L84.4033 29.2635C84.9305 30.0333 85.5579 30.5552 86.3699 30.5552C86.7469 30.5552 87.1054 30.3918 87.1054 29.9832C87.1069 29.9247 87.0964 29.8666 87.0744 29.8125C87.0524 29.7583 87.0194 29.7093 86.9776 29.6684C86.9358 29.6276 86.886 29.5958 86.8313 29.5751C86.7766 29.5545 86.7182 29.5453 86.6599 29.5482C86.5408 29.547 86.4239 29.5792 86.3223 29.6411C86.2207 29.7031 86.1385 29.7924 86.0852 29.8988L85.3259 29.2345C85.493 29.0217 85.7103 28.8537 85.9583 28.7456C86.2063 28.6375 86.4773 28.5926 86.7469 28.615C87.5957 28.615 88.2521 29.1106 88.2521 29.9726C88.2521 30.7108 87.7249 31.4674 86.391 31.4674" fill="#434444"/>
<path d="M81.2161 24.7969H78.9094V25.9647H81.2161V24.7969Z" fill="#434444"/>
<path fill-rule="evenodd" clip-rule="evenodd" d="M9.51127 14.1541C8.62551 14.1541 8.62551 12.7912 9.51127 12.7912C10.397 12.7912 10.3891 14.1541 9.51127 14.1541ZM25.3285 0.617188H2.36451C2.14497 0.617188 1.93443 0.704401 1.77919 0.859638C1.62395 1.01487 1.53674 1.22542 1.53674 1.44496V20.9529C1.53744 21.1722 1.62487 21.3824 1.77996 21.5375C1.93505 21.6925 2.14519 21.78 2.36451 21.7807H25.3285C25.5474 21.7793 25.7569 21.6915 25.9114 21.5365C26.0659 21.3815 26.153 21.1718 26.1537 20.9529V1.44496C26.1537 1.22587 26.0668 1.01573 25.9121 0.860567C25.7575 0.705406 25.5476 0.617885 25.3285 0.617188" fill="white"/>
<path fill-rule="evenodd" clip-rule="evenodd" d="M9.51132 14.1554C8.62556 14.1554 8.62556 12.7925 9.51132 12.7925C10.3971 12.7925 10.3892 14.1554 9.51132 14.1554ZM13.7583 3.51565C12.1532 3.51148 10.5829 3.9836 9.24623 4.87226C7.90957 5.76092 6.8666 7.02616 6.24934 8.50784C5.63207 9.98951 5.46827 11.621 5.77866 13.1958C6.08905 14.7706 6.85968 16.218 7.993 17.3546C9.12632 18.4913 10.5714 19.2661 12.1453 19.5811C13.7192 19.8961 15.3512 19.7371 16.8346 19.1242C18.3181 18.5113 19.5864 17.472 20.479 16.1379C21.3715 14.8039 21.8483 13.235 21.8488 11.6299C21.8505 10.5658 21.6426 9.51185 21.2369 8.52815C20.8312 7.54444 20.2357 6.6503 19.4844 5.89679C18.7331 5.14328 17.8407 4.54516 16.8582 4.1366C15.8757 3.72803 14.8223 3.51704 13.7583 3.51565" fill="#1E2654"/>
<path fill-rule="evenodd" clip-rule="evenodd" d="M16.2837 8.18579L17.2591 7.08121L17.5412 6.75433C17.8929 6.91415 18.2878 6.95218 18.6635 6.86243C19.0393 6.77267 19.3744 6.56024 19.6159 6.25872C19.8989 5.92784 20.0935 5.53068 20.1815 5.10428C20.2695 4.67788 20.2482 4.23613 20.1194 3.82023L18.9436 5.15679L17.7626 4.84308L17.4199 3.58824L18.5904 2.25432C18.1979 2.14256 17.7818 2.14446 17.3903 2.2598C16.9989 2.37514 16.6482 2.59919 16.379 2.90591C16.1098 3.21263 15.9332 3.58943 15.8697 3.99253C15.8061 4.39564 15.8583 4.8085 16.0201 5.18314L16.0675 5.13306L14.441 6.9784L16.2837 8.18579Z" fill="#EF7E22"/>
<path fill-rule="evenodd" clip-rule="evenodd" d="M16.3653 8.27087L16.194 8.10215L17.5121 6.59951L17.5885 6.63906C17.9194 6.78616 18.2895 6.82017 18.6417 6.73583C18.9938 6.65149 19.3084 6.45349 19.5367 6.17245C19.7817 5.88565 19.9569 5.54591 20.0483 5.17997C20.1398 4.81402 20.1452 4.43184 20.0639 4.06348L18.9857 5.29986L17.6676 4.95715L17.2827 3.55733L18.361 2.32622C18.0107 2.26199 17.6497 2.29102 17.3143 2.41041C16.9788 2.52979 16.6806 2.73532 16.4497 3.00636C16.1963 3.29194 16.0308 3.64471 15.9733 4.02217C15.9158 4.39963 15.9686 4.78567 16.1254 5.13378L16.0859 5.15224L16.1518 5.2155L15.9805 5.41849L14.52 7.08194L14.346 6.90268L15.875 5.16278C15.7217 4.7676 15.6811 4.33759 15.7579 3.92072C15.8347 3.50384 16.0257 3.11648 16.3098 2.80184C16.5938 2.48719 16.9596 2.25762 17.3665 2.13872C17.7734 2.01983 18.2053 2.0163 18.614 2.1285L18.8117 2.18386L17.5516 3.62587L17.8522 4.74099L18.9067 5.00461L20.1615 3.57051L20.2274 3.76823C20.3648 4.20662 20.3885 4.67276 20.2963 5.12283C20.2041 5.57291 19.9989 5.99215 19.7001 6.34116C19.451 6.64906 19.1093 6.86861 18.7257 6.96736C18.3422 7.06611 17.937 7.03881 17.5701 6.8895L17.3407 7.15312L16.3653 8.27087Z" fill="#144575"/>
<path fill-rule="evenodd" clip-rule="evenodd" d="M6.39271 17.7268C6.35279 17.7435 6.30994 17.752 6.26668 17.7518C6.22343 17.7516 6.18064 17.7428 6.14085 17.7259C6.10105 17.7089 6.06505 17.6842 6.03496 17.6531C6.00487 17.622 5.9813 17.5853 5.96564 17.5449C5.93313 17.4637 5.93368 17.373 5.96718 17.2922C6.00068 17.2114 6.06447 17.147 6.14491 17.1126C6.18476 17.0957 6.22765 17.087 6.27095 17.0872C6.31425 17.0874 6.35706 17.0964 6.39677 17.1137C6.43648 17.1309 6.47226 17.1561 6.50193 17.1876C6.53159 17.2192 6.55453 17.2564 6.56934 17.2971C6.60191 17.3776 6.60166 17.4677 6.56865 17.548C6.53563 17.6283 6.47248 17.6925 6.39271 17.7268ZM8.01925 14.0625L5.60185 16.6407H5.58603C5.40525 16.8356 5.30812 17.0936 5.31552 17.3592C5.32291 17.6249 5.43424 17.8771 5.62557 18.0616C5.7194 18.1528 5.83042 18.2243 5.95217 18.2721C6.07393 18.32 6.20398 18.3431 6.33475 18.3401C6.46552 18.3372 6.5944 18.3082 6.71388 18.255C6.83336 18.2018 6.94105 18.1253 7.03067 18.03L7.05176 18.0142L9.46126 15.436L8.01925 14.0625Z" fill="#EF7E22"/>
<path fill-rule="evenodd" clip-rule="evenodd" d="M6.26871 17.1991L6.18699 17.2122L6.06572 17.3309V17.4996C6.07494 17.5284 6.09003 17.5549 6.11002 17.5776C6.13001 17.6002 6.15447 17.6185 6.18188 17.6312C6.20928 17.644 6.23902 17.6509 6.26923 17.6516C6.29944 17.6522 6.32946 17.6466 6.3574 17.6351C6.38534 17.6236 6.41059 17.6065 6.43157 17.5847C6.45255 17.563 6.46879 17.5371 6.47928 17.5088C6.48977 17.4804 6.49428 17.4502 6.49252 17.4201C6.49076 17.3899 6.48277 17.3604 6.46906 17.3335C6.45281 17.2937 6.42508 17.2597 6.38939 17.2357C6.3537 17.2118 6.31169 17.199 6.26871 17.1991ZM6.26871 17.8634C6.18164 17.8623 6.09685 17.8354 6.02505 17.7862C5.95326 17.7369 5.89769 17.6674 5.86537 17.5866C5.84186 17.5325 5.82973 17.4742 5.82973 17.4152C5.82973 17.3563 5.84186 17.298 5.86537 17.2439C5.91121 17.1374 5.99611 17.0525 6.10263 17.0066L6.26871 16.9724C6.35687 16.9717 6.44312 16.9981 6.51574 17.0481C6.58837 17.0981 6.64386 17.1692 6.67469 17.2518C6.71839 17.3599 6.71771 17.4808 6.6728 17.5884C6.62789 17.696 6.54237 17.7816 6.43479 17.8265L6.26871 17.8634ZM5.60966 16.8089L5.67293 16.7298L8.01915 14.2254L9.30035 15.4644L6.96994 17.9477L6.94885 17.9636C6.8683 18.0512 6.77053 18.1212 6.66166 18.1693C6.5528 18.2174 6.43517 18.2425 6.31616 18.243C6.20265 18.2443 6.09004 18.2228 5.98499 18.1797C5.87994 18.1367 5.78458 18.0731 5.70456 17.9926C5.54602 17.8414 5.44871 17.6372 5.4312 17.4189C5.4137 17.2005 5.47723 16.9834 5.60966 16.8089M6.31616 18.4513C6.03342 18.4521 5.76133 18.3435 5.55693 18.1481C5.34358 17.9427 5.21979 17.6614 5.21239 17.3654C5.20499 17.0693 5.31457 16.7822 5.51739 16.5664V16.5532L8.01124 13.8906L9.61142 15.4302L7.13866 18.0927L7.12021 18.1112C7.01937 18.2202 6.89704 18.3072 6.76093 18.3667C6.62481 18.4261 6.47787 18.4567 6.32934 18.4565" fill="#144575"/>
<path fill-rule="evenodd" clip-rule="evenodd" d="M21.4849 6.99219L3.35046 14.0124L3.94888 15.6152L8.91023 13.7092C8.88947 13.6107 8.89163 13.5088 8.91657 13.4113C8.9415 13.3137 8.98853 13.2233 9.05402 13.1468C9.11951 13.0704 9.20171 13.01 9.29426 12.9704C9.3868 12.9308 9.48721 12.913 9.58773 12.9184C9.69346 12.9217 9.79678 12.9508 9.88868 13.0032C9.98058 13.0555 10.0583 13.1296 10.115 13.2189L22.0807 8.59236L23.238 7.21626L21.4849 6.99219Z" fill="#009C4D"/>
<path fill-rule="evenodd" clip-rule="evenodd" d="M9.51126 14.1565C8.6255 14.1565 8.6255 12.7935 9.51126 12.7935C10.397 12.7935 10.3891 14.1565 9.51126 14.1565ZM16.2257 8.3568L13.3865 6.64062L10.9585 7.75047L9.13165 8.59406L6.90405 12.3665L8.40142 13.9166L10.2468 15.8199L16.9348 10.5238C16.977 8.80232 16.2389 8.3568 16.2389 8.3568" fill="#1E2654"/>
<path fill-rule="evenodd" clip-rule="evenodd" d="M22.5472 7.10156L22.7924 7.66044L23.172 7.15429L22.5472 7.10156Z" fill="#1E2654"/>
<path fill-rule="evenodd" clip-rule="evenodd" d="M21.448 6.86719L3.18433 14.0192L3.94619 15.7749L8.75991 13.9428C8.72564 13.8584 8.52265 13.7978 8.52265 13.7081L4.107 15.4401L3.5534 14.1642L21.4796 7.13081L22.9796 7.28371L22.0359 8.40937L10.0385 13.1203C10.0991 13.1915 10.1861 13.2178 10.2151 13.3048L22.2151 8.62027L23.5332 7.07018L21.448 6.86719Z" fill="#144575"/>
<path fill-rule="evenodd" clip-rule="evenodd" d="M22.6396 7.24617L21.485 7.13281L22.0412 8.41137L22.7741 7.53615L22.6396 7.24617Z" fill="white"/>
<path fill-rule="evenodd" clip-rule="evenodd" d="M21.485 7.13281L22.0412 8.41401L21.485 7.13281Z" fill="#ED6330"/>
<path fill-rule="evenodd" clip-rule="evenodd" d="M21.9041 8.46868L21.3505 7.18748L21.622 7.08203L22.1677 8.36323L21.9041 8.46868Z" fill="#144575"/>
<path fill-rule="evenodd" clip-rule="evenodd" d="M25.2969 29.8049L25.1044 29.4359H26.1194L26.3382 29.8049H25.2969ZM24.6299 28.4868H25.5737L25.7899 28.8559H24.8013L24.6299 28.4868ZM23.2881 29.8049L23.1431 29.4359H24.1791L24.3558 29.8049H23.2881ZM22.7608 28.4868H23.7204L23.9023 28.8559H22.9032L22.7608 28.4868ZM22.3707 27.493H23.2565L23.4304 27.8673H22.5183L22.3707 27.493ZM21.2767 29.8128L21.1712 29.4438H22.2257L22.3575 29.8128H21.2767ZM20.8997 28.4947H21.8751L22.0095 28.8638H21.0025L20.8997 28.4947ZM20.615 27.5009H21.5166L21.6457 27.8752H20.7178L20.615 27.5009ZM19.2731 29.8207L19.2046 29.4517H20.2591L20.3619 29.8207H19.2731ZM17.2696 29.8207L17.2433 29.4517H18.3136L18.3689 29.8207H17.2696ZM17.18 28.5026H19.0253L18.8514 27.5088H19.7582L20.1141 28.8717H17.2116L17.18 28.5026ZM17.1088 27.5088L17.1352 27.8831H18.0816L18.0262 27.5088H17.1088ZM7.29685 29.8286L7.4682 29.4596H16.3654L16.3812 29.8286H7.29685ZM6.83024 28.8717H5.85748L6.08419 28.471H7.02795L6.83024 28.8717ZM6.35836 29.8286H5.30387L5.51741 29.4596H6.54025L6.35836 29.8286ZM4.9269 28.8717H3.97522L4.23884 28.5026H5.16415L4.9269 28.8717ZM4.34957 29.8286H3.32144L3.58507 29.4596H4.58419L4.34957 29.8286ZM3.01564 28.8717H2.09033L2.3935 28.471H3.29508L3.01564 28.8717ZM2.33814 29.8286H1.33902L1.63163 29.4596H2.60967L2.33814 29.8286ZM3.158 27.5088H3.97522L3.7116 27.8831H2.86802L3.158 27.5088ZM4.89262 27.5088H5.74412L5.51741 27.8831H4.64482L4.89262 27.5088ZM6.63252 27.5088H7.50247L7.3153 27.8831H6.41899L6.63252 27.5088ZM7.92954 28.471H8.89439L8.75204 28.8401H7.75027L7.92954 28.471ZM8.39615 27.4772H9.27928L9.13165 27.8515H8.20634L8.39615 27.4772ZM9.77488 28.471H10.7503L10.6448 28.8401H9.63517L9.77488 28.471ZM10.1255 27.4772H11.0271L10.919 27.8515H9.99632L10.1255 27.4772ZM11.6202 28.471H12.6088L12.5429 28.8401H11.5253L11.6202 28.471ZM11.8839 27.4772H12.7881L12.7248 27.8515H11.7731L11.8839 27.4772ZM13.4656 28.471H14.4673L14.4436 28.8401H13.4181L13.4656 28.471ZM13.6027 27.4772H14.5201L14.4963 27.8515H13.5605L13.6027 27.4772ZM15.3294 28.471H16.3206L16.3364 28.8401H15.3109L15.3294 28.471ZM15.3636 27.4772H16.2837V27.8515H15.3531L15.3636 27.4772ZM24.999 27.4772L25.2178 27.8515H24.3241L24.1396 27.4772H24.999ZM25.7213 27.1608C25.6863 27.1115 25.6401 27.0712 25.5864 27.0433C25.5328 27.0153 25.4733 27.0005 25.4129 27H2.65712C2.60135 27.0004 2.54634 27.0129 2.49584 27.0366C2.44534 27.0602 2.40054 27.0945 2.3645 27.1371L0.0920886 29.8366C0.0446792 29.8927 0.0140834 29.9611 0.00382308 30.0338C-0.0064372 30.1066 0.00405482 30.1807 0.0340917 30.2478C0.0652909 30.313 0.114233 30.3682 0.175311 30.4069C0.236388 30.4456 0.307131 30.4663 0.379435 30.4666H27.3109C27.3794 30.4654 27.4462 30.4459 27.5046 30.4102C27.563 30.3745 27.6108 30.3239 27.6431 30.2636C27.6763 30.2025 27.6917 30.1333 27.6875 30.0638C27.6833 29.9944 27.6597 29.9275 27.6194 29.8708L25.7213 27.1608Z" fill="#1E2654"/>
<path fill-rule="evenodd" clip-rule="evenodd" d="M8.83901 25.818C8.47258 26.1818 9.042 26.39 9.042 26.39H18.5324C18.5324 26.39 19.107 26.1818 18.7432 25.818C18.3794 25.4542 17.3882 25.1879 17.2828 23.6167C17.2828 23.4981 17.2828 23.0078 17.2828 22.3672H10.3021C10.3021 23.0078 10.3021 23.4981 10.3021 23.6167C10.2019 25.1985 9.20544 25.4621 8.84692 25.818" fill="#1E2654"/>
<path fill-rule="evenodd" clip-rule="evenodd" d="M2.51747 0.761864C2.30095 0.763257 2.09376 0.850249 1.94115 1.00385C1.78853 1.15745 1.70288 1.3652 1.70288 1.58173V20.8102C1.70428 21.0251 1.7908 21.2307 1.94349 21.3819C2.09618 21.5331 2.30258 21.6176 2.51747 21.6169H25.1572C25.2642 21.6169 25.3701 21.5958 25.469 21.5549C25.5678 21.514 25.6576 21.454 25.7332 21.3783C25.8089 21.3027 25.8689 21.2129 25.9098 21.1141C25.9507 21.0152 25.9718 20.9093 25.9718 20.8023V1.58173C25.9698 1.36632 25.8833 1.16032 25.731 1.008C25.5786 0.855683 25.3726 0.769199 25.1572 0.767138L2.51747 0.761864ZM25.1572 22.4078H2.51747C2.30842 22.4078 2.10144 22.3664 1.9085 22.2859C1.71555 22.2054 1.54048 22.0875 1.39339 21.9389C1.24631 21.7904 1.13013 21.6141 1.05158 21.4204C0.973026 21.2267 0.933658 21.0193 0.935748 20.8102V1.58173C0.935748 1.16223 1.10239 0.759906 1.39902 0.463275C1.69566 0.166644 2.09797 0 2.51747 0H25.1572C25.5767 0 25.979 0.166644 26.2757 0.463275C26.5723 0.759906 26.739 1.16223 26.739 1.58173V20.8102C26.741 21.0193 26.7017 21.2267 26.6231 21.4204C26.5446 21.6141 26.4284 21.7904 26.2813 21.9389C26.1342 22.0875 25.9592 22.2054 25.7662 22.2859C25.5733 22.3664 25.3663 22.4078 25.1572 22.4078" fill="#1E2654"/>
<path fill-rule="evenodd" clip-rule="evenodd" d="M2.51747 0.761864C2.30095 0.763257 2.09376 0.850249 1.94115 1.00385C1.78853 1.15745 1.70288 1.3652 1.70288 1.58173V20.8102C1.70428 21.0251 1.7908 21.2307 1.94349 21.3819C2.09618 21.5331 2.30258 21.6176 2.51747 21.6169H25.1572C25.2642 21.6169 25.3701 21.5958 25.469 21.5549C25.5678 21.514 25.6576 21.454 25.7332 21.3783C25.8089 21.3027 25.8689 21.2129 25.9098 21.1141C25.9507 21.0152 25.9718 20.9093 25.9718 20.8023V1.58173C25.9698 1.36632 25.8833 1.16032 25.731 1.008C25.5786 0.855683 25.3726 0.769199 25.1572 0.767138L2.51747 0.761864ZM25.1572 22.4078H2.51747C2.30842 22.4078 2.10144 22.3664 1.9085 22.2859C1.71555 22.2054 1.54048 22.0875 1.39339 21.9389C1.24631 21.7904 1.13013 21.6141 1.05158 21.4204C0.973026 21.2267 0.933658 21.0193 0.935748 20.8102V1.58173C0.935748 1.16223 1.10239 0.759906 1.39902 0.463275C1.69566 0.166644 2.09797 0 2.51747 0H25.1572C25.5767 0 25.979 0.166644 26.2757 0.463275C26.5723 0.759906 26.739 1.16223 26.739 1.58173V20.8102C26.741 21.0193 26.7017 21.2267 26.6231 21.4204C26.5446 21.6141 26.4284 21.7904 26.2813 21.9389C26.1342 22.0875 25.9592 22.2054 25.7662 22.2859C25.5733 22.3664 25.3663 22.4078 25.1572 22.4078" fill="#1E2654"/>
<path fill-rule="evenodd" clip-rule="evenodd" d="M9.36365 11.5547L9.42164 11.6522L9.36365 11.5547Z" fill="white"/>
<path fill-rule="evenodd" clip-rule="evenodd" d="M20.9814 21.591C21.0684 21.5067 20.818 21.4988 20.9103 21.4038C20.8364 21.3195 17.6361 21.5989 17.5886 21.5488C16.4551 20.4021 18.2951 22.2712 17.1721 21.1218C15.9331 19.8643 14.702 18.6042 13.4551 17.3467C13.3335 17.2579 13.1941 17.1967 13.0465 17.1675C12.6554 17.0861 12.2719 16.9724 11.8997 16.8274C11.5934 16.63 11.3142 16.3934 11.0693 16.1235C10.7398 15.8204 10.4234 15.4987 10.1018 15.1982C10.521 14.7659 11.0614 14.4864 11.1563 13.859L11.2723 13.7536C11.4595 13.6139 11.6466 13.4899 11.8233 13.3239C11.9767 13.2197 12.0993 13.0761 12.1782 12.9082C12.257 12.7403 12.2892 12.5542 12.2714 12.3696L12.3663 12.2035C12.6774 11.8819 12.9885 11.5629 13.2863 11.2518C13.4946 11.2175 13.7029 11.1833 13.9243 11.1516C13.9059 11.2843 13.8668 11.4133 13.8083 11.5339C13.7289 11.6866 13.6917 11.8578 13.7005 12.0297C13.7093 12.2016 13.7638 12.3681 13.8584 12.5119C14.1695 13.1103 14.528 13.6824 14.876 14.2518C14.9366 14.3467 15.0869 14.3889 15.2002 14.4548C15.2002 14.3335 15.2292 14.1912 15.1739 14.091C14.9103 13.5928 14.6018 13.1182 14.325 12.6226C14.1616 12.359 13.9612 12.0769 14.093 11.729C14.2248 11.381 14.4094 10.9724 14.5834 10.598C14.905 9.92579 14.9129 9.9258 14.3435 9.42228L14.2697 9.35901C14.1789 9.25874 14.0558 9.19353 13.9219 9.17474C13.7879 9.15595 13.6516 9.18478 13.5368 9.2562C13.2969 9.38274 13.0385 9.49873 12.7907 9.62527C12.662 9.70399 12.5092 9.73348 12.3604 9.70828C12.2117 9.68308 12.077 9.60491 11.9814 9.48819C11.8602 9.38274 11.7442 9.27202 11.6308 9.15866C11.4225 8.96885 11.4542 8.78959 11.6519 8.61824C12.2029 8.16217 12.7512 7.70611 13.2995 7.25795C13.3925 7.16789 13.5153 7.11517 13.6446 7.10983C13.7739 7.10448 13.9007 7.14688 14.0008 7.22895C14.7037 7.6982 15.4067 8.16041 16.1097 8.6156C16.2433 8.69305 16.3559 8.80201 16.4377 8.93297C16.5195 9.06393 16.568 9.21291 16.579 9.36692C16.6871 10.3001 16.7556 11.236 16.9217 12.1587C16.9975 12.5661 16.9872 12.9848 16.8914 13.388C16.7956 13.7912 16.6164 14.1699 16.3654 14.4996C16.2776 14.6463 16.1779 14.7856 16.0675 14.9161C15.8883 15.1007 15.9489 15.243 16.1176 15.3933C16.7793 15.9917 17.4357 16.5954 18.0842 17.1912C19.0465 18.077 20.006 18.9469 20.9841 19.8274C21.0658 19.9012 21.1581 19.9697 21.2477 20.0383C21.1775 19.8809 21.0741 19.7407 20.9445 19.627C19.6264 18.3089 18.2846 17.0251 16.9559 15.7228C16.7661 15.5436 16.463 15.359 16.4287 15.1481C16.3944 14.9372 16.6528 14.6921 16.7767 14.4653C16.9006 14.2386 17.006 14.0146 17.1273 13.7799C17.1642 13.7114 17.2169 13.6428 17.2723 13.5559C19.8083 15.8441 23.072 18.6806 25.608 20.961L20.9814 21.591Z" fill="white"/>
<path fill-rule="evenodd" clip-rule="evenodd" d="M9.80655 12.3676C10.1308 12.6813 10.4551 12.995 10.7767 13.3008C11.0166 13.5249 11.1431 13.5117 11.3593 13.2718C11.5016 13.1163 11.6466 12.9529 11.8022 12.8131C11.8462 12.7823 11.8822 12.7412 11.907 12.6935C11.9318 12.6458 11.9448 12.5928 11.9448 12.539C11.9448 12.4852 11.9318 12.4322 11.907 12.3844C11.8822 12.3367 11.8462 12.2957 11.8022 12.2648C11.1405 11.611 10.4841 10.9704 9.79337 10.3351C9.76013 10.297 9.71882 10.2669 9.67246 10.2468C9.6261 10.2267 9.57585 10.2172 9.52536 10.219C9.47486 10.2207 9.4254 10.2337 9.38055 10.257C9.33571 10.2803 9.29662 10.3133 9.26612 10.3535C9.10795 10.517 8.95505 10.6831 8.80215 10.8412C8.75642 10.8742 8.71918 10.9176 8.6935 10.9678C8.66781 11.018 8.65442 11.0735 8.65442 11.1299C8.65442 11.1863 8.66781 11.2419 8.6935 11.292C8.71918 11.3422 8.75642 11.3856 8.80215 11.4186C9.13431 11.727 9.46384 12.0486 9.79073 12.3676" fill="white"/>
<path fill-rule="evenodd" clip-rule="evenodd" d="M10.7846 10.8377C11.1141 11.1514 11.4568 11.4625 11.7758 11.7894C11.8081 11.8356 11.8511 11.8734 11.9011 11.8994C11.9512 11.9255 12.0067 11.9391 12.0631 11.9391C12.1195 11.9391 12.1751 11.9255 12.2251 11.8994C12.2752 11.8734 12.3182 11.8356 12.3505 11.7894C12.5034 11.6391 12.651 11.4783 12.796 11.3307C12.8376 11.2958 12.871 11.2522 12.8939 11.2031C12.9169 11.1539 12.9287 11.1003 12.9287 11.046C12.9287 10.9917 12.9169 10.9381 12.8939 10.8889C12.871 10.8397 12.8376 10.7962 12.796 10.7613C12.1457 10.118 11.4858 9.48008 10.8162 8.84739C10.7788 8.80405 10.7318 8.76997 10.679 8.74778C10.6262 8.72559 10.569 8.7159 10.5118 8.71947C10.4546 8.72305 10.3991 8.73978 10.3494 8.76837C10.2998 8.79696 10.2575 8.83663 10.2257 8.88429C10.0728 9.04774 9.91726 9.20327 9.76172 9.36672C9.72169 9.39862 9.68964 9.43942 9.66812 9.48586C9.64659 9.53231 9.63619 9.58313 9.63772 9.6343C9.63926 9.68547 9.65269 9.73557 9.67696 9.78064C9.70123 9.82571 9.73567 9.86451 9.77754 9.89396C10.115 10.205 10.4445 10.524 10.774 10.8483" fill="white"/>
<path fill-rule="evenodd" clip-rule="evenodd" d="M9.8408 12.8728L9.74589 12.7568C9.48227 12.4932 9.21865 12.2428 8.95503 11.995C8.63868 11.6945 8.49106 11.6971 8.19053 12.0187C8.07717 12.1347 7.97173 12.2612 7.85837 12.3693C7.81107 12.4015 7.77235 12.4447 7.74558 12.4952C7.71882 12.5458 7.70483 12.6021 7.70483 12.6593C7.70483 12.7165 7.71882 12.7728 7.74558 12.8234C7.77235 12.8739 7.81107 12.9171 7.85837 12.9493C8.44097 13.524 9.03412 14.0908 9.63517 14.6655C9.66559 14.7025 9.70382 14.7322 9.74713 14.7527C9.79043 14.7731 9.83772 14.7838 9.88561 14.7838C9.9335 14.7838 9.9808 14.7731 10.0241 14.7527C10.0674 14.7322 10.1056 14.7025 10.1361 14.6655C10.3074 14.4941 10.4603 14.328 10.6238 14.1619C10.8373 13.9537 10.7819 13.7692 10.5921 13.5846C10.4023 13.4001 10.2389 13.2525 10.0649 13.0785L9.8408 12.8728Z" fill="white"/>
<path fill-rule="evenodd" clip-rule="evenodd" d="M12.5587 10.0782C12.8223 10.3418 13.0595 10.5606 13.2994 10.7847C13.3267 10.8212 13.3621 10.8509 13.4028 10.8713C13.4435 10.8918 13.4885 10.9024 13.5341 10.9024C13.5796 10.9024 13.6246 10.8918 13.6653 10.8713C13.706 10.8509 13.7414 10.8212 13.7687 10.7847C13.9513 10.6049 14.1205 10.4119 14.2748 10.2073C14.3125 10.1456 14.3343 10.0755 14.3385 10.0034C14.3426 9.93117 14.3289 9.85908 14.2986 9.79344C14.1878 9.62473 14.056 9.39274 13.7713 9.52982C13.3785 9.71699 12.9804 9.90417 12.5613 10.0992" fill="white"/>
<path fill-rule="evenodd" clip-rule="evenodd" d="M11.1088 8.69999C11.4884 8.37047 11.839 8.06467 12.1817 7.76151L12.1474 7.67188C12.0103 7.70087 11.8179 7.67187 11.752 7.76151C11.5147 8.03831 11.0956 8.20966 11.0982 8.69472" fill="white"/>
</svg>
