<svg width="583" height="529" viewBox="0 0 583 529" fill="none" xmlns="http://www.w3.org/2000/svg">
<path opacity="0.1" d="M352.715 527.016C345.036 527.016 337.351 526.62 329.694 525.816C285.685 521.203 248.418 496.819 205.355 490.133C148.63 481.323 85.5419 489.967 43.021 443.232C16.7258 414.333 -0.00500116 372.394 1.1214e-06 331.914C0.00399575 299.671 10.6252 268.352 35.4872 245.28C60.7792 221.811 94.5871 210.048 119.067 185.46C139.438 165.001 143.466 135.134 152.92 109.071C161.658 84.9811 176.459 63.9687 195.667 47.0784C228.781 17.96 275.356 2.16797 319.447 2.16797C326.787 2.16797 334.065 2.60654 341.194 3.49394C411.764 12.2767 471.244 59.6669 508.473 118.736C537.094 164.143 559.09 219.671 566.086 275.491C567.63 287.783 568.443 300.09 568.443 312.305C568.432 369.39 550.593 424.488 505.803 466.885C464.716 505.773 408.899 527.016 352.715 527.016Z" fill="#042CB0"/>
<path d="M337.074 417.383L347.207 433.32L400.656 445.173V453.276L331.121 454.439L317.71 435.329" fill="#F3B783"/>
<path d="M189.002 431.059C189.002 431.059 186.402 440.247 186.841 446.668C187.279 453.089 213.962 450.127 213.962 450.127L217.424 434.152L189.002 431.059Z" fill="#F3B783"/>
<path d="M177.819 303.371V122.423H193.774C194.082 122.423 194.331 122.19 194.331 121.903C194.331 121.615 194.082 121.383 193.774 121.383H177.262C177.115 121.383 176.972 121.438 176.868 121.535C176.764 121.631 176.705 121.766 176.705 121.903V303.371C176.705 303.658 176.954 303.891 177.262 303.891C177.569 303.891 177.819 303.658 177.819 303.371Z" fill="#1D2A30"/>
<path d="M178.174 332.828V326.469C178.174 326.193 177.845 325.969 177.439 325.969C177.034 325.969 176.705 326.193 176.705 326.469V332.828C176.705 333.105 177.034 333.328 177.439 333.328C177.845 333.328 178.174 333.105 178.174 332.828Z" fill="#1D2A30"/>
<path d="M232.101 122.429H390.12V354.384H177.223C176.937 354.384 176.705 354.614 176.705 354.9C176.705 355.186 176.937 355.417 177.223 355.417H390.639C390.775 355.417 390.909 355.362 391.006 355.266C391.103 355.169 391.157 355.036 391.157 354.9V121.912C391.157 121.775 391.103 121.642 391.006 121.546C390.909 121.449 390.775 121.395 390.639 121.395H232.101C231.815 121.395 231.583 121.625 231.583 121.912C231.583 122.197 231.815 122.429 232.101 122.429Z" fill="#1D2A30"/>
<path d="M213.932 122.847H227.604C227.885 122.847 228.112 122.517 228.112 122.111C228.112 121.703 227.885 121.375 227.604 121.375H213.932C213.651 121.375 213.424 121.703 213.424 122.111C213.424 122.517 213.651 122.847 213.932 122.847Z" fill="#1D2A30"/>
<path d="M383.283 347.515V346.995H186.54V129.77H382.764V347.515H383.283H383.797V129.25C383.797 129.113 383.743 128.98 383.646 128.882C383.553 128.786 383.419 128.73 383.283 128.73H186.022C185.886 128.73 185.752 128.786 185.656 128.882C185.56 128.98 185.505 129.113 185.505 129.25V347.515C185.505 347.652 185.56 347.786 185.656 347.883C185.752 347.98 185.886 348.035 186.022 348.035H383.283C383.419 348.035 383.553 347.98 383.646 347.883C383.743 347.786 383.797 347.652 383.797 347.515H383.283Z" fill="#1D2A30"/>
<path d="M373.949 145.45V229.267H195.36V222.088C195.36 221.803 195.127 221.572 194.84 221.572C194.553 221.572 194.32 221.803 194.32 222.088V229.784C194.32 229.92 194.376 230.052 194.473 230.149C194.57 230.246 194.703 230.3 194.84 230.3H374.467C374.607 230.3 374.74 230.246 374.834 230.149C374.935 230.052 374.989 229.92 374.989 229.784V145.45C374.989 145.165 374.755 144.934 374.467 144.934C374.183 144.934 373.949 145.165 373.949 145.45Z" fill="#1D2A30"/>
<path d="M195.36 203.277V138.588H374.467C374.755 138.588 374.989 138.358 374.989 138.074C374.989 137.789 374.755 137.559 374.467 137.559H194.84C194.703 137.559 194.57 137.613 194.473 137.709C194.376 137.805 194.32 137.938 194.32 138.074V203.277C194.32 203.561 194.553 203.792 194.84 203.792C195.127 203.792 195.36 203.561 195.36 203.277Z" fill="#1D2A30"/>
<path d="M195.789 216.526V208.766C195.789 208.471 195.46 208.23 195.055 208.23C194.65 208.23 194.32 208.471 194.32 208.766V216.526C194.32 216.822 194.65 217.061 195.055 217.061C195.46 217.061 195.789 216.822 195.789 216.526Z" fill="#1D2A30"/>
<path d="M343.196 239.116H383.272C383.56 239.116 383.797 238.787 383.797 238.381C383.797 237.974 383.56 237.645 383.272 237.645H343.196C342.906 237.645 342.67 237.974 342.67 238.381C342.67 238.787 342.906 239.116 343.196 239.116Z" fill="#1D2A30"/>
<path d="M329.916 239.116H334.871C335.125 239.116 335.331 238.787 335.331 238.381C335.331 237.974 335.125 237.645 334.871 237.645H329.916C329.662 237.645 329.456 237.974 329.456 238.381C329.456 238.787 329.662 239.116 329.916 239.116Z" fill="#1D2A30"/>
<path d="M186.022 239.116H323.059C323.344 239.116 323.576 238.787 323.576 238.381C323.576 237.974 323.344 237.645 323.059 237.645H186.022C185.736 237.645 185.505 237.974 185.505 238.381C185.505 238.787 185.736 239.116 186.022 239.116Z" fill="#1D2A30"/>
<path d="M185.712 311.983C185.872 312.114 188.4 314.546 190.204 326.193C190.243 326.443 190.459 326.628 190.716 326.63C190.973 326.631 191.192 326.449 191.234 326.198C191.234 326.198 191.285 325.892 191.384 325.349C191.729 323.449 192.65 318.682 193.92 314.38C194.553 312.23 195.277 310.194 196.041 308.714C196.422 307.973 196.814 307.374 197.186 306.977C197.561 306.574 197.894 306.401 198.142 306.386L198.241 306.383C198.479 306.384 198.672 306.447 198.871 306.578C199.217 306.806 199.562 307.296 199.837 307.984C200.256 309.013 200.522 310.445 200.673 311.919C200.826 313.394 200.87 314.915 200.87 316.15C200.87 316.93 200.852 317.597 200.835 318.067C200.818 318.538 200.802 318.809 200.802 318.809C200.784 319.089 200.997 319.331 201.279 319.354C201.562 319.378 201.812 319.171 201.841 318.893C201.841 318.893 201.85 318.805 201.872 318.642C201.95 318.067 202.195 316.6 202.719 315.326C202.979 314.69 203.311 314.107 203.691 313.711C204.077 313.314 204.469 313.108 204.955 313.106L205.115 313.114C205.254 313.13 205.34 313.173 205.453 313.285C205.619 313.451 205.792 313.819 205.896 314.337C206.004 314.855 206.054 315.51 206.053 316.239C206.054 318.183 205.707 320.637 205.357 322.588C205.182 323.565 205.007 324.419 204.876 325.027C204.745 325.635 204.658 325.994 204.658 325.995C204.594 326.262 204.751 326.529 205.016 326.609C205.281 326.687 205.561 326.548 205.656 326.291C205.656 326.291 205.712 326.139 205.819 325.866C206.195 324.912 207.193 322.506 208.468 320.369C209.104 319.301 209.811 318.301 210.52 317.593C211.231 316.877 211.926 316.496 212.479 316.504L212.544 316.506C212.647 316.514 212.695 316.535 212.761 316.589C212.859 316.666 212.987 316.875 213.071 317.224C213.157 317.57 213.203 318.04 213.202 318.592C213.206 321.053 212.329 325.065 211.445 328.418C211.004 330.097 210.563 331.619 210.231 332.72C209.9 333.82 209.681 334.496 209.68 334.497C209.612 334.71 209.689 334.942 209.871 335.072C210.053 335.203 210.3 335.203 210.483 335.072C210.483 335.072 210.569 335.01 210.737 334.896C211.324 334.496 212.866 333.487 214.709 332.586C216.549 331.681 218.702 330.898 220.427 330.903C221.395 330.905 222.2 331.135 222.817 331.668C223.589 332.34 223.888 333.238 223.894 334.327C223.899 336.014 223.101 338.057 222.282 339.646C221.874 340.442 221.465 341.129 221.159 341.615C221.005 341.857 220.878 342.05 220.789 342.18C220.701 342.312 220.654 342.377 220.654 342.377C220.53 342.552 220.526 342.782 220.646 342.959C220.764 343.137 220.98 343.224 221.19 343.179L221.291 343.158C221.767 343.064 223.89 342.677 226.383 342.677C228.31 342.676 230.456 342.911 232.214 343.658C233.977 344.412 235.335 345.613 235.889 347.652C235.963 347.927 236.248 348.091 236.527 348.018C236.805 347.944 236.971 347.662 236.897 347.387C236.263 345.007 234.586 343.53 232.625 342.709C230.659 341.881 228.393 341.647 226.383 341.647C223.412 341.647 220.992 342.167 220.97 342.171L221.08 342.674L221.506 342.972C221.515 342.959 222.361 341.774 223.213 340.113C224.061 338.447 224.931 336.317 224.937 334.327C224.941 333.054 224.552 331.795 223.504 330.892C222.649 330.152 221.557 329.87 220.427 329.872C218.113 329.881 215.514 330.986 213.449 332.066C211.389 333.151 209.883 334.229 209.871 334.237L210.177 334.655L210.673 334.812C210.676 334.806 211.564 332.066 212.455 328.677C213.344 325.281 214.241 321.263 214.245 318.592C214.243 317.785 214.168 317.096 213.943 316.536C213.829 316.257 213.671 316.003 213.442 315.807C213.214 315.611 212.909 315.489 212.595 315.476L212.479 315.473C211.905 315.474 211.361 315.676 210.859 315.988C209.982 316.538 209.194 317.432 208.464 318.461C206.29 321.544 204.686 325.918 204.676 325.937L205.165 326.114L205.673 326.233C205.675 326.214 207.092 320.345 207.096 316.238C207.095 315.206 207.011 314.283 206.761 313.543C206.634 313.173 206.464 312.841 206.21 312.575C205.96 312.31 205.606 312.122 205.216 312.088L204.955 312.074C204.011 312.072 203.254 312.584 202.721 313.243C201.913 314.236 201.46 315.606 201.177 316.74C200.897 317.875 200.805 318.774 200.803 318.788L201.322 318.84L201.842 318.872C201.843 318.864 201.912 317.74 201.912 316.15C201.912 314.23 201.814 311.638 201.357 309.478C201.126 308.396 200.811 307.42 200.333 306.665C200.094 306.289 199.809 305.964 199.459 305.727C199.109 305.49 198.688 305.35 198.241 305.352L198.061 305.358C197.332 305.421 196.742 305.882 196.221 306.504C195.308 307.608 194.519 309.348 193.796 311.371C191.642 317.429 190.209 326.016 190.205 326.03L190.719 326.114L191.235 326.036C189.282 313.498 186.521 311.308 186.341 311.161C186.112 310.989 185.785 311.033 185.61 311.261C185.437 311.488 185.482 311.811 185.712 311.983Z" fill="#1D2A30"/>
<path d="M236.26 340.944L236.297 340.92C236.688 340.668 240.217 338.573 243.626 338.584C244.473 338.584 245.31 338.71 246.097 339.01C246.308 339.091 246.548 339.029 246.691 338.856C246.834 338.682 246.846 338.439 246.722 338.252L246.712 338.237C246.589 338.059 245.513 336.29 245.524 334.547C245.529 333.614 245.798 332.718 246.641 331.94C246.919 331.691 247.136 331.621 247.361 331.618C247.567 331.618 247.809 331.69 248.085 331.859C248.569 332.151 249.116 332.729 249.625 333.433C250.393 334.488 251.094 335.817 251.595 336.875C251.845 337.404 252.046 337.866 252.185 338.195C252.324 338.524 252.397 338.714 252.398 338.715C252.485 338.944 252.727 339.079 252.972 339.038C253.217 338.997 253.4 338.79 253.406 338.546C253.406 338.545 253.412 338.315 253.433 337.901C253.506 336.453 253.766 332.81 254.581 329.572C254.986 327.955 255.536 326.44 256.232 325.375C256.58 324.842 256.962 324.425 257.362 324.151C257.766 323.875 258.179 323.735 258.656 323.733C258.766 323.734 258.879 323.741 258.997 323.757C259.802 323.881 260.261 324.253 260.613 324.899C260.956 325.546 261.119 326.487 261.116 327.573C261.119 329.746 260.49 332.459 259.854 334.609C259.536 335.684 259.218 336.621 258.98 337.288C258.861 337.622 258.762 337.887 258.694 338.069C258.624 338.251 258.586 338.346 258.586 338.346C258.499 338.567 258.576 338.818 258.773 338.953C258.971 339.089 259.237 339.074 259.417 338.916C259.417 338.916 259.53 338.819 259.739 338.642C260.471 338.027 262.364 336.478 264.466 335.094C265.516 334.403 266.618 333.753 267.642 333.283C268.663 332.81 269.611 332.528 270.298 332.532C270.852 332.539 271.189 332.68 271.445 332.995C271.937 333.621 272.124 334.297 272.126 335.022C272.131 336.224 271.565 337.535 270.976 338.528C270.683 339.024 270.389 339.442 270.169 339.733C270.06 339.879 269.969 339.992 269.906 340.069L269.834 340.156L269.812 340.182C269.66 340.355 269.644 340.607 269.773 340.798C269.901 340.989 270.144 341.073 270.366 341.003L270.413 340.99C270.658 340.919 271.827 340.613 273.391 340.614C275.481 340.617 278.237 341.147 280.558 343.461C280.656 343.558 280.791 343.613 280.93 343.613C281.069 343.613 281.205 343.558 281.301 343.46L281.376 343.388C281.754 343.02 283.562 341.311 286.154 339.589C288.743 337.865 292.118 336.135 295.59 335.69C295.745 335.67 295.883 335.583 295.965 335.452C296.047 335.321 296.066 335.161 296.015 335.015C296.015 335.015 295.965 334.872 295.874 334.606C295.56 333.674 294.772 331.265 294.066 328.529C293.357 325.797 292.733 322.725 292.735 320.532C292.727 319.318 292.949 318.392 293.293 318.007C293.448 317.832 293.512 317.829 293.569 317.825C293.611 317.825 293.684 317.84 293.795 317.903C294.001 318.017 294.297 318.305 294.601 318.727C295.689 320.207 296.907 323.19 297.818 325.764C298.274 327.054 298.661 328.247 298.933 329.117C299.204 329.986 299.361 330.529 299.361 330.53C299.427 330.76 299.643 330.913 299.885 330.903C300.127 330.892 300.329 330.721 300.375 330.486L300.396 330.382C300.51 329.847 301.09 327.354 302.367 324.944C303.002 323.739 303.812 322.558 304.804 321.65C305.798 320.741 306.957 320.105 308.341 319.935C308.567 319.907 308.747 319.741 308.79 319.522C308.831 319.304 308.726 319.084 308.526 318.977L308.49 318.957C308.293 318.847 307.321 318.275 306.424 317.364C305.521 316.452 304.722 315.228 304.725 313.814C304.726 313.363 304.804 312.888 304.99 312.379C305.19 311.839 305.462 311.524 305.788 311.319C306.116 311.116 306.524 311.019 307.01 311.018C308.21 311.011 309.798 311.652 311.043 312.318C311.667 312.65 312.211 312.982 312.597 313.231C312.79 313.356 312.943 313.46 313.048 313.531C313.152 313.603 313.204 313.641 313.204 313.641C313.391 313.776 313.647 313.773 313.83 313.635C314.014 313.497 314.084 313.254 313.999 313.042L313.963 312.946C313.79 312.487 313.082 310.424 313.085 308.37C313.084 307.442 313.228 306.524 313.598 305.756C313.972 304.988 314.549 304.361 315.5 303.943C315.973 303.738 316.394 303.655 316.778 303.653C317.55 303.655 318.221 303.994 318.838 304.566C319.761 305.42 320.479 306.788 320.94 307.937C321.172 308.512 321.343 309.031 321.456 309.403C321.512 309.591 321.553 309.741 321.581 309.843C321.608 309.945 321.619 309.996 321.619 309.996C321.677 310.236 321.899 310.402 322.149 310.392C322.398 310.382 322.607 310.199 322.643 309.956L322.657 309.87C322.731 309.435 323.125 307.384 324.084 305.494C324.563 304.549 325.181 303.648 325.942 303.002C326.707 302.356 327.591 301.957 328.698 301.954C328.828 301.954 328.962 301.96 329.099 301.971C329.86 302.039 330.429 302.294 330.898 302.686C331.599 303.271 332.071 304.21 332.353 305.302C332.636 306.392 332.73 307.619 332.73 308.725C332.73 309.664 332.663 310.519 332.596 311.134C332.563 311.442 332.53 311.691 332.506 311.861C332.481 312.032 332.465 312.119 332.465 312.12C332.424 312.359 332.56 312.596 332.789 312.684C333.02 312.772 333.284 312.688 333.417 312.484C333.417 312.484 333.489 312.374 333.626 312.175C334.101 311.48 335.342 309.728 336.764 308.171C337.474 307.391 338.231 306.662 338.942 306.142C339.651 305.618 340.317 305.331 340.761 305.339C340.866 305.339 340.96 305.352 341.048 305.377C341.822 305.603 342.435 306.055 342.948 306.699C343.717 307.662 344.222 309.064 344.517 310.59C344.815 312.116 344.909 313.762 344.909 315.209C344.909 316.38 344.848 317.422 344.786 318.168C344.756 318.542 344.726 318.841 344.703 319.047C344.68 319.252 344.665 319.359 344.665 319.359C344.638 319.56 344.734 319.758 344.91 319.864C345.087 319.969 345.311 319.962 345.48 319.847C345.48 319.847 345.557 319.794 345.704 319.698C346.22 319.36 347.564 318.507 349.097 317.746C350.624 316.981 352.368 316.326 353.544 316.335C353.851 316.335 354.114 316.377 354.324 316.456C354.534 316.536 354.693 316.646 354.826 316.805C354.96 316.974 355.015 317.137 355.018 317.366C355.034 317.905 354.573 318.795 353.789 319.722C352.625 321.121 350.826 322.641 349.327 323.794C348.577 324.371 347.901 324.859 347.414 325.202C347.17 325.373 346.972 325.508 346.837 325.601C346.703 325.693 346.631 325.74 346.631 325.741C346.448 325.861 346.363 326.079 346.415 326.288C346.468 326.496 346.646 326.65 346.864 326.674C346.864 326.674 346.977 326.686 347.197 326.718C348.737 326.931 355.272 328.104 359.427 331.94C359.638 332.133 359.968 332.123 360.166 331.916C360.36 331.71 360.349 331.385 360.14 331.191C357.581 328.842 354.298 327.474 351.655 326.675C349.011 325.878 347.001 325.659 346.979 325.656L346.921 326.165L347.213 326.59C347.223 326.583 349.388 325.15 351.569 323.315C352.661 322.395 353.757 321.377 354.596 320.37C355.428 319.357 356.045 318.374 356.06 317.366C356.064 316.942 355.927 316.512 355.638 316.164C355.385 315.854 355.055 315.633 354.695 315.498C354.334 315.364 353.945 315.311 353.544 315.311C352.67 315.313 351.718 315.557 350.756 315.906C347.88 316.956 344.904 318.996 344.885 319.006L345.181 319.427L345.699 319.494C345.701 319.48 345.952 317.621 345.952 315.209C345.951 313.221 345.784 310.861 345.147 308.816C344.827 307.794 344.388 306.847 343.771 306.069C343.156 305.292 342.349 304.686 341.343 304.395C341.152 304.34 340.956 304.315 340.761 304.315C339.802 304.327 338.89 304.865 337.977 305.583C336.617 306.669 335.273 308.247 334.252 309.561C333.234 310.874 332.546 311.922 332.541 311.929L332.979 312.206L333.493 312.293C333.495 312.275 333.771 310.698 333.773 308.725C333.77 307.174 333.608 305.381 332.968 303.873C332.647 303.119 332.201 302.433 331.575 301.908C330.953 301.381 330.149 301.032 329.191 300.951C329.024 300.937 328.859 300.93 328.698 300.93C327.229 300.926 326.013 301.528 325.081 302.386C323.679 303.676 322.835 305.524 322.315 307.048C321.798 308.575 321.615 309.786 321.612 309.806L322.127 309.881L322.635 309.764C322.629 309.742 322.225 308.03 321.326 306.28C320.873 305.405 320.298 304.517 319.556 303.824C318.819 303.132 317.882 302.629 316.778 302.63C316.236 302.63 315.664 302.752 315.077 303.008C313.898 303.517 313.112 304.361 312.656 305.319C312.196 306.278 312.043 307.342 312.043 308.37C312.047 310.968 313.02 313.384 313.028 313.416L313.514 313.228L313.823 312.817C313.81 312.807 312.855 312.116 311.538 311.417C310.216 310.722 308.552 310.003 307.01 309.994C306.386 309.994 305.767 310.12 305.232 310.454C304.693 310.785 304.266 311.32 304.008 312.033C303.783 312.647 303.682 313.246 303.682 313.814C303.688 315.742 304.811 317.255 305.877 318.276C306.951 319.301 308.003 319.862 308.029 319.876L308.278 319.427L308.213 318.919C306.463 319.132 305.021 319.987 303.874 321.109C302.15 322.796 301.037 325.084 300.335 326.952C299.635 328.822 299.355 330.277 299.35 330.296L299.862 330.391L300.365 330.252C300.362 330.245 299.42 326.967 298.154 323.671C297.52 322.023 296.807 320.372 296.076 319.104C295.708 318.469 295.337 317.93 294.945 317.523C294.749 317.319 294.545 317.148 294.32 317.018C294.097 316.89 293.844 316.802 293.569 316.801C293.149 316.797 292.759 317.024 292.49 317.354C291.868 318.115 291.702 319.22 291.693 320.532C291.696 323.237 292.534 326.912 293.365 329.946C294.197 332.974 295.027 335.342 295.029 335.349L295.522 335.182L295.454 334.674C291.479 335.191 287.774 337.215 285.046 339.095C282.32 340.977 280.573 342.728 280.557 342.743L280.929 343.101L281.3 342.742C278.735 340.18 275.651 339.587 273.391 339.59C271.446 339.591 270.083 340.018 270.048 340.028L270.206 340.516L270.602 340.849C270.615 340.833 271.244 340.117 271.879 339.041C272.51 337.963 273.164 336.528 273.169 335.022C273.171 334.12 272.918 333.185 272.269 332.367C271.791 331.755 271.049 331.501 270.298 331.508C269.21 331.513 267.994 331.956 266.727 332.58C262.949 334.463 258.744 338.138 258.726 338.15L259.071 338.533L259.557 338.72C259.56 338.71 260.206 337.09 260.855 334.894C261.502 332.695 262.156 329.929 262.159 327.573C262.157 326.394 261.998 325.31 261.54 324.429C261.089 323.548 260.264 322.891 259.145 322.745C258.979 322.721 258.817 322.71 258.656 322.71C257.854 322.707 257.131 323.003 256.535 323.482C255.489 324.323 254.764 325.679 254.198 327.234C252.523 331.893 252.368 338.495 252.363 338.521L252.884 338.533L253.372 338.352C253.367 338.338 252.644 336.466 251.574 334.571C251.037 333.623 250.416 332.667 249.73 331.923C249.386 331.55 249.025 331.229 248.636 330.99C248.247 330.752 247.819 330.595 247.361 330.594C246.856 330.591 246.35 330.802 245.93 331.191C244.849 332.176 244.476 333.415 244.481 334.547C244.494 336.816 245.832 338.774 245.85 338.814L246.286 338.533L246.475 338.056C245.545 337.701 244.577 337.56 243.626 337.56C241.587 337.562 239.617 338.198 238.147 338.825C236.677 339.451 235.706 340.076 235.689 340.087C235.448 340.242 235.381 340.559 235.538 340.796C235.696 341.033 236.019 341.098 236.26 340.944Z" fill="#1D2A30"/>
<path d="M383.809 314.636C383.802 314.593 383.572 312.441 382.237 310.19C381.571 309.064 380.624 307.914 379.286 307.016C377.947 306.118 376.223 305.481 374.05 305.368C373.942 305.362 373.841 305.359 373.74 305.359C372.567 305.351 371.635 305.759 371.066 306.494C370.501 307.226 370.303 308.185 370.3 309.245C370.31 312.062 371.71 315.82 373.092 318.937C374.478 322.047 375.86 324.48 375.863 324.489L376.317 324.23L376.651 323.827C376.641 323.818 375.338 322.736 373.639 321.645C372.793 321.101 371.847 320.553 370.904 320.135C369.961 319.718 369.029 319.422 368.155 319.419C367.622 319.419 367.097 319.539 366.658 319.851C366.442 320.003 366.273 320.21 366.168 320.442C366.064 320.673 366.024 320.922 366.024 321.171C366.028 321.651 366.168 322.146 366.388 322.676C367.158 324.51 368.961 326.818 370.584 328.722C372.207 330.617 373.643 332.075 373.65 332.081L374.021 331.713L374.377 331.328C374.355 331.311 373.474 330.494 372.063 329.67C370.649 328.849 368.702 328.012 366.535 328.009C365.866 328.009 365.175 328.091 364.48 328.28C363.771 328.466 363.228 328.915 362.918 329.495C362.602 330.075 362.487 330.76 362.487 331.5C362.494 333.822 363.613 336.852 364.711 339.36C365.816 341.861 366.913 343.809 366.917 343.818L367.37 343.56L367.503 343.053C367.471 343.046 364.844 342.359 360.777 342.359C356.829 342.359 351.519 343.007 345.929 345.571C345.666 345.69 345.55 346.001 345.671 346.264C345.791 346.528 346.101 346.644 346.364 346.523C351.785 344.037 356.942 343.406 360.777 343.406C362.753 343.406 364.376 343.573 365.502 343.739C366.064 343.822 366.503 343.906 366.798 343.967C366.945 343.998 367.061 344.023 367.133 344.041L367.241 344.067C367.442 344.121 367.658 344.047 367.788 343.88C367.914 343.713 367.932 343.486 367.827 343.303C367.827 343.303 367.762 343.186 367.644 342.969C367.233 342.208 366.197 340.235 365.265 337.997C364.336 335.764 363.523 333.242 363.53 331.5C363.53 330.87 363.638 330.354 363.833 329.999C364.034 329.645 364.293 329.422 364.754 329.291C365.355 329.128 365.949 329.057 366.535 329.057C368.425 329.054 370.217 329.807 371.534 330.576C372.192 330.959 372.732 331.344 373.103 331.631C373.286 331.774 373.43 331.892 373.528 331.975L373.636 332.068L373.664 332.098C373.873 332.291 374.201 332.281 374.399 332.077C374.593 331.873 374.593 331.547 374.395 331.344C374.391 331.344 374.28 331.229 374.078 331.019C373.369 330.28 371.588 328.383 369.997 326.362C369.202 325.355 368.457 324.313 367.917 323.385C367.374 322.463 367.061 321.63 367.071 321.171C367.071 321.035 367.093 320.938 367.125 320.87L367.259 320.706C367.478 320.55 367.77 320.468 368.155 320.467C368.781 320.464 369.612 320.704 370.479 321.092C371.786 321.671 373.171 322.559 374.222 323.302C374.748 323.673 375.19 324.007 375.5 324.248C375.654 324.369 375.777 324.466 375.86 324.533L375.982 324.634C376.18 324.795 376.461 324.794 376.655 324.632C376.849 324.469 376.896 324.192 376.774 323.972C376.774 323.972 376.687 323.825 376.54 323.552C376.022 322.599 374.712 320.13 373.538 317.337C372.365 314.549 371.34 311.412 371.347 309.245C371.343 308.314 371.534 307.591 371.89 307.139C372.246 306.693 372.775 306.415 373.74 306.407L373.995 306.413C375.996 306.52 377.519 307.093 378.703 307.887C380.477 309.076 381.499 310.789 382.075 312.22C382.363 312.934 382.539 313.575 382.64 314.032C382.69 314.262 382.722 314.445 382.744 314.569L382.766 314.709L382.769 314.75C382.802 315.037 383.061 315.245 383.349 315.213C383.633 315.182 383.842 314.923 383.809 314.636Z" fill="#1D2A30"/>
<path d="M465.63 425.528V322.585H581.582C581.867 322.585 582.101 322.352 582.101 322.066C582.101 321.779 581.867 321.547 581.582 321.547H465.112C464.975 321.547 464.842 321.603 464.745 321.699C464.648 321.796 464.594 321.93 464.594 322.066V425.528C464.594 425.813 464.824 426.048 465.112 426.048C465.396 426.048 465.63 425.813 465.63 425.528Z" fill="#1D2A30"/>
<path d="M577.174 333.328H475.383C475.246 333.328 475.116 333.383 475.019 333.479C474.922 333.576 474.868 333.709 474.868 333.846V429.952C474.868 430.237 475.098 430.471 475.383 430.471C475.667 430.471 475.894 430.237 475.894 429.952V334.363H577.174C577.458 334.363 577.689 334.131 577.689 333.846C577.689 333.56 577.458 333.328 577.174 333.328Z" fill="#1D2A30"/>
<path d="M496.467 385.803V343.212H502.146V351.586C502.146 351.723 502.2 351.857 502.297 351.955C502.395 352.053 502.524 352.108 502.661 352.108H511.615C511.748 352.108 511.881 352.053 511.978 351.955C512.075 351.857 512.129 351.723 512.129 351.586V348.12H519.097V352.435C519.097 352.573 519.15 352.708 519.244 352.805C519.341 352.902 519.474 352.957 519.611 352.957H530.411C530.544 352.957 530.677 352.902 530.775 352.805C530.872 352.708 530.926 352.573 530.926 352.435V343.212H540.934V349.239C540.934 349.376 540.991 349.51 541.089 349.607C541.182 349.705 541.315 349.761 541.452 349.761H547.408C547.545 349.761 547.678 349.705 547.775 349.607C547.869 349.51 547.926 349.376 547.926 349.239V345.957H557.56V370.819C557.56 371.108 557.794 371.342 558.078 371.342C558.363 371.342 558.597 371.108 558.597 370.819V345.435C558.597 345.298 558.539 345.163 558.445 345.066C558.348 344.969 558.215 344.913 558.078 344.913H547.408C547.271 344.913 547.138 344.969 547.041 345.066C546.947 345.163 546.89 345.298 546.89 345.435V348.717H541.97V342.69C541.97 342.553 541.913 342.419 541.819 342.322C541.722 342.224 541.589 342.168 541.452 342.168H530.411C530.274 342.168 530.141 342.224 530.044 342.322C529.947 342.419 529.893 342.553 529.893 342.69V351.913H520.129V347.598C520.129 347.461 520.072 347.327 519.978 347.229C519.881 347.132 519.748 347.076 519.611 347.076H511.615C511.478 347.076 511.345 347.132 511.248 347.229C511.15 347.327 511.096 347.461 511.096 347.598V351.064H503.179V342.69C503.179 342.553 503.125 342.419 503.028 342.322C502.931 342.224 502.798 342.168 502.661 342.168H495.953C495.816 342.168 495.683 342.224 495.586 342.322C495.489 342.419 495.435 342.553 495.435 342.69V385.803C495.435 386.091 495.665 386.322 495.953 386.322C496.237 386.322 496.467 386.091 496.467 385.803Z" fill="#1D2A30"/>
<path d="M540.967 354.425V360.77C540.967 361.05 541.298 361.277 541.701 361.277C542.108 361.277 542.435 361.05 542.435 360.77V354.425C542.435 354.145 542.108 353.918 541.701 353.918C541.298 353.918 540.967 354.145 540.967 354.425Z" fill="#1D2A30"/>
<path d="M540.967 366.234V393.15C540.967 393.438 541.298 393.673 541.701 393.673C542.108 393.673 542.435 393.438 542.435 393.15V366.234C542.435 365.942 542.108 365.711 541.701 365.711C541.298 365.711 540.967 365.942 540.967 366.234Z" fill="#1D2A30"/>
<path d="M529.217 352.973V376.954C529.217 377.243 529.544 377.474 529.951 377.474C530.354 377.474 530.685 377.243 530.685 376.954V352.973C530.685 352.686 530.354 352.453 529.951 352.453C529.544 352.453 529.217 352.686 529.217 352.973Z" fill="#1D2A30"/>
<path d="M529.217 383.892V391.646C529.217 391.941 529.544 392.183 529.951 392.183C530.354 392.183 530.685 391.941 530.685 391.646V383.892C530.685 383.593 530.354 383.352 529.951 383.352C529.544 383.352 529.217 383.593 529.217 383.892Z" fill="#1D2A30"/>
<path d="M510.125 351.485V384.312C510.125 384.597 510.453 384.824 510.859 384.824C511.266 384.824 511.593 384.597 511.593 384.312V351.485C511.593 351.202 511.266 350.973 510.859 350.973C510.453 350.973 510.125 351.202 510.125 351.485Z" fill="#1D2A30"/>
<path d="M501.311 351.489V363.725C501.311 364.006 501.638 364.23 502.045 364.23C502.451 364.23 502.779 364.006 502.779 363.725V351.489C502.779 351.211 502.451 350.984 502.045 350.984C501.638 350.984 501.311 351.211 501.311 351.489Z" fill="#1D2A30"/>
<path d="M501.311 370.636V400.509C501.311 400.794 501.638 401.025 502.045 401.025C502.451 401.025 502.779 400.794 502.779 400.509V370.636C502.779 370.352 502.451 370.117 502.045 370.117C501.638 370.117 501.311 370.352 501.311 370.636Z" fill="#1D2A30"/>
<path d="M529.217 398.642V404.909C529.217 405.209 529.544 405.454 529.951 405.454C530.354 405.454 530.685 405.209 530.685 404.909V398.642C530.685 398.339 530.354 398.094 529.951 398.094C529.544 398.094 529.217 398.339 529.217 398.642Z" fill="#1D2A30"/>
<path d="M497.968 435.374V425.631H511.276V431.725C511.276 431.862 511.33 431.999 511.431 432.1C511.528 432.197 511.665 432.255 511.805 432.255H522.828V444.646C522.828 444.783 522.886 444.92 522.983 445.017C523.084 445.118 523.221 445.176 523.357 445.176H529.983C530.123 445.176 530.26 445.118 530.357 445.017C530.458 444.92 530.515 444.783 530.515 444.646V426.024H544.126V429.94C544.126 430.08 544.184 430.217 544.281 430.315C544.381 430.412 544.518 430.47 544.655 430.47H553.666C553.958 430.47 554.195 430.232 554.195 429.94C554.195 429.648 553.958 429.41 553.666 429.41H545.188V425.493C545.188 425.353 545.13 425.216 545.033 425.118C544.932 425.017 544.795 424.963 544.655 424.963H529.983C529.846 424.963 529.709 425.017 529.608 425.118C529.511 425.216 529.454 425.353 529.454 425.493V444.115H523.89V431.725C523.89 431.584 523.832 431.447 523.732 431.35C523.635 431.249 523.498 431.191 523.357 431.191H512.334V425.1C512.334 424.96 512.277 424.823 512.18 424.725C512.079 424.624 511.942 424.57 511.805 424.57H497.439C497.299 424.57 497.166 424.624 497.065 424.725C496.968 424.823 496.91 424.96 496.91 425.1V435.374C496.91 435.666 497.148 435.904 497.439 435.904C497.734 435.904 497.968 435.666 497.968 435.374Z" fill="#1D2A30"/>
<path d="M543.906 429.52V440.262C543.906 440.547 544.234 440.778 544.64 440.778C545.043 440.778 545.375 440.547 545.375 440.262V429.52C545.375 429.235 545.043 429.004 544.64 429.004C544.234 429.004 543.906 429.235 543.906 429.52Z" fill="#1D2A30"/>
<path d="M529.217 448.673V456.401C529.217 456.707 529.544 456.952 529.951 456.952C530.354 456.952 530.685 456.707 530.685 456.401V448.673C530.685 448.37 530.354 448.121 529.951 448.121C529.544 448.121 529.217 448.37 529.217 448.673Z" fill="#1D2A30"/>
<path d="M511.586 431.049V437.237C511.586 437.562 511.913 437.825 512.32 437.825C512.727 437.825 513.054 437.562 513.054 437.237V431.049C513.054 430.728 512.727 430.465 512.32 430.465C511.913 430.465 511.586 430.728 511.586 431.049Z" fill="#1D2A30"/>
<path d="M349.475 285.739V285.256H337.868V279.829H348.937V285.739L349.475 285.739L350.013 285.739V279.346C350.013 279.219 349.956 279.094 349.856 279.004C349.755 278.914 349.617 278.863 349.475 278.863H337.331C337.189 278.863 337.051 278.914 336.95 279.004C336.85 279.094 336.793 279.219 336.793 279.346V285.739C336.793 285.866 336.85 285.99 336.95 286.081C337.051 286.17 337.189 286.222 337.331 286.222H349.475C349.617 286.222 349.755 286.17 349.856 286.081C349.956 285.99 350.013 285.866 350.013 285.739L349.475 285.739Z" fill="#1D2A30"/>
<path d="M345.433 424.913C345.433 424.913 334.541 426.754 329.907 430.227C324.842 434.022 320.988 442.996 320.988 442.996L313.184 432.472L311.33 461.104C311.33 461.104 213.997 446.293 217.603 438.049C209.693 436.235 198.679 434.152 188.571 433.414C186.211 433.242 198.763 390.223 209.233 384.046C220.769 376.177 241.41 376.256 241.41 376.256C241.41 376.256 246.718 373.454 251.368 373.681C256.019 373.912 290.702 378.618 292.883 379.721C295.063 380.814 297.493 381.444 297.493 381.444C297.493 381.444 309.013 377.265 321.115 382.206C321.115 382.206 328.052 387.729 331.311 395.786C334.57 403.843 342.007 418.724 342.007 418.724" fill="#EF7E22"/>
<path d="M295.842 381.898L296.052 382.374L296.482 382.085C296.454 382.056 294.818 379.529 292.46 378.331C292.234 378.223 291.964 378.147 291.565 378.05C290.097 377.708 287.083 377.246 283.276 376.734C277.573 375.966 270.122 375.093 263.687 374.393C257.247 373.69 251.84 373.164 250.167 373.077C249.98 373.07 249.794 373.066 249.609 373.066C244.969 373.077 241.155 375.807 241.112 375.829L241.41 376.258L241.404 375.735C241.387 375.735 235.026 375.807 227.374 377.134C219.722 378.472 210.773 381.029 205.538 386.175C199.213 392.413 188.664 420.94 187.079 434.833L188.571 433.416C190.829 419.688 200.084 393.008 206.262 386.921C211.178 382.056 219.984 379.471 227.55 378.165C231.332 377.509 234.803 377.163 237.326 376.979C238.587 376.889 239.612 376.838 240.32 376.813C241.028 376.784 241.414 376.781 241.415 376.781C241.519 376.781 241.622 376.745 241.707 376.687L241.743 376.662C242.13 376.391 245.645 374.101 249.609 374.112C249.777 374.112 249.947 374.116 250.116 374.123C252.406 374.235 262.399 375.259 272.055 376.391C276.885 376.957 281.637 377.549 285.315 378.072C287.153 378.328 288.723 378.573 289.894 378.782C290.48 378.887 290.965 378.984 291.33 379.071C291.69 379.154 291.949 379.24 291.997 379.265L291.999 379.269C293 379.767 293.922 380.621 294.577 381.35C294.906 381.714 295.169 382.049 295.349 382.287C295.439 382.406 295.508 382.504 295.554 382.568L295.62 382.666C295.76 382.879 296.031 382.958 296.262 382.853L296.322 382.828" fill="#1D2A30"/>
<path d="M307.886 421.85C307.886 421.85 307.852 421.901 307.775 421.998C307.237 422.694 304.757 425.777 300.242 429.629C300.025 429.813 300.017 430.119 300.226 430.314C300.434 430.509 300.779 430.516 300.996 430.328C306.232 425.864 308.78 422.406 308.798 422.384C308.964 422.161 308.893 421.858 308.641 421.713C308.389 421.566 308.051 421.627 307.886 421.85Z" fill="#1D2A30"/>
<path d="M293.382 435.01C285.223 441.455 273.489 447.956 257.931 449.997C257.65 450.034 257.45 450.308 257.484 450.611C257.519 450.91 257.775 451.123 258.057 451.087C273.817 449.02 285.724 442.428 293.993 435.89C294.221 435.71 294.27 435.368 294.1 435.122C293.932 434.881 293.61 434.83 293.382 435.01Z" fill="#1D2A30"/>
<path d="M288.332 361.238V383.324C288.332 383.324 284.528 385.96 279.577 388.589C273.5 391.784 265.704 394.946 261.066 393.147C252.655 389.869 247.204 377.276 247.204 377.276C256.282 370.41 257.376 361.238 258.752 356.875L288.332 361.238Z" fill="#F3B783"/>
<path d="M289.274 360.343H288.748V382.685H289.274L288.973 382.256C288.972 382.256 288.738 382.418 288.303 382.71C286.998 383.579 283.91 385.566 280.182 387.55L280.184 387.546C275.319 390.117 269.332 392.641 264.911 392.627C263.798 392.627 262.791 392.472 261.924 392.136C257.852 390.553 254.388 386.619 251.983 383.06C250.778 381.282 249.833 379.602 249.191 378.368C248.87 377.752 248.625 377.247 248.46 376.897C248.378 376.724 248.317 376.587 248.275 376.497L248.214 376.36L247.731 376.565L248.05 376.98C257.393 369.916 258.532 360.401 259.898 356.085L259.395 355.929L259.318 356.446L289.197 360.861L289.274 360.343L289.352 359.825L259.473 355.412C259.216 355.374 258.97 355.527 258.893 355.773C257.48 360.284 256.408 369.328 247.411 376.151C247.219 376.295 247.152 376.551 247.247 376.771C247.255 376.793 248.642 379.998 251.109 383.644C253.581 387.283 257.116 391.376 261.54 393.11C262.561 393.507 263.7 393.673 264.911 393.673C269.705 393.666 275.738 391.066 280.677 388.473L280.679 388.469C285.71 385.797 289.565 383.121 289.576 383.114C289.717 383.017 289.801 382.858 289.801 382.685V360.343C289.801 360.084 289.61 359.864 289.352 359.825L289.274 360.343Z" fill="#1D2A30"/>
<path d="M242.836 378.253C242.844 378.271 244.744 382.627 247.812 387.398C249.346 389.785 251.172 392.273 253.208 394.376C255.246 396.482 257.497 398.205 259.907 399.028C261.011 399.403 262.19 399.565 263.408 399.565C268.17 399.558 273.576 397.113 277.831 394.693C282.082 392.27 285.167 389.85 285.18 389.839C285.406 389.662 285.453 389.324 285.284 389.086C285.116 388.848 284.794 388.797 284.567 388.974C284.566 388.977 284.382 389.122 284.032 389.381C282.808 390.29 279.606 392.58 275.725 394.632C271.848 396.687 267.283 398.494 263.408 398.487C262.276 398.487 261.205 398.335 260.223 398C258.037 397.261 255.893 395.641 253.927 393.608C250.975 390.56 248.424 386.601 246.623 383.409C245.722 381.812 245.006 380.409 244.517 379.403C244.273 378.902 244.084 378.502 243.958 378.224C243.832 377.95 243.768 377.802 243.768 377.802C243.65 377.532 243.345 377.413 243.088 377.539C242.831 377.661 242.718 377.982 242.836 378.253Z" fill="#1D2A30"/>
<path d="M254.529 414.328L273.055 450.014L273.637 454.02L270.713 451.251L251.604 415.814C251.604 415.814 252.483 413.967 254.529 414.328Z" fill="white"/>
<path d="M253.85 413.382L253.38 413.635L273.432 449.62L273.823 452.126L271.828 450.367L251.142 414.626L250.677 414.886L251.156 415.12L250.987 415.038L251.154 415.124L251.156 415.12L250.987 415.038L251.154 415.124C251.158 415.113 251.342 414.778 251.698 414.464C252.058 414.15 252.562 413.862 253.288 413.862C253.436 413.862 253.593 413.873 253.762 413.902L253.85 413.382L253.939 412.867C253.713 412.827 253.496 412.813 253.288 412.813C252.218 412.809 251.426 413.278 250.936 413.728C250.442 414.179 250.218 414.616 250.199 414.652C250.119 414.81 250.124 414.994 250.213 415.146L270.941 450.958L271.049 451.091L274.221 453.886C274.389 454.034 274.634 454.066 274.833 453.958C275.032 453.854 275.141 453.637 275.107 453.417L274.475 449.371L274.416 449.198L254.319 413.13C254.24 412.989 254.1 412.892 253.939 412.867L253.85 413.382Z" fill="#1D2A30"/>
<path d="M459.991 460.306H325.593L324.037 455.812H364.814C365.07 457.81 366.779 459.354 368.841 459.354H462.924C462.1 459.952 461.088 460.306 459.991 460.306ZM317.475 456.292C315.393 456.292 313.107 456.097 310.717 455.812H322.252C320.845 456.151 319.233 456.292 317.475 456.292Z" fill="#C0BFBD"/>
<path d="M462.92 459.342H368.838C366.775 459.342 365.066 457.802 364.811 455.805H368.906C369.125 456.836 370.018 457.55 371.288 457.55H464.45C464.208 458.022 463.895 458.455 463.521 458.827C463.334 459.014 463.132 459.187 462.92 459.342Z" fill="#C0BFBD"/>
<path d="M299.869 454.596V455.177H465.543V454.596H465.029C465.025 456.15 464.467 457.55 463.564 458.567C462.657 459.584 461.412 460.211 460.03 460.211H313.137C312.617 460.211 312.1 460.121 311.604 459.94L299.801 455.664L299.681 455.574L299.648 455.437L299.706 455.249C299.744 455.209 299.77 455.18 299.869 455.177V454.016C299.494 454.012 299.152 454.196 298.937 454.47C298.72 454.744 298.613 455.09 298.613 455.437C298.612 455.707 298.68 455.985 298.828 456.23C298.974 456.471 299.207 456.67 299.484 456.771L311.287 461.048C311.885 461.264 312.508 461.376 313.137 461.376H460.03C463.363 461.376 466.062 458.339 466.062 454.596C466.062 454.445 466.004 454.293 465.911 454.185C465.813 454.077 465.68 454.016 465.543 454.016H299.869V454.596Z" fill="#1D2A30"/>
<path d="M364.714 454.622C364.714 457.543 366.733 459.912 369.223 459.912H384.766C385.047 459.912 385.277 459.642 385.277 459.31C385.277 458.982 385.047 458.711 384.766 458.711H369.223C367.294 458.708 365.74 456.879 365.736 454.622C365.736 454.29 365.506 454.023 365.225 454.023C364.941 454.023 364.714 454.29 364.714 454.622Z" fill="#1D2A30"/>
<path d="M495.345 387.702L495.313 387.836L476.063 453.939C475.577 455.602 473.756 456.947 471.996 456.947H371.544C369.788 456.947 368.751 455.602 369.23 453.939L388.491 387.836C388.976 386.173 390.787 384.828 392.557 384.828H493.006C494.715 384.828 495.748 386.101 495.345 387.702Z" fill="#C0BFBD"/>
<path d="M471.83 457.514H371.964L371.996 457.377L391.264 390.113C391.75 388.421 393.574 387.055 395.331 387.055H495.196L495.164 387.188L490.101 404.872L489.802 405.907L487.941 412.406L487.643 413.444L475.896 454.453C475.41 456.144 473.589 457.514 471.83 457.514Z" fill="white"/>
<path d="M494.82 386.852L494.316 386.733L494.283 386.855L474.969 454.686C474.767 455.407 474.26 456.1 473.598 456.597C472.939 457.095 472.137 457.398 471.392 457.394H370.597C369.971 457.394 369.5 457.196 369.18 456.893C368.863 456.587 368.676 456.168 368.676 455.642C368.676 455.436 368.704 455.213 368.773 454.975L388.098 387.129C388.303 386.408 388.811 385.719 389.469 385.222C390.128 384.724 390.927 384.421 391.679 384.425H492.473C493.092 384.425 493.564 384.623 493.884 384.922C494.201 385.225 494.384 385.636 494.388 386.156C494.388 386.332 494.366 386.523 494.316 386.725V386.733L494.82 386.852L495.323 386.978C495.392 386.697 495.424 386.423 495.424 386.156C495.428 385.373 495.126 384.659 494.593 384.158C494.06 383.657 493.315 383.375 492.473 383.379H391.679C390.657 383.379 389.66 383.768 388.847 384.385C388.03 385.005 387.386 385.86 387.101 386.841L367.772 454.686C367.683 455.011 367.636 455.332 367.636 455.642C367.636 456.428 367.934 457.149 368.467 457.654C369 458.159 369.748 458.444 370.598 458.44H471.392C472.41 458.44 473.403 458.051 474.22 457.434C475.037 456.814 475.685 455.959 475.969 454.975L495.288 387.129L495.295 387.108L495.327 386.971L494.82 386.852Z" fill="#1D2A30"/>
<path d="M439.618 421.425C437.901 424.901 433.752 427.541 429.699 427.541C425.183 427.541 422.524 424.252 423.765 420.188C425.003 416.12 429.671 412.824 434.187 412.824H434.306C434.104 413.224 433.939 413.643 433.806 414.072C432.579 418.1 435.17 421.363 439.618 421.425Z" fill="#042CB0"/>
<path d="M439.1 422.185L438.632 421.961C437.128 425.337 433.375 427.947 429.819 427.933C428.167 427.929 426.843 427.385 425.932 426.501C425.018 425.614 424.496 424.385 424.496 422.917C424.496 422.329 424.579 421.709 424.759 421.06C425.299 419.105 426.612 417.298 428.3 415.989C429.988 414.68 432.039 413.88 434.019 413.88H434.13V413.346L433.663 413.115C433.461 413.555 433.295 414.013 433.166 414.482C432.961 415.221 432.86 415.946 432.86 416.639C432.856 418.352 433.479 419.877 434.584 420.966C435.685 422.051 437.25 422.693 439.093 422.718L439.1 422.185L439.107 421.651C437.484 421.622 436.192 421.071 435.296 420.191C434.404 419.307 433.896 418.088 433.893 416.639C433.893 416.051 433.979 415.427 434.159 414.778C434.274 414.363 434.422 413.959 434.598 413.577C434.674 413.408 434.663 413.216 434.566 413.061C434.472 412.906 434.307 412.812 434.13 412.812H434.019C431.77 412.812 429.524 413.707 427.678 415.135C425.835 416.566 424.385 418.539 423.766 420.764C423.561 421.503 423.46 422.224 423.46 422.917C423.456 424.648 424.097 426.191 425.223 427.284C426.35 428.373 427.948 429.004 429.819 429C433.85 428.986 437.862 426.177 439.568 422.412C439.644 422.246 439.629 422.051 439.539 421.9C439.446 421.748 439.28 421.651 439.107 421.651L439.1 422.185Z" fill="#1D2A30"/>
<path d="M373.06 453.65L391.766 388.729C391.867 388.372 392.129 388.015 392.478 387.752C392.828 387.492 393.249 387.341 393.627 387.341H490.512C490.797 387.341 491.027 387.11 491.027 386.828C491.027 386.544 490.797 386.316 490.512 386.316H393.627C392.982 386.316 392.367 386.558 391.863 386.933C391.359 387.312 390.956 387.831 390.776 388.448L372.07 453.365C371.994 453.639 372.149 453.924 372.423 453.999C372.696 454.079 372.984 453.92 373.06 453.65Z" fill="#1D2A30"/>
<path d="M325.053 461.376H186.981L188.652 457.265C188.652 457.265 201.659 458.675 211.997 454.892C216.563 453.215 223.592 452.436 230.642 452.559C235.084 452.631 245.896 452.681 252.606 452.642H252.616C255.007 452.631 256.883 452.606 257.749 452.57C258.089 452.544 258.429 452.544 258.759 452.544C260.738 452.523 262.634 452.739 264.459 453.179C266.128 452.959 267.943 452.826 269.911 452.862C271.446 452.887 275.421 452.873 279.547 452.862C283.983 452.844 288.591 452.829 290.525 452.862C295.441 452.934 301.12 454.055 306.511 454.953L306.655 454.892L306.686 454.979C313.2 456.05 319.302 456.778 323.146 454.892L325.053 461.376Z" fill="white"/>
<path d="M325.765 460.811H218.23L220.415 457.042C220.415 457.042 223.612 458.914 227.593 458.914C229.006 458.914 230.517 458.679 232.021 458.041C237.756 455.61 243.533 454.41 252.995 453.36H253.005C255.407 453.353 257.291 453.331 258.161 453.299C258.503 453.277 258.844 453.277 259.175 453.277C265.957 453.786 271.195 456.018 271.195 456.018C271.195 456.018 276.837 453.548 291.083 453.548C296.021 453.609 301.726 454.565 307.14 455.333L307.285 455.279L307.316 455.354C310.931 455.856 314.418 456.274 317.467 456.274C319.938 456.274 322.121 456 323.85 455.279L325.765 460.811Z" fill="#C8C8C8"/>
<path d="M220.415 457.047L188.756 457.307L187.079 460.815H218.231L220.415 457.047Z" fill="white"/>
<path d="M219.576 459.541L220.866 457.32L220.418 457.057L220.199 457.525C220.235 457.54 224.232 459.426 228.829 459.429C228.988 459.429 229.147 459.43 229.307 459.422C230.54 459.386 231.872 458.997 233.401 458.459C237.98 456.844 244.377 453.804 254.353 453.8C254.677 453.8 255.004 453.804 255.335 453.808C255.621 453.815 255.857 453.588 255.863 453.299C255.869 453.014 255.641 452.776 255.356 452.773C255.017 452.765 254.683 452.762 254.353 452.762C247.563 452.762 242.361 454.154 238.313 455.553C236.289 456.252 234.553 456.952 233.057 457.482C231.562 458.009 230.308 458.358 229.277 458.387C229.127 458.391 228.977 458.394 228.829 458.394C226.672 458.394 224.614 457.94 223.101 457.489C222.345 457.262 221.724 457.035 221.296 456.865C221.081 456.779 220.914 456.71 220.803 456.66C220.691 456.613 220.638 456.588 220.638 456.588C220.394 456.472 220.106 456.563 219.971 456.797L218.681 459.018C218.537 459.267 218.621 459.585 218.868 459.729C219.115 459.873 219.432 459.79 219.576 459.541Z" fill="#1D2A30"/>
<path d="M264.722 454.295C267.335 455.257 271.028 456.498 271.03 456.502C271.17 456.548 271.325 456.53 271.453 456.458L271.459 456.455C271.652 456.346 275.903 454.035 284.978 454.035C285.463 454.035 285.963 454.042 286.476 454.057C286.762 454.064 287 453.837 287.008 453.552C287.015 453.267 286.791 453.025 286.505 453.018C285.982 453.007 285.473 453 284.978 453C275.427 452.996 271.006 455.517 270.937 455.56L271.195 456.007L271.36 455.517C271.358 455.517 270.438 455.207 269.192 454.778C267.945 454.349 266.374 453.797 265.079 453.325C264.81 453.224 264.513 453.361 264.415 453.631C264.316 453.898 264.454 454.197 264.722 454.295Z" fill="#1D2A30"/>
<path d="M220.417 456.524C220.417 456.524 204.037 456.819 197.482 456.956C197.196 456.96 196.97 457.198 196.976 457.486C196.982 457.771 197.218 457.998 197.504 457.991C200.78 457.923 206.512 457.818 211.427 457.724C213.884 457.681 216.136 457.638 217.774 457.609C219.412 457.58 220.433 457.562 220.435 457.562C220.721 457.555 220.949 457.32 220.944 457.032C220.938 456.747 220.703 456.52 220.417 456.524Z" fill="#1D2A30"/>
<path d="M269.533 460.859L269.534 460.849C269.547 460.758 269.642 460.225 269.958 459.709C270.281 459.193 270.773 458.703 271.696 458.548C271.813 458.526 271.926 458.519 272.036 458.519C272.853 458.512 273.594 459.031 274.137 459.619C274.407 459.904 274.621 460.199 274.765 460.419C274.837 460.528 274.891 460.618 274.927 460.679L274.967 460.748L274.977 460.766C275.109 461.022 275.422 461.119 275.676 460.986C275.928 460.852 276.027 460.538 275.894 460.286C275.88 460.261 275.534 459.594 274.893 458.908C274.256 458.231 273.297 457.488 272.036 457.48C271.87 457.48 271.701 457.495 271.529 457.524C270.191 457.736 269.395 458.573 268.993 459.305C268.584 460.044 268.51 460.701 268.504 460.74C268.472 461.025 268.676 461.281 268.96 461.314C269.243 461.346 269.5 461.144 269.533 460.859Z" fill="#1D2A30"/>
<path d="M270.692 456.116L271.107 458.142C271.164 458.42 271.438 458.604 271.718 458.546C271.998 458.489 272.179 458.215 272.121 457.933L271.707 455.907C271.649 455.629 271.375 455.445 271.096 455.503C270.815 455.56 270.635 455.835 270.692 456.116Z" fill="#1D2A30"/>
<path d="M273.733 458.513C273.733 458.513 273.822 458.47 273.999 458.394C275.241 457.864 280.664 455.719 286.229 455.722C286.8 455.722 287.373 455.744 287.942 455.791C288.227 455.816 288.478 455.607 288.503 455.322C288.526 455.033 288.315 454.785 288.03 454.759C287.429 454.709 286.827 454.684 286.229 454.684C279.576 454.691 273.338 457.558 273.302 457.568C273.043 457.687 272.929 457.994 273.047 458.254C273.166 458.517 273.473 458.632 273.733 458.513Z" fill="#1D2A30"/>
<path d="M270.821 458.028L270.57 457.88C270.242 457.725 269.666 457.519 268.834 457.277C266.351 456.56 261.687 455.59 256.209 455.59C253.404 455.59 250.386 455.842 247.341 456.524C247.063 456.585 246.887 456.863 246.949 457.144C247.011 457.422 247.288 457.598 247.567 457.537C250.523 456.877 253.466 456.625 256.209 456.625C260.017 456.625 263.436 457.108 265.957 457.638C267.217 457.901 268.252 458.179 268.996 458.406C269.366 458.522 269.666 458.626 269.878 458.709C269.983 458.752 270.067 458.788 270.124 458.814L270.186 458.846C270.412 459.019 270.737 458.98 270.912 458.752C271.088 458.529 271.046 458.201 270.821 458.028Z" fill="#1D2A30"/>
<path d="M269.114 459.328C269.095 459.324 263.924 458.34 257.901 458.34C255.815 458.34 253.628 458.459 251.51 458.78C251.228 458.823 251.033 459.086 251.076 459.368C251.119 459.652 251.383 459.847 251.666 459.804C253.714 459.494 255.854 459.378 257.901 459.378C260.857 459.378 263.617 459.62 265.636 459.862C266.644 459.984 267.468 460.107 268.037 460.197C268.608 460.287 268.919 460.348 268.921 460.348C269.201 460.403 269.473 460.219 269.525 459.937C269.579 459.656 269.395 459.382 269.114 459.328Z" fill="#1D2A30"/>
<path d="M274.713 459.829C274.713 459.829 274.792 459.804 274.953 459.761C276.081 459.433 281.07 458.109 287.33 458.109C289.273 458.109 291.34 458.235 293.451 458.56C300.876 459.696 307.681 459.844 310.753 459.844C311.85 459.844 312.471 459.826 312.475 459.826C312.761 459.815 312.986 459.577 312.977 459.292C312.968 459.007 312.73 458.78 312.444 458.787C312.442 458.787 311.837 458.809 310.753 458.809C307.715 458.809 300.953 458.657 293.607 457.536C291.437 457.204 289.319 457.074 287.33 457.074C280.011 457.074 274.434 458.834 274.403 458.841C274.13 458.928 273.978 459.22 274.064 459.49C274.15 459.764 274.441 459.916 274.713 459.829Z" fill="#1D2A30"/>
<path d="M326.005 460.841V460.303H188.32L189.64 457.458L189.174 457.227L189.126 457.758C189.138 457.761 191.534 457.988 195.093 457.988C199.864 457.985 206.72 457.581 212.745 455.652C216.926 454.303 223.316 453.611 229.857 453.614C230.334 453.614 230.811 453.618 231.289 453.625C234.701 453.672 241.846 453.708 248.032 453.708C249.935 453.708 251.747 453.704 253.331 453.697H253.341C255.743 453.686 257.624 453.665 258.507 453.636L258.519 453.632C258.84 453.614 259.171 453.614 259.502 453.614H259.508C259.607 453.61 259.707 453.611 259.807 453.611C261.648 453.611 263.414 453.798 265.116 454.159L265.276 454.166C266.751 453.996 268.335 453.885 270.039 453.885C270.251 453.885 270.465 453.888 270.681 453.892C271.301 453.899 272.31 453.903 273.563 453.903C277.322 453.903 283.285 453.874 287.473 453.874C289.129 453.874 290.509 453.877 291.36 453.892C296.232 453.953 301.917 454.93 307.332 455.724L307.578 455.698L307.722 455.644L307.549 455.143L307.073 455.349L307.104 455.424C307.174 455.597 307.329 455.72 307.508 455.745C311.125 456.265 314.626 456.697 317.718 456.697C320.223 456.697 322.463 456.42 324.29 455.637L324.092 455.143L323.604 455.316L325.517 461.014L326.005 460.841L326.492 460.664L324.581 454.966C324.534 454.826 324.433 454.714 324.304 454.653C324.175 454.595 324.024 454.591 323.894 454.649C322.268 455.349 320.147 455.63 317.718 455.63C314.718 455.63 311.254 455.208 307.651 454.689L307.58 455.215L308.056 455.006L308.025 454.934C307.919 454.674 307.634 454.544 307.376 454.638L307.232 454.692L307.404 455.194L307.476 454.667C302.077 453.877 296.366 452.889 291.374 452.821C290.512 452.81 289.132 452.806 287.473 452.806C283.281 452.806 277.319 452.835 273.563 452.835C272.312 452.835 271.306 452.831 270.696 452.821C270.475 452.817 270.256 452.817 270.039 452.817C268.291 452.817 266.668 452.932 265.163 453.102L265.22 453.636L265.323 453.109C263.553 452.738 261.717 452.543 259.807 452.543H259.496L259.502 453.077V452.543C259.171 452.547 258.82 452.543 258.459 452.565L258.488 453.098L258.47 452.565C257.617 452.597 255.733 452.619 253.338 452.63H253.327C251.744 452.637 249.934 452.64 248.032 452.64C241.851 452.64 234.706 452.604 231.304 452.554C230.821 452.547 230.339 452.543 229.857 452.543C223.241 452.547 216.798 453.232 212.438 454.631C206.585 456.51 199.805 456.921 195.093 456.917C193.335 456.917 191.864 456.863 190.834 456.805C190.319 456.777 189.914 456.748 189.639 456.73C189.364 456.708 189.221 456.694 189.221 456.694C189.006 456.672 188.8 456.795 188.708 456.997L187.032 460.61C186.955 460.776 186.966 460.97 187.061 461.126C187.156 461.281 187.321 461.374 187.499 461.374H326.005C326.172 461.374 326.328 461.291 326.425 461.151C326.523 461.01 326.548 460.826 326.492 460.664L326.005 460.841Z" fill="#1D2A30"/>
<path d="M288.328 378.856V382.527C288.328 382.527 284.577 385.163 279.694 387.792C273.106 381.701 272.171 370.129 272.171 370.129L288.328 378.856Z" fill="#1D2A30"/>
<path d="M260.936 358.609C253.166 346.982 254.73 325.192 264.744 313.381C279.429 296.056 317.751 308.706 317.711 333.199C317.706 336.475 317.394 339.894 316.849 343.354C316.341 346.586 313.568 349.854 312.717 353.071C311.867 356.288 312.208 361.373 311.868 364.575C311.112 371.697 301.367 385.823 298.718 387.352C295.026 389.483 275.078 383.771 270.727 370.843L260.936 358.609Z" fill="#F3B783"/>
<path d="M260.443 357.642C257.196 352.798 255.578 346.084 255.58 339.063C255.576 329.557 258.545 319.512 264.24 312.814C268.846 307.388 275.852 304.94 283.304 304.939C291.213 304.936 299.589 307.711 305.953 312.534C312.321 317.362 316.663 324.193 316.664 332.356V332.395C316.659 335.653 316.347 339.063 315.802 342.518C315.568 344.024 314.774 345.618 313.907 347.241C313.042 348.868 312.109 350.523 311.653 352.233C311.204 353.932 311.081 356.042 311.014 358.139C310.951 360.233 310.95 362.311 310.783 363.875C310.605 365.566 309.868 367.762 308.812 370.096C307.227 373.594 304.934 377.416 302.794 380.492C301.724 382.028 300.692 383.38 299.812 384.412C298.939 385.44 298.182 386.157 297.8 386.366C297.436 386.586 296.687 386.741 295.699 386.738C292.559 386.745 287.081 385.313 281.994 382.493C276.895 379.681 272.185 375.487 270.362 370.063C270.27 369.789 269.975 369.641 269.704 369.735C269.432 369.829 269.286 370.124 269.379 370.398C271.339 376.197 276.265 380.521 281.495 383.413C286.738 386.305 292.283 387.78 295.699 387.787C296.785 387.78 297.663 387.647 298.315 387.279C298.732 387.037 299.19 386.622 299.735 386.056C301.623 384.08 304.444 380.193 306.906 375.984C309.362 371.772 311.455 367.279 311.815 363.987C311.99 362.332 311.988 360.247 312.052 358.172C312.115 356.1 312.247 354.039 312.656 352.503C313.056 350.98 313.948 349.374 314.821 347.738C315.692 346.099 316.549 344.427 316.828 342.683C317.379 339.184 317.697 335.72 317.702 332.395V332.356C317.703 323.798 313.133 316.658 306.576 311.696C300.014 306.729 291.452 303.893 283.304 303.891C275.638 303.89 268.308 306.415 263.452 312.132C257.547 319.092 254.545 329.343 254.542 339.063C254.544 346.243 256.182 353.144 259.582 358.228C259.742 358.468 260.065 358.531 260.303 358.37C260.54 358.207 260.603 357.881 260.443 357.642Z" fill="#1D2A30"/>
<path d="M268.406 347.706C268.406 347.706 270.912 345.214 273.877 346.184C276.839 347.153 277.378 355.46 277.378 355.46L279.534 353.106C279.534 353.106 278.726 348.416 281.959 341.831C285.191 335.246 283.575 327.492 283.575 327.492C283.575 327.492 289.136 329.431 291.07 333.862C291.07 333.862 293.177 329.154 291.07 325.555C291.07 325.555 299.74 327.769 301.896 334.415C301.896 334.415 303.602 329.431 303.018 326.939C303.018 326.939 308.9 328.878 311.056 334.693C311.056 334.693 313.015 330.262 312.171 326.662C312.171 326.662 314.54 328.742 315.44 334.969C315.44 334.969 318.207 329.985 316.921 322.785C316.921 322.785 319.947 326.386 320.486 329.431C320.486 329.431 322.976 320.571 308.395 308.664C293.813 296.757 268.862 299.457 264.985 308.664C264.985 308.664 266.272 301.88 268.862 299.457C268.862 299.457 261.656 302.731 261.86 309.494C261.86 309.494 255.555 308.664 252.322 312.817C252.322 312.817 255.555 312.54 258.25 313.094C258.25 313.094 249.628 318.355 250.167 330.815C250.706 343.276 258.25 361.274 258.25 361.274L264.154 359.502C264.154 359.502 265.093 351.029 268.406 347.706Z" fill="#1D2A30"/>
<path d="M275.114 350.669C275.114 350.669 270.49 342.738 268.042 342.21C265.594 341.681 260.97 344.853 262.057 349.083C263.146 353.312 263.962 360.449 265.322 361.241C266.682 362.035 268.858 366.792 271.034 365.472C273.21 364.149 271.578 362.3 271.578 362.3" fill="#F3B783"/>
<path d="M275.038 350.164C275.034 350.155 273.837 348.007 272.315 345.773C271.552 344.654 270.709 343.516 269.88 342.603C269.466 342.146 269.054 341.745 268.647 341.429C268.238 341.115 267.837 340.876 267.402 340.775C267.175 340.723 266.938 340.699 266.697 340.699C265.35 340.708 263.83 341.411 262.594 342.573C261.364 343.735 260.42 345.399 260.419 347.354C260.419 347.84 260.477 348.339 260.603 348.85C261.156 351.096 261.647 354.161 262.175 356.779C262.44 358.089 262.713 359.288 263.018 360.238C263.171 360.714 263.332 361.128 263.514 361.473C263.7 361.816 263.896 362.105 264.21 362.303C264.397 362.41 264.74 362.773 265.104 363.245C265.661 363.955 266.308 364.904 267.026 365.694C267.385 366.09 267.764 366.451 268.178 366.725C268.591 366.999 269.053 367.19 269.559 367.194C269.928 367.194 270.308 367.082 270.652 366.862C271.158 366.541 271.518 366.173 271.748 365.773C271.979 365.376 272.069 364.962 272.068 364.583C272.052 363.443 271.361 362.675 271.335 362.629C271.144 362.402 270.808 362.376 270.586 362.57C270.363 362.765 270.337 363.108 270.528 363.332C270.568 363.364 271.019 363.992 271.005 364.583C271.004 364.792 270.96 365.001 270.832 365.225C270.703 365.448 270.48 365.697 270.088 365.946C269.892 366.069 269.729 366.108 269.559 366.112C269.256 366.116 268.871 365.942 268.448 365.589C267.815 365.063 267.148 364.186 266.537 363.368C266.23 362.953 265.933 362.556 265.645 362.212C265.354 361.868 265.081 361.577 264.757 361.376C264.72 361.36 264.583 361.22 264.45 360.961C264.209 360.509 263.954 359.739 263.716 358.8C262.995 355.973 262.379 351.625 261.634 348.587C261.53 348.162 261.482 347.751 261.482 347.354C261.481 345.766 262.253 344.373 263.318 343.364C264.375 342.355 265.73 341.773 266.697 341.781C266.869 341.781 267.028 341.798 267.171 341.831C267.367 341.873 267.667 342.026 268.002 342.289C269.195 343.205 270.766 345.333 271.984 347.202C272.596 348.138 273.13 349.014 273.509 349.654C273.7 349.975 273.851 350.236 273.955 350.417C274.058 350.598 274.113 350.697 274.113 350.697C274.258 350.957 274.582 351.049 274.838 350.901C275.093 350.753 275.183 350.423 275.038 350.164Z" fill="#1D2A30"/>
<path d="M325.459 402.947C325.459 402.947 325.426 403.105 325.354 403.405C325.138 404.31 324.581 406.47 323.613 409.138C323.51 409.423 323.651 409.737 323.928 409.842C324.205 409.946 324.512 409.802 324.615 409.517C325.932 405.893 326.5 403.192 326.505 403.178C326.567 402.882 326.383 402.59 326.094 402.528C325.805 402.464 325.521 402.651 325.459 402.947Z" fill="#1D2A30"/>
<path d="M322.696 413.157C321.215 416.893 319.143 420.853 316.405 423.63C316.209 423.828 316.186 424.181 316.353 424.416C316.52 424.65 316.815 424.675 317.012 424.477C319.902 421.542 322.023 417.456 323.54 413.63C323.651 413.352 323.552 413.02 323.318 412.891C323.084 412.757 322.806 412.876 322.696 413.157Z" fill="#455157"/>
<path d="M214.998 401.884L215.038 401.938C215.231 402.198 216.096 403.399 217.07 405.223C217.194 405.454 217.448 405.519 217.638 405.368C217.828 405.216 217.881 404.903 217.757 404.672C216.609 402.515 215.608 401.21 215.597 401.195C215.441 400.99 215.182 400.983 215.016 401.17C214.851 401.361 214.843 401.682 214.998 401.884Z" fill="#1D2A30"/>
<path d="M218.136 409.651C218.995 412.625 219.64 416.058 219.639 419.649C219.639 425.034 219.128 429.273 218.621 432.159C218.367 433.6 218.113 434.706 217.925 435.442C217.831 435.812 217.753 436.09 217.699 436.275L217.637 436.478L217.618 436.539C217.511 436.87 217.598 437.266 217.813 437.429C218.028 437.592 218.29 437.46 218.397 437.134C218.419 437.064 220.51 430.679 220.51 419.649C220.51 415.815 219.826 412.211 218.933 409.117C218.836 408.783 218.579 408.633 218.359 408.778C218.139 408.924 218.038 409.316 218.136 409.651Z" fill="#1D2A30"/>
<path d="M250.293 393.252C250.309 393.27 252.153 395.444 255.229 397.99C255.458 398.181 255.772 398.113 255.929 397.835C256.087 397.561 256.029 397.182 255.8 396.991C254.294 395.747 253.09 394.59 252.265 393.746C251.852 393.324 251.534 392.985 251.319 392.747C251.212 392.628 251.132 392.538 251.077 392.476L250.999 392.383C250.8 392.148 250.482 392.156 250.287 392.394C250.092 392.632 250.095 393.017 250.293 393.252Z" fill="#1D2A30"/>
<path d="M260.707 400.479C264.717 402.387 269.606 403.959 274.865 403.959C276.734 403.959 278.649 403.761 280.585 403.307C280.866 403.242 281.037 402.971 280.967 402.708C280.897 402.441 280.612 402.279 280.331 402.347C278.483 402.78 276.655 402.971 274.865 402.971C269.832 402.971 265.092 401.457 261.181 399.596C260.921 399.473 260.606 399.571 260.475 399.816C260.345 400.061 260.449 400.357 260.707 400.479Z" fill="#1D2A30"/>
<path d="M272.629 309.781C272.411 309.781 272.217 309.596 272.178 309.332C272.134 309.037 272.3 308.754 272.55 308.702C272.568 308.698 274.422 308.309 277.11 308.309C277.269 308.309 277.43 308.31 277.594 308.312C277.847 308.316 278.05 308.564 278.046 308.864C278.043 309.161 277.838 309.399 277.587 309.399H277.581C277.421 309.397 277.264 309.395 277.11 309.395C275.151 309.395 273.645 309.609 273.022 309.714C272.815 309.75 272.71 309.772 272.71 309.772C272.683 309.777 272.656 309.781 272.629 309.781Z" fill="#45555C"/>
<path d="M295.165 317.128C295.005 317.128 294.847 317.052 294.747 316.909C292.878 314.264 290.443 312.5 287.842 311.331C285.242 310.162 282.478 309.594 279.99 309.355C279.706 309.327 279.498 309.069 279.525 308.777C279.551 308.503 279.775 308.297 280.039 308.297C280.054 308.297 280.071 308.298 280.087 308.299C282.654 308.547 285.522 309.131 288.256 310.36C290.988 311.586 293.59 313.464 295.582 316.286C295.749 316.524 295.697 316.856 295.467 317.027C295.375 317.095 295.269 317.128 295.165 317.128Z" fill="#45555C"/>
<path d="M301.021 309.778C300.917 309.778 300.812 309.748 300.721 309.685C294.829 305.633 286.751 305.014 284.853 304.938C284.582 304.926 284.443 304.924 284.442 304.924C284.152 304.921 283.919 304.688 283.922 304.401C283.925 304.118 284.16 303.891 284.448 303.891H284.453C284.499 303.9 294.211 303.978 301.323 308.837C301.562 309.001 301.62 309.323 301.453 309.558C301.351 309.702 301.187 309.779 301.021 309.778Z" fill="#45555C"/>
<path d="M306.835 317.13C306.608 317.13 306.392 317 306.297 316.785C305.52 315.006 304.445 313.492 303.172 312.193C302.951 311.968 302.961 311.611 303.195 311.397C303.308 311.294 303.453 311.242 303.596 311.242C303.75 311.242 303.906 311.302 304.02 311.419C305.38 312.805 306.538 314.435 307.373 316.348C307.498 316.634 307.359 316.964 307.062 317.086C306.988 317.115 306.911 317.13 306.835 317.13Z" fill="#45555C"/>
<path d="M281.949 323.014C281.772 323.014 281.599 322.915 281.508 322.742C280.208 320.274 277.763 318.213 275.413 316.704C273.065 315.194 270.821 314.227 269.95 313.877C269.702 313.777 269.57 313.729 269.569 313.729C269.307 313.633 269.169 313.334 269.261 313.061C269.334 312.846 269.529 312.711 269.736 312.711C269.791 312.711 269.848 312.72 269.903 312.74C269.921 312.748 272.212 313.585 274.913 315.179C277.612 316.779 280.735 319.12 282.389 322.238C282.523 322.491 282.435 322.809 282.191 322.949C282.114 322.993 282.031 323.014 281.949 323.014Z" fill="#45555C"/>
<path d="M270.12 325.975C269.861 325.975 269.625 325.814 269.562 325.577C268.259 320.597 265.314 316.953 264.971 316.546L264.939 316.507C264.744 316.282 264.79 315.957 265.04 315.781C265.144 315.707 265.268 315.672 265.391 315.672C265.562 315.672 265.731 315.74 265.844 315.872C265.87 315.906 269.217 319.787 270.678 325.338C270.751 325.615 270.561 325.895 270.253 325.961C270.208 325.971 270.163 325.975 270.12 325.975Z" fill="#45555C"/>
<path d="M269.782 334.795C269.747 334.795 269.711 334.792 269.675 334.785C269.376 334.733 269.184 334.477 269.243 334.215C269.492 333.121 269.601 332.046 269.601 330.998L269.6 330.867C269.598 330.6 269.842 330.381 270.145 330.379H270.15C270.451 330.379 270.698 330.593 270.7 330.859L270.701 330.998C270.701 332.104 270.585 333.244 270.322 334.405C270.27 334.636 270.04 334.795 269.782 334.795Z" fill="#45555C"/>
<path d="M257.823 324.482C257.795 324.482 257.766 324.477 257.738 324.467C257.555 324.401 257.445 324.14 257.491 323.883C257.889 321.719 258.287 320.378 258.291 320.362C258.347 320.178 258.474 320.066 258.608 320.066C258.651 320.066 258.696 320.079 258.739 320.104C258.913 320.206 258.995 320.486 258.923 320.731C258.923 320.731 258.901 320.805 258.859 320.957C258.818 321.11 258.757 321.337 258.686 321.63C258.54 322.217 258.348 323.068 258.154 324.123C258.114 324.338 257.975 324.482 257.823 324.482Z" fill="#45555C"/>
<path d="M256.854 337.752C256.604 337.752 256.385 337.577 256.346 337.334C256.115 335.895 256.02 334.477 256.02 333.113C256.02 331.232 256.202 329.455 256.465 327.866C256.505 327.623 256.725 327.449 256.972 327.449C256.999 327.449 257.027 327.451 257.054 327.455C257.335 327.499 257.526 327.751 257.482 328.021C257.226 329.567 257.049 331.294 257.049 333.113C257.049 334.432 257.141 335.8 257.364 337.184C257.407 337.453 257.215 337.705 256.934 337.746C256.907 337.75 256.88 337.752 256.854 337.752Z" fill="#45555C"/>
<path d="M380.832 479.038H511.597V461.375H147.324V479.038H220.966" fill="white"/>
<path d="M381.627 479.036H512.547C512.683 479.036 512.82 478.982 512.914 478.889C513.011 478.795 513.065 478.661 513.065 478.528V460.414C513.065 460.281 513.011 460.148 512.914 460.054C512.82 459.96 512.683 459.902 512.547 459.902H147.843C147.706 459.902 147.573 459.96 147.476 460.054C147.38 460.148 147.324 460.281 147.324 460.414V478.528C147.324 478.661 147.38 478.795 147.476 478.889C147.573 478.982 147.706 479.036 147.843 479.036H221.571C221.858 479.036 222.09 478.809 222.09 478.528C222.09 478.247 221.858 478.019 221.571 478.019H148.362V460.923H512.029V478.019H381.627C381.343 478.019 381.109 478.247 381.109 478.528C381.109 478.809 381.343 479.036 381.627 479.036Z" fill="#1D2A30"/>
<path d="M188.571 433.415C188.571 433.415 199.142 432.465 218.156 436.717L217.571 438.13C217.571 438.13 199.237 433.368 187.079 434.831L188.571 433.415Z" fill="#1D2A30"/>
<path d="M197.483 456.913C197.483 456.913 186.841 456.426 186.841 446.664C186.841 438.88 191.274 434.672 197.185 434.672C197.185 434.672 238.538 441.508 240.18 441.508C241.822 441.508 251.974 434.011 255.417 433.452C258.86 432.897 265.06 438.025 268.22 438.843C271.382 439.665 271.176 443.766 273.024 445.403C274.871 447.047 272.203 448.89 269.945 447.047C269.945 447.047 270.56 449.121 269.124 450.747C269.124 450.747 269.739 452.99 269.124 454.018H232.547C232.547 454.018 199.23 458.378 195.093 456.913" fill="#F3B783"/>
<path d="M236.405 441.057C238.705 441.37 240.327 441.577 240.517 441.512C241.213 441.267 242.751 440.315 243.989 439.55C245.835 438.404 248.15 436.86 250.291 435.555C251.361 434.906 252.386 434.314 253.281 433.867C254.172 433.42 254.943 433.117 255.44 433.038C255.583 433.012 255.735 433.002 255.897 433.002C256.643 432.998 257.587 433.269 258.606 433.712C260.139 434.379 261.84 435.418 263.435 436.37C265.036 437.322 266.511 438.191 267.72 438.523C268.388 438.707 268.852 439.053 269.243 439.521C269.829 440.225 270.21 441.238 270.601 442.269C270.999 443.297 271.399 444.354 272.196 445.1C272.545 445.428 272.63 445.691 272.63 445.868C272.627 446.041 272.551 446.207 272.353 446.366C272.158 446.521 271.844 446.636 271.467 446.636C270.992 446.636 270.42 446.456 269.85 445.969C269.678 445.825 269.434 445.811 269.248 445.94C269.065 446.067 268.98 446.308 269.044 446.532L269.046 446.539C269.062 446.6 269.151 446.975 269.151 447.48C269.15 448.158 268.998 449.038 268.349 449.806C268.235 449.943 268.195 450.123 268.24 450.296L268.249 450.336C268.296 450.52 268.491 451.382 268.49 452.164C268.492 452.608 268.418 453.016 268.294 453.221L268.728 453.492V452.965L232.395 453.474C232.395 453.474 232.284 454.525 232.547 454.525L268.728 454.022C268.906 454.022 269.071 453.924 269.162 453.766C269.44 453.272 269.497 452.705 269.502 452.164C269.499 451.079 269.221 450.04 269.216 450.019L268.728 450.156L269.108 450.509C269.968 449.489 270.165 448.317 270.163 447.48C270.163 446.759 270.023 446.261 270.015 446.229L269.529 446.38L269.208 446.791C269.944 447.419 270.747 447.697 271.467 447.693C272.037 447.693 272.559 447.523 272.96 447.213C273.359 446.903 273.643 446.42 273.641 445.868C273.641 445.313 273.364 444.768 272.869 444.31C272.501 443.971 272.202 443.463 271.934 442.85C271.527 441.934 271.196 440.812 270.651 439.796C270.111 438.786 269.292 437.855 267.974 437.502C266.653 437.152 264.506 435.778 262.31 434.484C261.207 433.835 260.08 433.207 258.995 432.738C257.909 432.27 256.866 431.945 255.897 431.941C255.687 431.941 255.481 431.959 255.278 431.992C254.312 432.161 253.056 432.767 251.607 433.571C249.444 434.783 246.903 436.46 244.754 437.83C243.681 438.515 242.706 439.125 241.937 439.558C241.553 439.774 241.22 439.943 240.962 440.052C240.708 440.167 240.51 440.21 240.498 440.203C239.618 440.207 236.752 439.961 236.687 440.048" fill="#1D2A30"/>
<path d="M270.541 445.919L267.132 443.182L266.918 443.077L258.184 440.802C257.901 440.729 257.598 440.856 257.506 441.083C257.416 441.314 257.571 441.559 257.854 441.635L266.465 443.878L269.782 446.542C269.995 446.712 270.335 446.708 270.545 446.539C270.754 446.366 270.751 446.088 270.541 445.919Z" fill="#1D2A30"/>
<path d="M268.926 450.139L263.79 447.965L263.67 447.928L256.648 446.684C256.359 446.634 256.083 446.811 256.029 447.085C255.975 447.355 256.164 447.615 256.452 447.665L263.413 448.899L268.492 451.048C268.759 451.16 269.073 451.048 269.192 450.799C269.312 450.547 269.193 450.251 268.926 450.139Z" fill="#1D2A30"/>
<path d="M256.526 452.294L263.501 452.655L268.591 454.004C268.876 454.083 269.159 453.877 269.225 453.549C269.291 453.221 269.114 452.893 268.829 452.817L263.693 451.454L263.596 451.44L256.573 451.079C256.281 451.061 256.033 451.324 256.02 451.66C256.007 451.995 256.233 452.28 256.526 452.294Z" fill="#1D2A30"/>
<path d="M255.221 432.078C254.061 433.171 253.703 434.415 253.715 435.526C253.722 436.777 254.08 437.888 254.071 438.742C254.069 439.179 253.996 439.528 253.783 439.864C253.315 440.599 252.804 441.155 252.373 441.786C251.942 442.413 251.6 443.16 251.605 444.13C251.605 444.761 251.74 445.475 252.032 446.329C252.125 446.6 252.399 446.737 252.645 446.632C252.891 446.531 253.016 446.232 252.923 445.962C252.658 445.186 252.557 444.595 252.557 444.13C252.561 443.419 252.769 442.961 253.137 442.41C253.503 441.865 254.039 441.281 254.563 440.462C254.912 439.918 255.025 439.312 255.023 438.742C255.014 437.621 254.659 436.542 254.667 435.526C254.677 434.628 254.882 433.802 255.848 432.864C256.046 432.673 256.066 432.345 255.894 432.129C255.72 431.912 255.42 431.887 255.221 432.078Z" fill="#1D2A30"/>
<path d="M198.194 457.377C194.311 457.377 191.341 456.123 189.359 453.64C184.154 447.122 187.612 434.539 187.76 434.004L188.8 434.3C188.765 434.423 185.346 446.882 190.203 452.964C192.121 455.373 195.126 456.489 199.157 456.271C216.476 455.348 232.323 453.503 232.481 453.482L232.608 454.559C232.449 454.577 216.568 456.426 199.214 457.349C198.869 457.37 198.528 457.377 198.194 457.377Z" fill="#1D2A30"/>
<path d="M236.896 441.081L217.486 438.031L217.655 436.961L237.065 440.011L236.896 441.081Z" fill="#1D2A30"/>
<path d="M311.979 455.221C311.891 455.221 311.799 455.196 311.715 455.15C311.455 455.006 311.363 454.678 311.508 454.414C314.309 449.361 312.463 432.179 312.442 432.006C312.414 431.725 312.604 431.468 312.878 431.415C313.173 431.348 313.426 431.534 313.5 431.806C313.922 433.352 318.326 438.916 320.691 441.789C323.998 428.069 340.871 424.984 344.638 424.463C342.937 420.677 334.348 401.759 327.748 390.346C320.592 377.975 306.921 380.341 306.784 380.366C306.461 380.433 306.211 380.225 306.155 379.932C306.102 379.637 306.296 379.355 306.587 379.302C306.739 379.281 321.155 376.788 328.683 389.804C336.035 402.516 345.826 424.47 345.924 424.688C345.995 424.85 345.988 425.034 345.896 425.185C345.808 425.336 345.654 425.435 345.482 425.449C345.267 425.467 324.325 427.502 321.52 443.089C321.485 443.297 321.33 443.462 321.13 443.515C320.909 443.571 320.708 443.501 320.575 443.342C319.991 442.645 315.918 437.764 313.757 434.493C314.172 439.609 314.755 450.783 312.45 454.942C312.351 455.119 312.168 455.221 311.979 455.221Z" fill="#1D2A30"/>
<path d="M372.65 439.508C372.612 439.508 372.573 439.501 372.535 439.494L347.09 433.853C346.946 433.821 346.819 433.733 346.746 433.606L342.096 425.94C341.942 425.683 342.022 425.352 342.275 425.197C342.528 425.038 342.862 425.126 343.017 425.376L347.547 432.846L372.766 438.438C373.058 438.501 373.241 438.79 373.178 439.082C373.121 439.336 372.9 439.508 372.65 439.508Z" fill="#1D2A30"/>
<path d="M331.122 454.99C330.953 454.99 330.784 454.909 330.679 454.757L321.236 441.249C321.067 441.006 321.123 440.668 321.369 440.495C321.612 440.322 321.945 440.375 322.121 440.629L331.564 454.138C331.733 454.381 331.677 454.719 331.431 454.891C331.336 454.958 331.231 454.99 331.122 454.99Z" fill="#1D2A30"/>
</svg>
