<svg width="323" height="357" viewBox="0 0 323 357" fill="none" xmlns="http://www.w3.org/2000/svg">
<path d="M323 316.844H0V318.086H323V316.844Z" fill="#17282F"/>
<path d="M88.7836 107.719L88.0613 126.047C88.0613 126.047 86.1351 145.105 99.859 145.105C113.583 145.105 122.812 147.376 125.22 138.861C127.628 130.345 124.528 127.073 124.528 127.073L124.627 118.667L88.7836 107.719Z" fill="#C5732D"/>
<path d="M178.618 187.995C170.611 173.22 156.991 146.241 153.661 142.405C149.934 138.111 145.343 134.909 140.098 132.754C135.201 130.743 130.224 128.926 125.28 127.03C125.069 126.949 124.846 126.844 124.525 127.068C124.525 128.821 124.594 130.65 124.502 132.463C124.191 138.591 119.908 143.574 113.948 144.836C110.707 145.523 107.489 145.317 104.297 144.549C100.661 143.674 97.1143 142.548 94.0871 140.234C90.8063 137.727 88.8229 134.469 88.5942 130.259C88.4978 128.488 88.4249 126.716 88.3541 124.943C88.2963 123.508 88.3042 123.507 86.8784 123.91C86.7871 123.936 86.7013 123.982 86.6097 124.009C80.9322 125.661 75.26 127.333 69.5737 128.954C67.0932 129.662 64.664 130.466 62.3113 131.553C56.6539 134.166 52.7051 138.321 50.4135 144.146C47.9571 150.388 47.3806 156.866 47.7231 163.486C47.8461 164.856 48.003 166.231 48.0722 167.598C48.3614 173.323 48.946 179.024 49.4646 184.727C49.9934 190.537 50.6006 196.341 51.0997 202.153C51.7221 209.403 52.3946 216.63 53.9173 223.773C55.2649 230.093 57.7589 235.476 62.5083 239.195C62.3699 239.141 62.2185 239.122 62.0386 239.183C62.2572 244.502 62.4932 249.82 62.9157 255.128C63.7494 253.694 64.5334 252.229 65.4276 250.834C67.0694 248.273 68.8527 245.818 71.1805 243.819C71.3366 243.786 71.8413 243.386 72.0764 243.119C72.1002 243.109 72.1243 243.103 72.1478 243.092C72.5102 242.887 72.8635 242.666 73.2015 242.424C75.8204 240.124 78.8308 238.497 82.0525 237.225C84.3508 236.318 86.7725 235.869 89.1933 235.942C92.5896 236.044 95.9065 236.811 99.0755 238.103C102.758 239.605 106.259 241.47 109.536 243.716C111.038 244.746 112.584 245.237 114.364 245.083C115.001 245.083 115.639 245.085 116.277 245.09C117.703 245.069 119.132 245.32 120.536 245.308C124.583 245.272 128.609 245.732 132.653 245.668C133.601 245.653 134.554 245.59 135.497 245.813C136.031 245.939 137.766 245.913 138.038 245.405C138.742 244.092 138.572 242.937 139.408 241.725C139.856 241.074 139.77 240.506 138.941 240.167C139.826 240.41 140.093 240.085 140.476 238.813C141.416 235.695 142.465 232.615 143.48 229.522C143.614 229.115 143.747 228.697 143.614 228.257C142.958 226.97 142.041 225.86 141.123 224.773C140.302 223.801 140.098 222.848 140.399 221.611C141.475 217.205 142.448 212.775 143.504 208.364C143.681 207.624 144.145 205.237 144.481 204.82C144.659 204.452 144.909 204.133 145.156 203.815C145.238 203.696 145.318 203.574 145.39 203.449C146.542 201.467 147.661 199.458 148.366 197.265C148.768 196.016 149.093 194.758 149.368 193.496C149.325 193.788 149.282 194.08 149.243 194.373C149.63 195.812 150.473 197.037 151.102 198.361C151.417 199.026 151.592 199.826 152.388 200.158C153.068 199.967 153.093 199.325 153.274 198.815C154.157 196.32 154.894 193.773 155.836 191.296C155.896 191.174 155.956 191.053 156.009 190.928C156.146 190.636 156.327 190.377 156.545 190.143C156.843 189.807 157.192 189.543 157.616 189.389C157.866 189.279 158.11 189.153 158.352 189.027C158.631 188.904 158.915 188.786 159.214 188.72C165.034 188.64 170.858 188.713 176.682 188.675C177.376 188.671 178.132 188.857 178.718 188.263C178.685 188.173 178.663 188.078 178.618 187.995H178.618ZM81.8905 212.638C81.6697 212.062 81.4918 211.469 81.3587 210.859C81.4965 211.468 81.6703 212.063 81.8905 212.638ZM79.7398 191.967C80.1288 197.352 80.5261 202.738 80.9577 208.12C80.984 208.446 81.0179 208.771 81.0571 209.093C80.6915 206.529 80.5595 203.938 80.3908 201.36C80.0229 195.738 79.496 190.129 79.1379 184.506C79.1231 184.273 79.1138 184.038 79.1057 183.802C79.3287 186.524 79.5434 189.245 79.7398 191.967ZM78.6405 178.293C78.7081 179.058 78.7689 179.824 78.8344 180.589C78.8087 180.471 78.784 180.353 78.752 180.236C78.6069 177.701 78.4169 175.169 78.2188 172.635C78.3852 174.519 78.5537 176.403 78.6405 178.293ZM77.7609 164.507C77.7531 165.799 77.8049 167.087 77.8839 168.373C77.7836 167.079 77.6855 165.785 77.595 164.488C77.7304 164.504 77.7609 164.506 77.7609 164.507V164.507ZM70.4629 226.398C72.9899 221.645 76.7919 218.344 81.9594 216.598C76.8595 218.395 73.0401 221.713 70.4629 226.398ZM82.6852 216.353C83.2042 216.167 83.4872 215.847 83.2641 215.229C82.8262 214.603 82.4582 213.946 82.1511 213.264C82.7099 214.488 83.5057 215.609 84.6392 216.578C84.7759 216.695 84.918 216.803 85.0578 216.915C84.6221 216.575 84.1687 216.261 83.6346 216.068C83.3123 216.156 82.9982 216.254 82.6852 216.353V216.353ZM86.7019 218.132C86.2418 217.872 85.8335 217.538 85.4249 217.206C86.1664 217.765 86.9474 218.26 87.7566 218.707C87.4038 218.518 87.0508 218.329 86.7019 218.132ZM133.329 238.043C129.685 236.641 126.045 235.235 122.42 233.79C114.501 230.635 106.654 227.307 98.8668 223.84C95.4265 222.309 91.9378 220.877 88.5872 219.145C88.8884 219.295 89.1885 219.447 89.4965 219.585C93.6777 221.457 97.8431 223.363 102.038 225.204C112.344 229.727 122.747 234.01 133.27 237.999C134.793 238.604 136.332 239.167 137.855 239.771C136.338 239.221 134.842 238.61 133.329 238.043Z" fill="#EF7E22"/>
<path d="M74.7553 114.864C86.8027 114.864 96.5691 105.06 96.5691 92.967C96.5691 80.8738 86.8027 71.0703 74.7553 71.0703C62.7078 71.0703 52.9414 80.8738 52.9414 92.967C52.9414 105.06 62.7078 114.864 74.7553 114.864Z" fill="#1A2E35"/>
<path d="M144.368 81.5859C148.359 81.5859 151.594 84.8333 151.594 88.8391C151.594 94.1244 146.233 96.8666 142.242 96.8666" fill="#C5732D"/>
<path d="M83.9561 67.6158C81.9514 89.3451 80.6269 98.4957 89.7441 111.222C103.46 130.376 130.474 128.109 138.922 107.425C146.521 88.8079 148.535 56.4271 128.889 44.5909C114.893 36.0618 96.6597 40.5364 88.163 54.5844C85.7705 58.5407 84.3294 63.0028 83.9561 67.6158Z" fill="#C5732D"/>
<path d="M81.9757 96.0922C85.9663 96.0922 89.2014 92.8449 89.2014 88.8391C89.2014 84.8333 85.9663 81.5859 81.9757 81.5859C77.9851 81.5859 74.75 84.8333 74.75 88.8391C74.75 92.8449 77.9851 96.0922 81.9757 96.0922Z" fill="#C5732D"/>
<path d="M144.085 73.0035C144.085 73.0035 141.727 66.0444 130.648 64.0204C130.648 64.0204 121.87 52.6639 117.954 48.7012C117.954 48.7012 125.24 59.5253 125.963 63.4301C125.963 63.4301 93.2614 78.4202 93.188 90.7743C93.188 90.7743 93.242 92.9917 91.8593 92.9667C90.8451 92.9484 90.4741 92.3187 90.3816 91.5028C90.3816 91.5028 89.25 81.8563 82.6427 81.6006C82.6427 81.6006 76.8814 46.109 109.274 40.5387C109.274 40.5387 140.088 34.7528 144.085 73.0035V73.0035Z" fill="#1A2E35"/>
<path d="M72.8631 242.3C77.4575 238.258 82.7024 235.692 88.8953 235.596C93.1629 235.53 97.1879 236.771 101.054 238.53C103.885 239.819 106.626 241.283 109.194 243.042C110.721 244.088 112.276 244.935 114.2 244.763C114.262 244.9 114.231 245.015 114.12 245.112C114.378 245.407 113.04 244.96 113.923 245.537C116.522 247.236 119.141 248.903 121.776 250.544C122.75 251.15 123.713 251.769 124.63 252.458C125.068 252.734 125.512 253 125.949 253.278C126.318 253.469 126.631 253.729 126.893 254.051C129.03 255.839 131.477 257.165 133.798 258.67C141.214 263.48 148.688 268.2 156.128 272.975C166.864 279.864 177.604 286.746 188.357 293.608C195.445 298.131 202.49 302.721 209.579 307.242C210.938 308.109 211.077 308.693 210.33 310.098C207.16 316.058 204.013 322.031 200.973 328.06C200.779 328.445 200.586 328.83 200.352 329.193C199.515 330.494 199.067 330.708 197.613 330.201C191.976 328.234 186.318 326.324 180.691 324.327C174.48 322.122 168.272 319.909 162.08 317.651C151.494 313.791 140.889 309.986 130.343 306.014C122.894 303.208 115.431 300.438 107.941 297.74C114.395 300.068 120.798 302.536 127.248 304.874C128.811 305.44 130.389 305.974 131.929 306.604C132.45 306.817 133.067 306.94 133.072 307.701C131.803 310.575 129.947 313.06 127.872 315.373C120.913 323.132 112.153 327.682 102.071 329.863C100.202 330.267 98.2901 330.122 96.4222 330.458C95.3703 330.457 94.3184 330.456 93.2664 330.455C92.0239 329.775 90.7813 329.68 89.5388 330.455C88.472 330.452 87.4052 330.449 86.3383 330.447C85.0161 330.024 83.6295 329.984 82.2719 329.797C73.5408 328.597 67.2059 323.733 62.2821 316.703C58.9116 311.891 57.146 306.494 56.5338 300.674C55.9895 295.499 56.352 290.345 56.7493 285.185C57.0985 280.649 57.5701 276.129 58.2411 271.629C59.0703 266.068 60.3149 260.631 62.8012 255.545C62.8631 255.419 62.88 255.27 62.9179 255.132C63.1449 253.566 64.1178 252.36 64.8872 251.061C66.2476 248.765 67.8993 246.683 69.6848 244.71C70.0858 244.267 70.4701 243.728 71.1818 243.735C71.4611 243.23 72.7396 242.496 72.8631 242.3H72.8631Z" fill="#042CAF"/>
<path d="M171.279 93.9088C171.171 91.2722 171.411 91.5726 173.557 91.5731C174.263 91.5732 174.969 91.6026 175.675 91.6186C178.231 91.8531 180.791 91.6883 183.349 91.7156C186.387 91.748 189.426 91.7227 192.465 91.7232C213.205 91.7233 233.944 91.7236 254.684 91.7229C266.003 91.7226 277.322 91.7212 288.641 91.7221C289.118 91.7221 289.596 91.7143 290.074 91.7383C290.996 91.7846 291.462 92.2218 291.423 93.1965C291.387 94.1061 291.417 95.0187 291.417 95.93C291.418 110.99 291.411 126.051 291.422 141.111C291.424 145.041 291.192 148.968 291.262 152.9C291.3 155.047 291.005 155.318 288.895 155.32C279.911 155.327 270.927 155.322 261.943 155.323C253.389 155.323 244.833 155.438 236.281 155.293C226.009 155.119 215.738 155.278 205.468 155.152C203.973 155.133 203.005 155.523 202.214 156.87C200.398 159.963 198.469 162.99 196.601 166.053C196.451 166.298 196.312 166.547 196.142 166.78C195.317 167.904 194.885 167.897 194.25 166.614C192.59 163.268 191.056 159.862 189.387 156.52C188.89 155.525 188.292 155.142 187.174 155.156C182.587 155.215 177.999 155.186 173.412 155.174C172.852 155.172 172.257 155.314 171.749 154.922C171.429 154.34 171.559 153.705 171.559 153.094C171.549 144.973 171.552 136.851 171.552 128.73C171.552 121.462 171.552 114.194 171.552 106.926C171.553 103.142 171.558 99.3564 171.546 95.5712C171.544 95.0091 171.68 94.4116 171.279 93.9088Z" fill="#FAFAF9"/>
<path d="M198.222 253.897C201.033 253.751 203.844 253.928 206.655 253.907C207.417 253.902 208.184 253.965 208.937 253.802C211.878 253.166 213.842 251.43 214.888 248.587C217.049 242.713 219.243 236.851 221.443 230.991C221.597 230.581 221.53 229.889 222.315 230.005C225.51 229.999 228.702 229.773 231.903 229.998C236.556 230.325 240.791 231.811 244.48 234.638C251.175 239.769 253.306 246.651 251.694 254.783C250.804 259.269 248.645 263.224 246.09 266.961C241.925 273.051 236.772 278.235 231.245 283.059C222.684 290.531 213.387 296.978 203.671 302.832C203.013 303.257 202.593 302.695 202.146 302.417C195.586 298.333 189.114 294.109 182.589 289.968C178.04 287.079 173.504 284.169 168.965 281.264C167.268 280.177 167.221 279.956 168.769 278.748C174.989 273.893 181.127 268.936 187.08 263.757C190.252 260.997 193.482 258.295 196.465 255.32C196.904 254.883 197.311 254.401 197.904 254.154C198.021 254.083 198.127 253.997 198.222 253.897Z" fill="#042CAF"/>
<path d="M238.903 320.123C243.36 321.169 247.813 322.227 252.268 323.283C254.566 323.828 255.783 325.394 255.509 327.465C255.478 327.693 255.339 327.906 255.25 328.126C254.777 328.556 254.206 328.764 253.597 328.928C242.227 331.997 230.828 334.957 219.465 338.054C218.418 338.339 217.376 338.752 216.249 338.53C215.092 338.213 214.067 337.591 212.991 337.09C209.447 335.437 205.921 333.746 202.384 332.078C201.955 331.876 201.501 331.728 201.058 331.555C200.638 331.344 200.059 331.456 199.795 330.927C199.671 330.413 199.917 329.987 200.142 329.57C202.206 325.741 204.192 321.871 206.183 318.003C206.465 317.456 206.71 316.851 207.441 316.748C208.677 316.98 209.815 317.641 211.189 317.195C213.264 316.521 214.564 315.056 214.767 312.864C214.812 312.368 214.647 311.781 215.246 311.469C218.331 313.101 221.356 314.84 224.362 316.612C225.245 317.19 234.215 319.023 238.903 320.123Z" fill="#17282F"/>
<path d="M159.73 331.679C160.309 333.268 160.888 334.856 161.466 336.444C161.529 336.746 164.546 345.468 165.378 349.807C165.566 350.788 165.803 351.773 165.737 352.789C165.175 352.955 164.999 352.445 164.738 352.164C162.006 349.23 159.428 346.157 156.755 343.169C154.115 340.217 151.515 337.228 148.894 334.259C145.514 330.431 142.16 326.579 138.757 322.773C136.404 320.142 134.198 317.375 131.625 314.945C131.682 313.838 132.615 313.342 133.284 312.725C134.683 311.435 136.008 310.052 137.572 308.945C140.258 309.654 142.957 310.333 145.304 311.928C145.375 312.277 145.207 312.581 145.119 312.902C144.866 313.832 144.946 314.646 145.987 315.024C146.981 315.385 147.799 314.947 148.229 313.861C148.334 313.596 148.374 313.302 148.603 313.097C149.149 312.839 149.623 313.13 150.106 313.305C154.346 314.844 158.575 316.412 162.829 317.914C163.405 318.117 164.02 318.276 164.413 318.815C164.378 320.092 160.366 322.929 159.569 323.791C159.029 324.375 158.38 324.877 157.741 325.369C156.483 324.914 156.699 324.637 157.747 325.758C158.341 327.297 159.2 328.738 159.446 330.403C159.417 330.543 159.546 330.833 159.73 331.679H159.73Z" fill="#17282F"/>
<path d="M171.863 154.874C173.722 155.043 175.586 154.936 177.447 154.943C180.936 154.957 184.425 154.964 187.913 154.916C188.694 154.905 189.096 155.137 189.436 155.859C191.15 159.496 192.927 163.104 194.683 166.722C194.806 166.977 194.94 167.228 195.105 167.55C195.542 167.311 195.678 166.898 195.883 166.567C198.022 163.104 200.183 159.654 202.253 156.151C202.811 155.208 203.413 154.878 204.516 154.88C232.712 154.909 260.908 154.895 289.105 154.889C290.347 154.889 290.969 154.251 290.969 152.975C290.983 136.475 290.996 119.975 291.011 103.476C291.014 100.118 291.031 96.7608 291.033 93.4034C291.034 92.1004 291.024 92.0884 289.691 92.0852C282.044 92.0665 274.398 92.0569 266.752 92.0389C242.332 91.9815 217.911 91.922 193.491 91.8614C193.157 91.8606 192.824 91.8362 192.49 91.8227C192.392 91.767 192.363 91.7173 192.4 91.6729C192.435 91.6319 192.471 91.6111 192.508 91.6111C197.047 91.5801 201.586 91.5307 206.126 91.5212C223.378 91.4851 240.631 91.4659 257.884 91.4325C268.636 91.4117 279.389 91.3746 290.142 91.3503C291.851 91.3465 291.714 91.1747 291.714 92.8604C291.72 113.294 291.723 133.728 291.727 154.162C291.727 154.21 291.727 154.258 291.727 154.306C291.718 155.655 291.718 155.667 290.435 155.666C285.274 155.663 280.112 155.652 274.951 155.645C274.712 155.644 274.473 155.643 274.234 155.643C251.151 155.63 228.067 155.625 204.984 155.578C203.848 155.576 203.188 155.901 202.597 156.896C200.446 160.519 198.194 164.082 195.979 167.666C195.729 168.07 195.471 168.469 195.22 168.864C194.75 168.709 194.701 168.279 194.542 167.95C192.709 164.158 190.864 160.371 189.086 156.552C188.725 155.779 188.298 155.527 187.465 155.532C182.83 155.565 178.194 155.541 173.558 155.529C172.891 155.527 172.223 155.483 171.556 155.459C171.368 155.111 171.331 154.842 171.863 154.874H171.863Z" fill="#283138"/>
<path d="M131.611 314.983C132.294 314.68 132.557 315.265 132.882 315.629C134.983 317.982 137.063 320.353 139.153 322.717C148.014 332.743 156.876 342.768 165.738 352.792C165.836 353.888 165.927 354.983 165.168 356.009C163.942 354.962 162.943 353.75 161.872 352.614C155.417 345.769 133.287 322.633 130.191 319.51C128.352 317.654 128.949 315.78 131.611 314.983Z" fill="#17282F"/>
<path d="M194.24 329.801C186.948 327.377 179.731 324.737 172.483 322.188C170.457 321.476 168.436 320.749 166.42 320.01C165.713 319.75 164.938 319.595 164.424 318.957C161.406 317.659 158.279 316.657 155.202 315.521C153.018 314.715 150.865 313.817 148.618 313.189C147.346 313.235 146.297 312.659 145.284 311.982C142.762 310.901 132.387 307.044 131.987 306.896C129.313 305.907 126.634 304.935 123.961 303.943C118.737 302.004 113.516 300.058 108.297 298.106C107.945 297.975 107.618 297.776 107.312 297.506C108.415 297.561 109.417 298.004 110.426 298.369C113.695 299.55 116.944 300.789 120.205 301.993C126.102 304.17 131.998 306.354 137.905 308.506C142.827 310.3 147.768 312.043 152.695 313.824C159.683 316.351 166.657 318.918 173.654 321.421C180.652 323.925 187.654 326.416 194.709 328.754C195.885 329.143 197.048 329.573 198.204 330.015C198.898 330.279 199.398 330.168 199.741 329.463C199.928 329.078 200.211 328.741 200.407 328.36C202.225 324.83 204.018 321.286 205.85 317.763C207.196 315.176 208.576 312.606 209.968 310.044C210.772 308.566 210.789 308.444 209.388 307.541C204.02 304.08 198.639 300.638 193.264 297.187C186.085 292.578 178.909 287.963 171.727 283.359C167.479 280.635 163.22 277.929 158.968 275.212C151.618 270.517 144.267 265.823 136.922 261.121C133.831 259.142 130.744 257.155 127.677 255.138C127.264 254.867 126.672 254.73 126.552 254.11C127.5 253.802 128.072 254.651 128.852 254.861C134.303 258.583 139.956 261.989 145.505 265.557C152.102 269.797 158.727 273.993 165.346 278.199C167.152 279.347 167.153 279.377 168.768 278.072C176.505 271.82 184.147 265.455 191.563 258.821C193.131 257.419 194.77 256.097 196.287 254.637C196.843 254.103 197.464 253.853 198.218 254.197C197.725 254.645 197.215 255.076 196.74 255.543C194.253 257.985 191.569 260.203 188.977 262.526C186.775 264.5 184.511 266.397 182.265 268.316C180.021 270.234 177.737 272.107 175.43 273.949C173.124 275.79 170.765 277.563 168.435 279.375C167.742 279.914 167.739 280.121 168.51 280.625C170.745 282.085 172.995 283.523 175.247 284.955C177.942 286.669 180.65 288.361 183.346 290.074C189.904 294.241 196.458 298.414 203.01 302.59C203.221 302.724 203.434 302.801 203.673 302.828C203.844 303.344 204.354 303.468 204.738 303.718C207.137 305.277 209.552 306.813 211.962 308.357C212.144 308.821 211.867 309.123 211.593 309.428C210.467 310.71 202.454 325.906 200.289 330.064C200.136 330.357 199.948 330.647 199.962 331.002C199.01 332.081 194.832 329.998 194.24 329.801L194.24 329.801Z" fill="white"/>
<path d="M253.241 330.465C252.12 330.804 250.998 331.144 249.877 331.483C246.904 332.183 244.028 333.212 241.098 334.061C234.778 335.892 228.474 337.782 222.053 339.238C221.635 339.333 221.201 339.37 220.792 339.493C219.097 340.003 217.611 339.574 216.25 338.528C221.41 337.138 226.568 335.742 231.73 334.359C239.243 332.346 246.759 330.342 254.274 328.338C254.596 328.252 254.925 328.195 255.251 328.125C255.077 329.333 254.022 329.781 253.241 330.465Z" fill="#17282F"/>
<path d="M64.4655 240.916C63.5976 240.459 63.5498 240.538 62.0404 239.188C61.5186 238.698 61.0026 238.201 60.4742 237.718C57.2114 234.735 55.447 230.91 54.3378 226.719C52.8279 221.013 51.8374 215.22 51.3423 209.334C50.7561 202.365 50.0719 195.404 49.4772 188.435C48.8987 181.657 48.2379 174.885 47.91 168.087C47.8361 166.556 47.6605 165.03 47.7248 163.492C47.8911 164.815 48.1027 166.134 48.216 167.462C48.7246 173.425 49.2666 179.386 49.8879 185.339C50.3552 189.816 50.6929 194.306 51.1586 198.783C51.7579 204.545 51.9926 210.344 52.8627 216.078C53.5025 220.293 54.3392 224.468 55.5796 228.554C57.3844 234.5 61.1352 238.723 66.7251 241.346C67.1809 241.56 65.5747 241.5 64.4655 240.916Z" fill="#232F32"/>
<path d="M159.73 331.677C158.189 331.007 156.68 331.452 155.133 331.892C155.776 330.518 157.089 330.159 159.227 330.706C159.227 330.706 160.292 331.427 159.73 331.677L159.73 331.677Z" fill="white"/>
<path d="M211.391 309.213C211.692 309.002 211.814 308.672 211.959 308.357C213.002 307.907 213.612 308.052 214.263 308.944C214.81 309.694 215.244 310.567 215.244 311.465C215.195 312.563 215.193 313.647 214.734 314.703C213.628 317.252 209.825 318.833 207.391 316.808C207.406 316.528 207.376 316.231 207.679 316.064C207.914 315.925 208.125 316.036 208.343 316.121C210.58 316.986 212.009 316.555 213.446 314.585C213.98 313.451 214.399 312.301 213.945 311.028C213.847 310.516 213.695 310.01 213.339 309.631C212.782 309.038 212.465 309.261 212.375 309.998C212.139 311.689 212.796 313.189 213.362 314.709C211.81 315.129 210.314 314.807 208.825 314.373C208.519 314.146 208.538 313.928 208.585 313.715C208.863 313.188 209.55 313.345 209.932 313.415C211.477 313.696 211.406 312.915 211.102 311.802C210.865 310.937 210.676 310.004 211.391 309.213Z" fill="#262E31"/>
<path d="M171.864 154.877C171.609 154.991 171.547 155.207 171.557 155.461C170.951 155.172 171.257 154.625 171.256 154.21C171.244 149.343 171.26 144.476 171.274 139.609C171.285 135.887 171.304 132.166 171.319 128.444C171.584 128.347 171.707 128.498 171.791 128.717C171.815 137.437 171.84 146.157 171.864 154.877V154.877Z" fill="#47555A"/>
<path d="M171.787 128.716C171.63 128.625 171.473 128.534 171.315 128.443C171.298 125.424 171.265 122.404 171.266 119.384C171.266 115.212 171.291 111.039 171.305 106.867C171.469 106.659 171.633 106.659 171.797 106.867C171.815 113.721 171.835 120.574 171.85 127.427C171.851 127.857 171.809 128.286 171.787 128.716Z" fill="#7E878B"/>
<path d="M171.801 106.866C171.637 106.866 171.473 106.866 171.309 106.866C171.162 102.926 171.307 98.9856 171.283 95.0455C171.281 94.6656 171.282 94.2858 171.282 93.9062C171.934 93.961 171.816 94.4688 171.821 94.872C171.84 96.6811 171.852 98.4905 171.848 100.3C171.842 102.489 171.817 104.677 171.801 106.866H171.801Z" fill="#C6CACB"/>
<path d="M178.995 188.354C178.471 188.694 177.884 188.546 177.325 188.547C171.05 188.561 164.775 188.56 158.5 188.563C159.044 188.147 159.683 188.266 160.292 188.265C166.434 188.26 172.575 188.263 178.717 188.263C178.809 188.293 178.902 188.324 178.995 188.354V188.354Z" fill="#8A412C"/>
<path d="M224.501 316.599C223.51 317.654 222.787 318.887 222.136 320.17C221.492 321.44 221.211 322.847 220.64 324.147C220.414 321.587 221.322 319.422 222.943 317.511C223.283 317.111 223.665 316.748 224.028 316.367C224.217 316.38 224.393 316.42 224.501 316.599Z" fill="white"/>
<path d="M192.511 91.6166C192.503 91.687 192.497 91.7575 192.493 91.8282C188.543 91.9715 184.594 91.8537 180.645 91.8185C178.989 91.8037 177.326 91.8968 175.68 91.6214C178.675 91.6116 181.67 91.5952 184.665 91.5938C187.28 91.5926 189.896 91.6084 192.511 91.6166V91.6166Z" fill="#665258"/>
<path d="M161.698 337.13C160.246 337.159 158.981 337.808 157.706 338.38C157.375 338.041 157.665 337.852 157.836 337.659C158.809 336.565 160.093 336.39 161.452 336.447C161.785 336.584 162.158 336.706 161.698 337.13Z" fill="white"/>
<path d="M89.5391 330.45C89.5657 330.126 89.5075 329.693 89.937 329.648C90.8732 329.55 91.8221 329.507 92.7542 329.681C93.1196 329.75 93.2392 330.096 93.2667 330.45C92.0242 330.45 90.7816 330.45 89.5391 330.45Z" fill="#132450"/>
<path d="M133.109 238.135C129.4 236.902 125.781 235.423 122.148 233.989C111.193 229.664 100.373 225.018 89.6637 220.11C87.435 219.088 85.3919 217.8 83.5222 216.222C83.2797 216.091 83.3888 215.799 83.2489 215.62C81.8903 214.17 81.2844 212.376 80.9283 210.471C80.399 207.64 80.3353 204.761 80.107 201.901C79.6082 195.651 79.1702 189.396 78.7183 183.142C78.6492 182.187 78.6381 181.228 78.6002 180.271C78.6136 179.675 78.1126 178.994 78.8872 178.523C79.2972 183.63 79.7036 188.737 80.118 193.843C80.5014 198.567 80.8761 203.292 81.294 208.013C81.3908 209.105 81.5991 210.194 81.8411 211.265C82.4816 214.101 84.2616 216.088 86.6469 217.604C88.7542 218.944 91.0675 219.867 93.3246 220.896C106.099 226.718 119.008 232.223 132.094 237.306C132.539 237.478 132.976 237.673 133.417 237.857C133.442 238.092 133.359 238.206 133.109 238.135Z" fill="#242B2C"/>
<path d="M149.527 194.605C149.06 195.892 148.617 197.187 148.12 198.462C147.447 200.187 146.529 201.784 145.483 203.307C145.332 203.527 145.11 204.059 144.895 203.843C144.658 203.604 145.197 203.06 145.409 202.701C148.063 198.213 149.383 193.335 149.799 188.154C150.319 181.667 149.16 175.398 147.536 169.182C146.884 166.687 146.135 164.217 145.416 161.741C145.282 161.28 145.102 160.836 145.166 160.344C145.554 160.55 145.574 160.973 145.695 161.315C147.673 166.917 149.404 172.591 150.227 178.495C150.955 183.707 150.891 188.903 149.601 194.042C149.556 194.224 149.551 194.417 149.527 194.605Z" fill="#262E2E"/>
<path d="M83.2498 215.617C83.4733 215.757 83.5133 215.981 83.523 216.219C82.0588 216.896 80.5093 217.369 79.0943 218.171C75.2997 220.324 72.3997 223.337 70.3363 227.177C70.1121 227.595 69.8812 228.008 69.5195 228.668C69.5853 227.432 70.0269 226.598 70.4608 225.798C73.0663 220.997 76.9571 217.759 82.2073 216.212C82.6025 216.095 83.0915 216.15 83.2498 215.617Z" fill="#272E2E"/>
<path d="M78.8862 178.525C78.4167 179.045 78.7931 179.706 78.5992 180.272C78.4186 180.028 78.4022 179.742 78.3854 179.454C78.1678 175.737 77.9675 172.019 77.7221 168.303C77.6311 166.927 77.3795 165.56 77.6343 164.164C77.8324 165.041 77.8792 165.952 77.9703 166.833C78.3584 170.581 78.6241 174.342 78.9297 178.098C78.941 178.238 78.9018 178.382 78.8862 178.525Z" fill="#242B2C"/>
<path d="M116.225 244.754C116.197 244.83 116.19 244.908 116.206 244.988C115.537 244.965 114.869 244.943 114.2 244.921C114.2 244.867 114.199 244.813 114.199 244.759C114.874 244.636 115.55 244.723 116.225 244.754Z" fill="#132450"/>
<path d="M157.653 189.15C157.219 189.535 156.786 189.92 156.353 190.304C156.245 190.158 156.247 190.014 156.359 189.871C156.729 189.52 157.025 189.035 157.653 189.15Z" fill="#829798"/>
<path d="M156.361 189.867C156.359 190.012 156.357 190.156 156.355 190.301C156.159 190.487 156.124 190.83 155.79 190.881C155.695 190.382 156.022 190.121 156.361 189.867V189.867Z" fill="#5A5956"/>
<path d="M145.179 160.375C144.786 160.18 144.936 159.802 144.883 159.492C145.212 159.709 145.184 160.046 145.179 160.375Z" fill="#262E2E"/>
<path d="M128.836 255.129C127.913 255.159 127.387 254.287 126.552 254.117C126.339 253.853 126.052 253.699 125.747 253.573C125.7 253.355 125.787 253.152 125.991 253.145C128.354 253.064 130.722 252.803 133.073 253.277C133.202 253.452 133.21 253.673 133.034 253.766C131.716 254.465 130.428 255.277 128.836 255.129Z" fill="#EB7C24"/>
<path d="M133.097 253.573C132.747 253.573 125.683 253.36 125.423 253.36C125.018 253.098 124.935 253.044 124.531 252.781C127.819 252.807 131.106 252.83 134.393 252.863C134.577 252.865 134.76 252.946 134.943 252.99C134.409 253.443 133.908 253.573 133.097 253.573Z" fill="#242B2C"/>
<path d="M263.028 123.005C262.554 122.625 262.172 122.366 261.846 122.049C260.114 120.361 259.524 118.315 260.238 116.009C260.899 113.876 262.348 112.511 264.622 112.18C267.478 111.765 270.222 114.116 270.463 117.206C270.622 119.254 269.934 120.971 268.333 122.288C268.115 122.467 267.88 122.627 267.669 122.784C267.746 123.045 267.913 123.118 268.098 123.162C272.027 124.095 273.958 126.837 274.762 130.59C274.873 131.104 274.907 131.634 274.992 132.154C275.095 132.784 274.831 133.011 274.21 133.003C272.921 132.987 271.631 133.012 270.341 133.031C265.9 133.096 261.458 133.171 257.017 133.229C255.826 133.245 255.777 133.22 255.879 132.043C256.135 129.079 257.059 126.426 259.532 124.538C260.527 123.778 261.701 123.411 263.028 123.005V123.005Z" fill="#042CB0"/>
<path d="M197.684 113.786C207.324 113.769 216.964 113.751 226.604 113.737C230.898 113.731 235.191 113.736 239.618 113.736C239.333 114.381 238.909 114.206 238.595 114.209C232.821 114.256 227.047 114.313 221.272 114.317C213.78 114.322 206.287 114.282 198.794 114.262C198.499 113.928 197.795 114.552 197.684 113.786Z" fill="#616267"/>
<path d="M240.633 120.502C223.927 120.939 207.221 120.928 190.516 120.506C207.221 120.309 223.927 120.313 240.633 120.502Z" fill="#522E35"/>
<path d="M238.353 127.225C234.339 127.256 230.326 127.315 226.313 127.312C215.085 127.301 203.856 127.265 192.628 127.239C191.817 127.237 191.006 127.239 190.196 127.239C190.195 127.139 190.195 127.039 190.195 126.939C194.442 126.939 198.69 126.935 202.937 126.94C214.404 126.956 225.871 126.976 237.339 126.995C237.673 126.996 238.007 127.016 238.341 127.026C238.453 127.064 238.492 127.106 238.458 127.152C238.423 127.2 238.389 127.225 238.353 127.225V127.225Z" fill="#352930"/>
<path d="M211.152 135.465C221.368 135.108 231.584 135.102 241.8 135.467C231.584 135.676 221.368 135.679 211.152 135.465Z" fill="#203138"/>
<path d="M197.684 113.791C197.949 114.196 198.527 113.869 198.795 114.268C195.731 114.375 192.672 114.38 189.621 113.978C192.31 113.784 194.994 113.654 197.684 113.791Z" fill="#909497"/>
<path d="M238.355 127.221C238.35 127.155 238.346 127.089 238.344 127.023C239.515 126.886 240.68 126.969 241.844 127.118C240.684 127.279 239.523 127.366 238.355 127.221Z" fill="#887377"/>
<path d="M133.101 253.572C133.717 253.382 134.252 252.935 134.946 252.989C139.337 253.017 143.728 253.026 148.119 253.079C156.329 253.177 164.538 253.294 172.747 253.414C180.766 253.531 188.784 253.661 196.802 253.791C197.276 253.799 197.75 253.859 198.224 253.895C198.222 253.996 198.22 254.096 198.218 254.197C197.614 254.115 197.136 254.288 196.669 254.724C193.673 257.519 190.597 260.224 187.46 262.861C184.617 265.25 181.862 267.745 179.017 270.132C176.102 272.578 173.121 274.946 170.176 277.357C169.402 277.99 168.632 278.63 167.902 279.313C167.492 279.697 167.207 279.775 166.684 279.435C164.246 277.853 161.762 276.345 159.308 274.789C153.596 271.167 147.888 267.538 142.185 263.901C138.651 261.647 135.121 259.385 131.607 257.1C130.657 256.483 129.529 256.107 128.836 255.124C130.257 254.607 131.679 254.089 133.101 253.572H133.101Z" fill="#042CAF"/>
<path d="M212.313 328.641C212.306 329.799 211.486 330.65 210.374 330.654C209.126 330.658 208.227 329.814 208.263 328.671C208.3 327.474 209.063 326.687 210.208 326.665C211.458 326.64 212.32 327.45 212.313 328.641Z" fill="#FFFEFD"/>
<path d="M214.724 321.322C214.172 318.084 216.066 314.793 219.172 313.766C218.093 314.991 216.945 315.88 216.22 317.141C215.474 318.44 215.139 319.865 214.724 321.322Z" fill="white"/>
<path d="M229.462 318.312C228.29 320.83 228.119 323.461 228.354 326.281C226.949 324.299 227.474 320.48 229.462 318.312Z" fill="white"/>
<path d="M145.283 311.984C146.47 312.176 147.562 312.632 148.617 313.192C148.527 314.914 148.029 315.518 146.661 315.56C145.007 315.612 144.054 314.161 144.775 312.665C144.895 312.415 145.111 312.21 145.283 311.984Z" fill="#D9DAD6"/>
<path d="M157.647 325.135C157.848 325.456 158.304 325.852 157.434 325.854C156.776 325.259 155.941 325.034 155.121 324.853C154.354 324.683 153.553 324.675 152.727 324.592C153.913 323.4 155.723 323.62 157.647 325.135Z" fill="white"/>
<path d="M162.376 320.776C162.338 321.059 162.193 321.224 161.892 321.214C161.064 319.729 159.704 318.761 158.359 317.698C158.722 317.35 159.04 317.475 159.326 317.577C160.875 318.127 161.753 319.332 162.376 320.776Z" fill="white"/>
<path d="M249.806 1.20093L251.604 16.0968C251.657 16.5422 251.926 16.9326 252.322 17.1406L265.566 24.0986C266.563 24.6225 266.529 26.0669 265.508 26.5428L251.95 32.8623C251.545 33.0513 251.258 33.4284 251.183 33.8708L248.684 48.6643C248.495 49.7783 247.116 50.192 246.35 49.3644L236.173 38.3742C235.869 38.0456 235.423 37.8883 234.98 37.9537L220.192 40.1386C219.078 40.3031 218.26 39.1144 218.807 38.1271L226.075 25.0153C226.292 24.6232 226.304 24.1489 226.105 23.7469L219.465 10.3038C218.965 9.29145 219.838 8.14304 220.943 8.36041L235.612 11.247C236.05 11.3333 236.503 11.1975 236.823 10.8837L247.508 0.390462C248.312 -0.399708 249.67 0.0792412 249.806 1.20094V1.20093Z" fill="#042CB0"/>
<path opacity="0.1" d="M124.582 122.254C124.582 122.254 118.035 125.411 110.581 124.117C103.127 122.823 99.8203 120.461 99.8203 120.461C99.8203 120.461 104.791 128.237 114.648 128.237C114.648 128.237 119.885 128.231 124.524 127.068L124.582 122.254Z" fill="black"/>
<path d="M62.2237 289.871C59.5306 286.221 61.1465 281.815 65.2399 283.026C83.5662 288.449 120.808 300.752 150.693 293.763C191.971 284.11 229.178 289.157 242.578 291.602C245.74 292.18 248.883 290.526 250.225 287.595C253.674 280.063 259.933 265.877 262.373 256.999C265.82 244.455 256.34 228.893 245.783 226.402C235.226 223.91 185.889 231.48 185.889 231.48L119.101 243.807C119.101 243.807 104.451 233.534 90.3393 233.534C76.2276 233.534 63.5164 249.213 63.5164 249.213C63.5164 249.213 61.791 252.374 59.5306 258.425C58.139 262.15 56.3653 266.881 55.1992 272.91C53.8711 279.778 53.9284 287.812 53.3904 297.899C53.3904 297.899 52.4209 314.2 51.3437 316.687C50.5294 318.567 46.3607 325.885 42.0942 329.346C41.0672 330.179 41.4879 331.831 42.7918 332.04C50.4268 333.267 67.333 335.098 80.375 332.529C80.375 332.529 80.9405 317.12 75.3659 308.686C69.7912 300.251 62.2237 289.871 62.2237 289.871H62.2237Z" fill="#EF7E22"/>
<path d="M124.531 252.785C121.121 250.599 117.711 248.414 114.301 246.228C113.786 245.897 113.273 245.561 112.516 245.069C113.243 245.007 113.721 244.967 114.198 244.927C114.838 244.752 115.491 244.882 116.137 244.842C121.415 245.146 126.699 245.309 131.984 245.442C133.166 245.472 134.359 245.512 135.544 245.668C137.065 245.868 137.921 245.294 138.437 243.969C140.346 239.067 141.963 234.057 143.405 229.01C146.007 219.901 149.025 210.93 151.987 201.942C153.206 198.24 154.399 194.518 155.793 190.873L155.785 190.887C155.957 190.633 156.11 190.365 156.355 190.17C156.764 189.802 157.068 189.299 157.649 189.152C157.746 189.058 157.842 188.964 157.939 188.87C158.617 188.595 159.33 188.57 160.048 188.57C172.044 188.571 184.041 188.442 196.035 188.609C207.311 188.766 218.585 188.631 229.86 188.713C230.379 188.716 230.912 188.819 231.419 188.607C233.684 188.807 234.888 190.329 235.446 192.62C235.564 193.101 235.408 193.556 235.263 194.018C233.81 198.658 215.565 250.079 213.432 251.72C211.832 253.413 209.9 254.283 207.584 254.294C204.341 254.309 126.54 253.4 124.531 252.785Z" fill="#DADBD8"/>
<path d="M188.197 214.759C191.125 214.725 192.726 216.472 192.735 219.13C192.743 221.435 190.6 223.409 188.22 223.4C185.751 223.391 183.833 221.624 183.9 219.234C183.975 216.571 185.631 214.6 188.197 214.759Z" fill="white"/>
<path d="M133.111 238.132C133.213 238.039 133.315 237.946 133.417 237.854C135.189 238.533 136.973 239.183 138.727 239.907C139.379 240.177 139.683 240.036 139.884 239.392C141.045 235.668 142.22 231.948 143.39 228.227C144.695 224.234 146.01 220.245 147.303 216.249C148.905 211.299 150.485 206.341 152.086 201.391C152.219 200.979 152.358 200.576 152.387 200.143C153.475 197.504 154.166 194.729 155.131 192.047C155.287 191.616 155.284 191.096 155.796 190.867C155.484 192.614 154.802 194.252 154.266 195.93C149.145 211.959 144.005 227.981 138.845 243.998C138.116 246.261 138.639 245.913 136.227 245.843C130.167 245.665 124.108 245.432 118.049 245.206C117.433 245.184 116.821 245.063 116.207 244.988C116.109 244.928 116.08 244.873 116.118 244.824C116.153 244.778 116.189 244.755 116.225 244.755C117.757 244.565 119.272 244.854 120.795 244.903C125.234 245.049 129.675 245.169 134.114 245.298C134.21 245.301 136.646 245.294 136.738 245.309C138.242 245.546 138.556 243.466 138.747 243.052C139.495 240.609 139.414 240.482 138.719 240.25C136.999 239.677 135.305 239.025 133.603 238.398C133.43 238.334 133.274 238.222 133.111 238.132Z" fill="#242B2C"/>
<path d="M52.9455 307.615L52.375 307.553C52.9668 301.997 53.761 289.746 54.012 279.643C54.2743 269.059 62.2813 251.094 62.362 250.914C66.9397 241.753 73.0345 236.078 80.481 234.034C92.1578 230.829 103.202 237.841 103.312 237.912L103.001 238.397C102.892 238.327 92.053 231.452 80.6278 234.591C73.3466 236.591 67.3757 242.166 62.8804 251.161C62.8048 251.33 54.8454 269.189 54.5859 279.658C54.3343 289.775 53.5385 302.047 52.9455 307.615L52.9455 307.615Z" fill="#242B2C"/>
</svg>
