<svg width="583" height="512" viewBox="0 0 583 512" fill="none" xmlns="http://www.w3.org/2000/svg">
<g clip-path="url(#clip0_10364_124427)">
<path d="M552.322 266.207C545.513 212.017 524.117 158.107 496.275 114.024C460.059 56.6773 402.194 10.6691 333.542 2.1425C284.952 -3.89319 229.546 11.4807 191.97 44.4561C173.284 60.8538 158.885 81.2534 150.385 104.641C141.187 129.943 137.269 158.94 117.452 178.802C93.6372 202.672 60.7483 214.093 36.1438 236.878C-18.4083 287.398 -2.4827 378.653 43.473 429.058C84.8382 474.431 146.212 466.037 201.395 474.591C243.287 481.081 279.542 504.753 322.354 509.233C384.297 515.715 448.243 494.934 493.677 452.02C546.574 402.054 560.831 333.911 552.322 266.207Z" fill="#FDF2E9"/>
<mask id="mask0_10364_124427" style="mask-type:luminance" maskUnits="userSpaceOnUse" x="0" y="-2" width="583" height="513">
<path d="M0 0.00780308L583 -1.67578V508.449L0 510.133V0.00780308Z" fill="white"/>
</mask>
<g mask="url(#mask0_10364_124427)">
<path d="M347.84 509.501L353.439 426.253L348.099 363.977C348.099 363.977 300.236 380.555 242.093 366.464L240.574 439.964L244 483.091C271.88 492.578 298.759 505.227 328.885 508.378C335.191 509.039 341.515 509.401 347.84 509.501Z" fill="#172C3A"/>
<path d="M347.839 509.512L348.46 509.555L354.057 426.307L354.056 426.198L348.356 374.025C348.336 373.857 348.253 373.706 348.12 373.601C347.987 373.496 347.819 373.451 347.653 373.474C347.652 373.474 347.489 373.496 347.158 373.537C344.852 373.819 334.597 374.952 319.107 374.952C299.841 374.952 272.476 373.197 242.238 365.869C242.053 365.825 241.861 365.865 241.71 365.982C241.561 366.097 241.472 366.273 241.468 366.461L239.949 439.963V440.026L243.377 483.151C243.398 483.399 243.564 483.613 243.799 483.692C271.635 493.159 298.557 505.84 328.818 509.011C335.143 509.673 341.487 510.036 347.828 510.137C348.16 510.141 348.438 509.885 348.46 509.555L347.839 509.512L347.848 508.888C341.541 508.79 335.234 508.426 328.948 507.769C298.958 504.635 272.122 492.017 244.199 482.511L243.999 483.102L244.619 483.052L241.194 439.957L242.713 366.488L242.09 366.476L241.945 367.083C272.307 374.441 299.765 376.201 319.107 376.201C336.88 376.201 347.797 374.715 347.819 374.712L347.735 374.093L347.117 374.162L352.811 426.279L347.217 509.471L347.839 509.512Z" fill="#172C3A"/>
<path d="M347.734 366.091C347.734 366.091 300.23 372.567 242.087 358.477L241.91 367.081C246.682 370.607 259.125 377.605 285.789 380.944C313.576 384.426 338.477 378.63 348.78 375.669L347.734 366.091Z" fill="#6C6D73"/>
<path d="M316.408 389.481C318.556 389.308 320.645 389.097 322.661 388.856V375.547C306.292 375.733 283.147 374.697 256.977 369.688L258.44 374.082V383.055C260.095 383.606 261.887 384.153 263.811 384.687L264.14 374.465L316.963 378.654L316.408 389.481Z" fill="#172C3A"/>
<path d="M316.4 389.477L316.449 390.1C318.606 389.925 320.702 389.713 322.726 389.472C323.04 389.435 323.276 389.169 323.276 388.852V375.543C323.276 375.377 323.209 375.217 323.091 375.099C322.973 374.983 322.813 374.917 322.646 374.918C321.498 374.932 320.315 374.938 319.101 374.938C303.046 374.938 281.369 373.718 257.085 369.07C256.868 369.027 256.644 369.105 256.499 369.272C256.354 369.438 256.308 369.671 256.378 369.881L257.809 374.18V383.05C257.809 383.32 257.979 383.557 258.235 383.642C259.9 384.199 261.703 384.749 263.636 385.282C263.819 385.335 264.017 385.299 264.171 385.184C264.326 385.07 264.419 384.894 264.423 384.702L264.733 375.135L316.301 379.224L315.777 389.446C315.768 389.625 315.835 389.8 315.965 389.925C316.094 390.051 316.27 390.114 316.449 390.1L316.4 389.477L317.022 389.51L317.575 378.681C317.593 378.343 317.339 378.053 317.002 378.026L264.18 373.839C264.009 373.824 263.843 373.881 263.716 373.995C263.588 374.11 263.514 374.27 263.509 374.44L263.18 384.662L263.801 384.683L263.967 384.08C262.054 383.55 260.271 383.007 258.628 382.458L258.43 383.05H259.054V374.078L259.021 373.881L257.559 369.486L256.968 369.683L256.85 370.296C281.229 374.962 302.985 376.188 319.101 376.188C320.321 376.188 321.507 376.182 322.661 376.167L322.653 375.543H322.03V388.852H322.653L322.58 388.232C320.569 388.472 318.488 388.682 316.348 388.855L316.4 389.477Z" fill="#172C3A"/>
<path d="M276.41 387.532C279.321 388.053 282.442 388.529 285.787 388.95C289.689 389.437 293.531 389.737 297.288 389.894L297.569 381.713L277.047 378.285L276.41 387.532Z" fill="white"/>
<path d="M276.408 387.524L276.301 388.139C279.22 388.661 282.354 389.139 285.708 389.559C289.629 390.051 293.487 390.353 297.259 390.51C297.425 390.517 297.586 390.457 297.707 390.344C297.83 390.232 297.902 390.073 297.908 389.909L298.189 381.726C298.201 381.413 297.976 381.14 297.668 381.089L277.147 377.661C276.975 377.631 276.797 377.678 276.66 377.787C276.521 377.896 276.435 378.059 276.423 378.234L275.787 387.483C275.766 387.799 275.987 388.083 276.301 388.139L276.408 387.524L277.03 387.566L277.619 379.007L296.924 382.231L296.662 389.864L297.286 389.886L297.311 389.263C293.57 389.106 289.746 388.807 285.863 388.321C282.527 387.903 279.418 387.427 276.518 386.91L276.408 387.524Z" fill="#172C3A"/>
<path d="M262.059 385.992L261.971 386.159C261.527 386.998 259.409 390.859 256.232 394.702C253.057 398.555 248.81 402.35 244.258 403.181C243.921 403.244 243.698 403.57 243.761 403.908C243.822 404.248 244.148 404.471 244.486 404.408C249.89 403.389 254.504 398.895 257.829 394.71C261.147 390.517 263.155 386.584 263.169 386.561C263.325 386.255 263.203 385.878 262.898 385.721C262.591 385.564 262.216 385.685 262.059 385.992Z" fill="#818388"/>
<path d="M329.959 415.11C330.76 415.865 331.62 416.584 332.542 417.253C332.822 417.455 333.21 417.392 333.412 417.114C333.614 416.835 333.551 416.446 333.274 416.243C332.395 415.605 331.578 414.921 330.814 414.201C330.564 413.965 330.168 413.977 329.933 414.228C329.697 414.479 329.709 414.875 329.959 415.11Z" fill="#818388"/>
<path d="M319.374 393.584C319.386 393.636 320.588 403.399 326.777 411.545C326.985 411.819 327.376 411.872 327.65 411.662C327.923 411.454 327.976 411.061 327.768 410.787C324.793 406.88 322.995 402.529 321.95 399.16C321.427 397.474 321.09 396.036 320.887 395.021C320.784 394.514 320.715 394.113 320.67 393.84C320.649 393.704 320.633 393.599 320.624 393.529L320.61 393.43C320.567 393.088 320.256 392.846 319.914 392.888C319.573 392.931 319.331 393.243 319.374 393.584Z" fill="#818388"/>
<path d="M295.861 493.005L295.87 499.548C295.87 499.894 296.15 500.173 296.494 500.173C296.837 500.172 297.116 499.892 297.116 499.547L297.107 493.004C297.107 492.658 296.829 492.379 296.485 492.379C296.139 492.38 295.861 492.66 295.861 493.005Z" fill="#818388"/>
<path d="M280.826 443.109L295.814 456.252L295.855 488.256C295.857 488.601 296.136 488.879 296.48 488.879C296.824 488.879 297.104 488.598 297.102 488.254L297.06 455.968C297.06 455.787 296.983 455.617 296.847 455.499L281.647 442.169C281.387 441.943 280.995 441.97 280.768 442.229C280.54 442.487 280.567 442.882 280.826 443.109Z" fill="#818388"/>
<path d="M280.672 405.001L281.744 432.39C281.752 432.574 281.843 432.749 281.989 432.861L289.97 438.954C290.162 439.1 290.417 439.123 290.631 439.014C290.845 438.903 290.977 438.682 290.971 438.441L290.21 409.88C290.201 409.535 289.915 409.263 289.571 409.272C289.228 409.282 288.955 409.569 288.964 409.913L289.691 437.172L282.977 432.046L281.918 404.951C281.904 404.608 281.614 404.339 281.27 404.352C280.926 404.365 280.659 404.657 280.672 405.001Z" fill="#818388"/>
<path d="M280.229 393.528L280.422 398.448C280.437 398.793 280.725 399.061 281.069 399.047C281.413 399.034 281.681 398.744 281.667 398.4L281.474 393.479C281.462 393.133 281.171 392.867 280.827 392.879C280.483 392.893 280.216 393.184 280.229 393.528Z" fill="#818388"/>
<path d="M298.75 224.412C298.75 224.412 255.587 225.764 252.553 227.792C249.518 229.818 224.228 242.321 224.228 242.321C224.228 242.321 232.995 224.75 232.995 217.654C232.995 210.558 227.599 206.164 217.819 202.447C208.041 198.729 194.553 204.137 191.856 211.571C189.158 219.005 176.345 264.964 174.996 278.141C173.646 291.32 191.182 302.809 198.6 302.134C206.019 301.458 243.785 287.603 243.785 287.603C243.785 287.603 232.087 403.467 231.884 405.485C230.95 414.767 232.548 415.949 236.562 417.714C270.157 432.485 313.943 429.986 338.138 426.412C339.884 426.154 339.803 368.116 341.407 367.846C342.748 367.619 346.138 424.474 347.371 424.245C357.134 422.44 356.526 422.056 357.526 421.956C360.898 421.616 351.015 373.774 351.015 370.732C351.015 367.69 353.714 344.374 353.714 344.374L358.771 364.987C358.771 364.987 362.143 368.705 372.935 369.718C383.725 370.732 392.154 365.325 394.515 359.919C396.875 354.512 396.875 353.16 396.875 353.16C396.875 353.16 374.957 269.354 373.271 261.92C371.586 254.488 371.923 254.488 367.202 249.081C362.481 243.674 331.794 231.508 323.365 229.142C314.935 226.777 298.75 224.412 298.75 224.412Z" fill="#EF7E22"/>
<path d="M242.244 420.271C230.679 417.806 231.582 408.1 231.582 408.1L233.756 387.336L239.088 339.424C239.24 335.164 244.406 287.625 244.406 287.619C244.413 287.409 244.318 287.212 244.15 287.091C243.98 286.968 243.764 286.939 243.569 287.009C243.567 287.01 242.98 287.226 241.933 287.605C238.271 288.934 229.01 292.269 219.858 295.344C215.284 296.881 210.735 298.353 206.935 299.475C203.14 300.597 200.057 301.37 198.542 301.505C198.353 301.521 198.156 301.53 197.95 301.53C196.229 301.534 193.921 300.916 191.471 299.776C187.79 298.069 183.777 295.207 180.714 291.671C177.645 288.134 175.54 283.946 175.543 279.581C175.543 279.12 175.567 278.66 175.615 278.198C176.274 271.706 179.814 256.901 183.521 242.853C187.224 228.804 191.111 215.437 192.44 211.776C193.404 209.098 195.961 206.591 199.328 204.783C202.688 202.972 206.835 201.858 210.883 201.859C213.206 201.859 215.498 202.224 217.597 203.022C222.448 204.864 226.171 206.87 228.644 209.226C231.113 211.592 232.362 214.259 232.371 217.647C232.374 219.297 231.843 221.693 231.028 224.308C229.808 228.235 227.967 232.676 226.431 236.125C225.663 237.851 224.972 239.33 224.473 240.376C223.974 241.423 223.669 242.034 223.669 242.036C223.549 242.275 223.596 242.565 223.784 242.755C223.972 242.944 224.262 242.992 224.502 242.874C224.503 242.874 230.825 239.747 237.529 236.367C240.882 234.676 244.331 232.923 247.132 231.462C248.533 230.733 249.772 230.077 250.76 229.538C251.75 228.997 252.478 228.582 252.897 228.302C252.956 228.256 253.272 228.126 253.72 228.017C255.441 227.583 259.175 227.16 263.733 226.795C270.581 226.247 279.344 225.804 286.389 225.499C289.913 225.347 293.009 225.229 295.221 225.149C297.435 225.069 298.762 225.028 298.767 225.028L298.747 224.404L298.658 225.021" stroke="#172C3A" stroke-width="1.49487" stroke-linecap="round" stroke-linejoin="round"/>
<path d="M223.643 242.121L209.48 281.657C209.364 281.981 209.533 282.339 209.857 282.455C210.18 282.572 210.537 282.403 210.652 282.079L224.816 242.542C224.933 242.218 224.764 241.861 224.439 241.744C224.117 241.627 223.759 241.796 223.643 242.121Z" fill="#172C3A"/>
<path d="M217.875 259.271C217.875 259.274 217.917 259.894 217.958 260.981C217.999 262.064 218.042 263.61 218.042 265.437C218.042 269.092 217.873 273.884 217.206 278.4C217.154 278.741 217.39 279.058 217.73 279.109C218.071 279.16 218.389 278.924 218.438 278.583C219.12 273.973 219.287 269.131 219.287 265.437C219.287 261.745 219.118 259.199 219.118 259.188C219.094 258.844 218.798 258.584 218.456 258.607C218.111 258.631 217.852 258.927 217.875 259.271Z" fill="#172C3A"/>
<path d="M244.407 287.62L245.418 250.786C245.427 250.441 245.156 250.154 244.812 250.145C244.468 250.136 244.183 250.408 244.172 250.752L243.16 287.585C243.151 287.931 243.422 288.218 243.766 288.227C244.11 288.236 244.397 287.964 244.407 287.62Z" fill="#172C3A"/>
<path d="M244.363 280.954C244.363 280.952 244.277 280.743 244.12 280.344C243.016 277.55 238.536 265.598 237.666 254.784C237.636 254.441 237.337 254.183 236.994 254.213C236.651 254.24 236.396 254.541 236.424 254.886C237.451 267.53 243.203 281.401 243.212 281.432C243.345 281.75 243.709 281.901 244.025 281.77C244.344 281.637 244.495 281.272 244.363 280.954Z" fill="#172C3A"/>
<path d="M354.329 344.489L365.666 276.97C365.723 276.629 365.494 276.308 365.155 276.251C364.816 276.193 364.494 276.423 364.438 276.762L353.1 344.281C353.044 344.622 353.271 344.945 353.612 345C353.95 345.059 354.271 344.83 354.329 344.489Z" fill="#172C3A"/>
<path d="M358.739 318.934L369.13 286.675C369.236 286.346 369.057 285.995 368.73 285.89C368.402 285.784 368.051 285.963 367.945 286.292L357.554 318.551C357.448 318.88 357.627 319.23 357.956 319.336C358.283 319.442 358.633 319.263 358.739 318.934Z" fill="#172C3A"/>
<path d="M299.478 217.953C299.478 217.953 293.396 219.095 293.017 221.381C292.636 223.665 287.317 227.854 286.176 236.614C285.036 245.374 286.556 257.56 286.556 257.56C286.556 257.56 298.337 252.228 300.618 251.848C302.898 251.465 309.357 252.228 310.496 254.132C311.637 256.036 317.717 267.841 320.759 265.937C323.798 264.034 338.238 248.037 338.998 235.09C339.758 222.142 327.218 223.284 325.699 222.523C324.179 221.761 299.478 217.953 299.478 217.953Z" fill="#EF7E22"/>
<path d="M299.476 217.964L299.36 217.351C299.342 217.355 297.8 217.644 296.174 218.234C295.361 218.532 294.525 218.901 293.832 219.378C293.148 219.852 292.549 220.447 292.399 221.288C292.349 221.662 291.991 222.327 291.428 223.155C289.745 225.671 286.427 229.807 285.557 236.545C285.241 238.972 285.127 241.639 285.127 244.24C285.127 251.172 285.934 257.633 285.936 257.648C285.961 257.844 286.076 258.017 286.248 258.114C286.422 258.211 286.629 258.22 286.81 258.138C286.812 258.138 287.544 257.806 288.682 257.303C290.39 256.545 293.005 255.4 295.401 254.41C296.599 253.915 297.742 253.459 298.685 253.111C299.623 252.766 300.387 252.526 300.718 252.474C301.046 252.419 301.515 252.386 302.061 252.386C303.424 252.386 305.266 252.58 306.84 252.964C307.628 253.156 308.35 253.393 308.904 253.664C309.462 253.93 309.834 254.238 309.961 254.464C310.211 254.879 310.745 255.863 311.441 257.075C312.489 258.899 313.912 261.264 315.397 263.198C316.14 264.169 316.896 265.03 317.655 265.674C318.413 266.309 319.177 266.768 320.032 266.779C320.394 266.78 320.765 266.68 321.086 266.477C321.533 266.196 322.103 265.722 322.807 265.062C325.26 262.759 329.263 258.194 332.767 252.748C336.265 247.3 339.268 240.991 339.618 235.138C339.64 234.745 339.652 234.365 339.652 233.996C339.655 230.95 338.878 228.658 337.657 226.973C335.824 224.442 333.073 223.333 330.707 222.773C329.519 222.491 328.415 222.346 327.551 222.237C327.121 222.182 326.749 222.137 326.468 222.091C326.188 222.048 325.985 221.986 325.974 221.976C325.784 221.885 325.595 221.831 325.309 221.753C324.272 221.479 322.177 221.077 319.575 220.614C311.784 219.23 299.573 217.348 299.57 217.348L299.36 217.351L299.476 217.964L299.381 218.581C299.385 218.582 300.923 218.819 303.263 219.188C306.77 219.741 312.068 220.589 316.627 221.369C318.907 221.758 321.002 222.131 322.593 222.442C323.388 222.598 324.056 222.737 324.556 222.853C324.804 222.91 325.01 222.964 325.163 223.009C325.312 223.049 325.417 223.091 325.417 223.092C325.767 223.257 326.119 223.3 326.607 223.373C328.267 223.601 331.256 223.843 333.784 225.229C335.047 225.922 336.189 226.885 337.026 228.278C337.862 229.671 338.406 231.51 338.406 233.996C338.406 234.338 338.397 234.696 338.374 235.065C338.017 241.325 334.277 248.505 330.22 254.308C328.194 257.211 326.097 259.775 324.321 261.724C323.435 262.699 322.627 263.52 321.955 264.151C321.286 264.78 320.739 265.224 320.425 265.418C320.297 265.497 320.182 265.529 320.032 265.53C319.803 265.533 319.472 265.429 319.078 265.182C318.392 264.754 317.564 263.919 316.739 262.89C315.495 261.346 314.24 259.368 313.214 257.637C312.184 255.902 311.393 254.429 311.029 253.821C310.682 253.254 310.115 252.869 309.447 252.54C307.439 251.577 304.279 251.147 302.061 251.138C301.467 251.139 300.946 251.171 300.512 251.241C299.823 251.362 298.676 251.77 297.232 252.329C292.927 254 286.302 256.999 286.297 257.001L286.555 257.57L287.172 257.492C287.172 257.492 287.124 257.098 287.048 256.389C286.824 254.268 286.374 249.368 286.374 244.24C286.374 241.677 286.486 239.055 286.792 236.705C287.348 232.437 288.915 229.298 290.407 226.912C291.154 225.719 291.882 224.719 292.462 223.852C293.039 222.979 293.491 222.264 293.628 221.493C293.669 221.194 293.972 220.789 294.537 220.408C295.367 219.832 296.649 219.354 297.706 219.044C298.235 218.889 298.711 218.771 299.05 218.693C299.221 218.654 299.357 218.624 299.451 218.605L299.59 218.578L299.476 217.964Z" fill="#172C3A"/>
<path d="M299.468 205.773C299.468 205.773 298.329 216.818 297.568 225.957C296.807 235.097 295.667 244.619 299.468 249.57C300.181 250.498 298.85 260.536 298.789 269.279C298.729 278.022 299.938 285.471 300.182 284.584C307.878 256.579 305.168 256.996 310.868 252.711C319.989 245.856 331.01 235.478 332.53 229.004C334.049 222.531 336.33 215.675 336.33 215.675C336.33 215.675 317.709 220.626 299.468 205.773Z" fill="#F3B783"/>
<path d="M307.798 254.372C310.724 254.361 312.261 252.437 316.94 248.929C326.099 242.04 331.548 235.868 333.134 229.15C333.89 225.933 334.836 222.61 335.594 220.096C335.972 218.839 336.304 217.782 336.54 217.04C336.778 216.3 336.919 215.876 336.919 215.876C336.99 215.659 336.938 215.417 336.781 215.251C336.624 215.083 336.389 215.016 336.167 215.075L336.046 215.106C335.448 215.248 332.694 215.847 328.606 215.846C321.59 215.844 310.672 214.095 299.859 205.292C299.683 205.147 299.439 205.113 299.227 205.199C299.016 205.288 298.87 205.485 298.846 205.712L299.466 205.776L299.073 206.261C310.148 215.281 321.391 217.097 328.606 217.094C333.418 217.094 336.448 216.293 336.487 216.281L336.328 215.678L335.736 215.481C335.733 215.492 333.449 222.353 331.921 228.865C330.468 235.095 325.275 241.109 316.192 247.929C311.603 251.386 310.692 252.422 307.799 253.124" fill="#172C3A"/>
<path d="M299.475 205.762C299.475 205.762 298.51 215.105 297.764 223.717C300.268 226.388 303.537 228.481 307.903 229.402C320.188 231.994 331.285 222.736 335.795 217.341C336.127 216.295 336.336 215.664 336.336 215.664C336.336 215.664 317.714 220.615 299.475 205.762Z" fill="#F3B783"/>
<path d="M298.942 177.691L299.537 177.507C299.526 177.479 299.32 176.797 298.876 176.072C298.653 175.71 298.372 175.335 297.995 175.027C297.625 174.722 297.133 174.483 296.563 174.484C296.125 174.483 295.671 174.625 295.23 174.903C294.787 175.181 294.349 175.591 293.893 176.159C292.499 177.927 292.037 180.564 292.029 183.232C292.029 185.149 292.283 187.086 292.681 188.735C293.088 190.388 293.608 191.735 294.282 192.562C294.463 192.788 294.76 193.001 295.128 193.001C295.462 192.998 295.719 192.834 295.897 192.667C296.233 192.341 296.453 191.91 296.686 191.365C297.471 189.476 298.167 186.122 298.696 183.186C299.22 180.258 299.557 177.781 299.557 177.776L299.537 177.507L298.942 177.691L298.323 177.607C298.323 177.609 298.2 178.518 297.985 179.89C297.663 181.944 297.136 185.034 296.526 187.584C296.222 188.858 295.895 190 295.577 190.788C295.42 191.178 295.261 191.481 295.14 191.644L295.022 191.774L295.128 191.97V191.752L295.022 191.774L295.128 191.97V191.752V192.001L295.254 191.782L295.128 191.752V192.001L295.254 191.782L295.225 191.831L295.263 191.789L295.254 191.782L295.225 191.831L295.263 191.789L295.239 191.762C294.793 191.242 294.26 189.985 293.893 188.441C293.518 186.893 293.276 185.038 293.276 183.232C293.269 180.714 293.765 178.298 294.867 176.939C295.258 176.449 295.607 176.139 295.891 175.961C296.176 175.782 296.39 175.734 296.563 175.733C296.784 175.734 296.988 175.818 297.211 175.996C297.541 176.26 297.849 176.739 298.048 177.15C298.149 177.355 298.226 177.54 298.275 177.674L298.33 177.828L298.345 177.873L298.942 177.691Z" fill="#172C3A"/>
<path d="M304.287 154.379C304.287 154.379 292.624 192.63 294.389 200.777C296.156 208.922 299.338 222.736 312.768 225.569C326.198 228.402 338.214 217.068 341.75 212.111C341.75 212.111 350.938 213.172 353.414 207.152C355.887 201.129 359.422 194.755 355.886 193.338C352.353 191.921 350.938 191.921 350.938 191.921C350.938 191.921 360.836 176.338 361.542 171.026C362.247 165.713 358.713 148.004 347.405 139.503C336.094 131.003 317.009 129.94 318.069 133.836C319.131 137.731 321.603 138.086 321.603 138.086C321.603 138.086 299.338 135.606 297.57 141.628C295.803 147.649 305.346 151.192 305.346 151.192L304.287 154.379Z" fill="#F3B783"/>
<path d="M304.284 154.382L303.689 154.199C303.686 154.205 301.166 162.475 298.643 172.151C297.381 176.99 296.119 182.18 295.17 186.871C294.222 191.567 293.585 195.746 293.584 198.634C293.584 199.512 293.642 200.271 293.78 200.913C294.666 204.991 295.91 210.543 298.661 215.473C301.404 220.4 305.722 224.73 312.639 226.182C314.14 226.499 315.626 226.644 317.08 226.644C323.066 226.642 328.554 224.21 332.939 221.241C337.331 218.267 340.625 214.758 342.254 212.475L341.747 212.114L341.677 212.734C341.695 212.736 342.342 212.81 343.341 212.81C344.758 212.809 346.878 212.664 348.93 211.925C350.975 211.194 352.99 209.825 353.987 207.393C354.842 205.309 355.833 203.167 356.62 201.183C357.403 199.193 357.994 197.38 357.999 195.843C357.999 195.177 357.883 194.547 357.575 193.999C357.269 193.45 356.762 193.017 356.117 192.761C352.528 191.324 351.041 191.301 350.936 191.301V191.925L351.462 192.259C351.465 192.254 353.944 188.351 356.515 183.775C357.802 181.487 359.112 179.029 360.151 176.799C361.187 174.561 361.958 172.577 362.158 171.111C362.22 170.646 362.249 170.114 362.249 169.514C362.246 166.107 361.276 160.518 358.994 154.739C356.708 148.968 353.107 143.016 347.776 139.007C340.376 133.459 329.899 131.061 323.465 131.051C321.783 131.052 320.375 131.212 319.321 131.559C318.792 131.735 318.347 131.956 317.997 132.273C317.645 132.583 317.399 133.041 317.403 133.537C317.403 133.694 317.426 133.851 317.468 134.004C318.027 136.065 318.994 137.265 319.853 137.921C320.713 138.58 321.439 138.697 321.514 138.707L321.602 138.089L321.671 137.469C321.658 137.467 317.1 136.959 311.917 136.959C308.769 136.96 305.394 137.144 302.629 137.759C301.247 138.069 300.015 138.485 299.025 139.068C298.042 139.649 297.273 140.428 296.973 141.455C296.805 142.02 296.728 142.574 296.728 143.107C296.728 144.556 297.296 145.835 298.103 146.907C299.315 148.516 301.064 149.712 302.51 150.529C303.958 151.344 305.108 151.772 305.129 151.781L305.346 151.195L304.754 150.997L303.694 154.184L303.689 154.199L304.284 154.382L304.875 154.579L305.936 151.392C306.042 151.072 305.876 150.727 305.562 150.609L305.483 150.579C305.074 150.419 303.135 149.618 301.342 148.3C300.445 147.643 299.589 146.858 298.97 145.982C298.353 145.103 297.974 144.151 297.974 143.107C297.974 142.694 298.034 142.263 298.167 141.807C298.35 141.183 298.837 140.631 299.659 140.143C300.883 139.414 302.797 138.908 304.973 138.612C307.151 138.313 309.596 138.208 311.917 138.208C314.469 138.208 316.877 138.334 318.644 138.459C319.529 138.522 320.253 138.585 320.755 138.632C321.257 138.679 321.532 138.71 321.534 138.71C321.871 138.747 322.178 138.506 322.22 138.168C322.263 137.829 322.027 137.52 321.691 137.471C321.628 137.459 321.108 137.346 320.489 136.832C319.873 136.315 319.14 135.395 318.671 133.675L318.649 133.537C318.655 133.427 318.677 133.35 318.835 133.197C319.067 132.975 319.628 132.718 320.429 132.557C321.23 132.389 322.266 132.299 323.465 132.299C329.61 132.289 339.964 134.679 347.029 140.006C352.099 143.811 355.609 149.568 357.835 155.199C360.064 160.823 361.007 166.33 361.004 169.514C361.004 170.07 360.974 170.553 360.922 170.946C360.77 172.136 360.039 174.093 359.022 176.271C357.496 179.549 355.34 183.387 353.569 186.396C352.684 187.901 351.893 189.202 351.325 190.123C350.755 191.046 350.412 191.588 350.41 191.589C350.29 191.782 350.281 192.026 350.391 192.224C350.5 192.425 350.709 192.549 350.936 192.549V192.47L350.933 192.549H350.936V192.47L350.933 192.549C351.008 192.55 352.389 192.613 355.654 193.921C356.079 194.094 356.318 194.317 356.491 194.615C356.66 194.914 356.754 195.32 356.754 195.843C356.762 197.048 356.231 198.791 355.461 200.723C354.696 202.659 353.705 204.802 352.835 206.916C352.004 208.936 350.356 210.081 348.509 210.75C346.668 211.417 344.67 211.562 343.341 211.562C342.873 211.562 342.487 211.544 342.223 211.526C342.09 211.517 341.985 211.508 341.918 211.502L341.82 211.493C341.595 211.466 341.372 211.565 341.24 211.75C339.719 213.888 336.493 217.332 332.243 220.207C327.991 223.087 322.719 225.399 317.08 225.396C315.708 225.396 314.309 225.26 312.895 224.961C306.382 223.581 302.395 219.586 299.749 214.863C297.109 210.142 295.877 204.713 294.998 200.646C294.886 200.14 294.829 199.454 294.829 198.634C294.828 195.923 295.45 191.773 296.391 187.121C297.802 180.135 299.927 171.991 301.695 165.598C302.58 162.402 303.377 159.642 303.952 157.682C304.528 155.723 304.879 154.569 304.881 154.564L304.284 154.382Z" fill="#172C3A"/>
<path d="M350.952 191.914C350.952 191.914 360.85 176.33 361.557 171.018C362.261 165.705 358.729 147.996 347.418 139.495C336.11 130.995 317.025 129.932 318.085 133.828C319.144 137.723 321.618 138.078 321.618 138.078C321.618 138.078 299.352 135.598 297.585 141.62C295.818 147.641 305.36 151.184 305.36 151.184L304.3 154.371C304.3 154.371 302.067 161.698 299.701 170.626L300.414 170.663C300.414 170.663 301.472 167.475 302.886 162.516C304.3 157.559 307.127 151.891 321.266 153.308C335.403 154.725 349.538 162.162 350.245 167.475C350.952 172.787 344.944 174.913 347.066 177.393C349.185 179.872 352.014 180.933 350.245 182.706C348.48 184.476 344.944 191.914 347.066 192.976C349.185 194.038 352.721 192.269 352.721 192.269L352.816 192.27C351.517 191.914 350.952 191.914 350.952 191.914Z" fill="#172C3A"/>
<path d="M350.945 191.921L351.47 192.256C351.474 192.25 353.953 188.347 356.524 183.771C357.811 181.482 359.12 179.025 360.158 176.794C361.195 174.557 361.967 172.573 362.167 171.106C362.228 170.642 362.258 170.109 362.258 169.511C362.255 166.103 361.285 160.514 359.002 154.735C356.715 148.964 353.115 143.012 347.785 139.003C340.384 133.455 329.908 131.057 323.472 131.047C321.79 131.048 320.382 131.208 319.328 131.555C318.801 131.731 318.355 131.952 318.004 132.269C317.654 132.579 317.406 133.037 317.412 133.533C317.412 133.69 317.434 133.847 317.476 134C318.034 136.061 319.002 137.261 319.862 137.917C320.722 138.576 321.448 138.693 321.523 138.703L321.61 138.085L321.678 137.465C321.666 137.463 317.108 136.955 311.926 136.955C308.778 136.956 305.402 137.14 302.638 137.756C301.255 138.065 300.024 138.481 299.034 139.064C298.049 139.645 297.282 140.424 296.98 141.451C296.814 142.016 296.736 142.57 296.736 143.103C296.736 144.552 297.304 145.831 298.11 146.903C299.324 148.512 301.071 149.709 302.518 150.527C303.967 151.34 305.117 151.767 305.137 151.776L305.353 151.19L304.762 150.993L303.702 154.18L303.698 154.196C303.696 154.201 301.46 161.533 299.091 170.471C299.043 170.652 299.08 170.846 299.189 170.999C299.299 171.15 299.473 171.245 299.66 171.256L300.372 171.293C300.651 171.308 300.907 171.135 300.997 170.867C300.998 170.861 302.06 167.664 303.478 162.695C304.1 160.515 304.973 158.3 306.912 156.62C308.852 154.939 311.92 153.721 317.123 153.718C318.358 153.718 319.712 153.787 321.195 153.936C328.178 154.634 335.189 156.83 340.506 159.496C343.164 160.828 345.397 162.278 346.985 163.692C348.581 165.105 349.489 166.49 349.62 167.565C349.656 167.836 349.673 168.096 349.673 168.347C349.674 170.108 348.852 171.468 347.948 172.691C347.498 173.302 347.033 173.866 346.659 174.436C346.29 175.004 345.985 175.594 345.979 176.286C345.974 176.812 346.188 177.349 346.584 177.805C347.459 178.826 348.422 179.597 349.127 180.242C349.48 180.562 349.765 180.85 349.94 181.089C350.118 181.334 350.172 181.502 350.171 181.623C350.169 181.751 350.12 181.941 349.797 182.27C349.393 182.678 348.969 183.266 348.526 183.98C347.867 185.049 347.19 186.39 346.67 187.729C346.151 189.072 345.782 190.39 345.777 191.495C345.777 191.909 345.829 192.301 345.979 192.662C346.128 193.021 346.4 193.355 346.779 193.541C347.384 193.843 348.045 193.947 348.691 193.947C350.834 193.935 352.948 192.846 352.991 192.833L352.712 192.275L352.701 192.899L352.797 192.9C353.111 192.908 353.382 192.676 353.425 192.365C353.47 192.053 353.275 191.757 352.973 191.674C351.63 191.308 351.011 191.296 350.946 191.296L350.945 191.921L350.943 192.544H350.946C351.018 192.547 351.546 192.58 352.645 192.878L352.809 192.277L352.821 191.652L352.725 191.65L352.435 191.716L352.355 191.755C351.97 191.942 350.191 192.707 348.691 192.698C348.178 192.698 347.709 192.612 347.336 192.425C347.25 192.377 347.194 192.325 347.129 192.18C347.066 192.035 347.022 191.798 347.022 191.495C347.013 190.401 347.596 188.576 348.366 186.924C348.75 186.094 349.176 185.299 349.586 184.637C349.993 183.973 350.393 183.438 350.677 183.154C351.135 182.701 351.417 182.18 351.417 181.623C351.416 181.131 351.208 180.711 350.945 180.351C350.543 179.808 349.984 179.333 349.377 178.795C348.77 178.261 348.115 177.676 347.531 176.993C347.285 176.699 347.229 176.501 347.224 176.286C347.22 176.005 347.375 175.609 347.7 175.12C348.176 174.389 348.97 173.503 349.655 172.407C350.341 171.311 350.919 169.975 350.918 168.347C350.918 168.04 350.899 167.724 350.855 167.399C350.632 165.816 349.51 164.281 347.813 162.759C345.258 160.485 341.324 158.255 336.679 156.439C332.036 154.622 326.686 153.232 321.32 152.694C319.799 152.542 318.406 152.47 317.123 152.47C311.739 152.468 308.317 153.748 306.097 155.675C303.877 157.6 302.922 160.101 302.279 162.352C301.574 164.826 300.958 166.858 300.517 168.269C300.076 169.683 299.814 170.471 299.814 170.473L300.405 170.67L300.439 170.047L299.726 170.008L299.693 170.633L300.296 170.793C301.477 166.336 302.625 162.276 303.478 159.333C303.906 157.86 304.259 156.666 304.504 155.841C304.75 155.016 304.888 154.561 304.888 154.56L304.293 154.377L304.883 154.575L305.945 151.388C306.051 151.068 305.885 150.722 305.57 150.604L305.492 150.574C305.082 150.414 303.143 149.613 301.35 148.296C300.454 147.639 299.598 146.854 298.979 145.977C298.361 145.098 297.982 144.147 297.982 143.103C297.982 142.69 298.041 142.259 298.176 141.803C298.357 141.179 298.846 140.627 299.666 140.139C300.892 139.41 302.806 138.904 304.982 138.608C307.16 138.309 309.603 138.204 311.926 138.204C314.478 138.204 316.886 138.33 318.653 138.455C319.538 138.518 320.261 138.581 320.763 138.628C321.266 138.674 321.541 138.706 321.542 138.706C321.879 138.743 322.185 138.502 322.228 138.164C322.272 137.825 322.036 137.516 321.699 137.467C321.638 137.455 321.116 137.342 320.497 136.828C319.881 136.311 319.148 135.391 318.678 133.671L318.657 133.533C318.662 133.423 318.684 133.346 318.843 133.193C319.074 132.971 319.635 132.714 320.436 132.553C321.237 132.385 322.275 132.295 323.472 132.295C329.619 132.285 339.971 134.675 347.037 140.002C352.106 143.807 355.616 149.565 357.844 155.197C360.073 160.82 361.016 166.326 361.011 169.511C361.011 170.066 360.983 170.55 360.931 170.942C360.778 172.132 360.046 174.089 359.029 176.267C357.504 179.546 355.347 183.382 353.577 186.391C352.691 187.898 351.902 189.197 351.334 190.12C350.764 191.042 350.42 191.583 350.419 191.585C350.298 191.778 350.289 192.021 350.398 192.22C350.507 192.419 350.716 192.544 350.943 192.544L350.945 191.921Z" fill="#172C3A"/>
<path d="M213.774 194.681L202.656 216.342C202.656 216.342 205.149 220.451 214.255 222.14C223.36 223.83 226.029 222.915 226.029 222.915L235.356 192.314C235.356 192.314 240.414 188.936 241.087 185.218C241.761 181.502 241.087 170.35 242.099 165.281C243.111 160.212 250.53 152.44 246.82 151.427C243.111 150.413 239.064 153.116 238.052 157.847C237.04 162.578 235.356 167.984 235.356 167.984C235.356 167.984 231.983 163.928 231.645 160.55C231.309 157.171 232.995 155.481 230.635 154.805C228.274 154.129 212.762 165.617 212.088 169.337C211.414 173.053 213.774 194.681 213.774 194.681Z" fill="#F3B783"/>
<path d="M213.772 194.676L213.218 194.39L203.3 214.93L202.033 217.465C202.033 217.549 202.476 218.073 203.796 218.918C208.098 221.975 215.251 224.063 216.306 224.063C219.771 224.55 222.225 224.709 224.224 224.237C224.61 224.272 226.139 223.607 226.171 223.553L227.065 220.583L235.937 192.525L235.352 192.309L235.697 192.83C235.718 192.816 237.007 191.955 238.399 190.604C239.786 189.248 241.306 187.42 241.698 185.325C241.877 184.328 241.959 182.922 242.009 181.261C242.079 178.773 242.067 175.734 242.133 172.846C242.197 169.961 242.342 167.219 242.707 165.399C243.072 163.536 244.477 161.08 245.815 158.794C246.483 157.646 247.132 156.536 247.624 155.521C248.112 154.5 248.462 153.594 248.471 152.74C248.473 152.321 248.371 151.891 248.106 151.535C247.842 151.179 247.443 150.943 246.981 150.819C246.405 150.662 245.819 150.586 245.239 150.586C241.687 150.59 238.36 153.404 237.44 157.712C236.94 160.054 236.268 162.581 235.723 164.515C235.449 165.482 235.209 166.303 235.035 166.882C234.862 167.46 234.759 167.792 234.757 167.793L235.352 167.98L235.83 167.58C235.83 167.58 235.786 167.524 235.696 167.412C235.382 167.016 234.581 165.962 233.832 164.662C233.08 163.363 232.391 161.806 232.264 160.483C232.232 160.174 232.22 159.883 232.22 159.603C232.216 158.249 232.527 157.241 232.539 156.293C232.54 155.863 232.455 155.392 232.144 154.999C231.836 154.609 231.379 154.365 230.803 154.202C230.666 154.162 230.531 154.15 230.4 154.148C229.845 154.157 229.256 154.362 228.526 154.68C226.009 155.803 221.982 158.542 218.444 161.425C216.68 162.868 215.046 164.342 213.803 165.674C213.18 166.34 212.655 166.97 212.255 167.556C211.859 168.143 211.576 168.675 211.473 169.221C211.376 169.764 211.343 170.522 211.343 171.49C211.343 178.198 213.153 194.73 213.153 194.743L213.772 194.676L214.391 194.607C214.391 194.604 214.277 193.575 214.11 191.922C213.602 186.965 212.585 176.396 212.588 171.49C212.587 170.56 212.627 169.829 212.699 169.444C212.744 169.163 212.996 168.639 213.442 168.037C214.993 165.892 218.692 162.66 222.285 160.031C224.082 158.712 225.86 157.536 227.334 156.695C228.071 156.275 228.73 155.941 229.269 155.718C229.802 155.492 230.231 155.392 230.4 155.396L230.461 155.401C230.902 155.528 231.087 155.67 231.165 155.772C231.243 155.872 231.289 156.002 231.292 156.293C231.304 156.926 230.978 158.077 230.975 159.603C230.975 159.92 230.989 160.256 231.024 160.608C231.216 162.473 232.187 164.379 233.093 165.859C234.004 167.333 234.862 168.364 234.874 168.379C235.02 168.556 235.249 168.636 235.473 168.592C235.697 168.548 235.878 168.384 235.947 168.166C235.95 168.157 237.639 162.744 238.659 157.974C239.479 154.151 242.37 151.83 245.239 151.834C245.712 151.834 246.185 151.897 246.653 152.024C246.927 152.1 247.04 152.194 247.108 152.284C247.175 152.375 247.224 152.504 247.226 152.74C247.233 153.214 246.967 154.03 246.504 154.975C245.813 156.401 244.726 158.144 243.731 159.917C242.735 161.694 241.82 163.496 241.486 165.153C240.964 167.792 240.886 171.849 240.841 175.745C240.82 177.689 240.81 179.589 240.762 181.225C240.717 182.859 240.629 184.24 240.472 185.101C240.191 186.723 238.844 188.444 237.532 189.708C236.88 190.341 236.243 190.867 235.772 191.23C235.537 191.412 235.345 191.553 235.21 191.649L235.056 191.756L235.007 191.791C234.896 191.865 234.814 191.97 234.768 192.096L225.46 222.045C225.423 222.109 225.354 222.666 223.882 222.922C222.286 223.202 210.571 222.711 203.446 217.3C203.382 217.065 203.948 216.184 204.026 216.07L214.327 194.961C214.38 194.854 214.404 194.728 214.391 194.607L213.772 194.676Z" fill="#172C3A"/>
<path d="M234.086 139.916V169.141C234.086 170.175 234.922 171.014 235.955 171.014C236.986 171.014 237.823 170.175 237.823 169.141V139.916C237.823 138.882 236.986 138.043 235.955 138.043C234.922 138.043 234.086 138.882 234.086 139.916Z" fill="#172C3A"/>
<path d="M229.408 190.346L229.378 190.402C229.217 190.712 228.412 192.196 227.127 193.696C225.841 195.198 224.079 196.687 222.079 197.11C221.373 197.261 220.756 197.324 220.219 197.324C218.785 197.321 217.918 196.895 217.386 196.493C217.12 196.289 216.941 196.09 216.832 195.948L216.718 195.785L216.697 195.75L216.654 195.773L216.699 195.751L216.697 195.75L216.654 195.773L216.699 195.751C216.543 195.443 216.169 195.318 215.861 195.472C215.555 195.627 215.429 196.001 215.583 196.31C215.613 196.37 215.903 196.93 216.633 197.485C217.358 198.043 218.53 198.575 220.219 198.572C220.851 198.572 221.557 198.5 222.34 198.331C224.929 197.766 226.943 195.886 228.341 194.189C229.734 192.483 230.51 190.93 230.523 190.903C230.676 190.595 230.552 190.22 230.244 190.066C229.936 189.912 229.562 190.036 229.408 190.346Z" fill="#172C3A"/>
<path d="M217.317 162.15C217.317 162.15 216.012 161.403 217.504 160.281C218.995 159.16 224.215 156.731 225.894 155.798C227.571 154.864 230.181 163.832 231.112 167.008C232.043 170.183 232.417 170.931 231.112 170.931C229.807 170.931 228.69 170.931 227.012 167.569C225.333 164.204 224.402 163.083 224.402 163.083L221.233 163.645" fill="#F3B783"/>
<path d="M217.632 161.611L217.466 161.902L217.64 161.615L217.632 161.611L217.466 161.902L217.64 161.615L217.499 161.496L217.419 161.342L217.477 161.191C217.534 161.096 217.656 160.956 217.885 160.784C218.206 160.54 218.801 160.183 219.514 159.79C221.667 158.603 224.903 157.069 226.202 156.347L226.153 156.259V156.358L226.202 156.347L226.153 156.259V156.358V156.304L226.138 156.358L226.153 156.358V156.304L226.138 156.358C226.147 156.352 226.304 156.44 226.485 156.661C226.808 157.044 227.207 157.757 227.599 158.625C228.783 161.244 229.961 165.272 230.523 167.186C230.775 168.051 230.986 168.734 231.13 169.255C231.276 169.771 231.345 170.14 231.34 170.299L231.337 170.366L231.336 170.375L231.464 170.408L231.363 170.326L231.336 170.375L231.464 170.408L231.363 170.326L231.505 170.439L231.411 170.284L231.363 170.326L231.505 170.439L231.411 170.284L231.449 170.348L231.418 170.279L231.411 170.284L231.449 170.348L231.418 170.279L231.345 170.296L231.119 170.309C230.454 170.309 230.041 170.303 229.545 169.989C229.044 169.672 228.389 168.929 227.575 167.293C225.881 163.896 224.926 162.735 224.887 162.687C224.743 162.516 224.519 162.434 224.3 162.473L221.13 163.034C220.791 163.094 220.565 163.418 220.625 163.757C220.685 164.097 221.008 164.322 221.347 164.263L224.516 163.702L224.409 163.088L223.93 163.488L223.933 163.491C224.007 163.584 224.903 164.729 226.461 167.85C227.325 169.577 228.068 170.516 228.871 171.039C229.683 171.565 230.481 171.56 231.119 171.559C231.467 171.553 231.799 171.532 232.131 171.302C232.294 171.185 232.427 171.009 232.496 170.829C232.566 170.649 232.587 170.471 232.587 170.299C232.583 169.894 232.482 169.477 232.331 168.922C232.179 168.369 231.967 167.689 231.717 166.835C231.273 165.322 230.448 162.493 229.515 160.019C229.047 158.781 228.555 157.633 228.05 156.758C227.796 156.319 227.542 155.948 227.255 155.657C226.971 155.372 226.632 155.118 226.153 155.109C225.96 155.108 225.763 155.162 225.597 155.256C224.79 155.706 223.057 156.552 221.353 157.417C220.5 157.85 219.65 158.291 218.913 158.696C218.176 159.104 217.559 159.468 217.136 159.785C216.822 160.023 216.586 160.264 216.422 160.525C216.257 160.784 216.172 161.071 216.172 161.342C216.175 161.823 216.417 162.167 216.608 162.369C216.807 162.575 216.982 162.676 217.015 162.696C217.314 162.866 217.694 162.762 217.864 162.463C218.034 162.164 217.931 161.783 217.632 161.611Z" fill="#172C3A"/>
<path d="M213.214 165.314C213.214 165.314 211.909 164.567 213.401 163.446C214.891 162.324 220.111 159.897 221.789 158.962C223.467 158.028 226.076 166.996 227.01 170.171C227.941 173.348 228.314 174.095 227.01 174.095C225.704 174.095 224.587 174.095 222.908 170.732C221.229 167.37 220.298 166.248 220.298 166.248L217.129 166.809" fill="#F3B783"/>
<path d="M213.521 164.779L213.357 165.069L213.528 164.783L213.521 164.779L213.357 165.069L213.528 164.783L213.482 164.75L213.348 164.613L213.307 164.509L213.366 164.357C213.422 164.264 213.546 164.122 213.774 163.953C214.095 163.71 214.69 163.349 215.405 162.958C217.556 161.771 220.792 160.237 222.091 159.515L222.042 159.427V159.527L222.091 159.515L222.042 159.427V159.527V159.473L222.027 159.526L222.042 159.527V159.473L222.027 159.526C222.036 159.52 222.193 159.609 222.374 159.831C222.697 160.212 223.096 160.925 223.487 161.793C224.671 164.411 225.849 168.439 226.411 170.356C226.665 171.218 226.875 171.902 227.02 172.422C227.165 172.941 227.233 173.308 227.23 173.467L227.226 173.533L227.225 173.543L227.353 173.574L227.253 173.495L227.225 173.543L227.353 173.574L227.253 173.495L227.393 173.609L227.299 173.452L227.253 173.495L227.393 173.609L227.299 173.452L227.338 173.516L227.307 173.449L227.299 173.452L227.338 173.516L227.307 173.449L227.235 173.464L227.009 173.479C226.343 173.476 225.93 173.471 225.434 173.156C224.933 172.839 224.278 172.097 223.463 170.461C221.77 167.064 220.815 165.903 220.776 165.855C220.634 165.684 220.408 165.602 220.188 165.641L217.021 166.202C216.681 166.261 216.454 166.584 216.514 166.924C216.574 167.265 216.898 167.49 217.237 167.43L220.405 166.871L220.297 166.256L219.819 166.655L219.822 166.659C219.895 166.752 220.792 167.897 222.35 171.018C223.214 172.745 223.957 173.684 224.761 174.207C225.571 174.733 226.369 174.728 227.009 174.727C227.356 174.721 227.688 174.7 228.021 174.468C228.184 174.353 228.316 174.177 228.385 173.997C228.455 173.817 228.476 173.639 228.476 173.467C228.473 173.063 228.371 172.646 228.22 172.09C228.068 171.537 227.857 170.857 227.607 170.002C227.162 168.492 226.337 165.661 225.404 163.188C224.936 161.949 224.444 160.801 223.939 159.926C223.685 159.488 223.431 159.117 223.144 158.823C222.86 158.542 222.52 158.286 222.042 158.277C221.849 158.276 221.652 158.33 221.486 158.424C220.679 158.874 218.946 159.718 217.242 160.584C216.388 161.019 215.539 161.458 214.804 161.864C214.065 162.272 213.449 162.636 213.025 162.953C212.711 163.191 212.475 163.432 212.31 163.693C212.147 163.953 212.061 164.24 212.061 164.509C212.064 164.991 212.306 165.335 212.497 165.536C212.694 165.743 212.871 165.844 212.904 165.862C213.203 166.034 213.582 165.931 213.753 165.631C213.923 165.332 213.82 164.95 213.521 164.779Z" fill="#172C3A"/>
<path d="M214.115 171.371L217.824 174.751C217.824 174.751 219.174 178.467 221.196 178.807C223.22 179.143 223.22 177.116 221.196 173.4C219.174 169.682 218.162 163.937 216.812 163.599C215.463 163.261 210.068 167.991 210.068 167.991L212.767 176.778" fill="#F3B783"/>
<path d="M213.692 171.832L217.403 175.212L217.821 174.75L217.237 174.964C217.246 174.986 217.591 175.944 218.217 176.974C218.531 177.492 218.914 178.028 219.38 178.48C219.848 178.927 220.41 179.305 221.092 179.422C221.265 179.45 221.436 179.466 221.6 179.466C222.08 179.471 222.569 179.315 222.896 178.949C223.222 178.584 223.334 178.111 223.334 177.622C223.322 176.477 222.769 175.007 221.741 173.1C220.769 171.319 220.014 168.978 219.337 167.026C218.998 166.048 218.678 165.168 218.338 164.474C218.168 164.128 217.993 163.824 217.785 163.568C217.576 163.319 217.328 163.09 216.962 162.993L216.657 162.957C216.317 162.962 216.012 163.06 215.683 163.196C214.555 163.675 213.096 164.743 211.86 165.706C210.631 166.667 209.661 167.516 209.656 167.522C209.471 167.684 209.399 167.939 209.471 168.176L212.168 176.961C212.269 177.291 212.617 177.475 212.946 177.375C213.275 177.273 213.461 176.924 213.359 176.595L210.662 167.808L210.066 167.992L210.475 168.461C210.477 168.461 210.783 168.191 211.275 167.782C212.009 167.168 213.154 166.247 214.241 165.489C214.784 165.111 215.313 164.773 215.758 164.542C216.193 164.304 216.574 164.195 216.657 164.205H216.667L216.675 164.139L216.657 164.205H216.667L216.675 164.139L216.657 164.205C216.673 164.21 216.779 164.289 216.899 164.462C217.114 164.766 217.373 165.311 217.634 165.987C218.434 168.032 219.311 171.239 220.646 173.698C221.64 175.506 222.099 176.909 222.087 177.622C222.087 177.93 222.016 178.066 221.971 178.112C221.927 178.157 221.86 178.212 221.6 178.218C221.515 178.218 221.413 178.209 221.295 178.188C220.965 178.136 220.6 177.922 220.244 177.58C219.711 177.067 219.234 176.296 218.908 175.659C218.745 175.341 218.618 175.057 218.534 174.853L218.437 174.616L218.407 174.536L218.241 174.288L214.531 170.91C214.277 170.677 213.882 170.696 213.65 170.95C213.42 171.207 213.438 171.602 213.692 171.832Z" fill="#172C3A"/>
<path d="M231.239 152.57C231.239 152.57 227.834 152.57 227.509 155.496C227.185 158.421 229.293 159.233 232.375 158.582C235.455 157.934 236.915 155.008 235.779 153.382C234.643 151.758 231.239 152.57 231.239 152.57Z" fill="#FBB273"/>
<path d="M231.238 152.582V151.957C231.191 151.96 230.278 151.954 229.257 152.37C228.749 152.578 228.208 152.899 227.761 153.401C227.315 153.901 226.98 154.587 226.888 155.437C226.864 155.657 226.852 155.869 226.852 156.074C226.844 157.15 227.215 158.059 227.916 158.633C228.613 159.206 229.534 159.427 230.556 159.429C231.163 159.429 231.813 159.349 232.501 159.204C233.816 158.928 234.882 158.27 235.621 157.451C236.358 156.629 236.781 155.642 236.784 154.669C236.784 154.095 236.627 153.521 236.287 153.036C235.902 152.486 235.341 152.165 234.778 151.987C234.209 151.806 233.619 151.754 233.081 151.754C232.005 151.755 231.12 151.969 231.093 151.974L231.238 152.582L231.381 153.189L231.41 153.183C231.559 153.149 232.286 153.002 233.081 153.002C233.535 153.002 234.011 153.051 234.399 153.177C234.794 153.303 235.084 153.489 235.266 153.753C235.446 154.01 235.537 154.315 235.537 154.669C235.541 155.264 235.257 155.989 234.695 156.614C234.133 157.239 233.305 157.76 232.244 157.983C231.623 158.115 231.054 158.179 230.556 158.179C229.705 158.18 229.087 157.988 228.711 157.671C228.338 157.354 228.104 156.898 228.097 156.074C228.097 155.92 228.106 155.753 228.127 155.576C228.197 154.965 228.409 154.554 228.693 154.229C229.115 153.75 229.747 153.476 230.293 153.341C230.565 153.274 230.809 153.238 230.981 153.222L231.179 153.207H231.238L231.381 153.189L231.238 152.582Z" fill="#172C3A"/>
<path d="M374.728 357.614C374.728 357.614 363.88 357.901 360.454 361.907C357.028 365.912 356.742 385.655 356.742 388.801C356.742 391.948 363.024 401.391 374.444 403.68C385.864 405.968 395.571 399.101 395.857 391.948C396.143 384.797 400.996 365.341 399.853 357.901C398.712 350.462 393.858 347.887 393.858 347.887" fill="#EF7E22"/>
<path d="M374.71 356.994C374.691 356.995 371.957 357.065 368.762 357.648C367.166 357.938 365.454 358.357 363.899 358.968C362.348 359.581 360.943 360.384 359.978 361.504C358.981 362.694 358.345 364.727 357.817 367.234C356.273 374.729 356.119 386.416 356.117 388.805C356.126 389.79 356.563 391.015 357.358 392.442C359.747 396.678 365.536 402.526 374.32 404.296C375.887 404.608 377.424 404.756 378.911 404.756C383.733 404.755 388.033 403.22 391.179 400.865C394.322 398.514 396.34 395.321 396.477 391.977C396.598 388.866 397.637 383.19 398.651 377.242C399.661 371.283 400.646 365.042 400.648 360.617C400.648 359.577 400.594 358.635 400.467 357.81C399.88 353.968 398.319 351.348 396.897 349.699C395.476 348.05 394.198 347.365 394.148 347.338C393.843 347.177 393.467 347.293 393.307 347.598C393.145 347.902 393.26 348.282 393.565 348.442L393.57 348.445C393.662 348.495 394.818 349.153 396.077 350.66C397.334 352.167 398.7 354.514 399.235 358C399.349 358.737 399.403 359.62 399.401 360.617C399.404 364.867 398.433 371.093 397.422 377.032C396.413 382.984 395.366 388.636 395.232 391.927C395.123 394.781 393.357 397.678 390.433 399.865C387.515 402.052 383.467 403.508 378.911 403.508C377.504 403.508 376.05 403.369 374.564 403.07C368.997 401.955 364.677 399.094 361.751 396.126C360.291 394.645 359.179 393.138 358.443 391.829C357.703 390.527 357.353 389.393 357.362 388.805C357.362 387.247 357.434 381.532 357.932 375.732C358.18 372.833 358.536 369.911 359.037 367.486C359.527 365.067 360.21 363.129 360.926 362.317C361.675 361.435 362.91 360.696 364.355 360.131C366.523 359.276 369.135 358.796 371.191 358.539C372.22 358.411 373.112 358.336 373.745 358.293C374.06 358.273 374.313 358.26 374.485 358.252C374.655 358.245 374.743 358.242 374.743 358.242C375.087 358.233 375.359 357.946 375.35 357.602C375.341 357.257 375.054 356.985 374.71 356.994Z" fill="#172C3A"/>
<path d="M386.913 398.742C386.913 398.742 387.533 392.108 385.576 388.493C383.62 384.878 373.329 381.158 370.56 382.71C367.791 384.263 369.519 386.122 367.043 387.637C364.566 389.15 354.825 391.91 353.124 394.814C351.422 397.713 350.611 402.882 348.161 409.157C345.711 415.432 342.256 418.561 346.677 418.283C351.098 418.003 353.93 414.656 355.009 411.539C356.086 408.42 358.818 406.576 358.818 406.576C358.818 406.576 353.26 425.463 354.658 427.068C356.056 428.671 357.263 428.813 357.263 428.813C357.263 428.813 356.843 432.441 359.004 433.05C361.163 433.663 362.763 432.264 362.763 432.264C362.763 432.264 365.661 433.969 367.121 433.779C368.581 433.588 369.637 432.557 369.637 432.557C369.637 432.557 374.679 432.495 375.834 429.963C376.988 427.429 382.424 418.978 384.836 412.411C387.246 405.844 386.913 398.742 386.913 398.742Z" fill="#F3B783"/>
<path d="M386.924 398.747L387.563 398.807C387.566 398.78 387.847 395.803 387.44 392.678C387.235 391.115 386.864 389.511 386.152 388.193C385.627 387.233 384.698 386.376 383.55 385.577C381.827 384.387 379.59 383.354 377.409 382.647C375.22 381.948 373.114 381.566 371.543 381.762C371.069 381.825 370.636 381.943 370.256 382.154C369.492 382.58 368.986 383.068 368.66 383.58C368.173 384.355 368.097 385.087 367.913 385.629C367.722 386.173 367.524 386.583 366.717 387.093C366.179 387.423 365.111 387.885 363.833 388.395C361.91 389.169 359.483 390.083 357.357 391.09C356.293 391.593 355.304 392.119 354.48 392.674C353.655 393.231 352.987 393.807 352.58 394.492C351.67 396.048 351.042 398.098 350.317 400.542C349.593 402.985 348.784 405.823 347.573 408.927C346.762 411.007 345.832 412.742 345.114 414.143C344.756 414.843 344.447 415.459 344.23 416.01C344.018 416.565 343.871 417.051 343.932 417.578C343.963 417.827 344.061 418.09 344.236 418.3C344.501 418.622 344.875 418.788 345.278 418.871C345.687 418.954 346.157 418.968 346.728 418.932C346.948 418.919 347.164 418.898 347.377 418.869C349.561 418.586 351.367 417.583 352.741 416.27C354.119 414.956 355.08 413.334 355.626 411.757C356.121 410.32 357.015 409.147 357.792 408.339C358.178 407.937 358.533 407.628 358.789 407.419C358.917 407.315 359.021 407.238 359.09 407.185L359.168 407.13L359.188 407.115L358.828 406.581L358.211 406.397C358.21 406.404 357.004 410.5 355.854 415.053C355.278 417.329 354.717 419.718 354.327 421.774C354.131 422.801 353.979 423.745 353.89 424.56C353.8 425.374 353.768 426.047 353.835 426.589C353.885 426.911 353.942 427.204 354.184 427.497C355.689 429.232 357.076 429.449 357.2 429.459L357.272 428.82L356.634 428.744C356.632 428.776 356.535 429.586 356.662 430.567C356.738 431.139 356.888 431.774 357.212 432.354C357.532 432.932 358.074 433.463 358.841 433.677C359.519 433.869 360.158 433.89 360.72 433.816C362.217 433.615 363.144 432.795 363.198 432.754L362.774 432.27L362.45 432.825C362.461 432.833 363.201 433.269 364.144 433.689C364.616 433.896 365.141 434.101 365.663 434.248C366.186 434.393 366.702 434.486 367.215 434.422C368.931 434.186 370.044 433.062 370.095 433.024L369.646 432.563L369.654 433.206C369.673 433.207 370.257 433.199 371.083 433.091C371.909 432.982 372.973 432.779 373.974 432.361C374.967 431.943 375.937 431.302 376.429 430.237C376.696 429.649 377.251 428.644 377.957 427.4C380.084 423.648 383.606 417.652 385.449 412.64C387.912 405.915 387.565 398.762 387.567 398.716L386.924 398.747L386.282 398.777C386.282 398.777 386.287 398.877 386.29 399.078C386.324 400.484 386.305 406.585 384.242 412.194C383.06 415.417 381.109 419.153 379.312 422.392C378.412 424.011 377.551 425.508 376.839 426.763C376.129 428.019 375.569 429.021 375.259 429.701C374.981 430.324 374.321 430.822 373.477 431.172C372.642 431.522 371.67 431.717 370.916 431.814C370.538 431.863 370.213 431.89 369.987 431.904L369.724 431.917L369.637 431.919C369.474 431.921 369.315 431.987 369.197 432.102L369.195 432.106C369.123 432.18 368.177 433.01 367.048 433.145C366.83 433.178 366.438 433.13 366.006 433.007C365.356 432.827 364.616 432.501 364.052 432.221C363.768 432.081 363.529 431.953 363.36 431.86C363.192 431.769 363.101 431.714 363.099 431.714C362.862 431.574 362.559 431.602 362.351 431.783C362.307 431.825 361.571 432.411 360.553 432.539C360.143 432.593 359.689 432.579 359.189 432.437C358.793 432.321 358.545 432.087 358.332 431.72C358.126 431.358 357.998 430.869 357.937 430.401C357.885 429.998 357.878 429.613 357.885 429.332C357.889 429.194 357.896 429.079 357.901 429.002L357.909 428.917L357.912 428.893C357.953 428.54 357.699 428.219 357.346 428.179L357.317 428.445L357.357 428.18L357.346 428.179L357.317 428.445L357.357 428.18C357.339 428.173 356.361 428.033 355.152 426.651L355.058 426.733L355.17 426.673L355.152 426.651L355.058 426.733L355.17 426.673C355.165 426.669 355.129 426.574 355.111 426.423C355.065 426.079 355.081 425.462 355.167 424.701C355.462 422.021 356.534 417.51 357.529 413.702C358.027 411.795 358.507 410.06 358.861 408.802C359.214 407.544 359.444 406.767 359.446 406.764C359.522 406.503 359.428 406.223 359.209 406.062C358.989 405.901 358.694 405.894 358.468 406.046C358.422 406.088 355.588 407.973 354.412 411.335C353.93 412.729 353.064 414.183 351.854 415.337C350.643 416.491 349.099 417.344 347.21 417.592C347.026 417.614 346.838 417.634 346.648 417.647C345.977 417.692 345.535 417.633 345.354 417.557L345.229 417.483L345.206 417.412C345.183 417.295 345.238 416.949 345.426 416.482C345.979 415.06 347.506 412.631 348.77 409.398C350.008 406.226 350.828 403.342 351.55 400.908C352.267 398.475 352.895 396.49 353.689 395.145C353.993 394.605 354.849 393.902 356 393.243C357.726 392.241 360.089 391.269 362.245 390.412C363.326 389.983 364.357 389.581 365.241 389.212C366.127 388.841 366.862 388.512 367.388 388.193C368.086 387.769 368.539 387.274 368.82 386.766C369.236 385.999 369.294 385.307 369.498 384.781C369.703 384.253 369.956 383.814 370.884 383.278C371.065 383.176 371.349 383.086 371.71 383.041C372.516 382.933 373.691 383.036 374.99 383.322C376.941 383.749 379.186 384.576 381.074 385.582C382.965 386.58 384.494 387.8 385.022 388.807C385.615 389.897 385.976 391.373 386.166 392.844C386.359 394.319 386.388 395.787 386.369 396.881C386.36 397.429 386.338 397.884 386.319 398.199C386.301 398.516 386.284 398.686 386.284 398.686L386.282 398.777L386.924 398.747Z" fill="#172C3A"/>
<path d="M357.838 429.098L367.955 408.722C368.113 408.401 367.984 408.016 367.666 407.857C367.348 407.698 366.962 407.829 366.804 408.147L356.686 428.525C356.529 428.842 356.658 429.228 356.976 429.387C357.294 429.547 357.68 429.417 357.838 429.098Z" fill="#172C3A"/>
<path d="M363.327 432.589L374.981 412.608C375.161 412.3 375.058 411.904 374.751 411.725C374.445 411.545 374.051 411.649 373.871 411.956L362.217 431.939C362.038 432.245 362.141 432.639 362.447 432.819C362.754 432.998 363.148 432.895 363.327 432.589Z" fill="#172C3A"/>
<path d="M370.173 432.917L379.632 418.88C379.828 418.585 379.751 418.184 379.458 417.986C379.162 417.786 378.763 417.863 378.565 418.158L369.106 432.196C368.907 432.49 368.986 432.89 369.279 433.088C369.575 433.288 369.974 433.211 370.173 432.917Z" fill="#172C3A"/>
<path d="M359.465 406.684L360.771 398.472C360.826 398.121 360.587 397.791 360.236 397.735C359.886 397.679 359.555 397.918 359.5 398.269L358.195 406.48C358.14 406.831 358.379 407.162 358.729 407.217C359.079 407.274 359.408 407.035 359.465 406.684Z" fill="#172C3A"/>
</g>
<path d="M298.528 214.559C298.182 218.72 296.172 234.33 296.172 238.233C296.178 242.882 296.762 247.053 298.973 249.951C299.937 251.204 300.009 251.547 301.145 252.263C301.145 252.263 296.273 263.592 300.54 286.601C300.54 286.601 307.644 255.339 308.907 253.655" stroke="#172C3A" stroke-width="1.49487" stroke-linecap="round" stroke-linejoin="round"/>
<path d="M340.738 235.48C340.738 235.48 358.876 242.135 367.202 249.074C367.202 249.074 370.75 252.424 375.853 272.224C380.956 292.024 392.076 334.774 392.076 334.774L395.836 349.381" stroke="#172C3A" stroke-width="1.49487" stroke-linecap="round" stroke-linejoin="round"/>
<path d="M353.715 344.367C353.715 344.367 350.344 366.151 351.017 370.725C351.69 375.298 354.512 391.31 354.512 391.31" stroke="#172C3A" stroke-width="1.34538" stroke-linecap="round" stroke-linejoin="round"/>
<path d="M197.139 207.051C197.139 207.051 197.029 218.085 211.94 222.484C221.691 225.36 228.566 224.588 232.371 217.645" stroke="#172C3A" stroke-width="1.49487" stroke-linecap="round" stroke-linejoin="round"/>
<path d="M392.273 398.934C392.273 398.934 392.383 387.899 377.472 383.501C367.721 380.625 361.779 382.117 357.041 389.059" stroke="#172C3A" stroke-width="1.49487" stroke-linecap="round" stroke-linejoin="round"/>
<path d="M338.141 426.406L341.41 367.84L345.619 410.137" stroke="#172C3A" stroke-width="1.34538" stroke-linecap="round" stroke-linejoin="round"/>
</g>
<defs>
<clipPath id="clip0_10364_124427">
<rect width="583" height="511.246" fill="white"/>
</clipPath>
</defs>
</svg>
